<svg width="24" height="24" fill="none" xmlns="http://www.w3.org/2000/svg"><path d="M11.994 24C18.571 24 24 18.569 24 12S18.56 0 11.983 0C5.417 0 0 5.431 0 12s5.429 12 11.994 12zM8.04 17.06a1.097 1.097 0 0 1-1.102-1.114c0-.279.116-.557.336-.766l3.155-3.168-3.155-3.157a1.058 1.058 0 0 1-.336-.766c0-.627.487-1.103 1.102-1.103.324 0 .58.105.788.314l3.167 3.157 3.178-3.169c.232-.22.476-.325.79-.325.614 0 1.101.488 1.101 1.103 0 .29-.116.545-.336.777l-3.155 3.169 3.155 3.156c.209.22.325.488.325.778a1.1 1.1 0 0 1-1.114 1.114c-.313 0-.58-.116-.8-.325l-3.144-3.145-3.143 3.145c-.21.22-.488.325-.812.325z" fill="#fff"/></svg>