<svg width="12" height="12" viewBox="0 0 12 12" fill="none" xmlns="http://www.w3.org/2000/svg">
<path d="M0.237494 11.756C0.565316 12.0764 1.10175 12.0764 1.41468 11.7634L5.99674 7.18138L10.5788 11.7634C10.8992 12.0764 11.4356 12.0838 11.756 11.756C12.0764 11.4356 12.0764 10.8992 11.7634 10.5863L7.18138 5.99674L11.7634 1.41468C12.0764 1.10175 12.0838 0.557866 11.756 0.244944C11.4282 -0.0754283 10.8992 -0.0754283 10.5788 0.237494L5.99674 4.81956L1.41468 0.237494C1.10175 -0.0754283 0.557866 -0.0828788 0.237494 0.237494C-0.0828788 0.565316 -0.0754283 1.1092 0.237494 1.41468L4.81956 5.99674L0.237494 10.5863C-0.0754283 10.8917 -0.0828788 11.4431 0.237494 11.756Z" fill="black"/>
</svg>
