<svg width="20" height="20" fill="none" xmlns="http://www.w3.org/2000/svg"><path d="M3.03 15.56h1.567v1.406c0 1.992 1.04 3.034 3.03 3.034h9.342C18.96 20 20 18.958 20 16.966V7.464c0-1.992-1.041-3.034-3.03-3.034h-1.567V3.034c0-1.992-1.041-3.034-3.03-3.034H3.03C1.03 0 0 1.042 0 3.034v9.493c0 2 1.032 3.034 3.03 3.034zm.12-1.851c-.847 0-1.317-.447-1.317-1.35V3.201c0-.902.47-1.34 1.318-1.34h9.101c.839 0 1.318.438 1.318 1.34V4.43H7.628c-1.99 0-3.031 1.042-3.031 3.034v6.245H3.151zm4.598 4.43c-.848 0-1.309-.447-1.309-1.34V7.63c0-.893.461-1.34 1.309-1.34h9.101c.848 0 1.318.447 1.318 1.34V16.8c0 .893-.47 1.34-1.318 1.34H7.748z" fill="#AAB8C6"/></svg>