<svg width="24" height="22" fill="none" xmlns="http://www.w3.org/2000/svg"><path d="M3.293 22h10.789c2.168 0 3.292-1.138 3.292-3.333v-4.573H15.39v4.451c0 .945-.497 1.463-1.48 1.463H3.456c-.983 0-1.47-.518-1.47-1.463V3.455c0-.945.487-1.463 1.47-1.463H13.91c.982 0 1.479.518 1.479 1.463v4.46h1.985V3.334C17.374 1.148 16.25 0 14.082 0H3.292C1.126 0 0 1.148 0 3.333v15.334C0 20.862 1.125 22 3.293 22zm6.524-10.07h10.212l1.5-.071-.74.63-1.51 1.422a.85.85 0 0 0-.284.63c0 .458.345.844.81.844.244 0 .426-.102.599-.275l3.282-3.404c.233-.244.314-.467.314-.711 0-.244-.081-.467-.314-.711l-3.282-3.415c-.173-.172-.355-.264-.598-.264-.466 0-.81.366-.81.833 0 .224.1.468.283.63l1.51 1.433.75.63-1.51-.081H9.817c-.497 0-.922.427-.922.945s.425.935.922.935z" fill="#AAB8C6"/></svg>