<svg width="24" height="16" fill="none" xmlns="http://www.w3.org/2000/svg"><path d="M18.962 15.793a.704.704 0 0 0 .997 0 .666.666 0 0 0 0-.974L4.985.204a.712.712 0 0 0-.997 0 .686.686 0 0 0 0 .965l14.974 14.624zm.83-2.638C22.367 11.465 24 9.18 24 8.162c0-1.742-4.844-7.39-12-7.39-1.5 0-2.903.25-4.174.665l2.418 2.362a4.789 4.789 0 0 1 1.765-.336c2.673 0 4.835 2.078 4.835 4.708 0 .603-.132 1.19-.37 1.716l3.317 3.268zM12 15.56c1.615 0 3.115-.284 4.438-.759l-2.435-2.38c-.6.294-1.28.449-1.994.449-2.691 0-4.835-2.147-4.844-4.7 0-.715.159-1.387.45-1.982l-3.186-3.13C1.685 4.782 0 7.145 0 8.162c0 1.75 4.932 7.398 12 7.398zm2.823-7.57c0-1.51-1.235-2.725-2.788-2.725a2.92 2.92 0 0 0-.282.017l3.053 2.975a2.41 2.41 0 0 0 .018-.267zm-5.655.034c0 1.51 1.27 2.725 2.806 2.725.105 0 .203-.009.3-.017L9.184 7.714a3.66 3.66 0 0 0-.017.31z" fill="#AAB8C6"/></svg>