<svg width="24" height="24" fill="none" xmlns="http://www.w3.org/2000/svg"><path d="M11.994 24C18.571 24 24 18.569 24 12S18.56 0 11.983 0C5.417 0 0 5.431 0 12s5.429 12 11.994 12zM6.148 13.462a.916.916 0 0 1-.928-.928c0-.522.406-.929.928-.929h4.918V4.944c0-.522.406-.929.917-.929.533 0 .94.407.94.929v7.59a.92.92 0 0 1-.94.928H6.148z" fill="url(#a)"/><defs><linearGradient id="a" x1="0" y1="0" x2="24" y2="24" gradientUnits="userSpaceOnUse"><stop stop-color="#09ABFE"/><stop offset="1" stop-color="#3789F0"/></linearGradient></defs></svg>