<svg width="316" height="370" fill="none" xmlns="http://www.w3.org/2000/svg"><path d="M14.74 338.752c0-.312.016-.636.048-.972.032-.336.088-.664.168-.984.088-.328.2-.64.336-.936a2.82 2.82 0 0 1 .54-.768c.224-.224.484-.4.78-.528a2.564 2.564 0 0 1 1.056-.204c.4 0 .748.068 1.044.204.304.128.564.304.78.528.224.216.404.472.54.768.144.296.256.608.336.936.088.32.148.648.18.984.032.336.048.66.048.972 0 .448-.04.928-.12 1.44-.08.512-.228.988-.444 1.428-.216.44-.516.804-.9 1.092-.376.288-.864.432-1.464.432s-1.092-.144-1.476-.432a3.042 3.042 0 0 1-.888-1.092 4.956 4.956 0 0 1-.444-1.428 9.355 9.355 0 0 1-.12-1.44zm1.152 0c0 .28.016.612.048.996.04.384.12.756.24 1.116.12.352.296.652.528.9.24.248.56.372.96.372.4 0 .716-.124.948-.372.24-.248.42-.548.54-.9.12-.36.196-.732.228-1.116.04-.384.06-.716.06-.996 0-.192-.008-.408-.024-.648a4.709 4.709 0 0 0-.084-.744c-.04-.256-.1-.5-.18-.732a2.267 2.267 0 0 0-.324-.636 1.45 1.45 0 0 0-.48-.456 1.334 1.334 0 0 0-.684-.168c-.264 0-.492.056-.684.168a1.568 1.568 0 0 0-.492.456 2.48 2.48 0 0 0-.312.636 5.16 5.16 0 0 0-.192.732 7.84 7.84 0 0 0-.084.744c-.008.24-.012.456-.012.648zM3.523 288.824l-1.56 1.44-.672-.804 2.364-1.956h1.02V296H3.523v-7.176zm3.636 2.928c0-.312.016-.636.048-.972.032-.336.088-.664.168-.984.088-.328.2-.64.336-.936a2.82 2.82 0 0 1 .54-.768c.224-.224.484-.4.78-.528a2.564 2.564 0 0 1 1.056-.204c.4 0 .748.068 1.044.204.304.128.564.304.78.528.224.216.404.472.54.768.144.296.256.608.336.936.088.32.148.648.18.984.032.336.048.66.048.972 0 .448-.04.928-.12 1.44-.08.512-.228.988-.444 1.428-.216.44-.516.804-.9 1.092-.376.288-.864.432-1.464.432s-1.092-.144-1.476-.432a3.042 3.042 0 0 1-.888-1.092 4.956 4.956 0 0 1-.444-1.428 9.355 9.355 0 0 1-.12-1.44zm1.152 0c0 .28.016.612.048.996.04.384.12.756.24 1.116.12.352.296.652.528.9.24.248.56.372.96.372.4 0 .716-.124.948-.372.24-.248.42-.548.54-.9.12-.36.196-.732.228-1.116.04-.384.06-.716.06-.996 0-.192-.008-.408-.024-.648a4.709 4.709 0 0 0-.084-.744c-.04-.256-.1-.5-.18-.732a2.267 2.267 0 0 0-.324-.636 1.45 1.45 0 0 0-.48-.456 1.334 1.334 0 0 0-.684-.168c-.264 0-.492.056-.684.168a1.568 1.568 0 0 0-.492.456 2.48 2.48 0 0 0-.312.636 5.16 5.16 0 0 0-.192.732 7.84 7.84 0 0 0-.084.744c-.008.24-.012.456-.012.648zm6-4.248h1.152v3.672h.096l3.756-3.672h1.608l-4.104 3.924 4.38 4.572h-1.68l-3.96-4.248h-.096V296H14.31v-8.496zM.835 246.776l3.408-3.384c.12-.112.236-.232.348-.36.112-.136.212-.276.3-.42a1.94 1.94 0 0 0 .204-.456c.056-.16.084-.328.084-.504 0-.208-.04-.396-.12-.564a1.092 1.092 0 0 0-.312-.42 1.297 1.297 0 0 0-.468-.276 1.638 1.638 0 0 0-.564-.096c-.416 0-.76.116-1.032.348-.272.232-.444.552-.516.96l-1.248-.108c.056-.376.164-.7.324-.972.168-.28.372-.512.612-.696.248-.184.528-.32.84-.408.32-.088.664-.132 1.032-.132s.712.052 1.032.156c.328.096.612.244.852.444.248.192.44.436.576.732.144.288.216.628.216 1.02 0 .28-.044.544-.132.792-.08.24-.188.468-.324.684-.136.216-.292.42-.468.612-.176.192-.36.38-.552.564l-2.796 2.7h4.272V248H.835v-1.224zm6.324-3.024c0-.312.016-.636.048-.972.032-.336.088-.664.168-.984.088-.328.2-.64.336-.936a2.82 2.82 0 0 1 .54-.768c.224-.224.484-.4.78-.528a2.564 2.564 0 0 1 1.056-.204c.4 0 .748.068 1.044.204.304.128.564.304.78.528.224.216.404.472.54.768.144.296.256.608.336.936.088.32.148.648.18.984.032.336.048.66.048.972 0 .448-.04.928-.12 1.44-.08.512-.228.988-.444 1.428-.216.44-.516.804-.9 1.092-.376.288-.864.432-1.464.432s-1.092-.144-1.476-.432a3.042 3.042 0 0 1-.888-1.092 4.956 4.956 0 0 1-.444-1.428 9.355 9.355 0 0 1-.12-1.44zm1.152 0c0 .28.016.612.048.996.04.384.12.756.24 1.116.12.352.296.652.528.9.24.248.56.372.96.372.4 0 .716-.124.948-.372.24-.248.42-.548.54-.9.12-.36.196-.732.228-1.116.04-.384.06-.716.06-.996 0-.192-.008-.408-.024-.648a4.709 4.709 0 0 0-.084-.744c-.04-.256-.1-.5-.18-.732a2.267 2.267 0 0 0-.324-.636 1.45 1.45 0 0 0-.48-.456 1.334 1.334 0 0 0-.684-.168c-.264 0-.492.056-.684.168a1.568 1.568 0 0 0-.492.456 2.48 2.48 0 0 0-.312.636 5.16 5.16 0 0 0-.192.732 7.84 7.84 0 0 0-.084.744c-.008.24-.012.456-.012.648zm6-4.248h1.152v3.672h.096l3.756-3.672h1.608l-4.104 3.924 4.38 4.572h-1.68l-3.96-4.248h-.096V248H14.31v-8.496zM2.047 197.924c.136.408.316.712.54.912.232.2.572.3 1.02.3.224 0 .432-.036.624-.108.2-.08.376-.184.528-.312.152-.136.272-.296.36-.48.088-.192.132-.404.132-.636 0-.352-.076-.632-.228-.84a1.311 1.311 0 0 0-.564-.48 2.373 2.373 0 0 0-.768-.216 7.288 7.288 0 0 0-.828-.048v-1.008c.44 0 .8-.028 1.08-.084.28-.064.5-.152.66-.264a.897.897 0 0 0 .336-.42c.064-.168.096-.356.096-.564 0-.456-.136-.8-.408-1.032-.272-.232-.612-.348-1.02-.348-.312 0-.596.092-.852.276a1.65 1.65 0 0 0-.564.708l-1.176-.396c.224-.544.564-.944 1.02-1.2.464-.264.98-.396 1.548-.396.344 0 .672.048.984.144.32.088.6.228.84.42.24.192.428.436.564.732.144.288.216.628.216 1.02 0 .448-.136.848-.408 1.2a1.969 1.969 0 0 1-1.044.72v.024c.264.048.5.136.708.264.208.128.384.288.528.48.144.192.252.408.324.648.072.232.108.48.108.744 0 .408-.08.768-.24 1.08-.152.304-.36.56-.624.768-.256.2-.556.352-.9.456a3.592 3.592 0 0 1-1.068.156c-.648 0-1.22-.148-1.716-.444-.488-.296-.828-.764-1.02-1.404l1.212-.372zm5.112-2.172c0-.312.016-.636.048-.972.032-.336.088-.664.168-.984.088-.328.2-.64.336-.936a2.82 2.82 0 0 1 .54-.768c.224-.224.484-.4.78-.528a2.564 2.564 0 0 1 1.056-.204c.4 0 .748.068 1.044.204.304.128.564.304.78.528.224.216.404.472.54.768.144.296.256.608.336.936.088.32.148.648.18.984.032.336.048.66.048.972 0 .448-.04.928-.12 1.44-.08.512-.228.988-.444 1.428-.216.44-.516.804-.9 1.092-.376.288-.864.432-1.464.432s-1.092-.144-1.476-.432a3.042 3.042 0 0 1-.888-1.092 4.956 4.956 0 0 1-.444-1.428 9.355 9.355 0 0 1-.12-1.44zm1.152 0c0 .28.016.612.048.996.04.384.12.756.24 1.116.12.352.296.652.528.9.24.248.56.372.96.372.4 0 .716-.124.948-.372.24-.248.42-.548.54-.9.12-.36.196-.732.228-1.116.04-.384.06-.716.06-.996 0-.192-.008-.408-.024-.648a4.709 4.709 0 0 0-.084-.744c-.04-.256-.1-.5-.18-.732a2.267 2.267 0 0 0-.324-.636 1.45 1.45 0 0 0-.48-.456 1.334 1.334 0 0 0-.684-.168c-.264 0-.492.056-.684.168a1.568 1.568 0 0 0-.492.456 2.48 2.48 0 0 0-.312.636 5.16 5.16 0 0 0-.192.732 7.84 7.84 0 0 0-.084.744c-.008.24-.012.456-.012.648zm6-4.248h1.152v3.672h.096l3.756-3.672h1.608l-4.104 3.924 4.38 4.572h-1.68l-3.96-4.248h-.096V200H14.31v-8.496zM4.315 150.128H.69v-1.176l3.384-5.448h1.392v5.616h1.2v1.008h-1.2V152H4.315v-1.872zm0-5.256H4.29l-2.592 4.248h2.616v-4.248zm2.844 2.88c0-.312.016-.636.048-.972.032-.336.088-.664.168-.984.088-.328.2-.64.336-.936a2.82 2.82 0 0 1 .54-.768c.224-.224.484-.4.78-.528a2.564 2.564 0 0 1 1.056-.204c.4 0 .748.068 1.044.204.304.128.564.304.78.528.224.216.404.472.54.768.144.296.256.608.336.936.088.32.148.648.18.984.032.336.048.66.048.972 0 .448-.04.928-.12 1.44-.08.512-.228.988-.444 1.428-.216.44-.516.804-.9 1.092-.376.288-.864.432-1.464.432s-1.092-.144-1.476-.432a3.042 3.042 0 0 1-.888-1.092 4.956 4.956 0 0 1-.444-1.428 9.355 9.355 0 0 1-.12-1.44zm1.152 0c0 .28.016.612.048.996.04.384.12.756.24 1.116.12.352.296.652.528.9.24.248.56.372.96.372.4 0 .716-.124.948-.372.24-.248.42-.548.54-.9.12-.36.196-.732.228-1.116.04-.384.06-.716.06-.996 0-.192-.008-.408-.024-.648a4.709 4.709 0 0 0-.084-.744c-.04-.256-.1-.5-.18-.732a2.267 2.267 0 0 0-.324-.636 1.45 1.45 0 0 0-.48-.456 1.334 1.334 0 0 0-.684-.168c-.264 0-.492.056-.684.168a1.568 1.568 0 0 0-.492.456 2.48 2.48 0 0 0-.312.636 5.16 5.16 0 0 0-.192.732 7.84 7.84 0 0 0-.084.744c-.008.24-.012.456-.012.648zm6-4.248h1.152v3.672h.096l3.756-3.672h1.608l-4.104 3.924 4.38 4.572h-1.68l-3.96-4.248h-.096V152H14.31v-8.496zM5.935 98.584H2.49l-.036 2.124c.056-.024.136-.048.24-.072a4.284 4.284 0 0 1 .9-.108c.4 0 .76.068 1.08.204a2.385 2.385 0 0 1 1.368 1.464c.128.344.192.724.192 1.14 0 .424-.08.808-.24 1.152a2.62 2.62 0 0 1-.636.888c-.272.248-.588.44-.948.576a3.45 3.45 0 0 1-1.164.192 2.84 2.84 0 0 1-1.56-.444c-.464-.296-.796-.72-.996-1.272l1.164-.396c.152.392.356.676.612.852.256.168.576.252.96.252.224 0 .436-.04.636-.12.208-.08.384-.192.528-.336a1.65 1.65 0 0 0 .36-.552c.088-.216.132-.46.132-.732 0-.624-.192-1.088-.576-1.392-.376-.312-.868-.468-1.476-.468-.216 0-.492.04-.828.12-.328.072-.636.18-.924.324l.096-4.476h4.56v1.08zm1.224 3.168c0-.312.016-.636.048-.972.032-.336.088-.664.168-.984.088-.328.2-.64.336-.936a2.82 2.82 0 0 1 .54-.768c.224-.224.484-.4.78-.528a2.564 2.564 0 0 1 1.056-.204c.4 0 .748.068 1.044.204.304.128.564.304.78.528.224.216.404.472.54.768.144.296.256.608.336.936.088.32.148.648.18.984.032.336.048.66.048.972 0 .448-.04.928-.12 1.44-.08.512-.228.988-.444 1.428-.216.44-.516.804-.9 1.092-.376.288-.864.432-1.464.432s-1.092-.144-1.476-.432a3.042 3.042 0 0 1-.888-1.092 4.956 4.956 0 0 1-.444-1.428 9.355 9.355 0 0 1-.12-1.44zm1.152 0c0 .28.016.612.048.996.04.384.12.756.24 1.116.12.352.296.652.528.9.24.248.56.372.96.372.4 0 .716-.124.948-.372.24-.248.42-.548.54-.9.12-.36.196-.732.228-1.116.04-.384.06-.716.06-.996 0-.192-.008-.408-.024-.648a4.709 4.709 0 0 0-.084-.744c-.04-.256-.1-.5-.18-.732a2.267 2.267 0 0 0-.324-.636 1.45 1.45 0 0 0-.48-.456 1.334 1.334 0 0 0-.684-.168c-.264 0-.492.056-.684.168a1.568 1.568 0 0 0-.492.456 2.48 2.48 0 0 0-.312.636 5.16 5.16 0 0 0-.192.732 7.84 7.84 0 0 0-.084.744c-.008.24-.012.456-.012.648zm6-4.248h1.152v3.672h.096l3.756-3.672h1.608l-4.104 3.924 4.38 4.572h-1.68l-3.96-4.248h-.096V106H14.31v-8.496zM2.923 52.792h.048c.264-.128.576-.192.936-.192.304 0 .612.052.924.156.312.104.592.268.84.492.256.216.464.496.624.84.16.336.24.736.24 1.2 0 .472-.08.888-.24 1.248-.152.352-.36.648-.624.888s-.572.42-.924.54c-.352.12-.728.18-1.128.18-.4 0-.776-.064-1.128-.192a2.76 2.76 0 0 1-.924-.552 2.754 2.754 0 0 1-.636-.864 2.706 2.706 0 0 1-.228-1.128 3.614 3.614 0 0 1 .228-1.332c.08-.2.172-.392.276-.576.104-.192.22-.392.348-.6l2.148-3.396h1.356l-2.136 3.288zm-1.068 2.58c0 .256.04.492.12.708.088.216.208.404.36.564.16.152.348.272.564.36.216.088.456.132.72.132.264 0 .504-.044.72-.132.216-.088.4-.208.552-.36.16-.16.28-.348.36-.564.088-.216.132-.452.132-.708 0-.256-.044-.492-.132-.708-.08-.216-.2-.4-.36-.552a1.565 1.565 0 0 0-.552-.372 1.892 1.892 0 0 0-.72-.132c-.264 0-.504.044-.72.132a1.65 1.65 0 0 0-.924.924c-.08.216-.12.452-.12.708zm5.304-1.62c0-.312.016-.636.048-.972.032-.336.088-.664.168-.984.088-.328.2-.64.336-.936a2.82 2.82 0 0 1 .54-.768c.224-.224.484-.4.78-.528a2.564 2.564 0 0 1 1.056-.204c.4 0 .748.068 1.044.204.304.128.564.304.78.528.224.216.404.472.54.768.144.296.256.608.336.936.088.32.148.648.18.984.032.336.048.66.048.972 0 .448-.04.928-.12 1.44-.08.512-.228.988-.444 1.428-.216.44-.516.804-.9 1.092-.376.288-.864.432-1.464.432S8.995 58 8.61 57.712a3.042 3.042 0 0 1-.888-1.092 4.956 4.956 0 0 1-.444-1.428 9.355 9.355 0 0 1-.12-1.44zm1.152 0c0 .28.016.612.048.996.04.384.12.756.24 1.116.12.352.296.652.528.9.24.248.56.372.96.372.4 0 .716-.124.948-.372.24-.248.42-.548.54-.9.12-.36.196-.732.228-1.116.04-.384.06-.716.06-.996 0-.192-.008-.408-.024-.648a4.709 4.709 0 0 0-.084-.744c-.04-.256-.1-.5-.18-.732a2.267 2.267 0 0 0-.324-.636 1.45 1.45 0 0 0-.48-.456 1.334 1.334 0 0 0-.684-.168c-.264 0-.492.056-.684.168a1.568 1.568 0 0 0-.492.456 2.48 2.48 0 0 0-.312.636 5.16 5.16 0 0 0-.192.732 7.84 7.84 0 0 0-.084.744c-.008.24-.012.456-.012.648zm6-4.248h1.152v3.672h.096l3.756-3.672h1.608l-4.104 3.924L21.199 58h-1.68l-3.96-4.248h-.096V58H14.31v-8.496zM4.89 2.512H.788V1.504h5.34v.984L2.743 10H1.447L4.89 2.512zm2.269 3.24c0-.312.016-.636.048-.972.032-.336.088-.664.168-.984.088-.328.2-.64.336-.936a2.82 2.82 0 0 1 .54-.768c.224-.224.484-.4.78-.528a2.564 2.564 0 0 1 1.056-.204c.4 0 .748.068 1.044.204.304.128.564.304.78.528.224.216.404.472.54.768.144.296.256.608.336.936.088.32.148.648.18.984.032.336.048.66.048.972 0 .448-.04.928-.12 1.44-.08.512-.228.988-.444 1.428-.216.44-.516.804-.9 1.092-.376.288-.864.432-1.464.432S8.995 10 8.61 9.712a3.042 3.042 0 0 1-.888-1.092 4.956 4.956 0 0 1-.444-1.428 9.355 9.355 0 0 1-.12-1.44zm1.152 0c0 .28.016.612.048.996.04.384.12.756.24 1.116.12.352.296.652.528.9.24.248.56.372.96.372.4 0 .716-.124.948-.372.24-.248.42-.548.54-.9.12-.36.196-.732.228-1.116.04-.384.06-.716.06-.996 0-.192-.008-.408-.024-.648a4.709 4.709 0 0 0-.084-.744c-.04-.256-.1-.5-.18-.732a2.267 2.267 0 0 0-.324-.636 1.45 1.45 0 0 0-.48-.456 1.334 1.334 0 0 0-.684-.168c-.264 0-.492.056-.684.168a1.568 1.568 0 0 0-.492.456 2.48 2.48 0 0 0-.312.636 5.16 5.16 0 0 0-.192.732 7.84 7.84 0 0 0-.084.744c-.008.24-.012.456-.012.648zm6-4.248h1.152v3.672h.096l3.756-3.672h1.608l-4.104 3.924L21.199 10h-1.68l-3.96-4.248h-.096V10H14.31V1.504z" fill="#AAB8C6" fill-opacity=".8"/><path opacity=".25" fill-rule="evenodd" clip-rule="evenodd" d="M29 65c1.953 3.7 2.301 28.756 4.013 32 .743 1.408 1.842-3.847 2.553-2.5.808 1.53.682 8.027 1.46 9.5.622 1.18 1.943-7.156 2.553-6 .668 1.266 1.529 10.249 2.189 11.5.832 1.577 1.355-3.581 2.189-2 .956 1.813 1.206 7.639 2.188 9.5.778 1.474 3.206-5.53 4.013-4 .774 1.466 3.931 2.963 4.742 4.5 1.732 3.282.21 4.464 2.19 8.214L59.277 123l2.554 3 5.472 11.5 2.188-9.5 2.554 5 2.918-1.5 2.19 6.5 2.917-2.5h3.648l2.554 4h2.189l2.188 25 1.46-3 1.459 6 1.094-1.5 1.095 6.5 1.459 3.5 1.824-3.5 1.459 6 3.283-2.5 1.459 5 2.189-2.5 5.837 24.5 2.918 22.5 1.459-7.5 1.46 2 4.012-8.5 2.189 4 2.918-8 1.824 2.5 2.554-8 2.918 1.74 2.189-6.74 4.743 4.756 1.094-1.756 5.107 7 2.554-3 2.188 3 3.115-4 4.911-6 2.553 3 2.554-6.5h3.283l4.378-7h1.824l1.824-5.5 3.648 10 1.824-6.5 1.459 2 2.189-13.5 1.824 2.5 1.824-4.539.729-1.961 1.459 3.5 1.824-1 3.284 7 2.553-2.455 6.566 8.455 1.46-3.062 4.012 7.562 1.824-2.5 1.824 5 2.919-11 1.194-4.455 1.724 2.455 1.459-6 1.824 2 2.014-11 3.458 2.5v-7.5l2.139 2.08 1.509-6.58 1.094-5 1.46 6.49 2.188 3.01 1.46-1.5 2.553 6 1.095 2.5 1.094-2 4.013 11 1.824-3 4.012 21 1.46-13.5 2.188 7.5 1.824-2 2.919 6.5 1.459-3 3.648 9 1.094-3.5 2.189 4.5 2.918 6 1.095-4 1.459 1.5 4.292-20.832 1.545 1.332 2.745-14.5 1.268 6 1.823-10 2.189 2 1.459-12 .73-7.5 1.459 3 1.459-10 .73-3.5 2.554 7 1.824-3.02 4.012 6.02 1.459-3 2.554 3.5 1.459-1L315 162.5V345H29V65z" fill="url(#a)"/><path d="m29 65 3.653 32.4 2.556-3.49 1.461 10.468 2.557-6.979 2.192 12.462 2.192-2.991 2.191 10.467 4.018-4.486 4.748 4.486 2.192 8.474 2.192-2.991 2.556 2.991 5.48 11.963 2.19-9.969 2.558 4.984 2.922-1.495 2.191 6.48 2.922-2.492h3.653l2.192 3.987h2.556l2.192 26.418 1.461-4.984 1.461 6.48 1.096-1.496 1.096 6.48 1.46 3.489 1.827-3.489 1.461 5.982 3.287-2.493 1.461 4.985 2.192-2.492 6.575 28.411 2.191 19.44 1.461-8.474 1.461 1.994 1.827-3.987 2.191-4.487 2.192 4.487 2.922-8.973 1.826 2.991 2.557-7.975 2.922 1.994 2.192-6.979 4.748 4.985 1.096-1.994 5.114 6.978 2.556-2.99 2.192 2.99 8.036-9.969 2.557 2.991 2.556-6.48h3.288l4.383-6.978h1.826l1.827-5.483 3.652 10.467 1.826-6.978 1.462 1.994 2.191-13.957 1.826 3.489 2.557-6.978 1.461 3.489 1.827-.997 3.287 6.979 2.557-2.493 6.575 8.474 1.461-3.489 4.017 7.975 1.827-2.492 1.826 4.984 4.018-15.452 1.826 2.493 1.461-5.982 1.827 1.994 2.191-10.966 3.288 2.492v-7.476l2.191 2.492 2.557-11.465 1.461 5.982 2.192 2.991 1.461-1.496 3.652 8.972 1.096-2.492 4.018 10.966 1.826-2.991 4.018 21.932 1.461-14.953 2.192 7.975 1.826-1.994 2.922 6.978 1.461-3.489 3.653 8.972 1.096-3.489 5.113 10.468 1.096-3.988 1.461 1.994 4.383-20.935 1.461 1.495 2.922-14.953 1.096 6.978 1.826-10.966 2.192 2.492 2.192-19.938 1.461 3.489 2.191-13.956 2.557 6.978 1.826-2.991 4.018 6.48 1.461-3.489 2.557 3.489 1.461-.997L315 161.7" stroke="#437FEC" stroke-width="2" stroke-linecap="round"/><path d="M29 149.5h286M29 246.5h286M29 295.5h286M29 344.5h286M29 102.5h286M29 54.5h286M29 6.5h286M29 197.5h286" stroke="#AAB8C6" stroke-opacity=".7" stroke-width=".5" stroke-linecap="square"/><path d="M150.408 363.752c0-.312.016-.636.048-.972.032-.336.088-.664.168-.984.088-.328.2-.64.336-.936a2.82 2.82 0 0 1 .54-.768c.224-.224.484-.4.78-.528a2.564 2.564 0 0 1 1.056-.204c.4 0 .748.068 1.044.204.304.128.564.304.78.528.224.216.404.472.54.768.144.296.256.608.336.936.088.32.148.648.18.984.032.336.048.66.048.972 0 .448-.04.928-.12 1.44-.08.512-.228.988-.444 1.428-.216.44-.516.804-.9 1.092-.376.288-.864.432-1.464.432s-1.092-.144-1.476-.432a3.042 3.042 0 0 1-.888-1.092 4.956 4.956 0 0 1-.444-1.428 9.355 9.355 0 0 1-.12-1.44zm1.152 0c0 .28.016.612.048.996.04.384.12.756.24 1.116.12.352.296.652.528.9.24.248.56.372.96.372.4 0 .716-.124.948-.372.24-.248.42-.548.54-.9.12-.36.196-.732.228-1.116.04-.384.06-.716.06-.996 0-.192-.008-.408-.024-.648a4.709 4.709 0 0 0-.084-.744c-.04-.256-.1-.5-.18-.732a2.267 2.267 0 0 0-.324-.636 1.45 1.45 0 0 0-.48-.456 1.334 1.334 0 0 0-.684-.168c-.264 0-.492.056-.684.168a1.568 1.568 0 0 0-.492.456 2.48 2.48 0 0 0-.312.636 5.16 5.16 0 0 0-.192.732 7.84 7.84 0 0 0-.084.744c-.008.24-.012.456-.012.648zm7.548-.96h.048c.264-.128.576-.192.936-.192.304 0 .612.052.924.156.312.104.592.268.84.492.256.216.464.496.624.84.16.336.24.736.24 1.2 0 .472-.08.888-.24 1.248-.152.352-.36.648-.624.888s-.572.42-.924.54c-.352.12-.728.18-1.128.18-.4 0-.776-.064-1.128-.192a2.76 2.76 0 0 1-.924-.552 2.754 2.754 0 0 1-.636-.864 2.706 2.706 0 0 1-.228-1.128 3.614 3.614 0 0 1 .228-1.332c.08-.2.172-.392.276-.576.104-.192.22-.392.348-.6l2.148-3.396h1.356l-2.136 3.288zm-1.068 2.58c0 .256.04.492.12.708.088.216.208.404.36.564.16.152.348.272.564.36.216.088.456.132.72.132.264 0 .504-.044.72-.132.216-.088.4-.208.552-.36.16-.16.28-.348.36-.564.088-.216.132-.452.132-.708 0-.256-.044-.492-.132-.708-.08-.216-.2-.4-.36-.552a1.565 1.565 0 0 0-.552-.372 1.892 1.892 0 0 0-.72-.132c-.264 0-.504.044-.72.132a1.65 1.65 0 0 0-.924.924c-.08.216-.12.452-.12.708zm8.268.228h-2.952v-1.008h2.952v1.008zm.777 1.176 3.408-3.384c.12-.112.236-.232.348-.36.112-.136.212-.276.3-.42a1.94 1.94 0 0 0 .204-.456c.056-.16.084-.328.084-.504 0-.208-.04-.396-.12-.564a1.092 1.092 0 0 0-.312-.42 1.297 1.297 0 0 0-.468-.276 1.638 1.638 0 0 0-.564-.096c-.416 0-.76.116-1.032.348-.272.232-.444.552-.516.96l-1.248-.108c.056-.376.164-.7.324-.972.168-.28.372-.512.612-.696.248-.184.528-.32.84-.408.32-.088.664-.132 1.032-.132s.712.052 1.032.156c.328.096.612.244.852.444.248.192.44.436.576.732.144.288.216.628.216 1.02 0 .28-.044.544-.132.792-.08.24-.188.468-.324.684-.136.216-.292.42-.468.612-.176.192-.36.38-.552.564l-2.796 2.7h4.272V368h-5.568v-1.224zm6.324-3.024c0-.312.016-.636.048-.972.032-.336.088-.664.168-.984.088-.328.2-.64.336-.936a2.82 2.82 0 0 1 .54-.768c.224-.224.484-.4.78-.528a2.564 2.564 0 0 1 1.056-.204c.4 0 .748.068 1.044.204.304.128.564.304.78.528.224.216.404.472.54.768.144.296.256.608.336.936.088.32.148.648.18.984.032.336.048.66.048.972 0 .448-.04.928-.12 1.44-.08.512-.228.988-.444 1.428-.216.44-.516.804-.9 1.092-.376.288-.864.432-1.464.432s-1.092-.144-1.476-.432a3.042 3.042 0 0 1-.888-1.092 4.956 4.956 0 0 1-.444-1.428 9.355 9.355 0 0 1-.12-1.44zm1.152 0c0 .28.016.612.048.996.04.384.12.756.24 1.116.12.352.296.652.528.9.24.248.56.372.96.372.4 0 .716-.124.948-.372.24-.248.42-.548.54-.9.12-.36.196-.732.228-1.116.04-.384.06-.716.06-.996 0-.192-.008-.408-.024-.648a4.709 4.709 0 0 0-.084-.744c-.04-.256-.1-.5-.18-.732a2.267 2.267 0 0 0-.324-.636 1.45 1.45 0 0 0-.48-.456 1.334 1.334 0 0 0-.684-.168c-.264 0-.492.056-.684.168a1.568 1.568 0 0 0-.492.456 2.48 2.48 0 0 0-.312.636 5.16 5.16 0 0 0-.192.732 7.84 7.84 0 0 0-.084.744c-.008.24-.012.456-.012.648zm5.46 3.024 3.408-3.384c.12-.112.236-.232.348-.36.112-.136.212-.276.3-.42a1.94 1.94 0 0 0 .204-.456c.056-.16.084-.328.084-.504 0-.208-.04-.396-.12-.564a1.092 1.092 0 0 0-.312-.42 1.297 1.297 0 0 0-.468-.276 1.638 1.638 0 0 0-.564-.096c-.416 0-.76.116-1.032.348-.272.232-.444.552-.516.96l-1.248-.108c.056-.376.164-.7.324-.972.168-.28.372-.512.612-.696.248-.184.528-.32.84-.408.32-.088.664-.132 1.032-.132s.712.052 1.032.156c.328.096.612.244.852.444.248.192.44.436.576.732.144.288.216.628.216 1.02 0 .28-.044.544-.132.792-.08.24-.188.468-.324.684-.136.216-.292.42-.468.612-.176.192-.36.38-.552.564l-2.796 2.7h4.272V368h-5.568v-1.224zm9.156-5.952-1.56 1.44-.672-.804 2.364-1.956h1.02V368h-1.152v-7.176z" fill="#AAB8C6"/><path d="M171.5 345v4" stroke="#AAB8C6" stroke-width=".5" stroke-linecap="square"/><path d="M29.408 363.752c0-.312.016-.636.048-.972.032-.336.088-.664.168-.984.088-.328.2-.64.336-.936a2.82 2.82 0 0 1 .54-.768c.224-.224.484-.4.78-.528a2.564 2.564 0 0 1 1.056-.204c.4 0 .748.068 1.044.204.304.128.564.304.78.528.224.216.404.472.54.768.144.296.256.608.336.936.088.32.148.648.18.984.032.336.048.66.048.972 0 .448-.04.928-.12 1.44-.08.512-.228.988-.444 1.428-.216.44-.516.804-.9 1.092-.376.288-.864.432-1.464.432s-1.092-.144-1.476-.432a3.042 3.042 0 0 1-.888-1.092 4.956 4.956 0 0 1-.444-1.428 9.355 9.355 0 0 1-.12-1.44zm1.152 0c0 .28.016.612.048.996.04.384.12.756.24 1.116.12.352.296.652.528.9.24.248.56.372.96.372.4 0 .716-.124.948-.372.24-.248.42-.548.54-.9.12-.36.196-.732.228-1.116.04-.384.06-.716.06-.996 0-.192-.008-.408-.024-.648a4.709 4.709 0 0 0-.084-.744c-.04-.256-.1-.5-.18-.732a2.267 2.267 0 0 0-.324-.636 1.45 1.45 0 0 0-.48-.456 1.334 1.334 0 0 0-.684-.168c-.264 0-.492.056-.684.168a1.568 1.568 0 0 0-.492.456 2.48 2.48 0 0 0-.312.636 5.16 5.16 0 0 0-.192.732 7.84 7.84 0 0 0-.084.744c-.008.24-.012.456-.012.648zm8.94 2.376h-3.624v-1.176l3.384-5.448h1.392v5.616h1.2v1.008h-1.2V368H39.5v-1.872zm0-5.256h-.024l-2.592 4.248H39.5v-4.248zm5.808 4.728h-2.952v-1.008h2.952v1.008zm.777 1.176 3.408-3.384c.12-.112.236-.232.348-.36.112-.136.212-.276.3-.42a1.94 1.94 0 0 0 .204-.456c.056-.16.084-.328.084-.504 0-.208-.04-.396-.12-.564a1.092 1.092 0 0 0-.312-.42 1.297 1.297 0 0 0-.468-.276 1.638 1.638 0 0 0-.564-.096c-.416 0-.76.116-1.032.348-.272.232-.444.552-.516.96l-1.248-.108c.056-.376.164-.7.324-.972.168-.28.372-.512.612-.696.248-.184.528-.32.84-.408.32-.088.664-.132 1.032-.132s.712.052 1.032.156c.328.096.612.244.852.444.248.192.44.436.576.732.144.288.216.628.216 1.02 0 .28-.044.544-.132.792-.08.24-.188.468-.324.684-.136.216-.292.42-.468.612-.176.192-.36.38-.552.564l-2.796 2.7h4.272V368h-5.568v-1.224zm6.324-3.024c0-.312.016-.636.048-.972.032-.336.088-.664.168-.984.088-.328.2-.64.336-.936a2.82 2.82 0 0 1 .54-.768c.224-.224.484-.4.78-.528a2.564 2.564 0 0 1 1.056-.204c.4 0 .748.068 1.044.204.304.128.564.304.78.528.224.216.404.472.54.768.144.296.256.608.336.936.088.32.148.648.18.984.032.336.048.66.048.972 0 .448-.04.928-.12 1.44-.08.512-.228.988-.444 1.428-.216.44-.516.804-.9 1.092-.376.288-.864.432-1.464.432s-1.092-.144-1.476-.432a3.042 3.042 0 0 1-.888-1.092 4.956 4.956 0 0 1-.444-1.428 9.355 9.355 0 0 1-.12-1.44zm1.152 0c0 .28.016.612.048.996.04.384.12.756.24 1.116.12.352.296.652.528.9.24.248.56.372.96.372.4 0 .716-.124.948-.372.24-.248.42-.548.54-.9.12-.36.196-.732.228-1.116.04-.384.06-.716.06-.996 0-.192-.008-.408-.024-.648a4.709 4.709 0 0 0-.084-.744c-.04-.256-.1-.5-.18-.732a2.267 2.267 0 0 0-.324-.636 1.45 1.45 0 0 0-.48-.456 1.334 1.334 0 0 0-.684-.168c-.264 0-.492.056-.684.168a1.568 1.568 0 0 0-.492.456 2.48 2.48 0 0 0-.312.636 5.16 5.16 0 0 0-.192.732 7.84 7.84 0 0 0-.084.744c-.008.24-.012.456-.012.648zm5.46 3.024 3.408-3.384c.12-.112.236-.232.348-.36.112-.136.212-.276.3-.42a1.94 1.94 0 0 0 .204-.456c.056-.16.084-.328.084-.504 0-.208-.04-.396-.12-.564a1.092 1.092 0 0 0-.312-.42 1.297 1.297 0 0 0-.468-.276 1.638 1.638 0 0 0-.564-.096c-.416 0-.76.116-1.032.348-.272.232-.444.552-.516.96l-1.248-.108c.056-.376.164-.7.324-.972.168-.28.372-.512.612-.696.248-.184.528-.32.84-.408.32-.088.664-.132 1.032-.132s.712.052 1.032.156c.328.096.612.244.852.444.248.192.44.436.576.732.144.288.216.628.216 1.02 0 .28-.044.544-.132.792-.08.24-.188.468-.324.684-.136.216-.292.42-.468.612-.176.192-.36.38-.552.564l-2.796 2.7h4.272V368H59.02v-1.224zm9.156-5.952-1.56 1.44-.672-.804 2.364-1.956h1.02V368h-1.152v-7.176z" fill="#AAB8C6"/><path d="M50.5 345v4" stroke="#AAB8C6" stroke-width=".5" stroke-linecap="square"/><path d="M272.408 363.752c0-.312.016-.636.048-.972.032-.336.088-.664.168-.984.088-.328.2-.64.336-.936a2.82 2.82 0 0 1 .54-.768c.224-.224.484-.4.78-.528a2.564 2.564 0 0 1 1.056-.204c.4 0 .748.068 1.044.204.304.128.564.304.78.528.224.216.404.472.54.768.144.296.256.608.336.936.088.32.148.648.18.984.032.336.048.66.048.972 0 .448-.04.928-.12 1.44-.08.512-.228.988-.444 1.428-.216.44-.516.804-.9 1.092-.376.288-.864.432-1.464.432s-1.092-.144-1.476-.432a3.042 3.042 0 0 1-.888-1.092 4.956 4.956 0 0 1-.444-1.428 9.355 9.355 0 0 1-.12-1.44zm1.152 0c0 .28.016.612.048.996.04.384.12.756.24 1.116.12.352.296.652.528.9.24.248.56.372.96.372.4 0 .716-.124.948-.372.24-.248.42-.548.54-.9.12-.36.196-.732.228-1.116.04-.384.06-.716.06-.996 0-.192-.008-.408-.024-.648a4.709 4.709 0 0 0-.084-.744c-.04-.256-.1-.5-.18-.732a2.267 2.267 0 0 0-.324-.636 1.45 1.45 0 0 0-.48-.456 1.334 1.334 0 0 0-.684-.168c-.264 0-.492.056-.684.168a1.568 1.568 0 0 0-.492.456 2.48 2.48 0 0 0-.312.636 5.16 5.16 0 0 0-.192.732 7.84 7.84 0 0 0-.084.744c-.008.24-.012.456-.012.648zm8.94.96h-.048a2.125 2.125 0 0 1-.936.192 2.91 2.91 0 0 1-.924-.156 2.572 2.572 0 0 1-.852-.48 2.65 2.65 0 0 1-.612-.84c-.16-.344-.24-.748-.24-1.212 0-.464.076-.872.228-1.224.16-.36.372-.66.636-.9s.572-.42.924-.54a3.275 3.275 0 0 1 1.128-.192c.4 0 .776.064 1.128.192.352.128.66.312.924.552.264.24.472.528.624.864.16.336.24.712.24 1.128 0 .264-.02.504-.06.72-.04.216-.1.424-.18.624-.072.192-.16.384-.264.576-.104.192-.22.388-.348.588L281.72 368h-1.356l2.136-3.288zm1.068-2.58c0-.256-.044-.492-.132-.708-.08-.216-.2-.4-.36-.552a1.565 1.565 0 0 0-.552-.372 1.892 1.892 0 0 0-.72-.132c-.264 0-.504.044-.72.132a1.65 1.65 0 0 0-.924.924c-.08.216-.12.452-.12.708 0 .256.04.492.12.708.088.216.208.404.36.564.16.152.348.272.564.36.216.088.456.132.72.132.264 0 .504-.044.72-.132.216-.088.4-.208.552-.36.16-.16.28-.348.36-.564.088-.216.132-.452.132-.708zm4.74 3.468h-2.952v-1.008h2.952v1.008zm.777 1.176 3.408-3.384c.12-.112.236-.232.348-.36.112-.136.212-.276.3-.42a1.94 1.94 0 0 0 .204-.456c.056-.16.084-.328.084-.504 0-.208-.04-.396-.12-.564a1.092 1.092 0 0 0-.312-.42 1.297 1.297 0 0 0-.468-.276 1.638 1.638 0 0 0-.564-.096c-.416 0-.76.116-1.032.348-.272.232-.444.552-.516.96l-1.248-.108c.056-.376.164-.7.324-.972.168-.28.372-.512.612-.696.248-.184.528-.32.84-.408.32-.088.664-.132 1.032-.132s.712.052 1.032.156c.328.096.612.244.852.444.248.192.44.436.576.732.144.288.216.628.216 1.02 0 .28-.044.544-.132.792-.08.24-.188.468-.324.684-.136.216-.292.42-.468.612-.176.192-.36.38-.552.564l-2.796 2.7h4.272V368h-5.568v-1.224zm6.324-3.024c0-.312.016-.636.048-.972.032-.336.088-.664.168-.984.088-.328.2-.64.336-.936a2.82 2.82 0 0 1 .54-.768c.224-.224.484-.4.78-.528a2.564 2.564 0 0 1 1.056-.204c.4 0 .748.068 1.044.204.304.128.564.304.78.528.224.216.404.472.54.768.144.296.256.608.336.936.088.32.148.648.18.984.032.336.048.66.048.972 0 .448-.04.928-.12 1.44-.08.512-.228.988-.444 1.428-.216.44-.516.804-.9 1.092-.376.288-.864.432-1.464.432s-1.092-.144-1.476-.432a3.042 3.042 0 0 1-.888-1.092 4.956 4.956 0 0 1-.444-1.428 9.355 9.355 0 0 1-.12-1.44zm1.152 0c0 .28.016.612.048.996.04.384.12.756.24 1.116.12.352.296.652.528.9.24.248.56.372.96.372.4 0 .716-.124.948-.372.24-.248.42-.548.54-.9.12-.36.196-.732.228-1.116.04-.384.06-.716.06-.996 0-.192-.008-.408-.024-.648a4.709 4.709 0 0 0-.084-.744c-.04-.256-.1-.5-.18-.732a2.267 2.267 0 0 0-.324-.636 1.45 1.45 0 0 0-.48-.456 1.334 1.334 0 0 0-.684-.168c-.264 0-.492.056-.684.168a1.568 1.568 0 0 0-.492.456 2.48 2.48 0 0 0-.312.636 5.16 5.16 0 0 0-.192.732 7.84 7.84 0 0 0-.084.744c-.008.24-.012.456-.012.648zm5.46 3.024 3.408-3.384c.12-.112.236-.232.348-.36.112-.136.212-.276.3-.42a1.94 1.94 0 0 0 .204-.456c.056-.16.084-.328.084-.504 0-.208-.04-.396-.12-.564a1.092 1.092 0 0 0-.312-.42 1.297 1.297 0 0 0-.468-.276 1.638 1.638 0 0 0-.564-.096c-.416 0-.76.116-1.032.348-.272.232-.444.552-.516.96l-1.248-.108c.056-.376.164-.7.324-.972.168-.28.372-.512.612-.696.248-.184.528-.32.84-.408.32-.088.664-.132 1.032-.132s.712.052 1.032.156c.328.096.612.244.852.444.248.192.44.436.576.732.144.288.216.628.216 1.02 0 .28-.044.544-.132.792-.08.24-.188.468-.324.684-.136.216-.292.42-.468.612-.176.192-.36.38-.552.564l-2.796 2.7h4.272V368h-5.568v-1.224zm9.156-5.952-1.56 1.44-.672-.804 2.364-1.956h1.02V368h-1.152v-7.176z" fill="#AAB8C6"/><path d="M293.5 345v4" stroke="#AAB8C6" stroke-width=".5" stroke-linecap="square"/><defs><linearGradient id="a" x1="315" y1="325.5" x2="315" y2="108.5" gradientUnits="userSpaceOnUse"><stop stop-color="#fff"/><stop offset="1" stop-color="#60B2FF"/></linearGradient></defs></svg>