<svg width="569" height="370" viewBox="0 0 569 370" fill="none" xmlns="http://www.w3.org/2000/svg">
<path d="M14.74 338.752C14.74 338.44 14.756 338.116 14.788 337.78C14.82 337.444 14.876 337.116 14.956 336.796C15.044 336.468 15.156 336.156 15.292 335.86C15.436 335.564 15.616 335.308 15.832 335.092C16.056 334.868 16.316 334.692 16.612 334.564C16.916 334.428 17.268 334.36 17.668 334.36C18.068 334.36 18.416 334.428 18.712 334.564C19.016 334.692 19.276 334.868 19.492 335.092C19.716 335.308 19.896 335.564 20.032 335.86C20.176 336.156 20.288 336.468 20.368 336.796C20.456 337.116 20.516 337.444 20.548 337.78C20.58 338.116 20.596 338.44 20.596 338.752C20.596 339.2 20.556 339.68 20.476 340.192C20.396 340.704 20.248 341.18 20.032 341.62C19.816 342.06 19.516 342.424 19.132 342.712C18.756 343 18.268 343.144 17.668 343.144C17.068 343.144 16.576 343 16.192 342.712C15.816 342.424 15.52 342.06 15.304 341.62C15.088 341.18 14.94 340.704 14.86 340.192C14.78 339.68 14.74 339.2 14.74 338.752ZM15.892 338.752C15.892 339.032 15.908 339.364 15.94 339.748C15.98 340.132 16.06 340.504 16.18 340.864C16.3 341.216 16.476 341.516 16.708 341.764C16.948 342.012 17.268 342.136 17.668 342.136C18.068 342.136 18.384 342.012 18.616 341.764C18.856 341.516 19.036 341.216 19.156 340.864C19.276 340.504 19.352 340.132 19.384 339.748C19.424 339.364 19.444 339.032 19.444 338.752C19.444 338.56 19.436 338.344 19.42 338.104C19.412 337.856 19.384 337.608 19.336 337.36C19.296 337.104 19.236 336.86 19.156 336.628C19.076 336.388 18.968 336.176 18.832 335.992C18.704 335.8 18.544 335.648 18.352 335.536C18.16 335.424 17.932 335.368 17.668 335.368C17.404 335.368 17.176 335.424 16.984 335.536C16.792 335.648 16.628 335.8 16.492 335.992C16.364 336.176 16.26 336.388 16.18 336.628C16.1 336.86 16.036 337.104 15.988 337.36C15.948 337.608 15.92 337.856 15.904 338.104C15.896 338.344 15.892 338.56 15.892 338.752Z" fill="#AAB8C6" fill-opacity="0.8"/>
<path d="M3.52281 288.824L1.96281 290.264L1.29081 289.46L3.65481 287.504H4.67481V296H3.52281V288.824ZM7.15878 291.752C7.15878 291.44 7.17478 291.116 7.20678 290.78C7.23878 290.444 7.29478 290.116 7.37478 289.796C7.46278 289.468 7.57478 289.156 7.71078 288.86C7.85478 288.564 8.03478 288.308 8.25078 288.092C8.47478 287.868 8.73478 287.692 9.03078 287.564C9.33478 287.428 9.68678 287.36 10.0868 287.36C10.4868 287.36 10.8348 287.428 11.1308 287.564C11.4348 287.692 11.6948 287.868 11.9108 288.092C12.1348 288.308 12.3148 288.564 12.4508 288.86C12.5948 289.156 12.7068 289.468 12.7868 289.796C12.8748 290.116 12.9348 290.444 12.9668 290.78C12.9988 291.116 13.0148 291.44 13.0148 291.752C13.0148 292.2 12.9748 292.68 12.8948 293.192C12.8148 293.704 12.6668 294.18 12.4508 294.62C12.2348 295.06 11.9348 295.424 11.5508 295.712C11.1748 296 10.6868 296.144 10.0868 296.144C9.48678 296.144 8.99478 296 8.61078 295.712C8.23478 295.424 7.93878 295.06 7.72278 294.62C7.50678 294.18 7.35878 293.704 7.27878 293.192C7.19878 292.68 7.15878 292.2 7.15878 291.752ZM8.31078 291.752C8.31078 292.032 8.32678 292.364 8.35878 292.748C8.39878 293.132 8.47878 293.504 8.59878 293.864C8.71878 294.216 8.89478 294.516 9.12678 294.764C9.36678 295.012 9.68678 295.136 10.0868 295.136C10.4868 295.136 10.8028 295.012 11.0348 294.764C11.2748 294.516 11.4548 294.216 11.5748 293.864C11.6948 293.504 11.7708 293.132 11.8028 292.748C11.8428 292.364 11.8628 292.032 11.8628 291.752C11.8628 291.56 11.8548 291.344 11.8388 291.104C11.8308 290.856 11.8028 290.608 11.7548 290.36C11.7148 290.104 11.6548 289.86 11.5748 289.628C11.4948 289.388 11.3868 289.176 11.2508 288.992C11.1228 288.8 10.9628 288.648 10.7708 288.536C10.5788 288.424 10.3508 288.368 10.0868 288.368C9.82278 288.368 9.59478 288.424 9.40278 288.536C9.21078 288.648 9.04678 288.8 8.91078 288.992C8.78278 289.176 8.67878 289.388 8.59878 289.628C8.51878 289.86 8.45478 290.104 8.40678 290.36C8.36678 290.608 8.33878 290.856 8.32278 291.104C8.31478 291.344 8.31078 291.56 8.31078 291.752ZM14.3108 287.504H15.4628V291.176H15.5588L19.3148 287.504H20.9228L16.8188 291.428L21.1988 296H19.5188L15.5588 291.752H15.4628V296H14.3108V287.504Z" fill="#AAB8C6" fill-opacity="0.8"/>
<path d="M0.834812 246.776L4.24281 243.392C4.36281 243.28 4.47881 243.16 4.59081 243.032C4.70281 242.896 4.80281 242.756 4.89081 242.612C4.97881 242.468 5.04681 242.316 5.09481 242.156C5.15081 241.996 5.17881 241.828 5.17881 241.652C5.17881 241.444 5.13881 241.256 5.05881 241.088C4.98681 240.92 4.88281 240.78 4.74681 240.668C4.61881 240.548 4.46281 240.456 4.27881 240.392C4.10281 240.328 3.91481 240.296 3.71481 240.296C3.29881 240.296 2.95481 240.412 2.68281 240.644C2.41081 240.876 2.23881 241.196 2.16681 241.604L0.918812 241.496C0.974812 241.12 1.08281 240.796 1.24281 240.524C1.41081 240.244 1.61481 240.012 1.85481 239.828C2.10281 239.644 2.38281 239.508 2.69481 239.42C3.01481 239.332 3.35881 239.288 3.72681 239.288C4.09481 239.288 4.43881 239.34 4.75881 239.444C5.08681 239.54 5.37081 239.688 5.61081 239.888C5.85881 240.08 6.05081 240.324 6.18681 240.62C6.33081 240.908 6.40281 241.248 6.40281 241.64C6.40281 241.92 6.35881 242.184 6.27081 242.432C6.19081 242.672 6.08281 242.9 5.94681 243.116C5.81081 243.332 5.65481 243.536 5.47881 243.728C5.30281 243.92 5.11881 244.108 4.92681 244.292L2.13081 246.992H6.40281V248H0.834812V246.776ZM7.15878 243.752C7.15878 243.44 7.17478 243.116 7.20678 242.78C7.23878 242.444 7.29478 242.116 7.37478 241.796C7.46278 241.468 7.57478 241.156 7.71078 240.86C7.85478 240.564 8.03478 240.308 8.25078 240.092C8.47478 239.868 8.73478 239.692 9.03078 239.564C9.33478 239.428 9.68678 239.36 10.0868 239.36C10.4868 239.36 10.8348 239.428 11.1308 239.564C11.4348 239.692 11.6948 239.868 11.9108 240.092C12.1348 240.308 12.3148 240.564 12.4508 240.86C12.5948 241.156 12.7068 241.468 12.7868 241.796C12.8748 242.116 12.9348 242.444 12.9668 242.78C12.9988 243.116 13.0148 243.44 13.0148 243.752C13.0148 244.2 12.9748 244.68 12.8948 245.192C12.8148 245.704 12.6668 246.18 12.4508 246.62C12.2348 247.06 11.9348 247.424 11.5508 247.712C11.1748 248 10.6868 248.144 10.0868 248.144C9.48678 248.144 8.99478 248 8.61078 247.712C8.23478 247.424 7.93878 247.06 7.72278 246.62C7.50678 246.18 7.35878 245.704 7.27878 245.192C7.19878 244.68 7.15878 244.2 7.15878 243.752ZM8.31078 243.752C8.31078 244.032 8.32678 244.364 8.35878 244.748C8.39878 245.132 8.47878 245.504 8.59878 245.864C8.71878 246.216 8.89478 246.516 9.12678 246.764C9.36678 247.012 9.68678 247.136 10.0868 247.136C10.4868 247.136 10.8028 247.012 11.0348 246.764C11.2748 246.516 11.4548 246.216 11.5748 245.864C11.6948 245.504 11.7708 245.132 11.8028 244.748C11.8428 244.364 11.8628 244.032 11.8628 243.752C11.8628 243.56 11.8548 243.344 11.8388 243.104C11.8308 242.856 11.8028 242.608 11.7548 242.36C11.7148 242.104 11.6548 241.86 11.5748 241.628C11.4948 241.388 11.3868 241.176 11.2508 240.992C11.1228 240.8 10.9628 240.648 10.7708 240.536C10.5788 240.424 10.3508 240.368 10.0868 240.368C9.82278 240.368 9.59478 240.424 9.40278 240.536C9.21078 240.648 9.04678 240.8 8.91078 240.992C8.78278 241.176 8.67878 241.388 8.59878 241.628C8.51878 241.86 8.45478 242.104 8.40678 242.36C8.36678 242.608 8.33878 242.856 8.32278 243.104C8.31478 243.344 8.31078 243.56 8.31078 243.752ZM14.3108 239.504H15.4628V243.176H15.5588L19.3148 239.504H20.9228L16.8188 243.428L21.1988 248H19.5188L15.5588 243.752H15.4628V248H14.3108V239.504Z" fill="#AAB8C6" fill-opacity="0.8"/>
<path d="M2.04681 197.924C2.18281 198.332 2.36281 198.636 2.58681 198.836C2.81881 199.036 3.15881 199.136 3.60681 199.136C3.83081 199.136 4.03881 199.1 4.23081 199.028C4.43081 198.948 4.60681 198.844 4.75881 198.716C4.91081 198.58 5.03081 198.42 5.11881 198.236C5.20681 198.044 5.25081 197.832 5.25081 197.6C5.25081 197.248 5.17481 196.968 5.02281 196.76C4.87881 196.544 4.69081 196.384 4.45881 196.28C4.22681 196.168 3.97081 196.096 3.69081 196.064C3.41081 196.032 3.13481 196.016 2.86281 196.016V195.008C3.30281 195.008 3.66281 194.98 3.94281 194.924C4.22281 194.86 4.44281 194.772 4.60281 194.66C4.76281 194.548 4.87481 194.408 4.93881 194.24C5.00281 194.072 5.03481 193.884 5.03481 193.676C5.03481 193.22 4.89881 192.876 4.62681 192.644C4.35481 192.412 4.01481 192.296 3.60681 192.296C3.29481 192.296 3.01081 192.388 2.75481 192.572C2.50681 192.748 2.31881 192.984 2.19081 193.28L1.01481 192.884C1.23881 192.34 1.57881 191.94 2.03481 191.684C2.49881 191.42 3.01481 191.288 3.58281 191.288C3.92681 191.288 4.25481 191.336 4.56681 191.432C4.88681 191.52 5.16681 191.66 5.40681 191.852C5.64681 192.044 5.83481 192.288 5.97081 192.584C6.11481 192.872 6.18681 193.212 6.18681 193.604C6.18681 194.052 6.05081 194.452 5.77881 194.804C5.51481 195.156 5.16681 195.396 4.73481 195.524V195.548C4.99881 195.596 5.23481 195.684 5.44281 195.812C5.65081 195.94 5.82681 196.1 5.97081 196.292C6.11481 196.484 6.22281 196.7 6.29481 196.94C6.36681 197.172 6.40281 197.42 6.40281 197.684C6.40281 198.092 6.32281 198.452 6.16281 198.764C6.01081 199.068 5.80281 199.324 5.53881 199.532C5.28281 199.732 4.98281 199.884 4.63881 199.988C4.30281 200.092 3.94681 200.144 3.57081 200.144C2.92281 200.144 2.35081 199.996 1.85481 199.7C1.36681 199.404 1.02681 198.936 0.834812 198.296L2.04681 197.924ZM7.15878 195.752C7.15878 195.44 7.17478 195.116 7.20678 194.78C7.23878 194.444 7.29478 194.116 7.37478 193.796C7.46278 193.468 7.57478 193.156 7.71078 192.86C7.85478 192.564 8.03478 192.308 8.25078 192.092C8.47478 191.868 8.73478 191.692 9.03078 191.564C9.33478 191.428 9.68678 191.36 10.0868 191.36C10.4868 191.36 10.8348 191.428 11.1308 191.564C11.4348 191.692 11.6948 191.868 11.9108 192.092C12.1348 192.308 12.3148 192.564 12.4508 192.86C12.5948 193.156 12.7068 193.468 12.7868 193.796C12.8748 194.116 12.9348 194.444 12.9668 194.78C12.9988 195.116 13.0148 195.44 13.0148 195.752C13.0148 196.2 12.9748 196.68 12.8948 197.192C12.8148 197.704 12.6668 198.18 12.4508 198.62C12.2348 199.06 11.9348 199.424 11.5508 199.712C11.1748 200 10.6868 200.144 10.0868 200.144C9.48678 200.144 8.99478 200 8.61078 199.712C8.23478 199.424 7.93878 199.06 7.72278 198.62C7.50678 198.18 7.35878 197.704 7.27878 197.192C7.19878 196.68 7.15878 196.2 7.15878 195.752ZM8.31078 195.752C8.31078 196.032 8.32678 196.364 8.35878 196.748C8.39878 197.132 8.47878 197.504 8.59878 197.864C8.71878 198.216 8.89478 198.516 9.12678 198.764C9.36678 199.012 9.68678 199.136 10.0868 199.136C10.4868 199.136 10.8028 199.012 11.0348 198.764C11.2748 198.516 11.4548 198.216 11.5748 197.864C11.6948 197.504 11.7708 197.132 11.8028 196.748C11.8428 196.364 11.8628 196.032 11.8628 195.752C11.8628 195.56 11.8548 195.344 11.8388 195.104C11.8308 194.856 11.8028 194.608 11.7548 194.36C11.7148 194.104 11.6548 193.86 11.5748 193.628C11.4948 193.388 11.3868 193.176 11.2508 192.992C11.1228 192.8 10.9628 192.648 10.7708 192.536C10.5788 192.424 10.3508 192.368 10.0868 192.368C9.82278 192.368 9.59478 192.424 9.40278 192.536C9.21078 192.648 9.04678 192.8 8.91078 192.992C8.78278 193.176 8.67878 193.388 8.59878 193.628C8.51878 193.86 8.45478 194.104 8.40678 194.36C8.36678 194.608 8.33878 194.856 8.32278 195.104C8.31478 195.344 8.31078 195.56 8.31078 195.752ZM14.3108 191.504H15.4628V195.176H15.5588L19.3148 191.504H20.9228L16.8188 195.428L21.1988 200H19.5188L15.5588 195.752H15.4628V200H14.3108V191.504Z" fill="#AAB8C6" fill-opacity="0.8"/>
<path d="M4.31481 150.128H0.690812V148.952L4.07481 143.504H5.46681V149.12H6.66681V150.128H5.46681V152H4.31481V150.128ZM4.31481 144.872H4.29081L1.69881 149.12H4.31481V144.872ZM7.15878 147.752C7.15878 147.44 7.17478 147.116 7.20678 146.78C7.23878 146.444 7.29478 146.116 7.37478 145.796C7.46278 145.468 7.57478 145.156 7.71078 144.86C7.85478 144.564 8.03478 144.308 8.25078 144.092C8.47478 143.868 8.73478 143.692 9.03078 143.564C9.33478 143.428 9.68678 143.36 10.0868 143.36C10.4868 143.36 10.8348 143.428 11.1308 143.564C11.4348 143.692 11.6948 143.868 11.9108 144.092C12.1348 144.308 12.3148 144.564 12.4508 144.86C12.5948 145.156 12.7068 145.468 12.7868 145.796C12.8748 146.116 12.9348 146.444 12.9668 146.78C12.9988 147.116 13.0148 147.44 13.0148 147.752C13.0148 148.2 12.9748 148.68 12.8948 149.192C12.8148 149.704 12.6668 150.18 12.4508 150.62C12.2348 151.06 11.9348 151.424 11.5508 151.712C11.1748 152 10.6868 152.144 10.0868 152.144C9.48678 152.144 8.99478 152 8.61078 151.712C8.23478 151.424 7.93878 151.06 7.72278 150.62C7.50678 150.18 7.35878 149.704 7.27878 149.192C7.19878 148.68 7.15878 148.2 7.15878 147.752ZM8.31078 147.752C8.31078 148.032 8.32678 148.364 8.35878 148.748C8.39878 149.132 8.47878 149.504 8.59878 149.864C8.71878 150.216 8.89478 150.516 9.12678 150.764C9.36678 151.012 9.68678 151.136 10.0868 151.136C10.4868 151.136 10.8028 151.012 11.0348 150.764C11.2748 150.516 11.4548 150.216 11.5748 149.864C11.6948 149.504 11.7708 149.132 11.8028 148.748C11.8428 148.364 11.8628 148.032 11.8628 147.752C11.8628 147.56 11.8548 147.344 11.8388 147.104C11.8308 146.856 11.8028 146.608 11.7548 146.36C11.7148 146.104 11.6548 145.86 11.5748 145.628C11.4948 145.388 11.3868 145.176 11.2508 144.992C11.1228 144.8 10.9628 144.648 10.7708 144.536C10.5788 144.424 10.3508 144.368 10.0868 144.368C9.82278 144.368 9.59478 144.424 9.40278 144.536C9.21078 144.648 9.04678 144.8 8.91078 144.992C8.78278 145.176 8.67878 145.388 8.59878 145.628C8.51878 145.86 8.45478 146.104 8.40678 146.36C8.36678 146.608 8.33878 146.856 8.32278 147.104C8.31478 147.344 8.31078 147.56 8.31078 147.752ZM14.3108 143.504H15.4628V147.176H15.5588L19.3148 143.504H20.9228L16.8188 147.428L21.1988 152H19.5188L15.5588 147.752H15.4628V152H14.3108V143.504Z" fill="#AAB8C6" fill-opacity="0.8"/>
<path d="M5.93481 98.584H2.49081L2.45481 100.708C2.51081 100.684 2.59081 100.66 2.69481 100.636C2.79881 100.612 2.90281 100.592 3.00681 100.576C3.11881 100.56 3.22681 100.548 3.33081 100.54C3.43481 100.532 3.52281 100.528 3.59481 100.528C3.99481 100.528 4.35481 100.596 4.67481 100.732C5.00281 100.868 5.28281 101.06 5.51481 101.308C5.74681 101.556 5.92281 101.852 6.04281 102.196C6.17081 102.54 6.23481 102.92 6.23481 103.336C6.23481 103.76 6.15481 104.144 5.99481 104.488C5.84281 104.832 5.63081 105.128 5.35881 105.376C5.08681 105.624 4.77081 105.816 4.41081 105.952C4.05081 106.08 3.66281 106.144 3.24681 106.144C2.67081 106.144 2.15081 105.996 1.68681 105.7C1.22281 105.404 0.890812 104.98 0.690812 104.428L1.85481 104.032C2.00681 104.424 2.21081 104.708 2.46681 104.884C2.72281 105.052 3.04281 105.136 3.42681 105.136C3.65081 105.136 3.86281 105.096 4.06281 105.016C4.27081 104.936 4.44681 104.824 4.59081 104.68C4.74281 104.528 4.86281 104.344 4.95081 104.128C5.03881 103.912 5.08281 103.668 5.08281 103.396C5.08281 102.772 4.89081 102.308 4.50681 102.004C4.13081 101.692 3.63881 101.536 3.03081 101.536C2.81481 101.536 2.53881 101.576 2.20281 101.656C1.87481 101.728 1.56681 101.836 1.27881 101.98L1.37481 97.504H5.93481V98.584ZM7.15878 101.752C7.15878 101.44 7.17478 101.116 7.20678 100.78C7.23878 100.444 7.29478 100.116 7.37478 99.796C7.46278 99.468 7.57478 99.156 7.71078 98.86C7.85478 98.564 8.03478 98.308 8.25078 98.092C8.47478 97.868 8.73478 97.692 9.03078 97.564C9.33478 97.428 9.68678 97.36 10.0868 97.36C10.4868 97.36 10.8348 97.428 11.1308 97.564C11.4348 97.692 11.6948 97.868 11.9108 98.092C12.1348 98.308 12.3148 98.564 12.4508 98.86C12.5948 99.156 12.7068 99.468 12.7868 99.796C12.8748 100.116 12.9348 100.444 12.9668 100.78C12.9988 101.116 13.0148 101.44 13.0148 101.752C13.0148 102.2 12.9748 102.68 12.8948 103.192C12.8148 103.704 12.6668 104.18 12.4508 104.62C12.2348 105.06 11.9348 105.424 11.5508 105.712C11.1748 106 10.6868 106.144 10.0868 106.144C9.48678 106.144 8.99478 106 8.61078 105.712C8.23478 105.424 7.93878 105.06 7.72278 104.62C7.50678 104.18 7.35878 103.704 7.27878 103.192C7.19878 102.68 7.15878 102.2 7.15878 101.752ZM8.31078 101.752C8.31078 102.032 8.32678 102.364 8.35878 102.748C8.39878 103.132 8.47878 103.504 8.59878 103.864C8.71878 104.216 8.89478 104.516 9.12678 104.764C9.36678 105.012 9.68678 105.136 10.0868 105.136C10.4868 105.136 10.8028 105.012 11.0348 104.764C11.2748 104.516 11.4548 104.216 11.5748 103.864C11.6948 103.504 11.7708 103.132 11.8028 102.748C11.8428 102.364 11.8628 102.032 11.8628 101.752C11.8628 101.56 11.8548 101.344 11.8388 101.104C11.8308 100.856 11.8028 100.608 11.7548 100.36C11.7148 100.104 11.6548 99.86 11.5748 99.628C11.4948 99.388 11.3868 99.176 11.2508 98.992C11.1228 98.8 10.9628 98.648 10.7708 98.536C10.5788 98.424 10.3508 98.368 10.0868 98.368C9.82278 98.368 9.59478 98.424 9.40278 98.536C9.21078 98.648 9.04678 98.8 8.91078 98.992C8.78278 99.176 8.67878 99.388 8.59878 99.628C8.51878 99.86 8.45478 100.104 8.40678 100.36C8.36678 100.608 8.33878 100.856 8.32278 101.104C8.31478 101.344 8.31078 101.56 8.31078 101.752ZM14.3108 97.504H15.4628V101.176H15.5588L19.3148 97.504H20.9228L16.8188 101.428L21.1988 106H19.5188L15.5588 101.752H15.4628V106H14.3108V97.504Z" fill="#AAB8C6" fill-opacity="0.8"/>
<path d="M2.92281 52.792H2.97081C3.23481 52.664 3.54681 52.6 3.90681 52.6C4.21081 52.6 4.51881 52.652 4.83081 52.756C5.14281 52.86 5.42281 53.024 5.67081 53.248C5.92681 53.464 6.13481 53.744 6.29481 54.088C6.45481 54.424 6.53481 54.824 6.53481 55.288C6.53481 55.76 6.45481 56.176 6.29481 56.536C6.14281 56.888 5.93481 57.184 5.67081 57.424C5.40681 57.664 5.09881 57.844 4.74681 57.964C4.39481 58.084 4.01881 58.144 3.61881 58.144C3.21881 58.144 2.84281 58.08 2.49081 57.952C2.13881 57.824 1.83081 57.64 1.56681 57.4C1.30281 57.16 1.09081 56.872 0.930812 56.536C0.778812 56.2 0.702812 55.824 0.702812 55.408C0.702812 55.144 0.722812 54.904 0.762812 54.688C0.802812 54.472 0.858812 54.268 0.930812 54.076C1.01081 53.876 1.10281 53.684 1.20681 53.5C1.31081 53.308 1.42681 53.108 1.55481 52.9L3.70281 49.504H5.05881L2.92281 52.792ZM1.85481 55.372C1.85481 55.628 1.89481 55.864 1.97481 56.08C2.06281 56.296 2.18281 56.484 2.33481 56.644C2.49481 56.796 2.68281 56.916 2.89881 57.004C3.11481 57.092 3.35481 57.136 3.61881 57.136C3.88281 57.136 4.12281 57.092 4.33881 57.004C4.55481 56.916 4.73881 56.796 4.89081 56.644C5.05081 56.484 5.17081 56.296 5.25081 56.08C5.33881 55.864 5.38281 55.628 5.38281 55.372C5.38281 55.116 5.33881 54.88 5.25081 54.664C5.17081 54.448 5.05081 54.264 4.89081 54.112C4.73881 53.952 4.55481 53.828 4.33881 53.74C4.12281 53.652 3.88281 53.608 3.61881 53.608C3.35481 53.608 3.11481 53.652 2.89881 53.74C2.68281 53.828 2.49481 53.952 2.33481 54.112C2.18281 54.264 2.06281 54.448 1.97481 54.664C1.89481 54.88 1.85481 55.116 1.85481 55.372ZM7.15878 53.752C7.15878 53.44 7.17478 53.116 7.20678 52.78C7.23878 52.444 7.29478 52.116 7.37478 51.796C7.46278 51.468 7.57478 51.156 7.71078 50.86C7.85478 50.564 8.03478 50.308 8.25078 50.092C8.47478 49.868 8.73478 49.692 9.03078 49.564C9.33478 49.428 9.68678 49.36 10.0868 49.36C10.4868 49.36 10.8348 49.428 11.1308 49.564C11.4348 49.692 11.6948 49.868 11.9108 50.092C12.1348 50.308 12.3148 50.564 12.4508 50.86C12.5948 51.156 12.7068 51.468 12.7868 51.796C12.8748 52.116 12.9348 52.444 12.9668 52.78C12.9988 53.116 13.0148 53.44 13.0148 53.752C13.0148 54.2 12.9748 54.68 12.8948 55.192C12.8148 55.704 12.6668 56.18 12.4508 56.62C12.2348 57.06 11.9348 57.424 11.5508 57.712C11.1748 58 10.6868 58.144 10.0868 58.144C9.48678 58.144 8.99478 58 8.61078 57.712C8.23478 57.424 7.93878 57.06 7.72278 56.62C7.50678 56.18 7.35878 55.704 7.27878 55.192C7.19878 54.68 7.15878 54.2 7.15878 53.752ZM8.31078 53.752C8.31078 54.032 8.32678 54.364 8.35878 54.748C8.39878 55.132 8.47878 55.504 8.59878 55.864C8.71878 56.216 8.89478 56.516 9.12678 56.764C9.36678 57.012 9.68678 57.136 10.0868 57.136C10.4868 57.136 10.8028 57.012 11.0348 56.764C11.2748 56.516 11.4548 56.216 11.5748 55.864C11.6948 55.504 11.7708 55.132 11.8028 54.748C11.8428 54.364 11.8628 54.032 11.8628 53.752C11.8628 53.56 11.8548 53.344 11.8388 53.104C11.8308 52.856 11.8028 52.608 11.7548 52.36C11.7148 52.104 11.6548 51.86 11.5748 51.628C11.4948 51.388 11.3868 51.176 11.2508 50.992C11.1228 50.8 10.9628 50.648 10.7708 50.536C10.5788 50.424 10.3508 50.368 10.0868 50.368C9.82278 50.368 9.59478 50.424 9.40278 50.536C9.21078 50.648 9.04678 50.8 8.91078 50.992C8.78278 51.176 8.67878 51.388 8.59878 51.628C8.51878 51.86 8.45478 52.104 8.40678 52.36C8.36678 52.608 8.33878 52.856 8.32278 53.104C8.31478 53.344 8.31078 53.56 8.31078 53.752ZM14.3108 49.504H15.4628V53.176H15.5588L19.3148 49.504H20.9228L16.8188 53.428L21.1988 58H19.5188L15.5588 53.752H15.4628V58H14.3108V49.504Z" fill="#AAB8C6" fill-opacity="0.8"/>
<path d="M4.89081 2.512H0.786812V1.504H6.12681V2.488L2.74281 10H1.44681L4.89081 2.512ZM7.15878 5.752C7.15878 5.44 7.17478 5.116 7.20678 4.78C7.23878 4.444 7.29478 4.116 7.37478 3.796C7.46278 3.468 7.57478 3.156 7.71078 2.86C7.85478 2.564 8.03478 2.308 8.25078 2.092C8.47478 1.868 8.73478 1.692 9.03078 1.564C9.33478 1.428 9.68678 1.36 10.0868 1.36C10.4868 1.36 10.8348 1.428 11.1308 1.564C11.4348 1.692 11.6948 1.868 11.9108 2.092C12.1348 2.308 12.3148 2.564 12.4508 2.86C12.5948 3.156 12.7068 3.468 12.7868 3.796C12.8748 4.116 12.9348 4.444 12.9668 4.78C12.9988 5.116 13.0148 5.44 13.0148 5.752C13.0148 6.2 12.9748 6.68 12.8948 7.192C12.8148 7.704 12.6668 8.18 12.4508 8.62C12.2348 9.06 11.9348 9.424 11.5508 9.712C11.1748 10 10.6868 10.144 10.0868 10.144C9.48678 10.144 8.99478 10 8.61078 9.712C8.23478 9.424 7.93878 9.06 7.72278 8.62C7.50678 8.18 7.35878 7.704 7.27878 7.192C7.19878 6.68 7.15878 6.2 7.15878 5.752ZM8.31078 5.752C8.31078 6.032 8.32678 6.364 8.35878 6.748C8.39878 7.132 8.47878 7.504 8.59878 7.864C8.71878 8.216 8.89478 8.516 9.12678 8.764C9.36678 9.012 9.68678 9.136 10.0868 9.136C10.4868 9.136 10.8028 9.012 11.0348 8.764C11.2748 8.516 11.4548 8.216 11.5748 7.864C11.6948 7.504 11.7708 7.132 11.8028 6.748C11.8428 6.364 11.8628 6.032 11.8628 5.752C11.8628 5.56 11.8548 5.344 11.8388 5.104C11.8308 4.856 11.8028 4.608 11.7548 4.36C11.7148 4.104 11.6548 3.86 11.5748 3.628C11.4948 3.388 11.3868 3.176 11.2508 2.992C11.1228 2.8 10.9628 2.648 10.7708 2.536C10.5788 2.424 10.3508 2.368 10.0868 2.368C9.82278 2.368 9.59478 2.424 9.40278 2.536C9.21078 2.648 9.04678 2.8 8.91078 2.992C8.78278 3.176 8.67878 3.388 8.59878 3.628C8.51878 3.86 8.45478 4.104 8.40678 4.36C8.36678 4.608 8.33878 4.856 8.32278 5.104C8.31478 5.344 8.31078 5.56 8.31078 5.752ZM14.3108 1.504H15.4628V5.176H15.5588L19.3148 1.504H20.9228L16.8188 5.428L21.1988 10H19.5188L15.5588 5.752H15.4628V10H14.3108V1.504Z" fill="#AAB8C6" fill-opacity="0.8"/>
<path opacity="0.25" fill-rule="evenodd" clip-rule="evenodd" d="M29 65C32.6803 68.7009 33.3369 93.7563 36.5625 97C37.963 98.4083 40.0352 93.1527 41.375 94.5C42.8972 96.0307 42.6602 102.527 44.125 104C45.2981 105.18 47.7884 96.8444 48.9375 98C50.1961 99.2657 51.8183 108.249 53.0625 109.5C54.6303 111.077 55.6156 105.919 57.1875 107.5C58.9905 109.313 59.4618 115.139 61.3125 117C62.7783 118.474 67.3538 111.47 68.875 113C70.3327 114.466 76.2837 115.963 77.8125 117.5C81.0762 120.782 78.2082 121.964 81.9375 125.714L86.0625 123L90.875 126L101.188 137.5L105.312 128L110.125 133L115.625 131.5L119.75 138L125.25 135.5H132.125L136.938 139.5H141.062L145.188 164.5L147.938 161.5L150.688 167.5L152.75 166L154.812 172.5L157.562 176L161 172.5L163.75 178.5L169.938 176L172.688 181L176.812 178.5L187.812 203L193.312 225.5L196.062 218L198.812 220L206.375 211.5L210.5 215.5L216 207.5L219.438 210L224.25 202L229.75 203.74L233.875 197L242.812 201.756L244.875 200L254.5 207L259.312 204L263.438 207L269.307 203L278.562 197L283.375 200L288.188 193.5H294.375L302.625 186.5H306.062L309.5 181L316.375 191L319.812 184.5L322.562 186.5L326.688 173L330.125 175.5L333.562 170.961L334.938 169L337.688 172.5L341.125 171.5L347.312 178.5L352.125 176.045L364.5 184.5L367.25 181.438L374.812 189L378.25 186.5L381.688 191.5L387.188 180.5L389.438 176.045L392.688 178.5L395.438 172.5L398.875 174.5L402.67 163.5L409.188 166V158.5L413.218 160.58L416.062 154L418.125 149L420.875 155.49L425 158.5L427.75 157L432.562 163L434.625 165.5L436.688 163.5L444.25 174.5L447.688 171.5L455.25 192.5L458 179L462.125 186.5L465.562 184.5L471.062 191L473.812 188L480.688 197L482.75 193.5L486.875 198L492.375 204L494.438 200L497.188 201.5L505.276 180.668L508.188 182L513.362 167.5L515.75 173.5L519.188 163.5L523.312 165.5L526.062 153.5L527.438 146L530.188 149L532.938 139L534.312 135.5L539.125 142.5L542.562 139.48L550.125 145.5L552.875 142.5L557.688 146L560.438 145L568 162.5V345H29C29 235.653 29 174.347 29 65Z" fill="url(#paint0_linear)"/>
<path d="M30 65L36.871 97.3994L41.6807 93.9102L44.4291 104.378L49.2388 97.3994L53.3614 109.861L57.484 106.87L61.6066 117.337L69.1648 112.851L78.0971 117.337L82.2197 125.811L86.3423 122.82L91.152 125.811L101.458 137.774L105.581 127.805L110.391 132.789L115.888 131.294L120.01 137.774L125.507 135.282H132.378L136.501 139.269H141.31L145.433 165.687L148.181 160.703L150.93 167.183L152.991 165.687L155.052 172.167L157.801 175.656L161.236 172.167L163.985 178.149L170.169 175.656L172.917 180.641L177.04 178.149L189.407 206.56L193.53 226L196.278 217.526L199.027 219.52L202.462 215.533L206.585 211.046L210.708 215.533L216.204 206.56L219.64 209.551L224.45 201.576L229.946 203.57L234.069 196.591L243.001 201.576L245.063 199.582L254.682 206.56L259.492 203.57L263.614 206.56L278.731 196.591L283.54 199.582L288.35 193.102H294.534L302.779 186.124H306.215L309.65 180.641L316.521 191.108L319.957 184.13L322.705 186.124L326.828 172.167L330.263 175.656L335.073 168.678L337.821 172.167L341.257 171.17L347.441 178.149L352.25 175.656L364.618 184.13L367.367 180.641L374.925 188.616L378.36 186.124L381.796 191.108L389.354 175.656L392.789 178.149L395.538 172.167L398.973 174.161L403.096 163.195L409.28 165.687V158.211L413.402 160.703L418.212 149.238L420.96 155.22L425.083 158.211L427.831 156.715L434.702 165.687L436.764 163.195L444.322 174.161L447.757 171.17L455.315 193.102L458.064 178.149L462.186 186.124L465.622 184.13L471.119 191.108L473.867 187.619L480.738 196.591L482.799 193.102L492.419 203.57L494.48 199.582L497.229 201.576L505.474 180.641L508.222 182.136L513.719 167.183L515.78 174.161L519.216 163.195L523.338 165.687L527.461 145.749L530.209 149.238L534.332 135.282L539.142 142.26L542.577 139.269L550.135 145.749L552.884 142.26L557.693 145.749L560.442 144.752L568 161.7" stroke="#437FEC" stroke-width="2" stroke-linecap="round"/>
<path d="M29 149.5H568" stroke="#AAB8C6" stroke-opacity="0.7" stroke-width="0.5" stroke-linecap="square"/>
<path d="M29 246.5H568" stroke="#AAB8C6" stroke-opacity="0.7" stroke-width="0.5" stroke-linecap="square"/>
<path d="M29 295.5H568" stroke="#AAB8C6" stroke-opacity="0.7" stroke-width="0.5" stroke-linecap="square"/>
<path d="M29 344.5H568" stroke="#AAB8C6" stroke-opacity="0.7" stroke-width="0.5" stroke-linecap="square"/>
<path d="M29 102.5H568" stroke="#AAB8C6" stroke-opacity="0.7" stroke-width="0.5" stroke-linecap="square"/>
<path d="M29 54.5H568" stroke="#AAB8C6" stroke-opacity="0.7" stroke-width="0.5" stroke-linecap="square"/>
<path d="M29 6.5H568" stroke="#AAB8C6" stroke-opacity="0.7" stroke-width="0.5" stroke-linecap="square"/>
<path d="M29 197.5H568" stroke="#AAB8C6" stroke-opacity="0.7" stroke-width="0.5" stroke-linecap="square"/>
<path d="M227.408 363.752C227.408 363.44 227.424 363.116 227.456 362.78C227.488 362.444 227.544 362.116 227.624 361.796C227.712 361.468 227.824 361.156 227.96 360.86C228.104 360.564 228.284 360.308 228.5 360.092C228.724 359.868 228.984 359.692 229.28 359.564C229.584 359.428 229.936 359.36 230.336 359.36C230.736 359.36 231.084 359.428 231.38 359.564C231.684 359.692 231.944 359.868 232.16 360.092C232.384 360.308 232.564 360.564 232.7 360.86C232.844 361.156 232.956 361.468 233.036 361.796C233.124 362.116 233.184 362.444 233.216 362.78C233.248 363.116 233.264 363.44 233.264 363.752C233.264 364.2 233.224 364.68 233.144 365.192C233.064 365.704 232.916 366.18 232.7 366.62C232.484 367.06 232.184 367.424 231.8 367.712C231.424 368 230.936 368.144 230.336 368.144C229.736 368.144 229.244 368 228.86 367.712C228.484 367.424 228.188 367.06 227.972 366.62C227.756 366.18 227.608 365.704 227.528 365.192C227.448 364.68 227.408 364.2 227.408 363.752ZM228.56 363.752C228.56 364.032 228.576 364.364 228.608 364.748C228.648 365.132 228.728 365.504 228.848 365.864C228.968 366.216 229.144 366.516 229.376 366.764C229.616 367.012 229.936 367.136 230.336 367.136C230.736 367.136 231.052 367.012 231.284 366.764C231.524 366.516 231.704 366.216 231.824 365.864C231.944 365.504 232.02 365.132 232.052 364.748C232.092 364.364 232.112 364.032 232.112 363.752C232.112 363.56 232.104 363.344 232.088 363.104C232.08 362.856 232.052 362.608 232.004 362.36C231.964 362.104 231.904 361.86 231.824 361.628C231.744 361.388 231.636 361.176 231.5 360.992C231.372 360.8 231.212 360.648 231.02 360.536C230.828 360.424 230.6 360.368 230.336 360.368C230.072 360.368 229.844 360.424 229.652 360.536C229.46 360.648 229.296 360.8 229.16 360.992C229.032 361.176 228.928 361.388 228.848 361.628C228.768 361.86 228.704 362.104 228.656 362.36C228.616 362.608 228.588 362.856 228.572 363.104C228.564 363.344 228.56 363.56 228.56 363.752ZM236.108 362.792H236.156C236.42 362.664 236.732 362.6 237.092 362.6C237.396 362.6 237.704 362.652 238.016 362.756C238.328 362.86 238.608 363.024 238.856 363.248C239.112 363.464 239.32 363.744 239.48 364.088C239.64 364.424 239.72 364.824 239.72 365.288C239.72 365.76 239.64 366.176 239.48 366.536C239.328 366.888 239.12 367.184 238.856 367.424C238.592 367.664 238.284 367.844 237.932 367.964C237.58 368.084 237.204 368.144 236.804 368.144C236.404 368.144 236.028 368.08 235.676 367.952C235.324 367.824 235.016 367.64 234.752 367.4C234.488 367.16 234.276 366.872 234.116 366.536C233.964 366.2 233.888 365.824 233.888 365.408C233.888 365.144 233.908 364.904 233.948 364.688C233.988 364.472 234.044 364.268 234.116 364.076C234.196 363.876 234.288 363.684 234.392 363.5C234.496 363.308 234.612 363.108 234.74 362.9L236.888 359.504H238.244L236.108 362.792ZM235.04 365.372C235.04 365.628 235.08 365.864 235.16 366.08C235.248 366.296 235.368 366.484 235.52 366.644C235.68 366.796 235.868 366.916 236.084 367.004C236.3 367.092 236.54 367.136 236.804 367.136C237.068 367.136 237.308 367.092 237.524 367.004C237.74 366.916 237.924 366.796 238.076 366.644C238.236 366.484 238.356 366.296 238.436 366.08C238.524 365.864 238.568 365.628 238.568 365.372C238.568 365.116 238.524 364.88 238.436 364.664C238.356 364.448 238.236 364.264 238.076 364.112C237.924 363.952 237.74 363.828 237.524 363.74C237.308 363.652 237.068 363.608 236.804 363.608C236.54 363.608 236.3 363.652 236.084 363.74C235.868 363.828 235.68 363.952 235.52 364.112C235.368 364.264 235.248 364.448 235.16 364.664C235.08 364.88 235.04 365.116 235.04 365.372ZM243.308 365.6H240.356V364.592H243.308V365.6ZM244.085 366.776L247.493 363.392C247.613 363.28 247.729 363.16 247.841 363.032C247.953 362.896 248.053 362.756 248.141 362.612C248.229 362.468 248.297 362.316 248.345 362.156C248.401 361.996 248.429 361.828 248.429 361.652C248.429 361.444 248.389 361.256 248.309 361.088C248.237 360.92 248.133 360.78 247.997 360.668C247.869 360.548 247.713 360.456 247.529 360.392C247.353 360.328 247.165 360.296 246.965 360.296C246.549 360.296 246.205 360.412 245.933 360.644C245.661 360.876 245.489 361.196 245.417 361.604L244.169 361.496C244.225 361.12 244.333 360.796 244.493 360.524C244.661 360.244 244.865 360.012 245.105 359.828C245.353 359.644 245.633 359.508 245.945 359.42C246.265 359.332 246.609 359.288 246.977 359.288C247.345 359.288 247.689 359.34 248.009 359.444C248.337 359.54 248.621 359.688 248.861 359.888C249.109 360.08 249.301 360.324 249.437 360.62C249.581 360.908 249.653 361.248 249.653 361.64C249.653 361.92 249.609 362.184 249.521 362.432C249.441 362.672 249.333 362.9 249.197 363.116C249.061 363.332 248.905 363.536 248.729 363.728C248.553 363.92 248.369 364.108 248.177 364.292L245.381 366.992H249.653V368H244.085V366.776ZM250.409 363.752C250.409 363.44 250.425 363.116 250.457 362.78C250.489 362.444 250.545 362.116 250.625 361.796C250.713 361.468 250.825 361.156 250.961 360.86C251.105 360.564 251.285 360.308 251.501 360.092C251.725 359.868 251.985 359.692 252.281 359.564C252.585 359.428 252.937 359.36 253.337 359.36C253.737 359.36 254.085 359.428 254.381 359.564C254.685 359.692 254.945 359.868 255.161 360.092C255.385 360.308 255.565 360.564 255.701 360.86C255.845 361.156 255.957 361.468 256.037 361.796C256.125 362.116 256.185 362.444 256.217 362.78C256.249 363.116 256.265 363.44 256.265 363.752C256.265 364.2 256.225 364.68 256.145 365.192C256.065 365.704 255.917 366.18 255.701 366.62C255.485 367.06 255.185 367.424 254.801 367.712C254.425 368 253.937 368.144 253.337 368.144C252.737 368.144 252.245 368 251.861 367.712C251.485 367.424 251.189 367.06 250.973 366.62C250.757 366.18 250.609 365.704 250.529 365.192C250.449 364.68 250.409 364.2 250.409 363.752ZM251.561 363.752C251.561 364.032 251.577 364.364 251.609 364.748C251.649 365.132 251.729 365.504 251.849 365.864C251.969 366.216 252.145 366.516 252.377 366.764C252.617 367.012 252.937 367.136 253.337 367.136C253.737 367.136 254.053 367.012 254.285 366.764C254.525 366.516 254.705 366.216 254.825 365.864C254.945 365.504 255.021 365.132 255.053 364.748C255.093 364.364 255.113 364.032 255.113 363.752C255.113 363.56 255.105 363.344 255.089 363.104C255.081 362.856 255.053 362.608 255.005 362.36C254.965 362.104 254.905 361.86 254.825 361.628C254.745 361.388 254.637 361.176 254.501 360.992C254.373 360.8 254.213 360.648 254.021 360.536C253.829 360.424 253.601 360.368 253.337 360.368C253.073 360.368 252.845 360.424 252.653 360.536C252.461 360.648 252.297 360.8 252.161 360.992C252.033 361.176 251.929 361.388 251.849 361.628C251.769 361.86 251.705 362.104 251.657 362.36C251.617 362.608 251.589 362.856 251.573 363.104C251.565 363.344 251.561 363.56 251.561 363.752ZM257.021 366.776L260.429 363.392C260.549 363.28 260.665 363.16 260.777 363.032C260.889 362.896 260.989 362.756 261.077 362.612C261.165 362.468 261.233 362.316 261.281 362.156C261.337 361.996 261.365 361.828 261.365 361.652C261.365 361.444 261.325 361.256 261.245 361.088C261.173 360.92 261.069 360.78 260.933 360.668C260.805 360.548 260.649 360.456 260.465 360.392C260.289 360.328 260.101 360.296 259.901 360.296C259.485 360.296 259.141 360.412 258.869 360.644C258.597 360.876 258.425 361.196 258.353 361.604L257.105 361.496C257.161 361.12 257.269 360.796 257.429 360.524C257.597 360.244 257.801 360.012 258.041 359.828C258.289 359.644 258.569 359.508 258.881 359.42C259.201 359.332 259.545 359.288 259.913 359.288C260.281 359.288 260.625 359.34 260.945 359.444C261.273 359.54 261.557 359.688 261.797 359.888C262.045 360.08 262.237 360.324 262.373 360.62C262.517 360.908 262.589 361.248 262.589 361.64C262.589 361.92 262.545 362.184 262.457 362.432C262.377 362.672 262.269 362.9 262.133 363.116C261.997 363.332 261.841 363.536 261.665 363.728C261.489 363.92 261.305 364.108 261.113 364.292L258.317 366.992H262.589V368H257.021V366.776ZM266.177 360.824L264.617 362.264L263.945 361.46L266.309 359.504H267.329V368H266.177V360.824Z" fill="#AAB8C6"/>
<path d="M248.5 345V349" stroke="#AAB8C6" stroke-width="0.5" stroke-linecap="square"/>
<path d="M128.408 363.752C128.408 363.44 128.424 363.116 128.456 362.78C128.488 362.444 128.544 362.116 128.624 361.796C128.712 361.468 128.824 361.156 128.96 360.86C129.104 360.564 129.284 360.308 129.5 360.092C129.724 359.868 129.984 359.692 130.28 359.564C130.584 359.428 130.936 359.36 131.336 359.36C131.736 359.36 132.084 359.428 132.38 359.564C132.684 359.692 132.944 359.868 133.16 360.092C133.384 360.308 133.564 360.564 133.7 360.86C133.844 361.156 133.956 361.468 134.036 361.796C134.124 362.116 134.184 362.444 134.216 362.78C134.248 363.116 134.264 363.44 134.264 363.752C134.264 364.2 134.224 364.68 134.144 365.192C134.064 365.704 133.916 366.18 133.7 366.62C133.484 367.06 133.184 367.424 132.8 367.712C132.424 368 131.936 368.144 131.336 368.144C130.736 368.144 130.244 368 129.86 367.712C129.484 367.424 129.188 367.06 128.972 366.62C128.756 366.18 128.608 365.704 128.528 365.192C128.448 364.68 128.408 364.2 128.408 363.752ZM129.56 363.752C129.56 364.032 129.576 364.364 129.608 364.748C129.648 365.132 129.728 365.504 129.848 365.864C129.968 366.216 130.144 366.516 130.376 366.764C130.616 367.012 130.936 367.136 131.336 367.136C131.736 367.136 132.052 367.012 132.284 366.764C132.524 366.516 132.704 366.216 132.824 365.864C132.944 365.504 133.02 365.132 133.052 364.748C133.092 364.364 133.112 364.032 133.112 363.752C133.112 363.56 133.104 363.344 133.088 363.104C133.08 362.856 133.052 362.608 133.004 362.36C132.964 362.104 132.904 361.86 132.824 361.628C132.744 361.388 132.636 361.176 132.5 360.992C132.372 360.8 132.212 360.648 132.02 360.536C131.828 360.424 131.6 360.368 131.336 360.368C131.072 360.368 130.844 360.424 130.652 360.536C130.46 360.648 130.296 360.8 130.16 360.992C130.032 361.176 129.928 361.388 129.848 361.628C129.768 361.86 129.704 362.104 129.656 362.36C129.616 362.608 129.588 362.856 129.572 363.104C129.564 363.344 129.56 363.56 129.56 363.752ZM140.12 360.584H136.676L136.64 362.708C136.696 362.684 136.776 362.66 136.88 362.636C136.984 362.612 137.088 362.592 137.192 362.576C137.304 362.56 137.412 362.548 137.516 362.54C137.62 362.532 137.708 362.528 137.78 362.528C138.18 362.528 138.54 362.596 138.86 362.732C139.188 362.868 139.468 363.06 139.7 363.308C139.932 363.556 140.108 363.852 140.228 364.196C140.356 364.54 140.42 364.92 140.42 365.336C140.42 365.76 140.34 366.144 140.18 366.488C140.028 366.832 139.816 367.128 139.544 367.376C139.272 367.624 138.956 367.816 138.596 367.952C138.236 368.08 137.848 368.144 137.432 368.144C136.856 368.144 136.336 367.996 135.872 367.7C135.408 367.404 135.076 366.98 134.876 366.428L136.04 366.032C136.192 366.424 136.396 366.708 136.652 366.884C136.908 367.052 137.228 367.136 137.612 367.136C137.836 367.136 138.048 367.096 138.248 367.016C138.456 366.936 138.632 366.824 138.776 366.68C138.928 366.528 139.048 366.344 139.136 366.128C139.224 365.912 139.268 365.668 139.268 365.396C139.268 364.772 139.076 364.308 138.692 364.004C138.316 363.692 137.824 363.536 137.216 363.536C137 363.536 136.724 363.576 136.388 363.656C136.06 363.728 135.752 363.836 135.464 363.98L135.56 359.504H140.12V360.584ZM144.308 365.6H141.356V364.592H144.308V365.6ZM145.085 366.776L148.493 363.392C148.613 363.28 148.729 363.16 148.841 363.032C148.953 362.896 149.053 362.756 149.141 362.612C149.229 362.468 149.297 362.316 149.345 362.156C149.401 361.996 149.429 361.828 149.429 361.652C149.429 361.444 149.389 361.256 149.309 361.088C149.237 360.92 149.133 360.78 148.997 360.668C148.869 360.548 148.713 360.456 148.529 360.392C148.353 360.328 148.165 360.296 147.965 360.296C147.549 360.296 147.205 360.412 146.933 360.644C146.661 360.876 146.489 361.196 146.417 361.604L145.169 361.496C145.225 361.12 145.333 360.796 145.493 360.524C145.661 360.244 145.865 360.012 146.105 359.828C146.353 359.644 146.633 359.508 146.945 359.42C147.265 359.332 147.609 359.288 147.977 359.288C148.345 359.288 148.689 359.34 149.009 359.444C149.337 359.54 149.621 359.688 149.861 359.888C150.109 360.08 150.301 360.324 150.437 360.62C150.581 360.908 150.653 361.248 150.653 361.64C150.653 361.92 150.609 362.184 150.521 362.432C150.441 362.672 150.333 362.9 150.197 363.116C150.061 363.332 149.905 363.536 149.729 363.728C149.553 363.92 149.369 364.108 149.177 364.292L146.381 366.992H150.653V368H145.085V366.776ZM151.409 363.752C151.409 363.44 151.425 363.116 151.457 362.78C151.489 362.444 151.545 362.116 151.625 361.796C151.713 361.468 151.825 361.156 151.961 360.86C152.105 360.564 152.285 360.308 152.501 360.092C152.725 359.868 152.985 359.692 153.281 359.564C153.585 359.428 153.937 359.36 154.337 359.36C154.737 359.36 155.085 359.428 155.381 359.564C155.685 359.692 155.945 359.868 156.161 360.092C156.385 360.308 156.565 360.564 156.701 360.86C156.845 361.156 156.957 361.468 157.037 361.796C157.125 362.116 157.185 362.444 157.217 362.78C157.249 363.116 157.265 363.44 157.265 363.752C157.265 364.2 157.225 364.68 157.145 365.192C157.065 365.704 156.917 366.18 156.701 366.62C156.485 367.06 156.185 367.424 155.801 367.712C155.425 368 154.937 368.144 154.337 368.144C153.737 368.144 153.245 368 152.861 367.712C152.485 367.424 152.189 367.06 151.973 366.62C151.757 366.18 151.609 365.704 151.529 365.192C151.449 364.68 151.409 364.2 151.409 363.752ZM152.561 363.752C152.561 364.032 152.577 364.364 152.609 364.748C152.649 365.132 152.729 365.504 152.849 365.864C152.969 366.216 153.145 366.516 153.377 366.764C153.617 367.012 153.937 367.136 154.337 367.136C154.737 367.136 155.053 367.012 155.285 366.764C155.525 366.516 155.705 366.216 155.825 365.864C155.945 365.504 156.021 365.132 156.053 364.748C156.093 364.364 156.113 364.032 156.113 363.752C156.113 363.56 156.105 363.344 156.089 363.104C156.081 362.856 156.053 362.608 156.005 362.36C155.965 362.104 155.905 361.86 155.825 361.628C155.745 361.388 155.637 361.176 155.501 360.992C155.373 360.8 155.213 360.648 155.021 360.536C154.829 360.424 154.601 360.368 154.337 360.368C154.073 360.368 153.845 360.424 153.653 360.536C153.461 360.648 153.297 360.8 153.161 360.992C153.033 361.176 152.929 361.388 152.849 361.628C152.769 361.86 152.705 362.104 152.657 362.36C152.617 362.608 152.589 362.856 152.573 363.104C152.565 363.344 152.561 363.56 152.561 363.752ZM158.021 366.776L161.429 363.392C161.549 363.28 161.665 363.16 161.777 363.032C161.889 362.896 161.989 362.756 162.077 362.612C162.165 362.468 162.233 362.316 162.281 362.156C162.337 361.996 162.365 361.828 162.365 361.652C162.365 361.444 162.325 361.256 162.245 361.088C162.173 360.92 162.069 360.78 161.933 360.668C161.805 360.548 161.649 360.456 161.465 360.392C161.289 360.328 161.101 360.296 160.901 360.296C160.485 360.296 160.141 360.412 159.869 360.644C159.597 360.876 159.425 361.196 159.353 361.604L158.105 361.496C158.161 361.12 158.269 360.796 158.429 360.524C158.597 360.244 158.801 360.012 159.041 359.828C159.289 359.644 159.569 359.508 159.881 359.42C160.201 359.332 160.545 359.288 160.913 359.288C161.281 359.288 161.625 359.34 161.945 359.444C162.273 359.54 162.557 359.688 162.797 359.888C163.045 360.08 163.237 360.324 163.373 360.62C163.517 360.908 163.589 361.248 163.589 361.64C163.589 361.92 163.545 362.184 163.457 362.432C163.377 362.672 163.269 362.9 163.133 363.116C162.997 363.332 162.841 363.536 162.665 363.728C162.489 363.92 162.305 364.108 162.113 364.292L159.317 366.992H163.589V368H158.021V366.776ZM167.177 360.824L165.617 362.264L164.945 361.46L167.309 359.504H168.329V368H167.177V360.824Z" fill="#AAB8C6"/>
<path d="M149.5 345V349" stroke="#AAB8C6" stroke-width="0.5" stroke-linecap="square"/>
<path d="M29.408 363.752C29.408 363.44 29.424 363.116 29.456 362.78C29.488 362.444 29.544 362.116 29.624 361.796C29.712 361.468 29.824 361.156 29.96 360.86C30.104 360.564 30.284 360.308 30.5 360.092C30.724 359.868 30.984 359.692 31.28 359.564C31.584 359.428 31.936 359.36 32.336 359.36C32.736 359.36 33.084 359.428 33.38 359.564C33.684 359.692 33.944 359.868 34.16 360.092C34.384 360.308 34.564 360.564 34.7 360.86C34.844 361.156 34.956 361.468 35.036 361.796C35.124 362.116 35.184 362.444 35.216 362.78C35.248 363.116 35.264 363.44 35.264 363.752C35.264 364.2 35.224 364.68 35.144 365.192C35.064 365.704 34.916 366.18 34.7 366.62C34.484 367.06 34.184 367.424 33.8 367.712C33.424 368 32.936 368.144 32.336 368.144C31.736 368.144 31.244 368 30.86 367.712C30.484 367.424 30.188 367.06 29.972 366.62C29.756 366.18 29.608 365.704 29.528 365.192C29.448 364.68 29.408 364.2 29.408 363.752ZM30.56 363.752C30.56 364.032 30.576 364.364 30.608 364.748C30.648 365.132 30.728 365.504 30.848 365.864C30.968 366.216 31.144 366.516 31.376 366.764C31.616 367.012 31.936 367.136 32.336 367.136C32.736 367.136 33.052 367.012 33.284 366.764C33.524 366.516 33.704 366.216 33.824 365.864C33.944 365.504 34.02 365.132 34.052 364.748C34.092 364.364 34.112 364.032 34.112 363.752C34.112 363.56 34.104 363.344 34.088 363.104C34.08 362.856 34.052 362.608 34.004 362.36C33.964 362.104 33.904 361.86 33.824 361.628C33.744 361.388 33.636 361.176 33.5 360.992C33.372 360.8 33.212 360.648 33.02 360.536C32.828 360.424 32.6 360.368 32.336 360.368C32.072 360.368 31.844 360.424 31.652 360.536C31.46 360.648 31.296 360.8 31.16 360.992C31.032 361.176 30.928 361.388 30.848 361.628C30.768 361.86 30.704 362.104 30.656 362.36C30.616 362.608 30.588 362.856 30.572 363.104C30.564 363.344 30.56 363.56 30.56 363.752ZM39.5 366.128H35.876V364.952L39.26 359.504H40.652V365.12H41.852V366.128H40.652V368H39.5V366.128ZM39.5 360.872H39.476L36.884 365.12H39.5V360.872ZM45.3079 365.6H42.3559V364.592H45.3079V365.6ZM46.0848 366.776L49.4928 363.392C49.6128 363.28 49.7288 363.16 49.8408 363.032C49.9528 362.896 50.0528 362.756 50.1408 362.612C50.2288 362.468 50.2968 362.316 50.3448 362.156C50.4008 361.996 50.4288 361.828 50.4288 361.652C50.4288 361.444 50.3888 361.256 50.3088 361.088C50.2368 360.92 50.1328 360.78 49.9968 360.668C49.8688 360.548 49.7128 360.456 49.5288 360.392C49.3528 360.328 49.1648 360.296 48.9648 360.296C48.5488 360.296 48.2048 360.412 47.9328 360.644C47.6608 360.876 47.4888 361.196 47.4168 361.604L46.1688 361.496C46.2248 361.12 46.3328 360.796 46.4928 360.524C46.6608 360.244 46.8648 360.012 47.1048 359.828C47.3528 359.644 47.6328 359.508 47.9448 359.42C48.2648 359.332 48.6088 359.288 48.9768 359.288C49.3448 359.288 49.6888 359.34 50.0088 359.444C50.3368 359.54 50.6208 359.688 50.8608 359.888C51.1088 360.08 51.3008 360.324 51.4368 360.62C51.5808 360.908 51.6528 361.248 51.6528 361.64C51.6528 361.92 51.6088 362.184 51.5208 362.432C51.4408 362.672 51.3328 362.9 51.1968 363.116C51.0608 363.332 50.9048 363.536 50.7288 363.728C50.5528 363.92 50.3688 364.108 50.1768 364.292L47.3808 366.992H51.6528V368H46.0848V366.776ZM52.4088 363.752C52.4088 363.44 52.4248 363.116 52.4568 362.78C52.4888 362.444 52.5448 362.116 52.6248 361.796C52.7128 361.468 52.8248 361.156 52.9608 360.86C53.1048 360.564 53.2848 360.308 53.5008 360.092C53.7248 359.868 53.9848 359.692 54.2808 359.564C54.5848 359.428 54.9368 359.36 55.3368 359.36C55.7368 359.36 56.0848 359.428 56.3808 359.564C56.6848 359.692 56.9448 359.868 57.1608 360.092C57.3848 360.308 57.5648 360.564 57.7008 360.86C57.8448 361.156 57.9568 361.468 58.0368 361.796C58.1248 362.116 58.1848 362.444 58.2168 362.78C58.2488 363.116 58.2648 363.44 58.2648 363.752C58.2648 364.2 58.2248 364.68 58.1448 365.192C58.0648 365.704 57.9168 366.18 57.7008 366.62C57.4848 367.06 57.1848 367.424 56.8008 367.712C56.4248 368 55.9368 368.144 55.3368 368.144C54.7368 368.144 54.2448 368 53.8608 367.712C53.4848 367.424 53.1888 367.06 52.9728 366.62C52.7568 366.18 52.6088 365.704 52.5288 365.192C52.4488 364.68 52.4088 364.2 52.4088 363.752ZM53.5608 363.752C53.5608 364.032 53.5768 364.364 53.6088 364.748C53.6488 365.132 53.7288 365.504 53.8488 365.864C53.9688 366.216 54.1448 366.516 54.3768 366.764C54.6168 367.012 54.9368 367.136 55.3368 367.136C55.7368 367.136 56.0528 367.012 56.2848 366.764C56.5248 366.516 56.7048 366.216 56.8248 365.864C56.9448 365.504 57.0208 365.132 57.0528 364.748C57.0928 364.364 57.1128 364.032 57.1128 363.752C57.1128 363.56 57.1048 363.344 57.0888 363.104C57.0808 362.856 57.0528 362.608 57.0048 362.36C56.9648 362.104 56.9048 361.86 56.8248 361.628C56.7448 361.388 56.6368 361.176 56.5008 360.992C56.3728 360.8 56.2128 360.648 56.0208 360.536C55.8288 360.424 55.6008 360.368 55.3368 360.368C55.0728 360.368 54.8448 360.424 54.6528 360.536C54.4608 360.648 54.2968 360.8 54.1608 360.992C54.0328 361.176 53.9288 361.388 53.8488 361.628C53.7688 361.86 53.7048 362.104 53.6568 362.36C53.6168 362.608 53.5888 362.856 53.5728 363.104C53.5648 363.344 53.5608 363.56 53.5608 363.752ZM59.0208 366.776L62.4288 363.392C62.5488 363.28 62.6648 363.16 62.7768 363.032C62.8888 362.896 62.9888 362.756 63.0768 362.612C63.1648 362.468 63.2328 362.316 63.2808 362.156C63.3368 361.996 63.3648 361.828 63.3648 361.652C63.3648 361.444 63.3248 361.256 63.2448 361.088C63.1728 360.92 63.0688 360.78 62.9328 360.668C62.8048 360.548 62.6488 360.456 62.4648 360.392C62.2888 360.328 62.1008 360.296 61.9008 360.296C61.4848 360.296 61.1408 360.412 60.8688 360.644C60.5968 360.876 60.4248 361.196 60.3528 361.604L59.1048 361.496C59.1608 361.12 59.2688 360.796 59.4288 360.524C59.5968 360.244 59.8008 360.012 60.0408 359.828C60.2888 359.644 60.5688 359.508 60.8808 359.42C61.2008 359.332 61.5448 359.288 61.9128 359.288C62.2808 359.288 62.6248 359.34 62.9448 359.444C63.2728 359.54 63.5568 359.688 63.7968 359.888C64.0448 360.08 64.2368 360.324 64.3728 360.62C64.5168 360.908 64.5888 361.248 64.5888 361.64C64.5888 361.92 64.5448 362.184 64.4568 362.432C64.3768 362.672 64.2688 362.9 64.1328 363.116C63.9968 363.332 63.8408 363.536 63.6648 363.728C63.4888 363.92 63.3048 364.108 63.1128 364.292L60.3168 366.992H64.5888V368H59.0208V366.776ZM68.1767 360.824L66.6167 362.264L65.9447 361.46L68.3087 359.504H69.3287V368H68.1767V360.824Z" fill="#AAB8C6"/>
<path d="M50.5 345V349" stroke="#AAB8C6" stroke-width="0.5" stroke-linecap="square"/>
<path d="M326.408 363.752C326.408 363.44 326.424 363.116 326.456 362.78C326.488 362.444 326.544 362.116 326.624 361.796C326.712 361.468 326.824 361.156 326.96 360.86C327.104 360.564 327.284 360.308 327.5 360.092C327.724 359.868 327.984 359.692 328.28 359.564C328.584 359.428 328.936 359.36 329.336 359.36C329.736 359.36 330.084 359.428 330.38 359.564C330.684 359.692 330.944 359.868 331.16 360.092C331.384 360.308 331.564 360.564 331.7 360.86C331.844 361.156 331.956 361.468 332.036 361.796C332.124 362.116 332.184 362.444 332.216 362.78C332.248 363.116 332.264 363.44 332.264 363.752C332.264 364.2 332.224 364.68 332.144 365.192C332.064 365.704 331.916 366.18 331.7 366.62C331.484 367.06 331.184 367.424 330.8 367.712C330.424 368 329.936 368.144 329.336 368.144C328.736 368.144 328.244 368 327.86 367.712C327.484 367.424 327.188 367.06 326.972 366.62C326.756 366.18 326.608 365.704 326.528 365.192C326.448 364.68 326.408 364.2 326.408 363.752ZM327.56 363.752C327.56 364.032 327.576 364.364 327.608 364.748C327.648 365.132 327.728 365.504 327.848 365.864C327.968 366.216 328.144 366.516 328.376 366.764C328.616 367.012 328.936 367.136 329.336 367.136C329.736 367.136 330.052 367.012 330.284 366.764C330.524 366.516 330.704 366.216 330.824 365.864C330.944 365.504 331.02 365.132 331.052 364.748C331.092 364.364 331.112 364.032 331.112 363.752C331.112 363.56 331.104 363.344 331.088 363.104C331.08 362.856 331.052 362.608 331.004 362.36C330.964 362.104 330.904 361.86 330.824 361.628C330.744 361.388 330.636 361.176 330.5 360.992C330.372 360.8 330.212 360.648 330.02 360.536C329.828 360.424 329.6 360.368 329.336 360.368C329.072 360.368 328.844 360.424 328.652 360.536C328.46 360.648 328.296 360.8 328.16 360.992C328.032 361.176 327.928 361.388 327.848 361.628C327.768 361.86 327.704 362.104 327.656 362.36C327.616 362.608 327.588 362.856 327.572 363.104C327.564 363.344 327.56 363.56 327.56 363.752ZM337.076 360.512H332.972V359.504H338.312V360.488L334.928 368H333.632L337.076 360.512ZM342.308 365.6H339.356V364.592H342.308V365.6ZM343.085 366.776L346.493 363.392C346.613 363.28 346.729 363.16 346.841 363.032C346.953 362.896 347.053 362.756 347.141 362.612C347.229 362.468 347.297 362.316 347.345 362.156C347.401 361.996 347.429 361.828 347.429 361.652C347.429 361.444 347.389 361.256 347.309 361.088C347.237 360.92 347.133 360.78 346.997 360.668C346.869 360.548 346.713 360.456 346.529 360.392C346.353 360.328 346.165 360.296 345.965 360.296C345.549 360.296 345.205 360.412 344.933 360.644C344.661 360.876 344.489 361.196 344.417 361.604L343.169 361.496C343.225 361.12 343.333 360.796 343.493 360.524C343.661 360.244 343.865 360.012 344.105 359.828C344.353 359.644 344.633 359.508 344.945 359.42C345.265 359.332 345.609 359.288 345.977 359.288C346.345 359.288 346.689 359.34 347.009 359.444C347.337 359.54 347.621 359.688 347.861 359.888C348.109 360.08 348.301 360.324 348.437 360.62C348.581 360.908 348.653 361.248 348.653 361.64C348.653 361.92 348.609 362.184 348.521 362.432C348.441 362.672 348.333 362.9 348.197 363.116C348.061 363.332 347.905 363.536 347.729 363.728C347.553 363.92 347.369 364.108 347.177 364.292L344.381 366.992H348.653V368H343.085V366.776ZM349.409 363.752C349.409 363.44 349.425 363.116 349.457 362.78C349.489 362.444 349.545 362.116 349.625 361.796C349.713 361.468 349.825 361.156 349.961 360.86C350.105 360.564 350.285 360.308 350.501 360.092C350.725 359.868 350.985 359.692 351.281 359.564C351.585 359.428 351.937 359.36 352.337 359.36C352.737 359.36 353.085 359.428 353.381 359.564C353.685 359.692 353.945 359.868 354.161 360.092C354.385 360.308 354.565 360.564 354.701 360.86C354.845 361.156 354.957 361.468 355.037 361.796C355.125 362.116 355.185 362.444 355.217 362.78C355.249 363.116 355.265 363.44 355.265 363.752C355.265 364.2 355.225 364.68 355.145 365.192C355.065 365.704 354.917 366.18 354.701 366.62C354.485 367.06 354.185 367.424 353.801 367.712C353.425 368 352.937 368.144 352.337 368.144C351.737 368.144 351.245 368 350.861 367.712C350.485 367.424 350.189 367.06 349.973 366.62C349.757 366.18 349.609 365.704 349.529 365.192C349.449 364.68 349.409 364.2 349.409 363.752ZM350.561 363.752C350.561 364.032 350.577 364.364 350.609 364.748C350.649 365.132 350.729 365.504 350.849 365.864C350.969 366.216 351.145 366.516 351.377 366.764C351.617 367.012 351.937 367.136 352.337 367.136C352.737 367.136 353.053 367.012 353.285 366.764C353.525 366.516 353.705 366.216 353.825 365.864C353.945 365.504 354.021 365.132 354.053 364.748C354.093 364.364 354.113 364.032 354.113 363.752C354.113 363.56 354.105 363.344 354.089 363.104C354.081 362.856 354.053 362.608 354.005 362.36C353.965 362.104 353.905 361.86 353.825 361.628C353.745 361.388 353.637 361.176 353.501 360.992C353.373 360.8 353.213 360.648 353.021 360.536C352.829 360.424 352.601 360.368 352.337 360.368C352.073 360.368 351.845 360.424 351.653 360.536C351.461 360.648 351.297 360.8 351.161 360.992C351.033 361.176 350.929 361.388 350.849 361.628C350.769 361.86 350.705 362.104 350.657 362.36C350.617 362.608 350.589 362.856 350.573 363.104C350.565 363.344 350.561 363.56 350.561 363.752ZM356.021 366.776L359.429 363.392C359.549 363.28 359.665 363.16 359.777 363.032C359.889 362.896 359.989 362.756 360.077 362.612C360.165 362.468 360.233 362.316 360.281 362.156C360.337 361.996 360.365 361.828 360.365 361.652C360.365 361.444 360.325 361.256 360.245 361.088C360.173 360.92 360.069 360.78 359.933 360.668C359.805 360.548 359.649 360.456 359.465 360.392C359.289 360.328 359.101 360.296 358.901 360.296C358.485 360.296 358.141 360.412 357.869 360.644C357.597 360.876 357.425 361.196 357.353 361.604L356.105 361.496C356.161 361.12 356.269 360.796 356.429 360.524C356.597 360.244 356.801 360.012 357.041 359.828C357.289 359.644 357.569 359.508 357.881 359.42C358.201 359.332 358.545 359.288 358.913 359.288C359.281 359.288 359.625 359.34 359.945 359.444C360.273 359.54 360.557 359.688 360.797 359.888C361.045 360.08 361.237 360.324 361.373 360.62C361.517 360.908 361.589 361.248 361.589 361.64C361.589 361.92 361.545 362.184 361.457 362.432C361.377 362.672 361.269 362.9 361.133 363.116C360.997 363.332 360.841 363.536 360.665 363.728C360.489 363.92 360.305 364.108 360.113 364.292L357.317 366.992H361.589V368H356.021V366.776ZM365.177 360.824L363.617 362.264L362.945 361.46L365.309 359.504H366.329V368H365.177V360.824Z" fill="#AAB8C6"/>
<path d="M347.5 345V349" stroke="#AAB8C6" stroke-width="0.5" stroke-linecap="square"/>
<path d="M425.408 363.752C425.408 363.44 425.424 363.116 425.456 362.78C425.488 362.444 425.544 362.116 425.624 361.796C425.712 361.468 425.824 361.156 425.96 360.86C426.104 360.564 426.284 360.308 426.5 360.092C426.724 359.868 426.984 359.692 427.28 359.564C427.584 359.428 427.936 359.36 428.336 359.36C428.736 359.36 429.084 359.428 429.38 359.564C429.684 359.692 429.944 359.868 430.16 360.092C430.384 360.308 430.564 360.564 430.7 360.86C430.844 361.156 430.956 361.468 431.036 361.796C431.124 362.116 431.184 362.444 431.216 362.78C431.248 363.116 431.264 363.44 431.264 363.752C431.264 364.2 431.224 364.68 431.144 365.192C431.064 365.704 430.916 366.18 430.7 366.62C430.484 367.06 430.184 367.424 429.8 367.712C429.424 368 428.936 368.144 428.336 368.144C427.736 368.144 427.244 368 426.86 367.712C426.484 367.424 426.188 367.06 425.972 366.62C425.756 366.18 425.608 365.704 425.528 365.192C425.448 364.68 425.408 364.2 425.408 363.752ZM426.56 363.752C426.56 364.032 426.576 364.364 426.608 364.748C426.648 365.132 426.728 365.504 426.848 365.864C426.968 366.216 427.144 366.516 427.376 366.764C427.616 367.012 427.936 367.136 428.336 367.136C428.736 367.136 429.052 367.012 429.284 366.764C429.524 366.516 429.704 366.216 429.824 365.864C429.944 365.504 430.02 365.132 430.052 364.748C430.092 364.364 430.112 364.032 430.112 363.752C430.112 363.56 430.104 363.344 430.088 363.104C430.08 362.856 430.052 362.608 430.004 362.36C429.964 362.104 429.904 361.86 429.824 361.628C429.744 361.388 429.636 361.176 429.5 360.992C429.372 360.8 429.212 360.648 429.02 360.536C428.828 360.424 428.6 360.368 428.336 360.368C428.072 360.368 427.844 360.424 427.652 360.536C427.46 360.648 427.296 360.8 427.16 360.992C427.032 361.176 426.928 361.388 426.848 361.628C426.768 361.86 426.704 362.104 426.656 362.36C426.616 362.608 426.588 362.856 426.572 363.104C426.564 363.344 426.56 363.56 426.56 363.752ZM434.804 368.144C434.42 368.144 434.056 368.088 433.712 367.976C433.376 367.856 433.084 367.684 432.836 367.46C432.588 367.236 432.392 366.964 432.248 366.644C432.104 366.324 432.032 365.964 432.032 365.564C432.032 365.3 432.072 365.056 432.152 364.832C432.24 364.608 432.356 364.408 432.5 364.232C432.644 364.048 432.812 363.896 433.004 363.776C433.204 363.648 433.42 363.552 433.652 363.488V363.452C433.492 363.412 433.332 363.34 433.172 363.236C433.012 363.132 432.868 363 432.74 362.84C432.62 362.68 432.52 362.488 432.44 362.264C432.36 362.032 432.32 361.768 432.32 361.472C432.32 361.152 432.384 360.864 432.512 360.608C432.648 360.344 432.828 360.12 433.052 359.936C433.284 359.752 433.548 359.612 433.844 359.516C434.148 359.412 434.468 359.36 434.804 359.36C435.14 359.36 435.456 359.412 435.752 359.516C436.056 359.612 436.32 359.752 436.544 359.936C436.776 360.12 436.956 360.344 437.084 360.608C437.22 360.864 437.288 361.152 437.288 361.472C437.288 361.768 437.248 362.032 437.168 362.264C437.088 362.488 436.984 362.68 436.856 362.84C436.736 363 436.596 363.132 436.436 363.236C436.276 363.34 436.116 363.412 435.956 363.452V363.488C436.188 363.552 436.4 363.648 436.592 363.776C436.792 363.896 436.964 364.048 437.108 364.232C437.252 364.408 437.364 364.608 437.444 364.832C437.532 365.056 437.576 365.3 437.576 365.564C437.576 365.964 437.504 366.324 437.36 366.644C437.216 366.964 437.02 367.236 436.772 367.46C436.524 367.684 436.228 367.856 435.884 367.976C435.548 368.088 435.188 368.144 434.804 368.144ZM433.472 361.64C433.472 361.808 433.5 361.972 433.556 362.132C433.62 362.292 433.708 362.436 433.82 362.564C433.932 362.684 434.068 362.784 434.228 362.864C434.396 362.944 434.588 362.984 434.804 362.984C435.028 362.984 435.22 362.948 435.38 362.876C435.548 362.796 435.688 362.696 435.8 362.576C435.912 362.448 435.996 362.304 436.052 362.144C436.108 361.984 436.136 361.816 436.136 361.64C436.136 361.248 436.012 360.928 435.764 360.68C435.524 360.424 435.204 360.296 434.804 360.296C434.436 360.296 434.12 360.42 433.856 360.668C433.6 360.916 433.472 361.24 433.472 361.64ZM434.804 367.136C435.284 367.136 435.672 366.992 435.968 366.704C436.272 366.408 436.424 366.028 436.424 365.564C436.424 365.308 436.38 365.084 436.292 364.892C436.212 364.692 436.096 364.528 435.944 364.4C435.8 364.264 435.628 364.164 435.428 364.1C435.236 364.028 435.028 363.992 434.804 363.992C434.332 364 433.944 364.152 433.64 364.448C433.336 364.736 433.184 365.108 433.184 365.564C433.184 365.812 433.228 366.036 433.316 366.236C433.404 366.428 433.52 366.592 433.664 366.728C433.816 366.856 433.988 366.956 434.18 367.028C434.38 367.1 434.588 367.136 434.804 367.136ZM441.308 365.6H438.356V364.592H441.308V365.6ZM442.085 366.776L445.493 363.392C445.613 363.28 445.729 363.16 445.841 363.032C445.953 362.896 446.053 362.756 446.141 362.612C446.229 362.468 446.297 362.316 446.345 362.156C446.401 361.996 446.429 361.828 446.429 361.652C446.429 361.444 446.389 361.256 446.309 361.088C446.237 360.92 446.133 360.78 445.997 360.668C445.869 360.548 445.713 360.456 445.529 360.392C445.353 360.328 445.165 360.296 444.965 360.296C444.549 360.296 444.205 360.412 443.933 360.644C443.661 360.876 443.489 361.196 443.417 361.604L442.169 361.496C442.225 361.12 442.333 360.796 442.493 360.524C442.661 360.244 442.865 360.012 443.105 359.828C443.353 359.644 443.633 359.508 443.945 359.42C444.265 359.332 444.609 359.288 444.977 359.288C445.345 359.288 445.689 359.34 446.009 359.444C446.337 359.54 446.621 359.688 446.861 359.888C447.109 360.08 447.301 360.324 447.437 360.62C447.581 360.908 447.653 361.248 447.653 361.64C447.653 361.92 447.609 362.184 447.521 362.432C447.441 362.672 447.333 362.9 447.197 363.116C447.061 363.332 446.905 363.536 446.729 363.728C446.553 363.92 446.369 364.108 446.177 364.292L443.381 366.992H447.653V368H442.085V366.776ZM448.409 363.752C448.409 363.44 448.425 363.116 448.457 362.78C448.489 362.444 448.545 362.116 448.625 361.796C448.713 361.468 448.825 361.156 448.961 360.86C449.105 360.564 449.285 360.308 449.501 360.092C449.725 359.868 449.985 359.692 450.281 359.564C450.585 359.428 450.937 359.36 451.337 359.36C451.737 359.36 452.085 359.428 452.381 359.564C452.685 359.692 452.945 359.868 453.161 360.092C453.385 360.308 453.565 360.564 453.701 360.86C453.845 361.156 453.957 361.468 454.037 361.796C454.125 362.116 454.185 362.444 454.217 362.78C454.249 363.116 454.265 363.44 454.265 363.752C454.265 364.2 454.225 364.68 454.145 365.192C454.065 365.704 453.917 366.18 453.701 366.62C453.485 367.06 453.185 367.424 452.801 367.712C452.425 368 451.937 368.144 451.337 368.144C450.737 368.144 450.245 368 449.861 367.712C449.485 367.424 449.189 367.06 448.973 366.62C448.757 366.18 448.609 365.704 448.529 365.192C448.449 364.68 448.409 364.2 448.409 363.752ZM449.561 363.752C449.561 364.032 449.577 364.364 449.609 364.748C449.649 365.132 449.729 365.504 449.849 365.864C449.969 366.216 450.145 366.516 450.377 366.764C450.617 367.012 450.937 367.136 451.337 367.136C451.737 367.136 452.053 367.012 452.285 366.764C452.525 366.516 452.705 366.216 452.825 365.864C452.945 365.504 453.021 365.132 453.053 364.748C453.093 364.364 453.113 364.032 453.113 363.752C453.113 363.56 453.105 363.344 453.089 363.104C453.081 362.856 453.053 362.608 453.005 362.36C452.965 362.104 452.905 361.86 452.825 361.628C452.745 361.388 452.637 361.176 452.501 360.992C452.373 360.8 452.213 360.648 452.021 360.536C451.829 360.424 451.601 360.368 451.337 360.368C451.073 360.368 450.845 360.424 450.653 360.536C450.461 360.648 450.297 360.8 450.161 360.992C450.033 361.176 449.929 361.388 449.849 361.628C449.769 361.86 449.705 362.104 449.657 362.36C449.617 362.608 449.589 362.856 449.573 363.104C449.565 363.344 449.561 363.56 449.561 363.752ZM455.021 366.776L458.429 363.392C458.549 363.28 458.665 363.16 458.777 363.032C458.889 362.896 458.989 362.756 459.077 362.612C459.165 362.468 459.233 362.316 459.281 362.156C459.337 361.996 459.365 361.828 459.365 361.652C459.365 361.444 459.325 361.256 459.245 361.088C459.173 360.92 459.069 360.78 458.933 360.668C458.805 360.548 458.649 360.456 458.465 360.392C458.289 360.328 458.101 360.296 457.901 360.296C457.485 360.296 457.141 360.412 456.869 360.644C456.597 360.876 456.425 361.196 456.353 361.604L455.105 361.496C455.161 361.12 455.269 360.796 455.429 360.524C455.597 360.244 455.801 360.012 456.041 359.828C456.289 359.644 456.569 359.508 456.881 359.42C457.201 359.332 457.545 359.288 457.913 359.288C458.281 359.288 458.625 359.34 458.945 359.444C459.273 359.54 459.557 359.688 459.797 359.888C460.045 360.08 460.237 360.324 460.373 360.62C460.517 360.908 460.589 361.248 460.589 361.64C460.589 361.92 460.545 362.184 460.457 362.432C460.377 362.672 460.269 362.9 460.133 363.116C459.997 363.332 459.841 363.536 459.665 363.728C459.489 363.92 459.305 364.108 459.113 364.292L456.317 366.992H460.589V368H455.021V366.776ZM464.177 360.824L462.617 362.264L461.945 361.46L464.309 359.504H465.329V368H464.177V360.824Z" fill="#AAB8C6"/>
<path d="M446.5 345V349" stroke="#AAB8C6" stroke-width="0.5" stroke-linecap="square"/>
<path d="M524.408 363.752C524.408 363.44 524.424 363.116 524.456 362.78C524.488 362.444 524.544 362.116 524.624 361.796C524.712 361.468 524.824 361.156 524.96 360.86C525.104 360.564 525.284 360.308 525.5 360.092C525.724 359.868 525.984 359.692 526.28 359.564C526.584 359.428 526.936 359.36 527.336 359.36C527.736 359.36 528.084 359.428 528.38 359.564C528.684 359.692 528.944 359.868 529.16 360.092C529.384 360.308 529.564 360.564 529.7 360.86C529.844 361.156 529.956 361.468 530.036 361.796C530.124 362.116 530.184 362.444 530.216 362.78C530.248 363.116 530.264 363.44 530.264 363.752C530.264 364.2 530.224 364.68 530.144 365.192C530.064 365.704 529.916 366.18 529.7 366.62C529.484 367.06 529.184 367.424 528.8 367.712C528.424 368 527.936 368.144 527.336 368.144C526.736 368.144 526.244 368 525.86 367.712C525.484 367.424 525.188 367.06 524.972 366.62C524.756 366.18 524.608 365.704 524.528 365.192C524.448 364.68 524.408 364.2 524.408 363.752ZM525.56 363.752C525.56 364.032 525.576 364.364 525.608 364.748C525.648 365.132 525.728 365.504 525.848 365.864C525.968 366.216 526.144 366.516 526.376 366.764C526.616 367.012 526.936 367.136 527.336 367.136C527.736 367.136 528.052 367.012 528.284 366.764C528.524 366.516 528.704 366.216 528.824 365.864C528.944 365.504 529.02 365.132 529.052 364.748C529.092 364.364 529.112 364.032 529.112 363.752C529.112 363.56 529.104 363.344 529.088 363.104C529.08 362.856 529.052 362.608 529.004 362.36C528.964 362.104 528.904 361.86 528.824 361.628C528.744 361.388 528.636 361.176 528.5 360.992C528.372 360.8 528.212 360.648 528.02 360.536C527.828 360.424 527.6 360.368 527.336 360.368C527.072 360.368 526.844 360.424 526.652 360.536C526.46 360.648 526.296 360.8 526.16 360.992C526.032 361.176 525.928 361.388 525.848 361.628C525.768 361.86 525.704 362.104 525.656 362.36C525.616 362.608 525.588 362.856 525.572 363.104C525.564 363.344 525.56 363.56 525.56 363.752ZM534.5 364.712H534.452C534.188 364.84 533.876 364.904 533.516 364.904C533.212 364.904 532.904 364.852 532.592 364.748C532.28 364.644 531.996 364.484 531.74 364.268C531.492 364.044 531.288 363.764 531.128 363.428C530.968 363.084 530.888 362.68 530.888 362.216C530.888 361.752 530.964 361.344 531.116 360.992C531.276 360.632 531.488 360.332 531.752 360.092C532.016 359.852 532.324 359.672 532.676 359.552C533.028 359.424 533.404 359.36 533.804 359.36C534.204 359.36 534.58 359.424 534.932 359.552C535.284 359.68 535.592 359.864 535.856 360.104C536.12 360.344 536.328 360.632 536.48 360.968C536.64 361.304 536.72 361.68 536.72 362.096C536.72 362.36 536.7 362.6 536.66 362.816C536.62 363.032 536.56 363.24 536.48 363.44C536.408 363.632 536.32 363.824 536.216 364.016C536.112 364.208 535.996 364.404 535.868 364.604L533.72 368H532.364L534.5 364.712ZM535.568 362.132C535.568 361.876 535.524 361.64 535.436 361.424C535.356 361.208 535.236 361.024 535.076 360.872C534.924 360.712 534.74 360.588 534.524 360.5C534.308 360.412 534.068 360.368 533.804 360.368C533.54 360.368 533.3 360.412 533.084 360.5C532.868 360.588 532.68 360.712 532.52 360.872C532.368 361.024 532.248 361.208 532.16 361.424C532.08 361.64 532.04 361.876 532.04 362.132C532.04 362.388 532.08 362.624 532.16 362.84C532.248 363.056 532.368 363.244 532.52 363.404C532.68 363.556 532.868 363.676 533.084 363.764C533.3 363.852 533.54 363.896 533.804 363.896C534.068 363.896 534.308 363.852 534.524 363.764C534.74 363.676 534.924 363.556 535.076 363.404C535.236 363.244 535.356 363.056 535.436 362.84C535.524 362.624 535.568 362.388 535.568 362.132ZM540.308 365.6H537.356V364.592H540.308V365.6ZM541.085 366.776L544.493 363.392C544.613 363.28 544.729 363.16 544.841 363.032C544.953 362.896 545.053 362.756 545.141 362.612C545.229 362.468 545.297 362.316 545.345 362.156C545.401 361.996 545.429 361.828 545.429 361.652C545.429 361.444 545.389 361.256 545.309 361.088C545.237 360.92 545.133 360.78 544.997 360.668C544.869 360.548 544.713 360.456 544.529 360.392C544.353 360.328 544.165 360.296 543.965 360.296C543.549 360.296 543.205 360.412 542.933 360.644C542.661 360.876 542.489 361.196 542.417 361.604L541.169 361.496C541.225 361.12 541.333 360.796 541.493 360.524C541.661 360.244 541.865 360.012 542.105 359.828C542.353 359.644 542.633 359.508 542.945 359.42C543.265 359.332 543.609 359.288 543.977 359.288C544.345 359.288 544.689 359.34 545.009 359.444C545.337 359.54 545.621 359.688 545.861 359.888C546.109 360.08 546.301 360.324 546.437 360.62C546.581 360.908 546.653 361.248 546.653 361.64C546.653 361.92 546.609 362.184 546.521 362.432C546.441 362.672 546.333 362.9 546.197 363.116C546.061 363.332 545.905 363.536 545.729 363.728C545.553 363.92 545.369 364.108 545.177 364.292L542.381 366.992H546.653V368H541.085V366.776ZM547.409 363.752C547.409 363.44 547.425 363.116 547.457 362.78C547.489 362.444 547.545 362.116 547.625 361.796C547.713 361.468 547.825 361.156 547.961 360.86C548.105 360.564 548.285 360.308 548.501 360.092C548.725 359.868 548.985 359.692 549.281 359.564C549.585 359.428 549.937 359.36 550.337 359.36C550.737 359.36 551.085 359.428 551.381 359.564C551.685 359.692 551.945 359.868 552.161 360.092C552.385 360.308 552.565 360.564 552.701 360.86C552.845 361.156 552.957 361.468 553.037 361.796C553.125 362.116 553.185 362.444 553.217 362.78C553.249 363.116 553.265 363.44 553.265 363.752C553.265 364.2 553.225 364.68 553.145 365.192C553.065 365.704 552.917 366.18 552.701 366.62C552.485 367.06 552.185 367.424 551.801 367.712C551.425 368 550.937 368.144 550.337 368.144C549.737 368.144 549.245 368 548.861 367.712C548.485 367.424 548.189 367.06 547.973 366.62C547.757 366.18 547.609 365.704 547.529 365.192C547.449 364.68 547.409 364.2 547.409 363.752ZM548.561 363.752C548.561 364.032 548.577 364.364 548.609 364.748C548.649 365.132 548.729 365.504 548.849 365.864C548.969 366.216 549.145 366.516 549.377 366.764C549.617 367.012 549.937 367.136 550.337 367.136C550.737 367.136 551.053 367.012 551.285 366.764C551.525 366.516 551.705 366.216 551.825 365.864C551.945 365.504 552.021 365.132 552.053 364.748C552.093 364.364 552.113 364.032 552.113 363.752C552.113 363.56 552.105 363.344 552.089 363.104C552.081 362.856 552.053 362.608 552.005 362.36C551.965 362.104 551.905 361.86 551.825 361.628C551.745 361.388 551.637 361.176 551.501 360.992C551.373 360.8 551.213 360.648 551.021 360.536C550.829 360.424 550.601 360.368 550.337 360.368C550.073 360.368 549.845 360.424 549.653 360.536C549.461 360.648 549.297 360.8 549.161 360.992C549.033 361.176 548.929 361.388 548.849 361.628C548.769 361.86 548.705 362.104 548.657 362.36C548.617 362.608 548.589 362.856 548.573 363.104C548.565 363.344 548.561 363.56 548.561 363.752ZM554.021 366.776L557.429 363.392C557.549 363.28 557.665 363.16 557.777 363.032C557.889 362.896 557.989 362.756 558.077 362.612C558.165 362.468 558.233 362.316 558.281 362.156C558.337 361.996 558.365 361.828 558.365 361.652C558.365 361.444 558.325 361.256 558.245 361.088C558.173 360.92 558.069 360.78 557.933 360.668C557.805 360.548 557.649 360.456 557.465 360.392C557.289 360.328 557.101 360.296 556.901 360.296C556.485 360.296 556.141 360.412 555.869 360.644C555.597 360.876 555.425 361.196 555.353 361.604L554.105 361.496C554.161 361.12 554.269 360.796 554.429 360.524C554.597 360.244 554.801 360.012 555.041 359.828C555.289 359.644 555.569 359.508 555.881 359.42C556.201 359.332 556.545 359.288 556.913 359.288C557.281 359.288 557.625 359.34 557.945 359.444C558.273 359.54 558.557 359.688 558.797 359.888C559.045 360.08 559.237 360.324 559.373 360.62C559.517 360.908 559.589 361.248 559.589 361.64C559.589 361.92 559.545 362.184 559.457 362.432C559.377 362.672 559.269 362.9 559.133 363.116C558.997 363.332 558.841 363.536 558.665 363.728C558.489 363.92 558.305 364.108 558.113 364.292L555.317 366.992H559.589V368H554.021V366.776ZM563.177 360.824L561.617 362.264L560.945 361.46L563.309 359.504H564.329V368H563.177V360.824Z" fill="#AAB8C6"/>
<path d="M545.5 345V349" stroke="#AAB8C6" stroke-width="0.5" stroke-linecap="square"/>
<defs>
<linearGradient id="paint0_linear" x1="568" y1="325.5" x2="568" y2="108.5" gradientUnits="userSpaceOnUse">
<stop stop-color="white"/>
<stop offset="1" stop-color="#60B2FF"/>
</linearGradient>
</defs>
</svg>
