<svg width="569" height="370" fill="none" xmlns="http://www.w3.org/2000/svg"><path d="M14.74 338.752c0-.312.016-.636.048-.972.032-.336.088-.664.168-.984.088-.328.2-.64.336-.936a2.82 2.82 0 0 1 .54-.768c.224-.224.484-.4.78-.528a2.564 2.564 0 0 1 1.056-.204c.4 0 .748.068 1.044.204.304.128.564.304.78.528.224.216.404.472.54.768.144.296.256.608.336.936.088.32.148.648.18.984.032.336.048.66.048.972 0 .448-.04.928-.12 1.44-.08.512-.228.988-.444 1.428-.216.44-.516.804-.9 1.092-.376.288-.864.432-1.464.432s-1.092-.144-1.476-.432a3.042 3.042 0 0 1-.888-1.092 4.956 4.956 0 0 1-.444-1.428 9.355 9.355 0 0 1-.12-1.44zm1.152 0c0 .28.016.612.048.996.04.384.12.756.24 1.116.12.352.296.652.528.9.24.248.56.372.96.372.4 0 .716-.124.948-.372.24-.248.42-.548.54-.9.12-.36.196-.732.228-1.116.04-.384.06-.716.06-.996 0-.192-.008-.408-.024-.648a4.709 4.709 0 0 0-.084-.744c-.04-.256-.1-.5-.18-.732a2.267 2.267 0 0 0-.324-.636 1.45 1.45 0 0 0-.48-.456 1.334 1.334 0 0 0-.684-.168c-.264 0-.492.056-.684.168a1.568 1.568 0 0 0-.492.456 2.48 2.48 0 0 0-.312.636 5.16 5.16 0 0 0-.192.732 7.84 7.84 0 0 0-.084.744c-.008.24-.012.456-.012.648zM3.523 288.824l-1.56 1.44-.672-.804 2.364-1.956h1.02V296H3.523v-7.176zm3.636 2.928c0-.312.016-.636.048-.972.032-.336.088-.664.168-.984.088-.328.2-.64.336-.936a2.82 2.82 0 0 1 .54-.768c.224-.224.484-.4.78-.528a2.564 2.564 0 0 1 1.056-.204c.4 0 .748.068 1.044.204.304.128.564.304.78.528.224.216.404.472.54.768.144.296.256.608.336.936.088.32.148.648.18.984.032.336.048.66.048.972 0 .448-.04.928-.12 1.44-.08.512-.228.988-.444 1.428-.216.44-.516.804-.9 1.092-.376.288-.864.432-1.464.432s-1.092-.144-1.476-.432a3.042 3.042 0 0 1-.888-1.092 4.956 4.956 0 0 1-.444-1.428 9.355 9.355 0 0 1-.12-1.44zm1.152 0c0 .28.016.612.048.996.04.384.12.756.24 1.116.12.352.296.652.528.9.24.248.56.372.96.372.4 0 .716-.124.948-.372.24-.248.42-.548.54-.9.12-.36.196-.732.228-1.116.04-.384.06-.716.06-.996 0-.192-.008-.408-.024-.648a4.709 4.709 0 0 0-.084-.744c-.04-.256-.1-.5-.18-.732a2.267 2.267 0 0 0-.324-.636 1.45 1.45 0 0 0-.48-.456 1.334 1.334 0 0 0-.684-.168c-.264 0-.492.056-.684.168a1.568 1.568 0 0 0-.492.456 2.48 2.48 0 0 0-.312.636 5.16 5.16 0 0 0-.192.732 7.84 7.84 0 0 0-.084.744c-.008.24-.012.456-.012.648zm6-4.248h1.152v3.672h.096l3.756-3.672h1.608l-4.104 3.924 4.38 4.572h-1.68l-3.96-4.248h-.096V296H14.31v-8.496zM.835 246.776l3.408-3.384c.12-.112.236-.232.348-.36.112-.136.212-.276.3-.42a1.94 1.94 0 0 0 .204-.456c.056-.16.084-.328.084-.504 0-.208-.04-.396-.12-.564a1.092 1.092 0 0 0-.312-.42 1.297 1.297 0 0 0-.468-.276 1.638 1.638 0 0 0-.564-.096c-.416 0-.76.116-1.032.348-.272.232-.444.552-.516.96l-1.248-.108c.056-.376.164-.7.324-.972.168-.28.372-.512.612-.696.248-.184.528-.32.84-.408.32-.088.664-.132 1.032-.132s.712.052 1.032.156c.328.096.612.244.852.444.248.192.44.436.576.732.144.288.216.628.216 1.02 0 .28-.044.544-.132.792-.08.24-.188.468-.324.684-.136.216-.292.42-.468.612-.176.192-.36.38-.552.564l-2.796 2.7h4.272V248H.835v-1.224zm6.324-3.024c0-.312.016-.636.048-.972.032-.336.088-.664.168-.984.088-.328.2-.64.336-.936a2.82 2.82 0 0 1 .54-.768c.224-.224.484-.4.78-.528a2.564 2.564 0 0 1 1.056-.204c.4 0 .748.068 1.044.204.304.128.564.304.78.528.224.216.404.472.54.768.144.296.256.608.336.936.088.32.148.648.18.984.032.336.048.66.048.972 0 .448-.04.928-.12 1.44-.08.512-.228.988-.444 1.428-.216.44-.516.804-.9 1.092-.376.288-.864.432-1.464.432s-1.092-.144-1.476-.432a3.042 3.042 0 0 1-.888-1.092 4.956 4.956 0 0 1-.444-1.428 9.355 9.355 0 0 1-.12-1.44zm1.152 0c0 .28.016.612.048.996.04.384.12.756.24 1.116.12.352.296.652.528.9.24.248.56.372.96.372.4 0 .716-.124.948-.372.24-.248.42-.548.54-.9.12-.36.196-.732.228-1.116.04-.384.06-.716.06-.996 0-.192-.008-.408-.024-.648a4.709 4.709 0 0 0-.084-.744c-.04-.256-.1-.5-.18-.732a2.267 2.267 0 0 0-.324-.636 1.45 1.45 0 0 0-.48-.456 1.334 1.334 0 0 0-.684-.168c-.264 0-.492.056-.684.168a1.568 1.568 0 0 0-.492.456 2.48 2.48 0 0 0-.312.636 5.16 5.16 0 0 0-.192.732 7.84 7.84 0 0 0-.084.744c-.008.24-.012.456-.012.648zm6-4.248h1.152v3.672h.096l3.756-3.672h1.608l-4.104 3.924 4.38 4.572h-1.68l-3.96-4.248h-.096V248H14.31v-8.496zM2.047 197.924c.136.408.316.712.54.912.232.2.572.3 1.02.3.224 0 .432-.036.624-.108.2-.08.376-.184.528-.312.152-.136.272-.296.36-.48.088-.192.132-.404.132-.636 0-.352-.076-.632-.228-.84a1.311 1.311 0 0 0-.564-.48 2.373 2.373 0 0 0-.768-.216 7.288 7.288 0 0 0-.828-.048v-1.008c.44 0 .8-.028 1.08-.084.28-.064.5-.152.66-.264a.897.897 0 0 0 .336-.42c.064-.168.096-.356.096-.564 0-.456-.136-.8-.408-1.032-.272-.232-.612-.348-1.02-.348-.312 0-.596.092-.852.276a1.65 1.65 0 0 0-.564.708l-1.176-.396c.224-.544.564-.944 1.02-1.2.464-.264.98-.396 1.548-.396.344 0 .672.048.984.144.32.088.6.228.84.42.24.192.428.436.564.732.144.288.216.628.216 1.02 0 .448-.136.848-.408 1.2a1.969 1.969 0 0 1-1.044.72v.024c.264.048.5.136.708.264.208.128.384.288.528.48.144.192.252.408.324.648.072.232.108.48.108.744 0 .408-.08.768-.24 1.08-.152.304-.36.56-.624.768-.256.2-.556.352-.9.456a3.592 3.592 0 0 1-1.068.156c-.648 0-1.22-.148-1.716-.444-.488-.296-.828-.764-1.02-1.404l1.212-.372zm5.112-2.172c0-.312.016-.636.048-.972.032-.336.088-.664.168-.984.088-.328.2-.64.336-.936a2.82 2.82 0 0 1 .54-.768c.224-.224.484-.4.78-.528a2.564 2.564 0 0 1 1.056-.204c.4 0 .748.068 1.044.204.304.128.564.304.78.528.224.216.404.472.54.768.144.296.256.608.336.936.088.32.148.648.18.984.032.336.048.66.048.972 0 .448-.04.928-.12 1.44-.08.512-.228.988-.444 1.428-.216.44-.516.804-.9 1.092-.376.288-.864.432-1.464.432s-1.092-.144-1.476-.432a3.042 3.042 0 0 1-.888-1.092 4.956 4.956 0 0 1-.444-1.428 9.355 9.355 0 0 1-.12-1.44zm1.152 0c0 .28.016.612.048.996.04.384.12.756.24 1.116.12.352.296.652.528.9.24.248.56.372.96.372.4 0 .716-.124.948-.372.24-.248.42-.548.54-.9.12-.36.196-.732.228-1.116.04-.384.06-.716.06-.996 0-.192-.008-.408-.024-.648a4.709 4.709 0 0 0-.084-.744c-.04-.256-.1-.5-.18-.732a2.267 2.267 0 0 0-.324-.636 1.45 1.45 0 0 0-.48-.456 1.334 1.334 0 0 0-.684-.168c-.264 0-.492.056-.684.168a1.568 1.568 0 0 0-.492.456 2.48 2.48 0 0 0-.312.636 5.16 5.16 0 0 0-.192.732 7.84 7.84 0 0 0-.084.744c-.008.24-.012.456-.012.648zm6-4.248h1.152v3.672h.096l3.756-3.672h1.608l-4.104 3.924 4.38 4.572h-1.68l-3.96-4.248h-.096V200H14.31v-8.496zM4.315 150.128H.69v-1.176l3.384-5.448h1.392v5.616h1.2v1.008h-1.2V152H4.315v-1.872zm0-5.256H4.29l-2.592 4.248h2.616v-4.248zm2.844 2.88c0-.312.016-.636.048-.972.032-.336.088-.664.168-.984.088-.328.2-.64.336-.936a2.82 2.82 0 0 1 .54-.768c.224-.224.484-.4.78-.528a2.564 2.564 0 0 1 1.056-.204c.4 0 .748.068 1.044.204.304.128.564.304.78.528.224.216.404.472.54.768.144.296.256.608.336.936.088.32.148.648.18.984.032.336.048.66.048.972 0 .448-.04.928-.12 1.44-.08.512-.228.988-.444 1.428-.216.44-.516.804-.9 1.092-.376.288-.864.432-1.464.432s-1.092-.144-1.476-.432a3.042 3.042 0 0 1-.888-1.092 4.956 4.956 0 0 1-.444-1.428 9.355 9.355 0 0 1-.12-1.44zm1.152 0c0 .28.016.612.048.996.04.384.12.756.24 1.116.12.352.296.652.528.9.24.248.56.372.96.372.4 0 .716-.124.948-.372.24-.248.42-.548.54-.9.12-.36.196-.732.228-1.116.04-.384.06-.716.06-.996 0-.192-.008-.408-.024-.648a4.709 4.709 0 0 0-.084-.744c-.04-.256-.1-.5-.18-.732a2.267 2.267 0 0 0-.324-.636 1.45 1.45 0 0 0-.48-.456 1.334 1.334 0 0 0-.684-.168c-.264 0-.492.056-.684.168a1.568 1.568 0 0 0-.492.456 2.48 2.48 0 0 0-.312.636 5.16 5.16 0 0 0-.192.732 7.84 7.84 0 0 0-.084.744c-.008.24-.012.456-.012.648zm6-4.248h1.152v3.672h.096l3.756-3.672h1.608l-4.104 3.924 4.38 4.572h-1.68l-3.96-4.248h-.096V152H14.31v-8.496zM5.935 98.584H2.49l-.036 2.124c.056-.024.136-.048.24-.072a4.284 4.284 0 0 1 .9-.108c.4 0 .76.068 1.08.204a2.385 2.385 0 0 1 1.368 1.464c.128.344.192.724.192 1.14 0 .424-.08.808-.24 1.152a2.62 2.62 0 0 1-.636.888c-.272.248-.588.44-.948.576a3.45 3.45 0 0 1-1.164.192 2.84 2.84 0 0 1-1.56-.444c-.464-.296-.796-.72-.996-1.272l1.164-.396c.152.392.356.676.612.852.256.168.576.252.96.252.224 0 .436-.04.636-.12.208-.08.384-.192.528-.336a1.65 1.65 0 0 0 .36-.552c.088-.216.132-.46.132-.732 0-.624-.192-1.088-.576-1.392-.376-.312-.868-.468-1.476-.468-.216 0-.492.04-.828.12-.328.072-.636.18-.924.324l.096-4.476h4.56v1.08zm1.224 3.168c0-.312.016-.636.048-.972.032-.336.088-.664.168-.984.088-.328.2-.64.336-.936a2.82 2.82 0 0 1 .54-.768c.224-.224.484-.4.78-.528a2.564 2.564 0 0 1 1.056-.204c.4 0 .748.068 1.044.204.304.128.564.304.78.528.224.216.404.472.54.768.144.296.256.608.336.936.088.32.148.648.18.984.032.336.048.66.048.972 0 .448-.04.928-.12 1.44-.08.512-.228.988-.444 1.428-.216.44-.516.804-.9 1.092-.376.288-.864.432-1.464.432s-1.092-.144-1.476-.432a3.042 3.042 0 0 1-.888-1.092 4.956 4.956 0 0 1-.444-1.428 9.355 9.355 0 0 1-.12-1.44zm1.152 0c0 .28.016.612.048.996.04.384.12.756.24 1.116.12.352.296.652.528.9.24.248.56.372.96.372.4 0 .716-.124.948-.372.24-.248.42-.548.54-.9.12-.36.196-.732.228-1.116.04-.384.06-.716.06-.996 0-.192-.008-.408-.024-.648a4.709 4.709 0 0 0-.084-.744c-.04-.256-.1-.5-.18-.732a2.267 2.267 0 0 0-.324-.636 1.45 1.45 0 0 0-.48-.456 1.334 1.334 0 0 0-.684-.168c-.264 0-.492.056-.684.168a1.568 1.568 0 0 0-.492.456 2.48 2.48 0 0 0-.312.636 5.16 5.16 0 0 0-.192.732 7.84 7.84 0 0 0-.084.744c-.008.24-.012.456-.012.648zm6-4.248h1.152v3.672h.096l3.756-3.672h1.608l-4.104 3.924 4.38 4.572h-1.68l-3.96-4.248h-.096V106H14.31v-8.496zM2.923 52.792h.048c.264-.128.576-.192.936-.192.304 0 .612.052.924.156.312.104.592.268.84.492.256.216.464.496.624.84.16.336.24.736.24 1.2 0 .472-.08.888-.24 1.248-.152.352-.36.648-.624.888s-.572.42-.924.54c-.352.12-.728.18-1.128.18-.4 0-.776-.064-1.128-.192a2.76 2.76 0 0 1-.924-.552 2.754 2.754 0 0 1-.636-.864 2.706 2.706 0 0 1-.228-1.128 3.614 3.614 0 0 1 .228-1.332c.08-.2.172-.392.276-.576.104-.192.22-.392.348-.6l2.148-3.396h1.356l-2.136 3.288zm-1.068 2.58c0 .256.04.492.12.708.088.216.208.404.36.564.16.152.348.272.564.36.216.088.456.132.72.132.264 0 .504-.044.72-.132.216-.088.4-.208.552-.36.16-.16.28-.348.36-.564.088-.216.132-.452.132-.708 0-.256-.044-.492-.132-.708-.08-.216-.2-.4-.36-.552a1.565 1.565 0 0 0-.552-.372 1.892 1.892 0 0 0-.72-.132c-.264 0-.504.044-.72.132a1.65 1.65 0 0 0-.924.924c-.08.216-.12.452-.12.708zm5.304-1.62c0-.312.016-.636.048-.972.032-.336.088-.664.168-.984.088-.328.2-.64.336-.936a2.82 2.82 0 0 1 .54-.768c.224-.224.484-.4.78-.528a2.564 2.564 0 0 1 1.056-.204c.4 0 .748.068 1.044.204.304.128.564.304.78.528.224.216.404.472.54.768.144.296.256.608.336.936.088.32.148.648.18.984.032.336.048.66.048.972 0 .448-.04.928-.12 1.44-.08.512-.228.988-.444 1.428-.216.44-.516.804-.9 1.092-.376.288-.864.432-1.464.432S8.995 58 8.61 57.712a3.042 3.042 0 0 1-.888-1.092 4.956 4.956 0 0 1-.444-1.428 9.355 9.355 0 0 1-.12-1.44zm1.152 0c0 .28.016.612.048.996.04.384.12.756.24 1.116.12.352.296.652.528.9.24.248.56.372.96.372.4 0 .716-.124.948-.372.24-.248.42-.548.54-.9.12-.36.196-.732.228-1.116.04-.384.06-.716.06-.996 0-.192-.008-.408-.024-.648a4.709 4.709 0 0 0-.084-.744c-.04-.256-.1-.5-.18-.732a2.267 2.267 0 0 0-.324-.636 1.45 1.45 0 0 0-.48-.456 1.334 1.334 0 0 0-.684-.168c-.264 0-.492.056-.684.168a1.568 1.568 0 0 0-.492.456 2.48 2.48 0 0 0-.312.636 5.16 5.16 0 0 0-.192.732 7.84 7.84 0 0 0-.084.744c-.008.24-.012.456-.012.648zm6-4.248h1.152v3.672h.096l3.756-3.672h1.608l-4.104 3.924L21.199 58h-1.68l-3.96-4.248h-.096V58H14.31v-8.496zM4.89 2.512H.788V1.504h5.34v.984L2.743 10H1.447L4.89 2.512zm2.269 3.24c0-.312.016-.636.048-.972.032-.336.088-.664.168-.984.088-.328.2-.64.336-.936a2.82 2.82 0 0 1 .54-.768c.224-.224.484-.4.78-.528a2.564 2.564 0 0 1 1.056-.204c.4 0 .748.068 1.044.204.304.128.564.304.78.528.224.216.404.472.54.768.144.296.256.608.336.936.088.32.148.648.18.984.032.336.048.66.048.972 0 .448-.04.928-.12 1.44-.08.512-.228.988-.444 1.428-.216.44-.516.804-.9 1.092-.376.288-.864.432-1.464.432S8.995 10 8.61 9.712a3.042 3.042 0 0 1-.888-1.092 4.956 4.956 0 0 1-.444-1.428 9.355 9.355 0 0 1-.12-1.44zm1.152 0c0 .28.016.612.048.996.04.384.12.756.24 1.116.12.352.296.652.528.9.24.248.56.372.96.372.4 0 .716-.124.948-.372.24-.248.42-.548.54-.9.12-.36.196-.732.228-1.116.04-.384.06-.716.06-.996 0-.192-.008-.408-.024-.648a4.709 4.709 0 0 0-.084-.744c-.04-.256-.1-.5-.18-.732a2.267 2.267 0 0 0-.324-.636 1.45 1.45 0 0 0-.48-.456 1.334 1.334 0 0 0-.684-.168c-.264 0-.492.056-.684.168a1.568 1.568 0 0 0-.492.456 2.48 2.48 0 0 0-.312.636 5.16 5.16 0 0 0-.192.732 7.84 7.84 0 0 0-.084.744c-.008.24-.012.456-.012.648zm6-4.248h1.152v3.672h.096l3.756-3.672h1.608l-4.104 3.924L21.199 10h-1.68l-3.96-4.248h-.096V10H14.31V1.504z" fill="#AAB8C6" fill-opacity=".8"/><path opacity=".25" fill-rule="evenodd" clip-rule="evenodd" d="M29 65c3.68 3.7 4.337 28.756 7.563 32 1.4 1.408 3.472-3.847 4.812-2.5 1.522 1.53 1.285 8.027 2.75 9.5 1.173 1.18 3.663-7.156 4.813-6 1.258 1.266 2.88 10.249 4.124 11.5 1.568 1.577 2.554-3.581 4.126-2 1.802 1.813 2.274 7.639 4.124 9.5 1.466 1.474 6.042-5.53 7.563-4 1.458 1.466 7.409 2.963 8.938 4.5 3.263 3.282.395 4.464 4.124 8.214L86.064 123l4.812 3 10.313 11.5 4.124-9.5 4.813 5 5.5-1.5 4.125 6.5 5.5-2.5h6.875l4.813 4h4.124l4.126 25 2.75-3 2.75 6 2.062-1.5 2.062 6.5 2.75 3.5 3.438-3.5 2.75 6 6.188-2.5 2.75 5 4.124-2.5 11 24.5 5.5 22.5 2.75-7.5 2.75 2 7.563-8.5 4.125 4 5.5-8 3.438 2.5 4.812-8 5.5 1.74 4.125-6.74 8.937 4.756 2.063-1.756 9.625 7 4.812-3 4.126 3 5.869-4 9.255-6 4.813 3 4.813-6.5h6.187l8.25-7h3.437l3.438-5.5 6.875 10 3.437-6.5 2.75 2 4.126-13.5 3.437 2.5 3.437-4.539 1.376-1.961 2.75 3.5 3.437-1 6.187 7 4.813-2.455L364.5 184.5l2.75-3.062 7.562 7.562 3.438-2.5 3.438 5 5.5-11 2.25-4.455 3.25 2.455 2.75-6 3.437 2 3.795-11 6.518 2.5v-7.5l4.03 2.08 2.844-6.58 2.063-5 2.75 6.49L425 158.5l2.75-1.5 4.812 6 2.063 2.5 2.063-2 7.562 11 3.438-3 7.562 21L458 179l4.125 7.5 3.437-2 5.5 6.5 2.75-3 6.876 9 2.062-3.5 4.125 4.5 5.5 6 2.063-4 2.75 1.5 8.088-20.832 2.912 1.332 5.174-14.5 2.388 6 3.438-10 4.124 2 2.75-12 1.376-7.5 2.75 3 2.75-10 1.374-3.5 4.813 7 3.437-3.02 7.563 6.02 2.75-3 4.813 3.5 2.75-1L568 162.5V345H29V65z" fill="url(#a)"/><path d="m30 65 6.871 32.4 4.81-3.49 2.748 10.468 4.81-6.979 4.122 12.462 4.123-2.991 4.123 10.467 7.558-4.486 8.932 4.486 4.123 8.474 4.122-2.991 4.81 2.991 10.306 11.963 4.123-9.969 4.81 4.984 5.497-1.495 4.122 6.48 5.497-2.492h6.871l4.123 3.987h4.809l4.123 26.418 2.748-4.984 2.749 6.48 2.061-1.496 2.061 6.48 2.749 3.489 3.435-3.489 2.749 5.982 6.184-2.493 2.748 4.985 4.123-2.492 12.367 28.411L193.53 226l2.748-8.474 2.749 1.994 3.435-3.987 4.123-4.487 4.123 4.487 5.496-8.973 3.436 2.991 4.81-7.975 5.496 1.994 4.123-6.979 8.932 4.985 2.062-1.994 9.619 6.978 4.81-2.99 4.122 2.99 15.117-9.969 4.809 2.991 4.81-6.48h6.184l8.245-6.978h3.436l3.435-5.483 6.871 10.467 3.436-6.978 2.748 1.994 4.123-13.957 3.435 3.489 4.81-6.978 2.748 3.489 3.436-.997 6.184 6.979 4.809-2.493 12.368 8.474 2.749-3.489 7.558 7.975 3.435-2.492 3.436 4.984 7.558-15.452 3.435 2.493 2.749-5.982 3.435 1.994 4.123-10.966 6.184 2.492v-7.476l4.122 2.492 4.81-11.465 2.748 5.982 4.123 2.991 2.748-1.496 6.871 8.972 2.062-2.492 7.558 10.966 3.435-2.991 7.558 21.932 2.749-14.953 4.122 7.975 3.436-1.994 5.497 6.978 2.748-3.489 6.871 8.972 2.061-3.489 9.62 10.468 2.061-3.988 2.749 1.994 8.245-20.935 2.748 1.495 5.497-14.953 2.061 6.978 3.436-10.966 4.122 2.492 4.123-19.938 2.748 3.489 4.123-13.956 4.81 6.978 3.435-2.991 7.558 6.48 2.749-3.489 4.809 3.489 2.749-.997L568 161.7" stroke="#437FEC" stroke-width="2" stroke-linecap="round"/><path d="M29 149.5h539M29 246.5h539M29 295.5h539M29 344.5h539M29 102.5h539M29 54.5h539M29 6.5h539M29 197.5h539" stroke="#AAB8C6" stroke-opacity=".7" stroke-width=".5" stroke-linecap="square"/><path d="M227.408 363.752c0-.312.016-.636.048-.972.032-.336.088-.664.168-.984.088-.328.2-.64.336-.936a2.82 2.82 0 0 1 .54-.768c.224-.224.484-.4.78-.528a2.564 2.564 0 0 1 1.056-.204c.4 0 .748.068 1.044.204.304.128.564.304.78.528.224.216.404.472.54.768.144.296.256.608.336.936.088.32.148.648.18.984.032.336.048.66.048.972 0 .448-.04.928-.12 1.44-.08.512-.228.988-.444 1.428-.216.44-.516.804-.9 1.092-.376.288-.864.432-1.464.432s-1.092-.144-1.476-.432a3.042 3.042 0 0 1-.888-1.092 4.956 4.956 0 0 1-.444-1.428 9.355 9.355 0 0 1-.12-1.44zm1.152 0c0 .28.016.612.048.996.04.384.12.756.24 1.116.12.352.296.652.528.9.24.248.56.372.96.372.4 0 .716-.124.948-.372.24-.248.42-.548.54-.9.12-.36.196-.732.228-1.116.04-.384.06-.716.06-.996 0-.192-.008-.408-.024-.648a4.709 4.709 0 0 0-.084-.744c-.04-.256-.1-.5-.18-.732a2.267 2.267 0 0 0-.324-.636 1.45 1.45 0 0 0-.48-.456 1.334 1.334 0 0 0-.684-.168c-.264 0-.492.056-.684.168a1.568 1.568 0 0 0-.492.456 2.48 2.48 0 0 0-.312.636 5.16 5.16 0 0 0-.192.732 7.84 7.84 0 0 0-.084.744c-.008.24-.012.456-.012.648zm7.548-.96h.048c.264-.128.576-.192.936-.192.304 0 .612.052.924.156.312.104.592.268.84.492.256.216.464.496.624.84.16.336.24.736.24 1.2 0 .472-.08.888-.24 1.248-.152.352-.36.648-.624.888s-.572.42-.924.54c-.352.12-.728.18-1.128.18-.4 0-.776-.064-1.128-.192a2.76 2.76 0 0 1-.924-.552 2.754 2.754 0 0 1-.636-.864 2.706 2.706 0 0 1-.228-1.128 3.614 3.614 0 0 1 .228-1.332c.08-.2.172-.392.276-.576.104-.192.22-.392.348-.6l2.148-3.396h1.356l-2.136 3.288zm-1.068 2.58c0 .256.04.492.12.708.088.216.208.404.36.564.16.152.348.272.564.36.216.088.456.132.72.132.264 0 .504-.044.72-.132.216-.088.4-.208.552-.36.16-.16.28-.348.36-.564.088-.216.132-.452.132-.708 0-.256-.044-.492-.132-.708-.08-.216-.2-.4-.36-.552a1.565 1.565 0 0 0-.552-.372 1.892 1.892 0 0 0-.72-.132c-.264 0-.504.044-.72.132a1.65 1.65 0 0 0-.924.924c-.08.216-.12.452-.12.708zm8.268.228h-2.952v-1.008h2.952v1.008zm.777 1.176 3.408-3.384c.12-.112.236-.232.348-.36.112-.136.212-.276.3-.42a1.94 1.94 0 0 0 .204-.456c.056-.16.084-.328.084-.504 0-.208-.04-.396-.12-.564a1.092 1.092 0 0 0-.312-.42 1.297 1.297 0 0 0-.468-.276 1.638 1.638 0 0 0-.564-.096c-.416 0-.76.116-1.032.348-.272.232-.444.552-.516.96l-1.248-.108c.056-.376.164-.7.324-.972.168-.28.372-.512.612-.696.248-.184.528-.32.84-.408.32-.088.664-.132 1.032-.132s.712.052 1.032.156c.328.096.612.244.852.444.248.192.44.436.576.732.144.288.216.628.216 1.02 0 .28-.044.544-.132.792-.08.24-.188.468-.324.684-.136.216-.292.42-.468.612-.176.192-.36.38-.552.564l-2.796 2.7h4.272V368h-5.568v-1.224zm6.324-3.024c0-.312.016-.636.048-.972.032-.336.088-.664.168-.984.088-.328.2-.64.336-.936a2.82 2.82 0 0 1 .54-.768c.224-.224.484-.4.78-.528a2.564 2.564 0 0 1 1.056-.204c.4 0 .748.068 1.044.204.304.128.564.304.78.528.224.216.404.472.54.768.144.296.256.608.336.936.088.32.148.648.18.984.032.336.048.66.048.972 0 .448-.04.928-.12 1.44-.08.512-.228.988-.444 1.428-.216.44-.516.804-.9 1.092-.376.288-.864.432-1.464.432s-1.092-.144-1.476-.432a3.042 3.042 0 0 1-.888-1.092 4.956 4.956 0 0 1-.444-1.428 9.355 9.355 0 0 1-.12-1.44zm1.152 0c0 .28.016.612.048.996.04.384.12.756.24 1.116.12.352.296.652.528.9.24.248.56.372.96.372.4 0 .716-.124.948-.372.24-.248.42-.548.54-.9.12-.36.196-.732.228-1.116.04-.384.06-.716.06-.996 0-.192-.008-.408-.024-.648a4.709 4.709 0 0 0-.084-.744c-.04-.256-.1-.5-.18-.732a2.267 2.267 0 0 0-.324-.636 1.45 1.45 0 0 0-.48-.456 1.334 1.334 0 0 0-.684-.168c-.264 0-.492.056-.684.168a1.568 1.568 0 0 0-.492.456 2.48 2.48 0 0 0-.312.636 5.16 5.16 0 0 0-.192.732 7.84 7.84 0 0 0-.084.744c-.008.24-.012.456-.012.648zm5.46 3.024 3.408-3.384c.12-.112.236-.232.348-.36.112-.136.212-.276.3-.42a1.94 1.94 0 0 0 .204-.456c.056-.16.084-.328.084-.504 0-.208-.04-.396-.12-.564a1.092 1.092 0 0 0-.312-.42 1.297 1.297 0 0 0-.468-.276 1.638 1.638 0 0 0-.564-.096c-.416 0-.76.116-1.032.348-.272.232-.444.552-.516.96l-1.248-.108c.056-.376.164-.7.324-.972.168-.28.372-.512.612-.696.248-.184.528-.32.84-.408.32-.088.664-.132 1.032-.132s.712.052 1.032.156c.328.096.612.244.852.444.248.192.44.436.576.732.144.288.216.628.216 1.02 0 .28-.044.544-.132.792-.08.24-.188.468-.324.684-.136.216-.292.42-.468.612-.176.192-.36.38-.552.564l-2.796 2.7h4.272V368h-5.568v-1.224zm9.156-5.952-1.56 1.44-.672-.804 2.364-1.956h1.02V368h-1.152v-7.176z" fill="#AAB8C6"/><path d="M248.5 345v4" stroke="#AAB8C6" stroke-width=".5" stroke-linecap="square"/><path d="M128.408 363.752c0-.312.016-.636.048-.972.032-.336.088-.664.168-.984.088-.328.2-.64.336-.936a2.82 2.82 0 0 1 .54-.768c.224-.224.484-.4.78-.528a2.564 2.564 0 0 1 1.056-.204c.4 0 .748.068 1.044.204.304.128.564.304.78.528.224.216.404.472.54.768.144.296.256.608.336.936.088.32.148.648.18.984.032.336.048.66.048.972 0 .448-.04.928-.12 1.44-.08.512-.228.988-.444 1.428-.216.44-.516.804-.9 1.092-.376.288-.864.432-1.464.432s-1.092-.144-1.476-.432a3.042 3.042 0 0 1-.888-1.092 4.956 4.956 0 0 1-.444-1.428 9.355 9.355 0 0 1-.12-1.44zm1.152 0c0 .28.016.612.048.996.04.384.12.756.24 1.116.12.352.296.652.528.9.24.248.56.372.96.372.4 0 .716-.124.948-.372.24-.248.42-.548.54-.9.12-.36.196-.732.228-1.116.04-.384.06-.716.06-.996 0-.192-.008-.408-.024-.648a4.709 4.709 0 0 0-.084-.744c-.04-.256-.1-.5-.18-.732a2.267 2.267 0 0 0-.324-.636 1.45 1.45 0 0 0-.48-.456 1.334 1.334 0 0 0-.684-.168c-.264 0-.492.056-.684.168a1.568 1.568 0 0 0-.492.456 2.48 2.48 0 0 0-.312.636 5.16 5.16 0 0 0-.192.732 7.84 7.84 0 0 0-.084.744c-.008.24-.012.456-.012.648zm10.56-3.168h-3.444l-.036 2.124c.056-.024.136-.048.24-.072a4.284 4.284 0 0 1 .9-.108c.4 0 .76.068 1.08.204a2.385 2.385 0 0 1 1.368 1.464c.128.344.192.724.192 1.14 0 .424-.08.808-.24 1.152a2.62 2.62 0 0 1-.636.888c-.272.248-.588.44-.948.576a3.45 3.45 0 0 1-1.164.192 2.84 2.84 0 0 1-1.56-.444c-.464-.296-.796-.72-.996-1.272l1.164-.396c.152.392.356.676.612.852.256.168.576.252.96.252.224 0 .436-.04.636-.12.208-.08.384-.192.528-.336a1.65 1.65 0 0 0 .36-.552c.088-.216.132-.46.132-.732 0-.624-.192-1.088-.576-1.392-.376-.312-.868-.468-1.476-.468-.216 0-.492.04-.828.12-.328.072-.636.18-.924.324l.096-4.476h4.56v1.08zm4.188 5.016h-2.952v-1.008h2.952v1.008zm.777 1.176 3.408-3.384c.12-.112.236-.232.348-.36.112-.136.212-.276.3-.42a1.94 1.94 0 0 0 .204-.456c.056-.16.084-.328.084-.504 0-.208-.04-.396-.12-.564a1.092 1.092 0 0 0-.312-.42 1.297 1.297 0 0 0-.468-.276 1.638 1.638 0 0 0-.564-.096c-.416 0-.76.116-1.032.348-.272.232-.444.552-.516.96l-1.248-.108c.056-.376.164-.7.324-.972.168-.28.372-.512.612-.696.248-.184.528-.32.84-.408.32-.088.664-.132 1.032-.132s.712.052 1.032.156c.328.096.612.244.852.444.248.192.44.436.576.732.144.288.216.628.216 1.02 0 .28-.044.544-.132.792-.08.24-.188.468-.324.684-.136.216-.292.42-.468.612-.176.192-.36.38-.552.564l-2.796 2.7h4.272V368h-5.568v-1.224zm6.324-3.024c0-.312.016-.636.048-.972.032-.336.088-.664.168-.984.088-.328.2-.64.336-.936a2.82 2.82 0 0 1 .54-.768c.224-.224.484-.4.78-.528a2.564 2.564 0 0 1 1.056-.204c.4 0 .748.068 1.044.204.304.128.564.304.78.528.224.216.404.472.54.768.144.296.256.608.336.936.088.32.148.648.18.984.032.336.048.66.048.972 0 .448-.04.928-.12 1.44-.08.512-.228.988-.444 1.428-.216.44-.516.804-.9 1.092-.376.288-.864.432-1.464.432s-1.092-.144-1.476-.432a3.042 3.042 0 0 1-.888-1.092 4.956 4.956 0 0 1-.444-1.428 9.355 9.355 0 0 1-.12-1.44zm1.152 0c0 .28.016.612.048.996.04.384.12.756.24 1.116.12.352.296.652.528.9.24.248.56.372.96.372.4 0 .716-.124.948-.372.24-.248.42-.548.54-.9.12-.36.196-.732.228-1.116.04-.384.06-.716.06-.996 0-.192-.008-.408-.024-.648a4.709 4.709 0 0 0-.084-.744c-.04-.256-.1-.5-.18-.732a2.267 2.267 0 0 0-.324-.636 1.45 1.45 0 0 0-.48-.456 1.334 1.334 0 0 0-.684-.168c-.264 0-.492.056-.684.168a1.568 1.568 0 0 0-.492.456 2.48 2.48 0 0 0-.312.636 5.16 5.16 0 0 0-.192.732 7.84 7.84 0 0 0-.084.744c-.008.24-.012.456-.012.648zm5.46 3.024 3.408-3.384c.12-.112.236-.232.348-.36.112-.136.212-.276.3-.42a1.94 1.94 0 0 0 .204-.456c.056-.16.084-.328.084-.504 0-.208-.04-.396-.12-.564a1.092 1.092 0 0 0-.312-.42 1.297 1.297 0 0 0-.468-.276 1.638 1.638 0 0 0-.564-.096c-.416 0-.76.116-1.032.348-.272.232-.444.552-.516.96l-1.248-.108c.056-.376.164-.7.324-.972.168-.28.372-.512.612-.696.248-.184.528-.32.84-.408.32-.088.664-.132 1.032-.132s.712.052 1.032.156c.328.096.612.244.852.444.248.192.44.436.576.732.144.288.216.628.216 1.02 0 .28-.044.544-.132.792-.08.24-.188.468-.324.684-.136.216-.292.42-.468.612-.176.192-.36.38-.552.564l-2.796 2.7h4.272V368h-5.568v-1.224zm9.156-5.952-1.56 1.44-.672-.804 2.364-1.956h1.02V368h-1.152v-7.176z" fill="#AAB8C6"/><path d="M149.5 345v4" stroke="#AAB8C6" stroke-width=".5" stroke-linecap="square"/><path d="M29.408 363.752c0-.312.016-.636.048-.972.032-.336.088-.664.168-.984.088-.328.2-.64.336-.936a2.82 2.82 0 0 1 .54-.768c.224-.224.484-.4.78-.528a2.564 2.564 0 0 1 1.056-.204c.4 0 .748.068 1.044.204.304.128.564.304.78.528.224.216.404.472.54.768.144.296.256.608.336.936.088.32.148.648.18.984.032.336.048.66.048.972 0 .448-.04.928-.12 1.44-.08.512-.228.988-.444 1.428-.216.44-.516.804-.9 1.092-.376.288-.864.432-1.464.432s-1.092-.144-1.476-.432a3.042 3.042 0 0 1-.888-1.092 4.956 4.956 0 0 1-.444-1.428 9.355 9.355 0 0 1-.12-1.44zm1.152 0c0 .28.016.612.048.996.04.384.12.756.24 1.116.12.352.296.652.528.9.24.248.56.372.96.372.4 0 .716-.124.948-.372.24-.248.42-.548.54-.9.12-.36.196-.732.228-1.116.04-.384.06-.716.06-.996 0-.192-.008-.408-.024-.648a4.709 4.709 0 0 0-.084-.744c-.04-.256-.1-.5-.18-.732a2.267 2.267 0 0 0-.324-.636 1.45 1.45 0 0 0-.48-.456 1.334 1.334 0 0 0-.684-.168c-.264 0-.492.056-.684.168a1.568 1.568 0 0 0-.492.456 2.48 2.48 0 0 0-.312.636 5.16 5.16 0 0 0-.192.732 7.84 7.84 0 0 0-.084.744c-.008.24-.012.456-.012.648zm8.94 2.376h-3.624v-1.176l3.384-5.448h1.392v5.616h1.2v1.008h-1.2V368H39.5v-1.872zm0-5.256h-.024l-2.592 4.248H39.5v-4.248zm5.808 4.728h-2.952v-1.008h2.952v1.008zm.777 1.176 3.408-3.384c.12-.112.236-.232.348-.36.112-.136.212-.276.3-.42a1.94 1.94 0 0 0 .204-.456c.056-.16.084-.328.084-.504 0-.208-.04-.396-.12-.564a1.092 1.092 0 0 0-.312-.42 1.297 1.297 0 0 0-.468-.276 1.638 1.638 0 0 0-.564-.096c-.416 0-.76.116-1.032.348-.272.232-.444.552-.516.96l-1.248-.108c.056-.376.164-.7.324-.972.168-.28.372-.512.612-.696.248-.184.528-.32.84-.408.32-.088.664-.132 1.032-.132s.712.052 1.032.156c.328.096.612.244.852.444.248.192.44.436.576.732.144.288.216.628.216 1.02 0 .28-.044.544-.132.792-.08.24-.188.468-.324.684-.136.216-.292.42-.468.612-.176.192-.36.38-.552.564l-2.796 2.7h4.272V368h-5.568v-1.224zm6.324-3.024c0-.312.016-.636.048-.972.032-.336.088-.664.168-.984.088-.328.2-.64.336-.936a2.82 2.82 0 0 1 .54-.768c.224-.224.484-.4.78-.528a2.564 2.564 0 0 1 1.056-.204c.4 0 .748.068 1.044.204.304.128.564.304.78.528.224.216.404.472.54.768.144.296.256.608.336.936.088.32.148.648.18.984.032.336.048.66.048.972 0 .448-.04.928-.12 1.44-.08.512-.228.988-.444 1.428-.216.44-.516.804-.9 1.092-.376.288-.864.432-1.464.432s-1.092-.144-1.476-.432a3.042 3.042 0 0 1-.888-1.092 4.956 4.956 0 0 1-.444-1.428 9.355 9.355 0 0 1-.12-1.44zm1.152 0c0 .28.016.612.048.996.04.384.12.756.24 1.116.12.352.296.652.528.9.24.248.56.372.96.372.4 0 .716-.124.948-.372.24-.248.42-.548.54-.9.12-.36.196-.732.228-1.116.04-.384.06-.716.06-.996 0-.192-.008-.408-.024-.648a4.709 4.709 0 0 0-.084-.744c-.04-.256-.1-.5-.18-.732a2.267 2.267 0 0 0-.324-.636 1.45 1.45 0 0 0-.48-.456 1.334 1.334 0 0 0-.684-.168c-.264 0-.492.056-.684.168a1.568 1.568 0 0 0-.492.456 2.48 2.48 0 0 0-.312.636 5.16 5.16 0 0 0-.192.732 7.84 7.84 0 0 0-.084.744c-.008.24-.012.456-.012.648zm5.46 3.024 3.408-3.384c.12-.112.236-.232.348-.36.112-.136.212-.276.3-.42a1.94 1.94 0 0 0 .204-.456c.056-.16.084-.328.084-.504 0-.208-.04-.396-.12-.564a1.092 1.092 0 0 0-.312-.42 1.297 1.297 0 0 0-.468-.276 1.638 1.638 0 0 0-.564-.096c-.416 0-.76.116-1.032.348-.272.232-.444.552-.516.96l-1.248-.108c.056-.376.164-.7.324-.972.168-.28.372-.512.612-.696.248-.184.528-.32.84-.408.32-.088.664-.132 1.032-.132s.712.052 1.032.156c.328.096.612.244.852.444.248.192.44.436.576.732.144.288.216.628.216 1.02 0 .28-.044.544-.132.792-.08.24-.188.468-.324.684-.136.216-.292.42-.468.612-.176.192-.36.38-.552.564l-2.796 2.7h4.272V368H59.02v-1.224zm9.156-5.952-1.56 1.44-.672-.804 2.364-1.956h1.02V368h-1.152v-7.176z" fill="#AAB8C6"/><path d="M50.5 345v4" stroke="#AAB8C6" stroke-width=".5" stroke-linecap="square"/><path d="M326.408 363.752c0-.312.016-.636.048-.972.032-.336.088-.664.168-.984.088-.328.2-.64.336-.936a2.82 2.82 0 0 1 .54-.768c.224-.224.484-.4.78-.528a2.564 2.564 0 0 1 1.056-.204c.4 0 .748.068 1.044.204.304.128.564.304.78.528.224.216.404.472.54.768.144.296.256.608.336.936.088.32.148.648.18.984.032.336.048.66.048.972 0 .448-.04.928-.12 1.44-.08.512-.228.988-.444 1.428-.216.44-.516.804-.9 1.092-.376.288-.864.432-1.464.432s-1.092-.144-1.476-.432a3.042 3.042 0 0 1-.888-1.092 4.956 4.956 0 0 1-.444-1.428 9.355 9.355 0 0 1-.12-1.44zm1.152 0c0 .28.016.612.048.996.04.384.12.756.24 1.116.12.352.296.652.528.9.24.248.56.372.96.372.4 0 .716-.124.948-.372.24-.248.42-.548.54-.9.12-.36.196-.732.228-1.116.04-.384.06-.716.06-.996 0-.192-.008-.408-.024-.648a4.709 4.709 0 0 0-.084-.744c-.04-.256-.1-.5-.18-.732a2.267 2.267 0 0 0-.324-.636 1.45 1.45 0 0 0-.48-.456 1.334 1.334 0 0 0-.684-.168c-.264 0-.492.056-.684.168a1.568 1.568 0 0 0-.492.456 2.48 2.48 0 0 0-.312.636 5.16 5.16 0 0 0-.192.732 7.84 7.84 0 0 0-.084.744c-.008.24-.012.456-.012.648zm9.516-3.24h-4.104v-1.008h5.34v.984L334.928 368h-1.296l3.444-7.488zm5.232 5.088h-2.952v-1.008h2.952v1.008zm.777 1.176 3.408-3.384c.12-.112.236-.232.348-.36.112-.136.212-.276.3-.42a1.94 1.94 0 0 0 .204-.456c.056-.16.084-.328.084-.504 0-.208-.04-.396-.12-.564a1.092 1.092 0 0 0-.312-.42 1.297 1.297 0 0 0-.468-.276 1.638 1.638 0 0 0-.564-.096c-.416 0-.76.116-1.032.348-.272.232-.444.552-.516.96l-1.248-.108c.056-.376.164-.7.324-.972.168-.28.372-.512.612-.696.248-.184.528-.32.84-.408.32-.088.664-.132 1.032-.132s.712.052 1.032.156c.328.096.612.244.852.444.248.192.44.436.576.732.144.288.216.628.216 1.02 0 .28-.044.544-.132.792-.08.24-.188.468-.324.684-.136.216-.292.42-.468.612-.176.192-.36.38-.552.564l-2.796 2.7h4.272V368h-5.568v-1.224zm6.324-3.024c0-.312.016-.636.048-.972.032-.336.088-.664.168-.984.088-.328.2-.64.336-.936a2.82 2.82 0 0 1 .54-.768c.224-.224.484-.4.78-.528a2.564 2.564 0 0 1 1.056-.204c.4 0 .748.068 1.044.204.304.128.564.304.78.528.224.216.404.472.54.768.144.296.256.608.336.936.088.32.148.648.18.984.032.336.048.66.048.972 0 .448-.04.928-.12 1.44-.08.512-.228.988-.444 1.428-.216.44-.516.804-.9 1.092-.376.288-.864.432-1.464.432s-1.092-.144-1.476-.432a3.042 3.042 0 0 1-.888-1.092 4.956 4.956 0 0 1-.444-1.428 9.355 9.355 0 0 1-.12-1.44zm1.152 0c0 .28.016.612.048.996.04.384.12.756.24 1.116.12.352.296.652.528.9.24.248.56.372.96.372.4 0 .716-.124.948-.372.24-.248.42-.548.54-.9.12-.36.196-.732.228-1.116.04-.384.06-.716.06-.996 0-.192-.008-.408-.024-.648a4.709 4.709 0 0 0-.084-.744c-.04-.256-.1-.5-.18-.732a2.267 2.267 0 0 0-.324-.636 1.45 1.45 0 0 0-.48-.456 1.334 1.334 0 0 0-.684-.168c-.264 0-.492.056-.684.168a1.568 1.568 0 0 0-.492.456 2.48 2.48 0 0 0-.312.636 5.16 5.16 0 0 0-.192.732 7.84 7.84 0 0 0-.084.744c-.008.24-.012.456-.012.648zm5.46 3.024 3.408-3.384c.12-.112.236-.232.348-.36.112-.136.212-.276.3-.42a1.94 1.94 0 0 0 .204-.456c.056-.16.084-.328.084-.504 0-.208-.04-.396-.12-.564a1.092 1.092 0 0 0-.312-.42 1.297 1.297 0 0 0-.468-.276 1.638 1.638 0 0 0-.564-.096c-.416 0-.76.116-1.032.348-.272.232-.444.552-.516.96l-1.248-.108c.056-.376.164-.7.324-.972.168-.28.372-.512.612-.696.248-.184.528-.32.84-.408.32-.088.664-.132 1.032-.132s.712.052 1.032.156c.328.096.612.244.852.444.248.192.44.436.576.732.144.288.216.628.216 1.02 0 .28-.044.544-.132.792-.08.24-.188.468-.324.684-.136.216-.292.42-.468.612-.176.192-.36.38-.552.564l-2.796 2.7h4.272V368h-5.568v-1.224zm9.156-5.952-1.56 1.44-.672-.804 2.364-1.956h1.02V368h-1.152v-7.176z" fill="#AAB8C6"/><path d="M347.5 345v4" stroke="#AAB8C6" stroke-width=".5" stroke-linecap="square"/><path d="M425.408 363.752c0-.312.016-.636.048-.972.032-.336.088-.664.168-.984.088-.328.2-.64.336-.936a2.82 2.82 0 0 1 .54-.768c.224-.224.484-.4.78-.528a2.564 2.564 0 0 1 1.056-.204c.4 0 .748.068 1.044.204.304.128.564.304.78.528.224.216.404.472.54.768.144.296.256.608.336.936.088.32.148.648.18.984.032.336.048.66.048.972 0 .448-.04.928-.12 1.44-.08.512-.228.988-.444 1.428-.216.44-.516.804-.9 1.092-.376.288-.864.432-1.464.432s-1.092-.144-1.476-.432a3.042 3.042 0 0 1-.888-1.092 4.956 4.956 0 0 1-.444-1.428 9.355 9.355 0 0 1-.12-1.44zm1.152 0c0 .28.016.612.048.996.04.384.12.756.24 1.116.12.352.296.652.528.9.24.248.56.372.96.372.4 0 .716-.124.948-.372.24-.248.42-.548.54-.9.12-.36.196-.732.228-1.116.04-.384.06-.716.06-.996 0-.192-.008-.408-.024-.648a4.709 4.709 0 0 0-.084-.744c-.04-.256-.1-.5-.18-.732a2.267 2.267 0 0 0-.324-.636 1.45 1.45 0 0 0-.48-.456 1.334 1.334 0 0 0-.684-.168c-.264 0-.492.056-.684.168a1.568 1.568 0 0 0-.492.456 2.48 2.48 0 0 0-.312.636 5.16 5.16 0 0 0-.192.732 7.84 7.84 0 0 0-.084.744c-.008.24-.012.456-.012.648zm8.244 4.392c-.384 0-.748-.056-1.092-.168a2.59 2.59 0 0 1-.876-.516 2.426 2.426 0 0 1-.588-.816 2.604 2.604 0 0 1-.216-1.08c0-.264.04-.508.12-.732.088-.224.204-.424.348-.6.144-.184.312-.336.504-.456.2-.128.416-.224.648-.288v-.036c-.16-.04-.32-.112-.48-.216a1.831 1.831 0 0 1-.432-.396 2.17 2.17 0 0 1-.3-.576 2.423 2.423 0 0 1-.12-.792c0-.32.064-.608.192-.864.136-.264.316-.488.54-.672.232-.184.496-.324.792-.42.304-.104.624-.156.96-.156.336 0 .652.052.948.156.304.096.568.236.792.42.232.184.412.408.54.672.136.256.204.544.204.864 0 .296-.04.56-.12.792-.08.224-.184.416-.312.576-.12.16-.26.292-.42.396-.16.104-.32.176-.48.216v.036c.232.064.444.16.636.288.2.12.372.272.516.456.144.176.256.376.336.6.088.224.132.468.132.732 0 .4-.072.76-.216 1.08a2.426 2.426 0 0 1-1.476 1.332 3.394 3.394 0 0 1-1.08.168zm-1.332-6.504c0 .168.028.332.084.492.064.16.152.304.264.432.112.12.248.22.408.3.168.08.36.12.576.12.224 0 .416-.036.576-.108.168-.08.308-.18.42-.3.112-.128.196-.272.252-.432.056-.16.084-.328.084-.504 0-.392-.124-.712-.372-.96-.24-.256-.56-.384-.96-.384-.368 0-.684.124-.948.372-.256.248-.384.572-.384.972zm1.332 5.496c.48 0 .868-.144 1.164-.432.304-.296.456-.676.456-1.14 0-.256-.044-.48-.132-.672-.08-.2-.196-.364-.348-.492a1.33 1.33 0 0 0-.516-.3 1.763 1.763 0 0 0-.624-.108c-.472.008-.86.16-1.164.456-.304.288-.456.66-.456 1.116 0 .248.044.472.132.672.088.192.204.356.348.492a1.746 1.746 0 0 0 1.14.408zm6.504-1.536h-2.952v-1.008h2.952v1.008zm.777 1.176 3.408-3.384c.12-.112.236-.232.348-.36.112-.136.212-.276.3-.42a1.94 1.94 0 0 0 .204-.456c.056-.16.084-.328.084-.504 0-.208-.04-.396-.12-.564a1.092 1.092 0 0 0-.312-.42 1.297 1.297 0 0 0-.468-.276 1.638 1.638 0 0 0-.564-.096c-.416 0-.76.116-1.032.348-.272.232-.444.552-.516.96l-1.248-.108c.056-.376.164-.7.324-.972.168-.28.372-.512.612-.696.248-.184.528-.32.84-.408.32-.088.664-.132 1.032-.132s.712.052 1.032.156c.328.096.612.244.852.444.248.192.44.436.576.732.144.288.216.628.216 1.02 0 .28-.044.544-.132.792-.08.24-.188.468-.324.684-.136.216-.292.42-.468.612-.176.192-.36.38-.552.564l-2.796 2.7h4.272V368h-5.568v-1.224zm6.324-3.024c0-.312.016-.636.048-.972.032-.336.088-.664.168-.984.088-.328.2-.64.336-.936a2.82 2.82 0 0 1 .54-.768c.224-.224.484-.4.78-.528a2.564 2.564 0 0 1 1.056-.204c.4 0 .748.068 1.044.204.304.128.564.304.78.528.224.216.404.472.54.768.144.296.256.608.336.936.088.32.148.648.18.984.032.336.048.66.048.972 0 .448-.04.928-.12 1.44-.08.512-.228.988-.444 1.428-.216.44-.516.804-.9 1.092-.376.288-.864.432-1.464.432s-1.092-.144-1.476-.432a3.042 3.042 0 0 1-.888-1.092 4.956 4.956 0 0 1-.444-1.428 9.355 9.355 0 0 1-.12-1.44zm1.152 0c0 .28.016.612.048.996.04.384.12.756.24 1.116.12.352.296.652.528.9.24.248.56.372.96.372.4 0 .716-.124.948-.372.24-.248.42-.548.54-.9.12-.36.196-.732.228-1.116.04-.384.06-.716.06-.996 0-.192-.008-.408-.024-.648a4.709 4.709 0 0 0-.084-.744c-.04-.256-.1-.5-.18-.732a2.267 2.267 0 0 0-.324-.636 1.45 1.45 0 0 0-.48-.456 1.334 1.334 0 0 0-.684-.168c-.264 0-.492.056-.684.168a1.568 1.568 0 0 0-.492.456 2.48 2.48 0 0 0-.312.636 5.16 5.16 0 0 0-.192.732 7.84 7.84 0 0 0-.084.744c-.008.24-.012.456-.012.648zm5.46 3.024 3.408-3.384c.12-.112.236-.232.348-.36.112-.136.212-.276.3-.42a1.94 1.94 0 0 0 .204-.456c.056-.16.084-.328.084-.504 0-.208-.04-.396-.12-.564a1.092 1.092 0 0 0-.312-.42 1.297 1.297 0 0 0-.468-.276 1.638 1.638 0 0 0-.564-.096c-.416 0-.76.116-1.032.348-.272.232-.444.552-.516.96l-1.248-.108c.056-.376.164-.7.324-.972.168-.28.372-.512.612-.696.248-.184.528-.32.84-.408.32-.088.664-.132 1.032-.132s.712.052 1.032.156c.328.096.612.244.852.444.248.192.44.436.576.732.144.288.216.628.216 1.02 0 .28-.044.544-.132.792-.08.24-.188.468-.324.684-.136.216-.292.42-.468.612-.176.192-.36.38-.552.564l-2.796 2.7h4.272V368h-5.568v-1.224zm9.156-5.952-1.56 1.44-.672-.804 2.364-1.956h1.02V368h-1.152v-7.176z" fill="#AAB8C6"/><path d="M446.5 345v4" stroke="#AAB8C6" stroke-width=".5" stroke-linecap="square"/><path d="M524.408 363.752c0-.312.016-.636.048-.972.032-.336.088-.664.168-.984.088-.328.2-.64.336-.936a2.82 2.82 0 0 1 .54-.768c.224-.224.484-.4.78-.528a2.564 2.564 0 0 1 1.056-.204c.4 0 .748.068 1.044.204.304.128.564.304.78.528.224.216.404.472.54.768.144.296.256.608.336.936.088.32.148.648.18.984.032.336.048.66.048.972 0 .448-.04.928-.12 1.44-.08.512-.228.988-.444 1.428-.216.44-.516.804-.9 1.092-.376.288-.864.432-1.464.432s-1.092-.144-1.476-.432a3.042 3.042 0 0 1-.888-1.092 4.956 4.956 0 0 1-.444-1.428 9.355 9.355 0 0 1-.12-1.44zm1.152 0c0 .28.016.612.048.996.04.384.12.756.24 1.116.12.352.296.652.528.9.24.248.56.372.96.372.4 0 .716-.124.948-.372.24-.248.42-.548.54-.9.12-.36.196-.732.228-1.116.04-.384.06-.716.06-.996 0-.192-.008-.408-.024-.648a4.709 4.709 0 0 0-.084-.744c-.04-.256-.1-.5-.18-.732a2.267 2.267 0 0 0-.324-.636 1.45 1.45 0 0 0-.48-.456 1.334 1.334 0 0 0-.684-.168c-.264 0-.492.056-.684.168a1.568 1.568 0 0 0-.492.456 2.48 2.48 0 0 0-.312.636 5.16 5.16 0 0 0-.192.732 7.84 7.84 0 0 0-.084.744c-.008.24-.012.456-.012.648zm8.94.96h-.048a2.125 2.125 0 0 1-.936.192 2.91 2.91 0 0 1-.924-.156 2.572 2.572 0 0 1-.852-.48 2.65 2.65 0 0 1-.612-.84c-.16-.344-.24-.748-.24-1.212 0-.464.076-.872.228-1.224.16-.36.372-.66.636-.9s.572-.42.924-.54a3.275 3.275 0 0 1 1.128-.192c.4 0 .776.064 1.128.192.352.128.66.312.924.552.264.24.472.528.624.864.16.336.24.712.24 1.128 0 .264-.02.504-.06.72-.04.216-.1.424-.18.624-.072.192-.16.384-.264.576-.104.192-.22.388-.348.588L533.72 368h-1.356l2.136-3.288zm1.068-2.58c0-.256-.044-.492-.132-.708-.08-.216-.2-.4-.36-.552a1.565 1.565 0 0 0-.552-.372 1.892 1.892 0 0 0-.72-.132c-.264 0-.504.044-.72.132a1.65 1.65 0 0 0-.924.924c-.08.216-.12.452-.12.708 0 .256.04.492.12.708.088.216.208.404.36.564.16.152.348.272.564.36.216.088.456.132.72.132.264 0 .504-.044.72-.132.216-.088.4-.208.552-.36.16-.16.28-.348.36-.564.088-.216.132-.452.132-.708zm4.74 3.468h-2.952v-1.008h2.952v1.008zm.777 1.176 3.408-3.384c.12-.112.236-.232.348-.36.112-.136.212-.276.3-.42a1.94 1.94 0 0 0 .204-.456c.056-.16.084-.328.084-.504 0-.208-.04-.396-.12-.564a1.092 1.092 0 0 0-.312-.42 1.297 1.297 0 0 0-.468-.276 1.638 1.638 0 0 0-.564-.096c-.416 0-.76.116-1.032.348-.272.232-.444.552-.516.96l-1.248-.108c.056-.376.164-.7.324-.972.168-.28.372-.512.612-.696.248-.184.528-.32.84-.408.32-.088.664-.132 1.032-.132s.712.052 1.032.156c.328.096.612.244.852.444.248.192.44.436.576.732.144.288.216.628.216 1.02 0 .28-.044.544-.132.792-.08.24-.188.468-.324.684-.136.216-.292.42-.468.612-.176.192-.36.38-.552.564l-2.796 2.7h4.272V368h-5.568v-1.224zm6.324-3.024c0-.312.016-.636.048-.972.032-.336.088-.664.168-.984.088-.328.2-.64.336-.936a2.82 2.82 0 0 1 .54-.768c.224-.224.484-.4.78-.528a2.564 2.564 0 0 1 1.056-.204c.4 0 .748.068 1.044.204.304.128.564.304.78.528.224.216.404.472.54.768.144.296.256.608.336.936.088.32.148.648.18.984.032.336.048.66.048.972 0 .448-.04.928-.12 1.44-.08.512-.228.988-.444 1.428-.216.44-.516.804-.9 1.092-.376.288-.864.432-1.464.432s-1.092-.144-1.476-.432a3.042 3.042 0 0 1-.888-1.092 4.956 4.956 0 0 1-.444-1.428 9.355 9.355 0 0 1-.12-1.44zm1.152 0c0 .28.016.612.048.996.04.384.12.756.24 1.116.12.352.296.652.528.9.24.248.56.372.96.372.4 0 .716-.124.948-.372.24-.248.42-.548.54-.9.12-.36.196-.732.228-1.116.04-.384.06-.716.06-.996 0-.192-.008-.408-.024-.648a4.709 4.709 0 0 0-.084-.744c-.04-.256-.1-.5-.18-.732a2.267 2.267 0 0 0-.324-.636 1.45 1.45 0 0 0-.48-.456 1.334 1.334 0 0 0-.684-.168c-.264 0-.492.056-.684.168a1.568 1.568 0 0 0-.492.456 2.48 2.48 0 0 0-.312.636 5.16 5.16 0 0 0-.192.732 7.84 7.84 0 0 0-.084.744c-.008.24-.012.456-.012.648zm5.46 3.024 3.408-3.384c.12-.112.236-.232.348-.36.112-.136.212-.276.3-.42a1.94 1.94 0 0 0 .204-.456c.056-.16.084-.328.084-.504 0-.208-.04-.396-.12-.564a1.092 1.092 0 0 0-.312-.42 1.297 1.297 0 0 0-.468-.276 1.638 1.638 0 0 0-.564-.096c-.416 0-.76.116-1.032.348-.272.232-.444.552-.516.96l-1.248-.108c.056-.376.164-.7.324-.972.168-.28.372-.512.612-.696.248-.184.528-.32.84-.408.32-.088.664-.132 1.032-.132s.712.052 1.032.156c.328.096.612.244.852.444.248.192.44.436.576.732.144.288.216.628.216 1.02 0 .28-.044.544-.132.792-.08.24-.188.468-.324.684-.136.216-.292.42-.468.612-.176.192-.36.38-.552.564l-2.796 2.7h4.272V368h-5.568v-1.224zm9.156-5.952-1.56 1.44-.672-.804 2.364-1.956h1.02V368h-1.152v-7.176z" fill="#AAB8C6"/><path d="M545.5 345v4" stroke="#AAB8C6" stroke-width=".5" stroke-linecap="square"/><defs><linearGradient id="a" x1="568" y1="325.5" x2="568" y2="108.5" gradientUnits="userSpaceOnUse"><stop stop-color="#fff"/><stop offset="1" stop-color="#60B2FF"/></linearGradient></defs></svg>