<svg width="316" height="370" viewBox="0 0 316 370" fill="none" xmlns="http://www.w3.org/2000/svg">
<path d="M14.74 338.752C14.74 338.44 14.756 338.116 14.788 337.78C14.82 337.444 14.876 337.116 14.956 336.796C15.044 336.468 15.156 336.156 15.292 335.86C15.436 335.564 15.616 335.308 15.832 335.092C16.056 334.868 16.316 334.692 16.612 334.564C16.916 334.428 17.268 334.36 17.668 334.36C18.068 334.36 18.416 334.428 18.712 334.564C19.016 334.692 19.276 334.868 19.492 335.092C19.716 335.308 19.896 335.564 20.032 335.86C20.176 336.156 20.288 336.468 20.368 336.796C20.456 337.116 20.516 337.444 20.548 337.78C20.58 338.116 20.596 338.44 20.596 338.752C20.596 339.2 20.556 339.68 20.476 340.192C20.396 340.704 20.248 341.18 20.032 341.62C19.816 342.06 19.516 342.424 19.132 342.712C18.756 343 18.268 343.144 17.668 343.144C17.068 343.144 16.576 343 16.192 342.712C15.816 342.424 15.52 342.06 15.304 341.62C15.088 341.18 14.94 340.704 14.86 340.192C14.78 339.68 14.74 339.2 14.74 338.752ZM15.892 338.752C15.892 339.032 15.908 339.364 15.94 339.748C15.98 340.132 16.06 340.504 16.18 340.864C16.3 341.216 16.476 341.516 16.708 341.764C16.948 342.012 17.268 342.136 17.668 342.136C18.068 342.136 18.384 342.012 18.616 341.764C18.856 341.516 19.036 341.216 19.156 340.864C19.276 340.504 19.352 340.132 19.384 339.748C19.424 339.364 19.444 339.032 19.444 338.752C19.444 338.56 19.436 338.344 19.42 338.104C19.412 337.856 19.384 337.608 19.336 337.36C19.296 337.104 19.236 336.86 19.156 336.628C19.076 336.388 18.968 336.176 18.832 335.992C18.704 335.8 18.544 335.648 18.352 335.536C18.16 335.424 17.932 335.368 17.668 335.368C17.404 335.368 17.176 335.424 16.984 335.536C16.792 335.648 16.628 335.8 16.492 335.992C16.364 336.176 16.26 336.388 16.18 336.628C16.1 336.86 16.036 337.104 15.988 337.36C15.948 337.608 15.92 337.856 15.904 338.104C15.896 338.344 15.892 338.56 15.892 338.752Z" fill="#AAB8C6" fill-opacity="0.8"/>
<path d="M3.52281 288.824L1.96281 290.264L1.29081 289.46L3.65481 287.504H4.67481V296H3.52281V288.824ZM7.15878 291.752C7.15878 291.44 7.17478 291.116 7.20678 290.78C7.23878 290.444 7.29478 290.116 7.37478 289.796C7.46278 289.468 7.57478 289.156 7.71078 288.86C7.85478 288.564 8.03478 288.308 8.25078 288.092C8.47478 287.868 8.73478 287.692 9.03078 287.564C9.33478 287.428 9.68678 287.36 10.0868 287.36C10.4868 287.36 10.8348 287.428 11.1308 287.564C11.4348 287.692 11.6948 287.868 11.9108 288.092C12.1348 288.308 12.3148 288.564 12.4508 288.86C12.5948 289.156 12.7068 289.468 12.7868 289.796C12.8748 290.116 12.9348 290.444 12.9668 290.78C12.9988 291.116 13.0148 291.44 13.0148 291.752C13.0148 292.2 12.9748 292.68 12.8948 293.192C12.8148 293.704 12.6668 294.18 12.4508 294.62C12.2348 295.06 11.9348 295.424 11.5508 295.712C11.1748 296 10.6868 296.144 10.0868 296.144C9.48678 296.144 8.99478 296 8.61078 295.712C8.23478 295.424 7.93878 295.06 7.72278 294.62C7.50678 294.18 7.35878 293.704 7.27878 293.192C7.19878 292.68 7.15878 292.2 7.15878 291.752ZM8.31078 291.752C8.31078 292.032 8.32678 292.364 8.35878 292.748C8.39878 293.132 8.47878 293.504 8.59878 293.864C8.71878 294.216 8.89478 294.516 9.12678 294.764C9.36678 295.012 9.68678 295.136 10.0868 295.136C10.4868 295.136 10.8028 295.012 11.0348 294.764C11.2748 294.516 11.4548 294.216 11.5748 293.864C11.6948 293.504 11.7708 293.132 11.8028 292.748C11.8428 292.364 11.8628 292.032 11.8628 291.752C11.8628 291.56 11.8548 291.344 11.8388 291.104C11.8308 290.856 11.8028 290.608 11.7548 290.36C11.7148 290.104 11.6548 289.86 11.5748 289.628C11.4948 289.388 11.3868 289.176 11.2508 288.992C11.1228 288.8 10.9628 288.648 10.7708 288.536C10.5788 288.424 10.3508 288.368 10.0868 288.368C9.82278 288.368 9.59478 288.424 9.40278 288.536C9.21078 288.648 9.04678 288.8 8.91078 288.992C8.78278 289.176 8.67878 289.388 8.59878 289.628C8.51878 289.86 8.45478 290.104 8.40678 290.36C8.36678 290.608 8.33878 290.856 8.32278 291.104C8.31478 291.344 8.31078 291.56 8.31078 291.752ZM14.3108 287.504H15.4628V291.176H15.5588L19.3148 287.504H20.9228L16.8188 291.428L21.1988 296H19.5188L15.5588 291.752H15.4628V296H14.3108V287.504Z" fill="#AAB8C6" fill-opacity="0.8"/>
<path d="M0.834812 246.776L4.24281 243.392C4.36281 243.28 4.47881 243.16 4.59081 243.032C4.70281 242.896 4.80281 242.756 4.89081 242.612C4.97881 242.468 5.04681 242.316 5.09481 242.156C5.15081 241.996 5.17881 241.828 5.17881 241.652C5.17881 241.444 5.13881 241.256 5.05881 241.088C4.98681 240.92 4.88281 240.78 4.74681 240.668C4.61881 240.548 4.46281 240.456 4.27881 240.392C4.10281 240.328 3.91481 240.296 3.71481 240.296C3.29881 240.296 2.95481 240.412 2.68281 240.644C2.41081 240.876 2.23881 241.196 2.16681 241.604L0.918812 241.496C0.974812 241.12 1.08281 240.796 1.24281 240.524C1.41081 240.244 1.61481 240.012 1.85481 239.828C2.10281 239.644 2.38281 239.508 2.69481 239.42C3.01481 239.332 3.35881 239.288 3.72681 239.288C4.09481 239.288 4.43881 239.34 4.75881 239.444C5.08681 239.54 5.37081 239.688 5.61081 239.888C5.85881 240.08 6.05081 240.324 6.18681 240.62C6.33081 240.908 6.40281 241.248 6.40281 241.64C6.40281 241.92 6.35881 242.184 6.27081 242.432C6.19081 242.672 6.08281 242.9 5.94681 243.116C5.81081 243.332 5.65481 243.536 5.47881 243.728C5.30281 243.92 5.11881 244.108 4.92681 244.292L2.13081 246.992H6.40281V248H0.834812V246.776ZM7.15878 243.752C7.15878 243.44 7.17478 243.116 7.20678 242.78C7.23878 242.444 7.29478 242.116 7.37478 241.796C7.46278 241.468 7.57478 241.156 7.71078 240.86C7.85478 240.564 8.03478 240.308 8.25078 240.092C8.47478 239.868 8.73478 239.692 9.03078 239.564C9.33478 239.428 9.68678 239.36 10.0868 239.36C10.4868 239.36 10.8348 239.428 11.1308 239.564C11.4348 239.692 11.6948 239.868 11.9108 240.092C12.1348 240.308 12.3148 240.564 12.4508 240.86C12.5948 241.156 12.7068 241.468 12.7868 241.796C12.8748 242.116 12.9348 242.444 12.9668 242.78C12.9988 243.116 13.0148 243.44 13.0148 243.752C13.0148 244.2 12.9748 244.68 12.8948 245.192C12.8148 245.704 12.6668 246.18 12.4508 246.62C12.2348 247.06 11.9348 247.424 11.5508 247.712C11.1748 248 10.6868 248.144 10.0868 248.144C9.48678 248.144 8.99478 248 8.61078 247.712C8.23478 247.424 7.93878 247.06 7.72278 246.62C7.50678 246.18 7.35878 245.704 7.27878 245.192C7.19878 244.68 7.15878 244.2 7.15878 243.752ZM8.31078 243.752C8.31078 244.032 8.32678 244.364 8.35878 244.748C8.39878 245.132 8.47878 245.504 8.59878 245.864C8.71878 246.216 8.89478 246.516 9.12678 246.764C9.36678 247.012 9.68678 247.136 10.0868 247.136C10.4868 247.136 10.8028 247.012 11.0348 246.764C11.2748 246.516 11.4548 246.216 11.5748 245.864C11.6948 245.504 11.7708 245.132 11.8028 244.748C11.8428 244.364 11.8628 244.032 11.8628 243.752C11.8628 243.56 11.8548 243.344 11.8388 243.104C11.8308 242.856 11.8028 242.608 11.7548 242.36C11.7148 242.104 11.6548 241.86 11.5748 241.628C11.4948 241.388 11.3868 241.176 11.2508 240.992C11.1228 240.8 10.9628 240.648 10.7708 240.536C10.5788 240.424 10.3508 240.368 10.0868 240.368C9.82278 240.368 9.59478 240.424 9.40278 240.536C9.21078 240.648 9.04678 240.8 8.91078 240.992C8.78278 241.176 8.67878 241.388 8.59878 241.628C8.51878 241.86 8.45478 242.104 8.40678 242.36C8.36678 242.608 8.33878 242.856 8.32278 243.104C8.31478 243.344 8.31078 243.56 8.31078 243.752ZM14.3108 239.504H15.4628V243.176H15.5588L19.3148 239.504H20.9228L16.8188 243.428L21.1988 248H19.5188L15.5588 243.752H15.4628V248H14.3108V239.504Z" fill="#AAB8C6" fill-opacity="0.8"/>
<path d="M2.04681 197.924C2.18281 198.332 2.36281 198.636 2.58681 198.836C2.81881 199.036 3.15881 199.136 3.60681 199.136C3.83081 199.136 4.03881 199.1 4.23081 199.028C4.43081 198.948 4.60681 198.844 4.75881 198.716C4.91081 198.58 5.03081 198.42 5.11881 198.236C5.20681 198.044 5.25081 197.832 5.25081 197.6C5.25081 197.248 5.17481 196.968 5.02281 196.76C4.87881 196.544 4.69081 196.384 4.45881 196.28C4.22681 196.168 3.97081 196.096 3.69081 196.064C3.41081 196.032 3.13481 196.016 2.86281 196.016V195.008C3.30281 195.008 3.66281 194.98 3.94281 194.924C4.22281 194.86 4.44281 194.772 4.60281 194.66C4.76281 194.548 4.87481 194.408 4.93881 194.24C5.00281 194.072 5.03481 193.884 5.03481 193.676C5.03481 193.22 4.89881 192.876 4.62681 192.644C4.35481 192.412 4.01481 192.296 3.60681 192.296C3.29481 192.296 3.01081 192.388 2.75481 192.572C2.50681 192.748 2.31881 192.984 2.19081 193.28L1.01481 192.884C1.23881 192.34 1.57881 191.94 2.03481 191.684C2.49881 191.42 3.01481 191.288 3.58281 191.288C3.92681 191.288 4.25481 191.336 4.56681 191.432C4.88681 191.52 5.16681 191.66 5.40681 191.852C5.64681 192.044 5.83481 192.288 5.97081 192.584C6.11481 192.872 6.18681 193.212 6.18681 193.604C6.18681 194.052 6.05081 194.452 5.77881 194.804C5.51481 195.156 5.16681 195.396 4.73481 195.524V195.548C4.99881 195.596 5.23481 195.684 5.44281 195.812C5.65081 195.94 5.82681 196.1 5.97081 196.292C6.11481 196.484 6.22281 196.7 6.29481 196.94C6.36681 197.172 6.40281 197.42 6.40281 197.684C6.40281 198.092 6.32281 198.452 6.16281 198.764C6.01081 199.068 5.80281 199.324 5.53881 199.532C5.28281 199.732 4.98281 199.884 4.63881 199.988C4.30281 200.092 3.94681 200.144 3.57081 200.144C2.92281 200.144 2.35081 199.996 1.85481 199.7C1.36681 199.404 1.02681 198.936 0.834812 198.296L2.04681 197.924ZM7.15878 195.752C7.15878 195.44 7.17478 195.116 7.20678 194.78C7.23878 194.444 7.29478 194.116 7.37478 193.796C7.46278 193.468 7.57478 193.156 7.71078 192.86C7.85478 192.564 8.03478 192.308 8.25078 192.092C8.47478 191.868 8.73478 191.692 9.03078 191.564C9.33478 191.428 9.68678 191.36 10.0868 191.36C10.4868 191.36 10.8348 191.428 11.1308 191.564C11.4348 191.692 11.6948 191.868 11.9108 192.092C12.1348 192.308 12.3148 192.564 12.4508 192.86C12.5948 193.156 12.7068 193.468 12.7868 193.796C12.8748 194.116 12.9348 194.444 12.9668 194.78C12.9988 195.116 13.0148 195.44 13.0148 195.752C13.0148 196.2 12.9748 196.68 12.8948 197.192C12.8148 197.704 12.6668 198.18 12.4508 198.62C12.2348 199.06 11.9348 199.424 11.5508 199.712C11.1748 200 10.6868 200.144 10.0868 200.144C9.48678 200.144 8.99478 200 8.61078 199.712C8.23478 199.424 7.93878 199.06 7.72278 198.62C7.50678 198.18 7.35878 197.704 7.27878 197.192C7.19878 196.68 7.15878 196.2 7.15878 195.752ZM8.31078 195.752C8.31078 196.032 8.32678 196.364 8.35878 196.748C8.39878 197.132 8.47878 197.504 8.59878 197.864C8.71878 198.216 8.89478 198.516 9.12678 198.764C9.36678 199.012 9.68678 199.136 10.0868 199.136C10.4868 199.136 10.8028 199.012 11.0348 198.764C11.2748 198.516 11.4548 198.216 11.5748 197.864C11.6948 197.504 11.7708 197.132 11.8028 196.748C11.8428 196.364 11.8628 196.032 11.8628 195.752C11.8628 195.56 11.8548 195.344 11.8388 195.104C11.8308 194.856 11.8028 194.608 11.7548 194.36C11.7148 194.104 11.6548 193.86 11.5748 193.628C11.4948 193.388 11.3868 193.176 11.2508 192.992C11.1228 192.8 10.9628 192.648 10.7708 192.536C10.5788 192.424 10.3508 192.368 10.0868 192.368C9.82278 192.368 9.59478 192.424 9.40278 192.536C9.21078 192.648 9.04678 192.8 8.91078 192.992C8.78278 193.176 8.67878 193.388 8.59878 193.628C8.51878 193.86 8.45478 194.104 8.40678 194.36C8.36678 194.608 8.33878 194.856 8.32278 195.104C8.31478 195.344 8.31078 195.56 8.31078 195.752ZM14.3108 191.504H15.4628V195.176H15.5588L19.3148 191.504H20.9228L16.8188 195.428L21.1988 200H19.5188L15.5588 195.752H15.4628V200H14.3108V191.504Z" fill="#AAB8C6" fill-opacity="0.8"/>
<path d="M4.31481 150.128H0.690812V148.952L4.07481 143.504H5.46681V149.12H6.66681V150.128H5.46681V152H4.31481V150.128ZM4.31481 144.872H4.29081L1.69881 149.12H4.31481V144.872ZM7.15878 147.752C7.15878 147.44 7.17478 147.116 7.20678 146.78C7.23878 146.444 7.29478 146.116 7.37478 145.796C7.46278 145.468 7.57478 145.156 7.71078 144.86C7.85478 144.564 8.03478 144.308 8.25078 144.092C8.47478 143.868 8.73478 143.692 9.03078 143.564C9.33478 143.428 9.68678 143.36 10.0868 143.36C10.4868 143.36 10.8348 143.428 11.1308 143.564C11.4348 143.692 11.6948 143.868 11.9108 144.092C12.1348 144.308 12.3148 144.564 12.4508 144.86C12.5948 145.156 12.7068 145.468 12.7868 145.796C12.8748 146.116 12.9348 146.444 12.9668 146.78C12.9988 147.116 13.0148 147.44 13.0148 147.752C13.0148 148.2 12.9748 148.68 12.8948 149.192C12.8148 149.704 12.6668 150.18 12.4508 150.62C12.2348 151.06 11.9348 151.424 11.5508 151.712C11.1748 152 10.6868 152.144 10.0868 152.144C9.48678 152.144 8.99478 152 8.61078 151.712C8.23478 151.424 7.93878 151.06 7.72278 150.62C7.50678 150.18 7.35878 149.704 7.27878 149.192C7.19878 148.68 7.15878 148.2 7.15878 147.752ZM8.31078 147.752C8.31078 148.032 8.32678 148.364 8.35878 148.748C8.39878 149.132 8.47878 149.504 8.59878 149.864C8.71878 150.216 8.89478 150.516 9.12678 150.764C9.36678 151.012 9.68678 151.136 10.0868 151.136C10.4868 151.136 10.8028 151.012 11.0348 150.764C11.2748 150.516 11.4548 150.216 11.5748 149.864C11.6948 149.504 11.7708 149.132 11.8028 148.748C11.8428 148.364 11.8628 148.032 11.8628 147.752C11.8628 147.56 11.8548 147.344 11.8388 147.104C11.8308 146.856 11.8028 146.608 11.7548 146.36C11.7148 146.104 11.6548 145.86 11.5748 145.628C11.4948 145.388 11.3868 145.176 11.2508 144.992C11.1228 144.8 10.9628 144.648 10.7708 144.536C10.5788 144.424 10.3508 144.368 10.0868 144.368C9.82278 144.368 9.59478 144.424 9.40278 144.536C9.21078 144.648 9.04678 144.8 8.91078 144.992C8.78278 145.176 8.67878 145.388 8.59878 145.628C8.51878 145.86 8.45478 146.104 8.40678 146.36C8.36678 146.608 8.33878 146.856 8.32278 147.104C8.31478 147.344 8.31078 147.56 8.31078 147.752ZM14.3108 143.504H15.4628V147.176H15.5588L19.3148 143.504H20.9228L16.8188 147.428L21.1988 152H19.5188L15.5588 147.752H15.4628V152H14.3108V143.504Z" fill="#AAB8C6" fill-opacity="0.8"/>
<path d="M5.93481 98.584H2.49081L2.45481 100.708C2.51081 100.684 2.59081 100.66 2.69481 100.636C2.79881 100.612 2.90281 100.592 3.00681 100.576C3.11881 100.56 3.22681 100.548 3.33081 100.54C3.43481 100.532 3.52281 100.528 3.59481 100.528C3.99481 100.528 4.35481 100.596 4.67481 100.732C5.00281 100.868 5.28281 101.06 5.51481 101.308C5.74681 101.556 5.92281 101.852 6.04281 102.196C6.17081 102.54 6.23481 102.92 6.23481 103.336C6.23481 103.76 6.15481 104.144 5.99481 104.488C5.84281 104.832 5.63081 105.128 5.35881 105.376C5.08681 105.624 4.77081 105.816 4.41081 105.952C4.05081 106.08 3.66281 106.144 3.24681 106.144C2.67081 106.144 2.15081 105.996 1.68681 105.7C1.22281 105.404 0.890812 104.98 0.690812 104.428L1.85481 104.032C2.00681 104.424 2.21081 104.708 2.46681 104.884C2.72281 105.052 3.04281 105.136 3.42681 105.136C3.65081 105.136 3.86281 105.096 4.06281 105.016C4.27081 104.936 4.44681 104.824 4.59081 104.68C4.74281 104.528 4.86281 104.344 4.95081 104.128C5.03881 103.912 5.08281 103.668 5.08281 103.396C5.08281 102.772 4.89081 102.308 4.50681 102.004C4.13081 101.692 3.63881 101.536 3.03081 101.536C2.81481 101.536 2.53881 101.576 2.20281 101.656C1.87481 101.728 1.56681 101.836 1.27881 101.98L1.37481 97.504H5.93481V98.584ZM7.15878 101.752C7.15878 101.44 7.17478 101.116 7.20678 100.78C7.23878 100.444 7.29478 100.116 7.37478 99.796C7.46278 99.468 7.57478 99.156 7.71078 98.86C7.85478 98.564 8.03478 98.308 8.25078 98.092C8.47478 97.868 8.73478 97.692 9.03078 97.564C9.33478 97.428 9.68678 97.36 10.0868 97.36C10.4868 97.36 10.8348 97.428 11.1308 97.564C11.4348 97.692 11.6948 97.868 11.9108 98.092C12.1348 98.308 12.3148 98.564 12.4508 98.86C12.5948 99.156 12.7068 99.468 12.7868 99.796C12.8748 100.116 12.9348 100.444 12.9668 100.78C12.9988 101.116 13.0148 101.44 13.0148 101.752C13.0148 102.2 12.9748 102.68 12.8948 103.192C12.8148 103.704 12.6668 104.18 12.4508 104.62C12.2348 105.06 11.9348 105.424 11.5508 105.712C11.1748 106 10.6868 106.144 10.0868 106.144C9.48678 106.144 8.99478 106 8.61078 105.712C8.23478 105.424 7.93878 105.06 7.72278 104.62C7.50678 104.18 7.35878 103.704 7.27878 103.192C7.19878 102.68 7.15878 102.2 7.15878 101.752ZM8.31078 101.752C8.31078 102.032 8.32678 102.364 8.35878 102.748C8.39878 103.132 8.47878 103.504 8.59878 103.864C8.71878 104.216 8.89478 104.516 9.12678 104.764C9.36678 105.012 9.68678 105.136 10.0868 105.136C10.4868 105.136 10.8028 105.012 11.0348 104.764C11.2748 104.516 11.4548 104.216 11.5748 103.864C11.6948 103.504 11.7708 103.132 11.8028 102.748C11.8428 102.364 11.8628 102.032 11.8628 101.752C11.8628 101.56 11.8548 101.344 11.8388 101.104C11.8308 100.856 11.8028 100.608 11.7548 100.36C11.7148 100.104 11.6548 99.86 11.5748 99.628C11.4948 99.388 11.3868 99.176 11.2508 98.992C11.1228 98.8 10.9628 98.648 10.7708 98.536C10.5788 98.424 10.3508 98.368 10.0868 98.368C9.82278 98.368 9.59478 98.424 9.40278 98.536C9.21078 98.648 9.04678 98.8 8.91078 98.992C8.78278 99.176 8.67878 99.388 8.59878 99.628C8.51878 99.86 8.45478 100.104 8.40678 100.36C8.36678 100.608 8.33878 100.856 8.32278 101.104C8.31478 101.344 8.31078 101.56 8.31078 101.752ZM14.3108 97.504H15.4628V101.176H15.5588L19.3148 97.504H20.9228L16.8188 101.428L21.1988 106H19.5188L15.5588 101.752H15.4628V106H14.3108V97.504Z" fill="#AAB8C6" fill-opacity="0.8"/>
<path d="M2.92281 52.792H2.97081C3.23481 52.664 3.54681 52.6 3.90681 52.6C4.21081 52.6 4.51881 52.652 4.83081 52.756C5.14281 52.86 5.42281 53.024 5.67081 53.248C5.92681 53.464 6.13481 53.744 6.29481 54.088C6.45481 54.424 6.53481 54.824 6.53481 55.288C6.53481 55.76 6.45481 56.176 6.29481 56.536C6.14281 56.888 5.93481 57.184 5.67081 57.424C5.40681 57.664 5.09881 57.844 4.74681 57.964C4.39481 58.084 4.01881 58.144 3.61881 58.144C3.21881 58.144 2.84281 58.08 2.49081 57.952C2.13881 57.824 1.83081 57.64 1.56681 57.4C1.30281 57.16 1.09081 56.872 0.930812 56.536C0.778812 56.2 0.702812 55.824 0.702812 55.408C0.702812 55.144 0.722812 54.904 0.762812 54.688C0.802812 54.472 0.858812 54.268 0.930812 54.076C1.01081 53.876 1.10281 53.684 1.20681 53.5C1.31081 53.308 1.42681 53.108 1.55481 52.9L3.70281 49.504H5.05881L2.92281 52.792ZM1.85481 55.372C1.85481 55.628 1.89481 55.864 1.97481 56.08C2.06281 56.296 2.18281 56.484 2.33481 56.644C2.49481 56.796 2.68281 56.916 2.89881 57.004C3.11481 57.092 3.35481 57.136 3.61881 57.136C3.88281 57.136 4.12281 57.092 4.33881 57.004C4.55481 56.916 4.73881 56.796 4.89081 56.644C5.05081 56.484 5.17081 56.296 5.25081 56.08C5.33881 55.864 5.38281 55.628 5.38281 55.372C5.38281 55.116 5.33881 54.88 5.25081 54.664C5.17081 54.448 5.05081 54.264 4.89081 54.112C4.73881 53.952 4.55481 53.828 4.33881 53.74C4.12281 53.652 3.88281 53.608 3.61881 53.608C3.35481 53.608 3.11481 53.652 2.89881 53.74C2.68281 53.828 2.49481 53.952 2.33481 54.112C2.18281 54.264 2.06281 54.448 1.97481 54.664C1.89481 54.88 1.85481 55.116 1.85481 55.372ZM7.15878 53.752C7.15878 53.44 7.17478 53.116 7.20678 52.78C7.23878 52.444 7.29478 52.116 7.37478 51.796C7.46278 51.468 7.57478 51.156 7.71078 50.86C7.85478 50.564 8.03478 50.308 8.25078 50.092C8.47478 49.868 8.73478 49.692 9.03078 49.564C9.33478 49.428 9.68678 49.36 10.0868 49.36C10.4868 49.36 10.8348 49.428 11.1308 49.564C11.4348 49.692 11.6948 49.868 11.9108 50.092C12.1348 50.308 12.3148 50.564 12.4508 50.86C12.5948 51.156 12.7068 51.468 12.7868 51.796C12.8748 52.116 12.9348 52.444 12.9668 52.78C12.9988 53.116 13.0148 53.44 13.0148 53.752C13.0148 54.2 12.9748 54.68 12.8948 55.192C12.8148 55.704 12.6668 56.18 12.4508 56.62C12.2348 57.06 11.9348 57.424 11.5508 57.712C11.1748 58 10.6868 58.144 10.0868 58.144C9.48678 58.144 8.99478 58 8.61078 57.712C8.23478 57.424 7.93878 57.06 7.72278 56.62C7.50678 56.18 7.35878 55.704 7.27878 55.192C7.19878 54.68 7.15878 54.2 7.15878 53.752ZM8.31078 53.752C8.31078 54.032 8.32678 54.364 8.35878 54.748C8.39878 55.132 8.47878 55.504 8.59878 55.864C8.71878 56.216 8.89478 56.516 9.12678 56.764C9.36678 57.012 9.68678 57.136 10.0868 57.136C10.4868 57.136 10.8028 57.012 11.0348 56.764C11.2748 56.516 11.4548 56.216 11.5748 55.864C11.6948 55.504 11.7708 55.132 11.8028 54.748C11.8428 54.364 11.8628 54.032 11.8628 53.752C11.8628 53.56 11.8548 53.344 11.8388 53.104C11.8308 52.856 11.8028 52.608 11.7548 52.36C11.7148 52.104 11.6548 51.86 11.5748 51.628C11.4948 51.388 11.3868 51.176 11.2508 50.992C11.1228 50.8 10.9628 50.648 10.7708 50.536C10.5788 50.424 10.3508 50.368 10.0868 50.368C9.82278 50.368 9.59478 50.424 9.40278 50.536C9.21078 50.648 9.04678 50.8 8.91078 50.992C8.78278 51.176 8.67878 51.388 8.59878 51.628C8.51878 51.86 8.45478 52.104 8.40678 52.36C8.36678 52.608 8.33878 52.856 8.32278 53.104C8.31478 53.344 8.31078 53.56 8.31078 53.752ZM14.3108 49.504H15.4628V53.176H15.5588L19.3148 49.504H20.9228L16.8188 53.428L21.1988 58H19.5188L15.5588 53.752H15.4628V58H14.3108V49.504Z" fill="#AAB8C6" fill-opacity="0.8"/>
<path d="M4.89081 2.512H0.786812V1.504H6.12681V2.488L2.74281 10H1.44681L4.89081 2.512ZM7.15878 5.752C7.15878 5.44 7.17478 5.116 7.20678 4.78C7.23878 4.444 7.29478 4.116 7.37478 3.796C7.46278 3.468 7.57478 3.156 7.71078 2.86C7.85478 2.564 8.03478 2.308 8.25078 2.092C8.47478 1.868 8.73478 1.692 9.03078 1.564C9.33478 1.428 9.68678 1.36 10.0868 1.36C10.4868 1.36 10.8348 1.428 11.1308 1.564C11.4348 1.692 11.6948 1.868 11.9108 2.092C12.1348 2.308 12.3148 2.564 12.4508 2.86C12.5948 3.156 12.7068 3.468 12.7868 3.796C12.8748 4.116 12.9348 4.444 12.9668 4.78C12.9988 5.116 13.0148 5.44 13.0148 5.752C13.0148 6.2 12.9748 6.68 12.8948 7.192C12.8148 7.704 12.6668 8.18 12.4508 8.62C12.2348 9.06 11.9348 9.424 11.5508 9.712C11.1748 10 10.6868 10.144 10.0868 10.144C9.48678 10.144 8.99478 10 8.61078 9.712C8.23478 9.424 7.93878 9.06 7.72278 8.62C7.50678 8.18 7.35878 7.704 7.27878 7.192C7.19878 6.68 7.15878 6.2 7.15878 5.752ZM8.31078 5.752C8.31078 6.032 8.32678 6.364 8.35878 6.748C8.39878 7.132 8.47878 7.504 8.59878 7.864C8.71878 8.216 8.89478 8.516 9.12678 8.764C9.36678 9.012 9.68678 9.136 10.0868 9.136C10.4868 9.136 10.8028 9.012 11.0348 8.764C11.2748 8.516 11.4548 8.216 11.5748 7.864C11.6948 7.504 11.7708 7.132 11.8028 6.748C11.8428 6.364 11.8628 6.032 11.8628 5.752C11.8628 5.56 11.8548 5.344 11.8388 5.104C11.8308 4.856 11.8028 4.608 11.7548 4.36C11.7148 4.104 11.6548 3.86 11.5748 3.628C11.4948 3.388 11.3868 3.176 11.2508 2.992C11.1228 2.8 10.9628 2.648 10.7708 2.536C10.5788 2.424 10.3508 2.368 10.0868 2.368C9.82278 2.368 9.59478 2.424 9.40278 2.536C9.21078 2.648 9.04678 2.8 8.91078 2.992C8.78278 3.176 8.67878 3.388 8.59878 3.628C8.51878 3.86 8.45478 4.104 8.40678 4.36C8.36678 4.608 8.33878 4.856 8.32278 5.104C8.31478 5.344 8.31078 5.56 8.31078 5.752ZM14.3108 1.504H15.4628V5.176H15.5588L19.3148 1.504H20.9228L16.8188 5.428L21.1988 10H19.5188L15.5588 5.752H15.4628V10H14.3108V1.504Z" fill="#AAB8C6" fill-opacity="0.8"/>
<path opacity="0.25" fill-rule="evenodd" clip-rule="evenodd" d="M29 65C30.9528 68.7009 31.3012 93.7563 33.0128 97C33.7559 98.4083 34.8554 93.1527 35.5663 94.5C36.374 96.0307 36.2483 102.527 37.0255 104C37.648 105.18 38.9693 96.8444 39.5791 98C40.2469 99.2657 41.1077 108.249 41.7679 109.5C42.5998 111.077 43.1226 105.919 43.9566 107.5C44.9133 109.313 45.1634 115.139 46.1454 117C46.9232 118.474 49.351 111.47 50.1582 113C50.9317 114.466 54.0893 115.963 54.9005 117.5C56.6323 120.782 55.1105 121.964 57.0893 125.714L59.2781 123L61.8316 126L67.3036 137.5L69.4923 128L72.0459 133L74.9643 131.5L77.1531 138L80.0714 135.5H83.7194L86.273 139.5H88.4617L90.6505 164.5L92.1097 161.5L93.5689 167.5L94.6633 166L95.7577 172.5L97.2168 176L99.0408 172.5L100.5 178.5L103.783 176L105.242 181L107.431 178.5L113.268 203L116.186 225.5L117.645 218L119.105 220L123.117 211.5L125.306 215.5L128.224 207.5L130.048 210L132.602 202L135.52 203.74L137.709 197L142.452 201.756L143.546 200L148.653 207L151.207 204L153.395 207L156.51 203L161.421 197L163.974 200L166.528 193.5H169.811L174.189 186.5H176.013L177.837 181L181.485 191L183.309 184.5L184.768 186.5L186.957 173L188.781 175.5L190.605 170.961L191.334 169L192.793 172.5L194.617 171.5L197.901 178.5L200.454 176.045L207.02 184.5L208.48 181.438L212.492 189L214.316 186.5L216.14 191.5L219.059 180.5L220.253 176.045L221.977 178.5L223.436 172.5L225.26 174.5L227.274 163.5L230.732 166V158.5L232.871 160.58L234.38 154L235.474 149L236.934 155.49L239.122 158.5L240.582 157L243.135 163L244.23 165.5L245.324 163.5L249.337 174.5L251.161 171.5L255.173 192.5L256.633 179L258.821 186.5L260.645 184.5L263.564 191L265.023 188L268.671 197L269.765 193.5L271.954 198L274.872 204L275.967 200L277.426 201.5L281.718 180.668L283.263 182L286.008 167.5L287.276 173.5L289.099 163.5L291.288 165.5L292.747 153.5L293.477 146L294.936 149L296.395 139L297.125 135.5L299.679 142.5L301.503 139.48L305.515 145.5L306.974 142.5L309.528 146L310.987 145L315 162.5V345H29C29 235.653 29 174.347 29 65Z" fill="url(#paint0_linear)"/>
<path d="M29 65L32.6526 97.3994L35.2095 93.9102L36.6705 104.378L39.2273 97.3994L41.4189 109.861L43.6105 106.87L45.802 117.337L49.8199 112.851L54.5683 117.337L56.7599 125.811L58.9515 122.82L61.5083 125.811L66.9872 137.774L69.1788 127.805L71.7356 132.789L74.6577 131.294L76.8493 137.774L79.7714 135.282H83.424L85.6156 139.269H88.1724L90.364 165.687L91.825 160.703L93.2861 167.183L94.3819 165.687L95.4777 172.167L96.9387 175.656L98.765 172.167L100.226 178.149L103.513 175.656L104.974 180.641L107.166 178.149L113.741 206.56L115.932 226L117.393 217.526L118.854 219.52L120.681 215.533L122.872 211.046L125.064 215.533L127.986 206.56L129.812 209.551L132.369 201.576L135.291 203.57L137.483 196.591L142.231 201.576L143.327 199.582L148.441 206.56L150.997 203.57L153.189 206.56L161.225 196.591L163.782 199.582L166.338 193.102H169.626L174.009 186.124H175.835L177.662 180.641L181.314 191.108L183.14 184.13L184.602 186.124L186.793 172.167L188.619 175.656L191.176 168.678L192.637 172.167L194.464 171.17L197.751 178.149L200.308 175.656L206.883 184.13L208.344 180.641L212.361 188.616L214.188 186.124L216.014 191.108L220.032 175.656L221.858 178.149L223.319 172.167L225.146 174.161L227.337 163.195L230.625 165.687V158.211L232.816 160.703L235.373 149.238L236.834 155.22L239.026 158.211L240.487 156.715L244.139 165.687L245.235 163.195L249.253 174.161L251.079 171.17L255.097 193.102L256.558 178.149L258.75 186.124L260.576 184.13L263.498 191.108L264.959 187.619L268.612 196.591L269.708 193.102L274.821 203.57L275.917 199.582L277.378 201.576L281.761 180.641L283.222 182.136L286.144 167.183L287.24 174.161L289.066 163.195L291.258 165.687L293.45 145.749L294.911 149.238L297.102 135.282L299.659 142.26L301.485 139.269L305.503 145.749L306.964 142.26L309.521 145.749L310.982 144.752L315 161.7" stroke="#437FEC" stroke-width="2" stroke-linecap="round"/>
<path d="M29 149.5H315" stroke="#AAB8C6" stroke-opacity="0.7" stroke-width="0.5" stroke-linecap="square"/>
<path d="M29 246.5H315" stroke="#AAB8C6" stroke-opacity="0.7" stroke-width="0.5" stroke-linecap="square"/>
<path d="M29 295.5H315" stroke="#AAB8C6" stroke-opacity="0.7" stroke-width="0.5" stroke-linecap="square"/>
<path d="M29 344.5H315" stroke="#AAB8C6" stroke-opacity="0.7" stroke-width="0.5" stroke-linecap="square"/>
<path d="M29 102.5H315" stroke="#AAB8C6" stroke-opacity="0.7" stroke-width="0.5" stroke-linecap="square"/>
<path d="M29 54.5H315" stroke="#AAB8C6" stroke-opacity="0.7" stroke-width="0.5" stroke-linecap="square"/>
<path d="M29 6.5H315" stroke="#AAB8C6" stroke-opacity="0.7" stroke-width="0.5" stroke-linecap="square"/>
<path d="M29 197.5H315" stroke="#AAB8C6" stroke-opacity="0.7" stroke-width="0.5" stroke-linecap="square"/>
<path d="M150.408 363.752C150.408 363.44 150.424 363.116 150.456 362.78C150.488 362.444 150.544 362.116 150.624 361.796C150.712 361.468 150.824 361.156 150.96 360.86C151.104 360.564 151.284 360.308 151.5 360.092C151.724 359.868 151.984 359.692 152.28 359.564C152.584 359.428 152.936 359.36 153.336 359.36C153.736 359.36 154.084 359.428 154.38 359.564C154.684 359.692 154.944 359.868 155.16 360.092C155.384 360.308 155.564 360.564 155.7 360.86C155.844 361.156 155.956 361.468 156.036 361.796C156.124 362.116 156.184 362.444 156.216 362.78C156.248 363.116 156.264 363.44 156.264 363.752C156.264 364.2 156.224 364.68 156.144 365.192C156.064 365.704 155.916 366.18 155.7 366.62C155.484 367.06 155.184 367.424 154.8 367.712C154.424 368 153.936 368.144 153.336 368.144C152.736 368.144 152.244 368 151.86 367.712C151.484 367.424 151.188 367.06 150.972 366.62C150.756 366.18 150.608 365.704 150.528 365.192C150.448 364.68 150.408 364.2 150.408 363.752ZM151.56 363.752C151.56 364.032 151.576 364.364 151.608 364.748C151.648 365.132 151.728 365.504 151.848 365.864C151.968 366.216 152.144 366.516 152.376 366.764C152.616 367.012 152.936 367.136 153.336 367.136C153.736 367.136 154.052 367.012 154.284 366.764C154.524 366.516 154.704 366.216 154.824 365.864C154.944 365.504 155.02 365.132 155.052 364.748C155.092 364.364 155.112 364.032 155.112 363.752C155.112 363.56 155.104 363.344 155.088 363.104C155.08 362.856 155.052 362.608 155.004 362.36C154.964 362.104 154.904 361.86 154.824 361.628C154.744 361.388 154.636 361.176 154.5 360.992C154.372 360.8 154.212 360.648 154.02 360.536C153.828 360.424 153.6 360.368 153.336 360.368C153.072 360.368 152.844 360.424 152.652 360.536C152.46 360.648 152.296 360.8 152.16 360.992C152.032 361.176 151.928 361.388 151.848 361.628C151.768 361.86 151.704 362.104 151.656 362.36C151.616 362.608 151.588 362.856 151.572 363.104C151.564 363.344 151.56 363.56 151.56 363.752ZM159.108 362.792H159.156C159.42 362.664 159.732 362.6 160.092 362.6C160.396 362.6 160.704 362.652 161.016 362.756C161.328 362.86 161.608 363.024 161.856 363.248C162.112 363.464 162.32 363.744 162.48 364.088C162.64 364.424 162.72 364.824 162.72 365.288C162.72 365.76 162.64 366.176 162.48 366.536C162.328 366.888 162.12 367.184 161.856 367.424C161.592 367.664 161.284 367.844 160.932 367.964C160.58 368.084 160.204 368.144 159.804 368.144C159.404 368.144 159.028 368.08 158.676 367.952C158.324 367.824 158.016 367.64 157.752 367.4C157.488 367.16 157.276 366.872 157.116 366.536C156.964 366.2 156.888 365.824 156.888 365.408C156.888 365.144 156.908 364.904 156.948 364.688C156.988 364.472 157.044 364.268 157.116 364.076C157.196 363.876 157.288 363.684 157.392 363.5C157.496 363.308 157.612 363.108 157.74 362.9L159.888 359.504H161.244L159.108 362.792ZM158.04 365.372C158.04 365.628 158.08 365.864 158.16 366.08C158.248 366.296 158.368 366.484 158.52 366.644C158.68 366.796 158.868 366.916 159.084 367.004C159.3 367.092 159.54 367.136 159.804 367.136C160.068 367.136 160.308 367.092 160.524 367.004C160.74 366.916 160.924 366.796 161.076 366.644C161.236 366.484 161.356 366.296 161.436 366.08C161.524 365.864 161.568 365.628 161.568 365.372C161.568 365.116 161.524 364.88 161.436 364.664C161.356 364.448 161.236 364.264 161.076 364.112C160.924 363.952 160.74 363.828 160.524 363.74C160.308 363.652 160.068 363.608 159.804 363.608C159.54 363.608 159.3 363.652 159.084 363.74C158.868 363.828 158.68 363.952 158.52 364.112C158.368 364.264 158.248 364.448 158.16 364.664C158.08 364.88 158.04 365.116 158.04 365.372ZM166.308 365.6H163.356V364.592H166.308V365.6ZM167.085 366.776L170.493 363.392C170.613 363.28 170.729 363.16 170.841 363.032C170.953 362.896 171.053 362.756 171.141 362.612C171.229 362.468 171.297 362.316 171.345 362.156C171.401 361.996 171.429 361.828 171.429 361.652C171.429 361.444 171.389 361.256 171.309 361.088C171.237 360.92 171.133 360.78 170.997 360.668C170.869 360.548 170.713 360.456 170.529 360.392C170.353 360.328 170.165 360.296 169.965 360.296C169.549 360.296 169.205 360.412 168.933 360.644C168.661 360.876 168.489 361.196 168.417 361.604L167.169 361.496C167.225 361.12 167.333 360.796 167.493 360.524C167.661 360.244 167.865 360.012 168.105 359.828C168.353 359.644 168.633 359.508 168.945 359.42C169.265 359.332 169.609 359.288 169.977 359.288C170.345 359.288 170.689 359.34 171.009 359.444C171.337 359.54 171.621 359.688 171.861 359.888C172.109 360.08 172.301 360.324 172.437 360.62C172.581 360.908 172.653 361.248 172.653 361.64C172.653 361.92 172.609 362.184 172.521 362.432C172.441 362.672 172.333 362.9 172.197 363.116C172.061 363.332 171.905 363.536 171.729 363.728C171.553 363.92 171.369 364.108 171.177 364.292L168.381 366.992H172.653V368H167.085V366.776ZM173.409 363.752C173.409 363.44 173.425 363.116 173.457 362.78C173.489 362.444 173.545 362.116 173.625 361.796C173.713 361.468 173.825 361.156 173.961 360.86C174.105 360.564 174.285 360.308 174.501 360.092C174.725 359.868 174.985 359.692 175.281 359.564C175.585 359.428 175.937 359.36 176.337 359.36C176.737 359.36 177.085 359.428 177.381 359.564C177.685 359.692 177.945 359.868 178.161 360.092C178.385 360.308 178.565 360.564 178.701 360.86C178.845 361.156 178.957 361.468 179.037 361.796C179.125 362.116 179.185 362.444 179.217 362.78C179.249 363.116 179.265 363.44 179.265 363.752C179.265 364.2 179.225 364.68 179.145 365.192C179.065 365.704 178.917 366.18 178.701 366.62C178.485 367.06 178.185 367.424 177.801 367.712C177.425 368 176.937 368.144 176.337 368.144C175.737 368.144 175.245 368 174.861 367.712C174.485 367.424 174.189 367.06 173.973 366.62C173.757 366.18 173.609 365.704 173.529 365.192C173.449 364.68 173.409 364.2 173.409 363.752ZM174.561 363.752C174.561 364.032 174.577 364.364 174.609 364.748C174.649 365.132 174.729 365.504 174.849 365.864C174.969 366.216 175.145 366.516 175.377 366.764C175.617 367.012 175.937 367.136 176.337 367.136C176.737 367.136 177.053 367.012 177.285 366.764C177.525 366.516 177.705 366.216 177.825 365.864C177.945 365.504 178.021 365.132 178.053 364.748C178.093 364.364 178.113 364.032 178.113 363.752C178.113 363.56 178.105 363.344 178.089 363.104C178.081 362.856 178.053 362.608 178.005 362.36C177.965 362.104 177.905 361.86 177.825 361.628C177.745 361.388 177.637 361.176 177.501 360.992C177.373 360.8 177.213 360.648 177.021 360.536C176.829 360.424 176.601 360.368 176.337 360.368C176.073 360.368 175.845 360.424 175.653 360.536C175.461 360.648 175.297 360.8 175.161 360.992C175.033 361.176 174.929 361.388 174.849 361.628C174.769 361.86 174.705 362.104 174.657 362.36C174.617 362.608 174.589 362.856 174.573 363.104C174.565 363.344 174.561 363.56 174.561 363.752ZM180.021 366.776L183.429 363.392C183.549 363.28 183.665 363.16 183.777 363.032C183.889 362.896 183.989 362.756 184.077 362.612C184.165 362.468 184.233 362.316 184.281 362.156C184.337 361.996 184.365 361.828 184.365 361.652C184.365 361.444 184.325 361.256 184.245 361.088C184.173 360.92 184.069 360.78 183.933 360.668C183.805 360.548 183.649 360.456 183.465 360.392C183.289 360.328 183.101 360.296 182.901 360.296C182.485 360.296 182.141 360.412 181.869 360.644C181.597 360.876 181.425 361.196 181.353 361.604L180.105 361.496C180.161 361.12 180.269 360.796 180.429 360.524C180.597 360.244 180.801 360.012 181.041 359.828C181.289 359.644 181.569 359.508 181.881 359.42C182.201 359.332 182.545 359.288 182.913 359.288C183.281 359.288 183.625 359.34 183.945 359.444C184.273 359.54 184.557 359.688 184.797 359.888C185.045 360.08 185.237 360.324 185.373 360.62C185.517 360.908 185.589 361.248 185.589 361.64C185.589 361.92 185.545 362.184 185.457 362.432C185.377 362.672 185.269 362.9 185.133 363.116C184.997 363.332 184.841 363.536 184.665 363.728C184.489 363.92 184.305 364.108 184.113 364.292L181.317 366.992H185.589V368H180.021V366.776ZM189.177 360.824L187.617 362.264L186.945 361.46L189.309 359.504H190.329V368H189.177V360.824Z" fill="#AAB8C6"/>
<path d="M171.5 345V349" stroke="#AAB8C6" stroke-width="0.5" stroke-linecap="square"/>
<path d="M29.408 363.752C29.408 363.44 29.424 363.116 29.456 362.78C29.488 362.444 29.544 362.116 29.624 361.796C29.712 361.468 29.824 361.156 29.96 360.86C30.104 360.564 30.284 360.308 30.5 360.092C30.724 359.868 30.984 359.692 31.28 359.564C31.584 359.428 31.936 359.36 32.336 359.36C32.736 359.36 33.084 359.428 33.38 359.564C33.684 359.692 33.944 359.868 34.16 360.092C34.384 360.308 34.564 360.564 34.7 360.86C34.844 361.156 34.956 361.468 35.036 361.796C35.124 362.116 35.184 362.444 35.216 362.78C35.248 363.116 35.264 363.44 35.264 363.752C35.264 364.2 35.224 364.68 35.144 365.192C35.064 365.704 34.916 366.18 34.7 366.62C34.484 367.06 34.184 367.424 33.8 367.712C33.424 368 32.936 368.144 32.336 368.144C31.736 368.144 31.244 368 30.86 367.712C30.484 367.424 30.188 367.06 29.972 366.62C29.756 366.18 29.608 365.704 29.528 365.192C29.448 364.68 29.408 364.2 29.408 363.752ZM30.56 363.752C30.56 364.032 30.576 364.364 30.608 364.748C30.648 365.132 30.728 365.504 30.848 365.864C30.968 366.216 31.144 366.516 31.376 366.764C31.616 367.012 31.936 367.136 32.336 367.136C32.736 367.136 33.052 367.012 33.284 366.764C33.524 366.516 33.704 366.216 33.824 365.864C33.944 365.504 34.02 365.132 34.052 364.748C34.092 364.364 34.112 364.032 34.112 363.752C34.112 363.56 34.104 363.344 34.088 363.104C34.08 362.856 34.052 362.608 34.004 362.36C33.964 362.104 33.904 361.86 33.824 361.628C33.744 361.388 33.636 361.176 33.5 360.992C33.372 360.8 33.212 360.648 33.02 360.536C32.828 360.424 32.6 360.368 32.336 360.368C32.072 360.368 31.844 360.424 31.652 360.536C31.46 360.648 31.296 360.8 31.16 360.992C31.032 361.176 30.928 361.388 30.848 361.628C30.768 361.86 30.704 362.104 30.656 362.36C30.616 362.608 30.588 362.856 30.572 363.104C30.564 363.344 30.56 363.56 30.56 363.752ZM39.5 366.128H35.876V364.952L39.26 359.504H40.652V365.12H41.852V366.128H40.652V368H39.5V366.128ZM39.5 360.872H39.476L36.884 365.12H39.5V360.872ZM45.3079 365.6H42.3559V364.592H45.3079V365.6ZM46.0848 366.776L49.4928 363.392C49.6128 363.28 49.7288 363.16 49.8408 363.032C49.9528 362.896 50.0528 362.756 50.1408 362.612C50.2288 362.468 50.2968 362.316 50.3448 362.156C50.4008 361.996 50.4288 361.828 50.4288 361.652C50.4288 361.444 50.3888 361.256 50.3088 361.088C50.2368 360.92 50.1328 360.78 49.9968 360.668C49.8688 360.548 49.7128 360.456 49.5288 360.392C49.3528 360.328 49.1648 360.296 48.9648 360.296C48.5488 360.296 48.2048 360.412 47.9328 360.644C47.6608 360.876 47.4888 361.196 47.4168 361.604L46.1688 361.496C46.2248 361.12 46.3328 360.796 46.4928 360.524C46.6608 360.244 46.8648 360.012 47.1048 359.828C47.3528 359.644 47.6328 359.508 47.9448 359.42C48.2648 359.332 48.6088 359.288 48.9768 359.288C49.3448 359.288 49.6888 359.34 50.0088 359.444C50.3368 359.54 50.6208 359.688 50.8608 359.888C51.1088 360.08 51.3008 360.324 51.4368 360.62C51.5808 360.908 51.6528 361.248 51.6528 361.64C51.6528 361.92 51.6088 362.184 51.5208 362.432C51.4408 362.672 51.3328 362.9 51.1968 363.116C51.0608 363.332 50.9048 363.536 50.7288 363.728C50.5528 363.92 50.3688 364.108 50.1768 364.292L47.3808 366.992H51.6528V368H46.0848V366.776ZM52.4088 363.752C52.4088 363.44 52.4248 363.116 52.4568 362.78C52.4888 362.444 52.5448 362.116 52.6248 361.796C52.7128 361.468 52.8248 361.156 52.9608 360.86C53.1048 360.564 53.2848 360.308 53.5008 360.092C53.7248 359.868 53.9848 359.692 54.2808 359.564C54.5848 359.428 54.9368 359.36 55.3368 359.36C55.7368 359.36 56.0848 359.428 56.3808 359.564C56.6848 359.692 56.9448 359.868 57.1608 360.092C57.3848 360.308 57.5648 360.564 57.7008 360.86C57.8448 361.156 57.9568 361.468 58.0368 361.796C58.1248 362.116 58.1848 362.444 58.2168 362.78C58.2488 363.116 58.2648 363.44 58.2648 363.752C58.2648 364.2 58.2248 364.68 58.1448 365.192C58.0648 365.704 57.9168 366.18 57.7008 366.62C57.4848 367.06 57.1848 367.424 56.8008 367.712C56.4248 368 55.9368 368.144 55.3368 368.144C54.7368 368.144 54.2448 368 53.8608 367.712C53.4848 367.424 53.1888 367.06 52.9728 366.62C52.7568 366.18 52.6088 365.704 52.5288 365.192C52.4488 364.68 52.4088 364.2 52.4088 363.752ZM53.5608 363.752C53.5608 364.032 53.5768 364.364 53.6088 364.748C53.6488 365.132 53.7288 365.504 53.8488 365.864C53.9688 366.216 54.1448 366.516 54.3768 366.764C54.6168 367.012 54.9368 367.136 55.3368 367.136C55.7368 367.136 56.0528 367.012 56.2848 366.764C56.5248 366.516 56.7048 366.216 56.8248 365.864C56.9448 365.504 57.0208 365.132 57.0528 364.748C57.0928 364.364 57.1128 364.032 57.1128 363.752C57.1128 363.56 57.1048 363.344 57.0888 363.104C57.0808 362.856 57.0528 362.608 57.0048 362.36C56.9648 362.104 56.9048 361.86 56.8248 361.628C56.7448 361.388 56.6368 361.176 56.5008 360.992C56.3728 360.8 56.2128 360.648 56.0208 360.536C55.8288 360.424 55.6008 360.368 55.3368 360.368C55.0728 360.368 54.8448 360.424 54.6528 360.536C54.4608 360.648 54.2968 360.8 54.1608 360.992C54.0328 361.176 53.9288 361.388 53.8488 361.628C53.7688 361.86 53.7048 362.104 53.6568 362.36C53.6168 362.608 53.5888 362.856 53.5728 363.104C53.5648 363.344 53.5608 363.56 53.5608 363.752ZM59.0208 366.776L62.4288 363.392C62.5488 363.28 62.6648 363.16 62.7768 363.032C62.8888 362.896 62.9888 362.756 63.0768 362.612C63.1648 362.468 63.2328 362.316 63.2808 362.156C63.3368 361.996 63.3648 361.828 63.3648 361.652C63.3648 361.444 63.3248 361.256 63.2448 361.088C63.1728 360.92 63.0688 360.78 62.9328 360.668C62.8048 360.548 62.6488 360.456 62.4648 360.392C62.2888 360.328 62.1008 360.296 61.9008 360.296C61.4848 360.296 61.1408 360.412 60.8688 360.644C60.5968 360.876 60.4248 361.196 60.3528 361.604L59.1048 361.496C59.1608 361.12 59.2688 360.796 59.4288 360.524C59.5968 360.244 59.8008 360.012 60.0408 359.828C60.2888 359.644 60.5688 359.508 60.8808 359.42C61.2008 359.332 61.5448 359.288 61.9128 359.288C62.2808 359.288 62.6248 359.34 62.9448 359.444C63.2728 359.54 63.5568 359.688 63.7968 359.888C64.0448 360.08 64.2368 360.324 64.3728 360.62C64.5168 360.908 64.5888 361.248 64.5888 361.64C64.5888 361.92 64.5448 362.184 64.4568 362.432C64.3768 362.672 64.2688 362.9 64.1328 363.116C63.9968 363.332 63.8408 363.536 63.6648 363.728C63.4888 363.92 63.3048 364.108 63.1128 364.292L60.3168 366.992H64.5888V368H59.0208V366.776ZM68.1767 360.824L66.6167 362.264L65.9447 361.46L68.3087 359.504H69.3287V368H68.1767V360.824Z" fill="#AAB8C6"/>
<path d="M50.5 345V349" stroke="#AAB8C6" stroke-width="0.5" stroke-linecap="square"/>
<path d="M272.408 363.752C272.408 363.44 272.424 363.116 272.456 362.78C272.488 362.444 272.544 362.116 272.624 361.796C272.712 361.468 272.824 361.156 272.96 360.86C273.104 360.564 273.284 360.308 273.5 360.092C273.724 359.868 273.984 359.692 274.28 359.564C274.584 359.428 274.936 359.36 275.336 359.36C275.736 359.36 276.084 359.428 276.38 359.564C276.684 359.692 276.944 359.868 277.16 360.092C277.384 360.308 277.564 360.564 277.7 360.86C277.844 361.156 277.956 361.468 278.036 361.796C278.124 362.116 278.184 362.444 278.216 362.78C278.248 363.116 278.264 363.44 278.264 363.752C278.264 364.2 278.224 364.68 278.144 365.192C278.064 365.704 277.916 366.18 277.7 366.62C277.484 367.06 277.184 367.424 276.8 367.712C276.424 368 275.936 368.144 275.336 368.144C274.736 368.144 274.244 368 273.86 367.712C273.484 367.424 273.188 367.06 272.972 366.62C272.756 366.18 272.608 365.704 272.528 365.192C272.448 364.68 272.408 364.2 272.408 363.752ZM273.56 363.752C273.56 364.032 273.576 364.364 273.608 364.748C273.648 365.132 273.728 365.504 273.848 365.864C273.968 366.216 274.144 366.516 274.376 366.764C274.616 367.012 274.936 367.136 275.336 367.136C275.736 367.136 276.052 367.012 276.284 366.764C276.524 366.516 276.704 366.216 276.824 365.864C276.944 365.504 277.02 365.132 277.052 364.748C277.092 364.364 277.112 364.032 277.112 363.752C277.112 363.56 277.104 363.344 277.088 363.104C277.08 362.856 277.052 362.608 277.004 362.36C276.964 362.104 276.904 361.86 276.824 361.628C276.744 361.388 276.636 361.176 276.5 360.992C276.372 360.8 276.212 360.648 276.02 360.536C275.828 360.424 275.6 360.368 275.336 360.368C275.072 360.368 274.844 360.424 274.652 360.536C274.46 360.648 274.296 360.8 274.16 360.992C274.032 361.176 273.928 361.388 273.848 361.628C273.768 361.86 273.704 362.104 273.656 362.36C273.616 362.608 273.588 362.856 273.572 363.104C273.564 363.344 273.56 363.56 273.56 363.752ZM282.5 364.712H282.452C282.188 364.84 281.876 364.904 281.516 364.904C281.212 364.904 280.904 364.852 280.592 364.748C280.28 364.644 279.996 364.484 279.74 364.268C279.492 364.044 279.288 363.764 279.128 363.428C278.968 363.084 278.888 362.68 278.888 362.216C278.888 361.752 278.964 361.344 279.116 360.992C279.276 360.632 279.488 360.332 279.752 360.092C280.016 359.852 280.324 359.672 280.676 359.552C281.028 359.424 281.404 359.36 281.804 359.36C282.204 359.36 282.58 359.424 282.932 359.552C283.284 359.68 283.592 359.864 283.856 360.104C284.12 360.344 284.328 360.632 284.48 360.968C284.64 361.304 284.72 361.68 284.72 362.096C284.72 362.36 284.7 362.6 284.66 362.816C284.62 363.032 284.56 363.24 284.48 363.44C284.408 363.632 284.32 363.824 284.216 364.016C284.112 364.208 283.996 364.404 283.868 364.604L281.72 368H280.364L282.5 364.712ZM283.568 362.132C283.568 361.876 283.524 361.64 283.436 361.424C283.356 361.208 283.236 361.024 283.076 360.872C282.924 360.712 282.74 360.588 282.524 360.5C282.308 360.412 282.068 360.368 281.804 360.368C281.54 360.368 281.3 360.412 281.084 360.5C280.868 360.588 280.68 360.712 280.52 360.872C280.368 361.024 280.248 361.208 280.16 361.424C280.08 361.64 280.04 361.876 280.04 362.132C280.04 362.388 280.08 362.624 280.16 362.84C280.248 363.056 280.368 363.244 280.52 363.404C280.68 363.556 280.868 363.676 281.084 363.764C281.3 363.852 281.54 363.896 281.804 363.896C282.068 363.896 282.308 363.852 282.524 363.764C282.74 363.676 282.924 363.556 283.076 363.404C283.236 363.244 283.356 363.056 283.436 362.84C283.524 362.624 283.568 362.388 283.568 362.132ZM288.308 365.6H285.356V364.592H288.308V365.6ZM289.085 366.776L292.493 363.392C292.613 363.28 292.729 363.16 292.841 363.032C292.953 362.896 293.053 362.756 293.141 362.612C293.229 362.468 293.297 362.316 293.345 362.156C293.401 361.996 293.429 361.828 293.429 361.652C293.429 361.444 293.389 361.256 293.309 361.088C293.237 360.92 293.133 360.78 292.997 360.668C292.869 360.548 292.713 360.456 292.529 360.392C292.353 360.328 292.165 360.296 291.965 360.296C291.549 360.296 291.205 360.412 290.933 360.644C290.661 360.876 290.489 361.196 290.417 361.604L289.169 361.496C289.225 361.12 289.333 360.796 289.493 360.524C289.661 360.244 289.865 360.012 290.105 359.828C290.353 359.644 290.633 359.508 290.945 359.42C291.265 359.332 291.609 359.288 291.977 359.288C292.345 359.288 292.689 359.34 293.009 359.444C293.337 359.54 293.621 359.688 293.861 359.888C294.109 360.08 294.301 360.324 294.437 360.62C294.581 360.908 294.653 361.248 294.653 361.64C294.653 361.92 294.609 362.184 294.521 362.432C294.441 362.672 294.333 362.9 294.197 363.116C294.061 363.332 293.905 363.536 293.729 363.728C293.553 363.92 293.369 364.108 293.177 364.292L290.381 366.992H294.653V368H289.085V366.776ZM295.409 363.752C295.409 363.44 295.425 363.116 295.457 362.78C295.489 362.444 295.545 362.116 295.625 361.796C295.713 361.468 295.825 361.156 295.961 360.86C296.105 360.564 296.285 360.308 296.501 360.092C296.725 359.868 296.985 359.692 297.281 359.564C297.585 359.428 297.937 359.36 298.337 359.36C298.737 359.36 299.085 359.428 299.381 359.564C299.685 359.692 299.945 359.868 300.161 360.092C300.385 360.308 300.565 360.564 300.701 360.86C300.845 361.156 300.957 361.468 301.037 361.796C301.125 362.116 301.185 362.444 301.217 362.78C301.249 363.116 301.265 363.44 301.265 363.752C301.265 364.2 301.225 364.68 301.145 365.192C301.065 365.704 300.917 366.18 300.701 366.62C300.485 367.06 300.185 367.424 299.801 367.712C299.425 368 298.937 368.144 298.337 368.144C297.737 368.144 297.245 368 296.861 367.712C296.485 367.424 296.189 367.06 295.973 366.62C295.757 366.18 295.609 365.704 295.529 365.192C295.449 364.68 295.409 364.2 295.409 363.752ZM296.561 363.752C296.561 364.032 296.577 364.364 296.609 364.748C296.649 365.132 296.729 365.504 296.849 365.864C296.969 366.216 297.145 366.516 297.377 366.764C297.617 367.012 297.937 367.136 298.337 367.136C298.737 367.136 299.053 367.012 299.285 366.764C299.525 366.516 299.705 366.216 299.825 365.864C299.945 365.504 300.021 365.132 300.053 364.748C300.093 364.364 300.113 364.032 300.113 363.752C300.113 363.56 300.105 363.344 300.089 363.104C300.081 362.856 300.053 362.608 300.005 362.36C299.965 362.104 299.905 361.86 299.825 361.628C299.745 361.388 299.637 361.176 299.501 360.992C299.373 360.8 299.213 360.648 299.021 360.536C298.829 360.424 298.601 360.368 298.337 360.368C298.073 360.368 297.845 360.424 297.653 360.536C297.461 360.648 297.297 360.8 297.161 360.992C297.033 361.176 296.929 361.388 296.849 361.628C296.769 361.86 296.705 362.104 296.657 362.36C296.617 362.608 296.589 362.856 296.573 363.104C296.565 363.344 296.561 363.56 296.561 363.752ZM302.021 366.776L305.429 363.392C305.549 363.28 305.665 363.16 305.777 363.032C305.889 362.896 305.989 362.756 306.077 362.612C306.165 362.468 306.233 362.316 306.281 362.156C306.337 361.996 306.365 361.828 306.365 361.652C306.365 361.444 306.325 361.256 306.245 361.088C306.173 360.92 306.069 360.78 305.933 360.668C305.805 360.548 305.649 360.456 305.465 360.392C305.289 360.328 305.101 360.296 304.901 360.296C304.485 360.296 304.141 360.412 303.869 360.644C303.597 360.876 303.425 361.196 303.353 361.604L302.105 361.496C302.161 361.12 302.269 360.796 302.429 360.524C302.597 360.244 302.801 360.012 303.041 359.828C303.289 359.644 303.569 359.508 303.881 359.42C304.201 359.332 304.545 359.288 304.913 359.288C305.281 359.288 305.625 359.34 305.945 359.444C306.273 359.54 306.557 359.688 306.797 359.888C307.045 360.08 307.237 360.324 307.373 360.62C307.517 360.908 307.589 361.248 307.589 361.64C307.589 361.92 307.545 362.184 307.457 362.432C307.377 362.672 307.269 362.9 307.133 363.116C306.997 363.332 306.841 363.536 306.665 363.728C306.489 363.92 306.305 364.108 306.113 364.292L303.317 366.992H307.589V368H302.021V366.776ZM311.177 360.824L309.617 362.264L308.945 361.46L311.309 359.504H312.329V368H311.177V360.824Z" fill="#AAB8C6"/>
<path d="M293.5 345V349" stroke="#AAB8C6" stroke-width="0.5" stroke-linecap="square"/>
<defs>
<linearGradient id="paint0_linear" x1="315" y1="325.5" x2="315" y2="108.5" gradientUnits="userSpaceOnUse">
<stop stop-color="white"/>
<stop offset="1" stop-color="#60B2FF"/>
</linearGradient>
</defs>
</svg>
