<svg width="422" height="370" fill="none" xmlns="http://www.w3.org/2000/svg"><path d="M14.74 338.752c0-.312.016-.636.048-.972.032-.336.088-.664.168-.984.088-.328.2-.64.336-.936a2.82 2.82 0 0 1 .54-.768c.224-.224.484-.4.78-.528a2.564 2.564 0 0 1 1.056-.204c.4 0 .748.068 1.044.204.304.128.564.304.78.528.224.216.404.472.54.768.144.296.256.608.336.936.088.32.148.648.18.984.032.336.048.66.048.972 0 .448-.04.928-.12 1.44-.08.512-.228.988-.444 1.428-.216.44-.516.804-.9 1.092-.376.288-.864.432-1.464.432s-1.092-.144-1.476-.432a3.042 3.042 0 0 1-.888-1.092 4.956 4.956 0 0 1-.444-1.428 9.355 9.355 0 0 1-.12-1.44zm1.152 0c0 .28.016.612.048.996.04.384.12.756.24 1.116.12.352.296.652.528.9.24.248.56.372.96.372.4 0 .716-.124.948-.372.24-.248.42-.548.54-.9.12-.36.196-.732.228-1.116.04-.384.06-.716.06-.996 0-.192-.008-.408-.024-.648a4.709 4.709 0 0 0-.084-.744c-.04-.256-.1-.5-.18-.732a2.267 2.267 0 0 0-.324-.636 1.45 1.45 0 0 0-.48-.456 1.334 1.334 0 0 0-.684-.168c-.264 0-.492.056-.684.168a1.568 1.568 0 0 0-.492.456 2.48 2.48 0 0 0-.312.636 5.16 5.16 0 0 0-.192.732 7.84 7.84 0 0 0-.084.744c-.008.24-.012.456-.012.648zM3.523 288.824l-1.56 1.44-.672-.804 2.364-1.956h1.02V296H3.523v-7.176zm3.636 2.928c0-.312.016-.636.048-.972.032-.336.088-.664.168-.984.088-.328.2-.64.336-.936a2.82 2.82 0 0 1 .54-.768c.224-.224.484-.4.78-.528a2.564 2.564 0 0 1 1.056-.204c.4 0 .748.068 1.044.204.304.128.564.304.78.528.224.216.404.472.54.768.144.296.256.608.336.936.088.32.148.648.18.984.032.336.048.66.048.972 0 .448-.04.928-.12 1.44-.08.512-.228.988-.444 1.428-.216.44-.516.804-.9 1.092-.376.288-.864.432-1.464.432s-1.092-.144-1.476-.432a3.042 3.042 0 0 1-.888-1.092 4.956 4.956 0 0 1-.444-1.428 9.355 9.355 0 0 1-.12-1.44zm1.152 0c0 .28.016.612.048.996.04.384.12.756.24 1.116.12.352.296.652.528.9.24.248.56.372.96.372.4 0 .716-.124.948-.372.24-.248.42-.548.54-.9.12-.36.196-.732.228-1.116.04-.384.06-.716.06-.996 0-.192-.008-.408-.024-.648a4.709 4.709 0 0 0-.084-.744c-.04-.256-.1-.5-.18-.732a2.267 2.267 0 0 0-.324-.636 1.45 1.45 0 0 0-.48-.456 1.334 1.334 0 0 0-.684-.168c-.264 0-.492.056-.684.168a1.568 1.568 0 0 0-.492.456 2.48 2.48 0 0 0-.312.636 5.16 5.16 0 0 0-.192.732 7.84 7.84 0 0 0-.084.744c-.008.24-.012.456-.012.648zm6-4.248h1.152v3.672h.096l3.756-3.672h1.608l-4.104 3.924 4.38 4.572h-1.68l-3.96-4.248h-.096V296H14.31v-8.496zM.835 246.776l3.408-3.384c.12-.112.236-.232.348-.36.112-.136.212-.276.3-.42a1.94 1.94 0 0 0 .204-.456c.056-.16.084-.328.084-.504 0-.208-.04-.396-.12-.564a1.092 1.092 0 0 0-.312-.42 1.297 1.297 0 0 0-.468-.276 1.638 1.638 0 0 0-.564-.096c-.416 0-.76.116-1.032.348-.272.232-.444.552-.516.96l-1.248-.108c.056-.376.164-.7.324-.972.168-.28.372-.512.612-.696.248-.184.528-.32.84-.408.32-.088.664-.132 1.032-.132s.712.052 1.032.156c.328.096.612.244.852.444.248.192.44.436.576.732.144.288.216.628.216 1.02 0 .28-.044.544-.132.792-.08.24-.188.468-.324.684-.136.216-.292.42-.468.612-.176.192-.36.38-.552.564l-2.796 2.7h4.272V248H.835v-1.224zm6.324-3.024c0-.312.016-.636.048-.972.032-.336.088-.664.168-.984.088-.328.2-.64.336-.936a2.82 2.82 0 0 1 .54-.768c.224-.224.484-.4.78-.528a2.564 2.564 0 0 1 1.056-.204c.4 0 .748.068 1.044.204.304.128.564.304.78.528.224.216.404.472.54.768.144.296.256.608.336.936.088.32.148.648.18.984.032.336.048.66.048.972 0 .448-.04.928-.12 1.44-.08.512-.228.988-.444 1.428-.216.44-.516.804-.9 1.092-.376.288-.864.432-1.464.432s-1.092-.144-1.476-.432a3.042 3.042 0 0 1-.888-1.092 4.956 4.956 0 0 1-.444-1.428 9.355 9.355 0 0 1-.12-1.44zm1.152 0c0 .28.016.612.048.996.04.384.12.756.24 1.116.12.352.296.652.528.9.24.248.56.372.96.372.4 0 .716-.124.948-.372.24-.248.42-.548.54-.9.12-.36.196-.732.228-1.116.04-.384.06-.716.06-.996 0-.192-.008-.408-.024-.648a4.709 4.709 0 0 0-.084-.744c-.04-.256-.1-.5-.18-.732a2.267 2.267 0 0 0-.324-.636 1.45 1.45 0 0 0-.48-.456 1.334 1.334 0 0 0-.684-.168c-.264 0-.492.056-.684.168a1.568 1.568 0 0 0-.492.456 2.48 2.48 0 0 0-.312.636 5.16 5.16 0 0 0-.192.732 7.84 7.84 0 0 0-.084.744c-.008.24-.012.456-.012.648zm6-4.248h1.152v3.672h.096l3.756-3.672h1.608l-4.104 3.924 4.38 4.572h-1.68l-3.96-4.248h-.096V248H14.31v-8.496zM2.047 197.924c.136.408.316.712.54.912.232.2.572.3 1.02.3.224 0 .432-.036.624-.108.2-.08.376-.184.528-.312.152-.136.272-.296.36-.48.088-.192.132-.404.132-.636 0-.352-.076-.632-.228-.84a1.311 1.311 0 0 0-.564-.48 2.373 2.373 0 0 0-.768-.216 7.288 7.288 0 0 0-.828-.048v-1.008c.44 0 .8-.028 1.08-.084.28-.064.5-.152.66-.264a.897.897 0 0 0 .336-.42c.064-.168.096-.356.096-.564 0-.456-.136-.8-.408-1.032-.272-.232-.612-.348-1.02-.348-.312 0-.596.092-.852.276a1.65 1.65 0 0 0-.564.708l-1.176-.396c.224-.544.564-.944 1.02-1.2.464-.264.98-.396 1.548-.396.344 0 .672.048.984.144.32.088.6.228.84.42.24.192.428.436.564.732.144.288.216.628.216 1.02 0 .448-.136.848-.408 1.2a1.969 1.969 0 0 1-1.044.72v.024c.264.048.5.136.708.264.208.128.384.288.528.48.144.192.252.408.324.648.072.232.108.48.108.744 0 .408-.08.768-.24 1.08-.152.304-.36.56-.624.768-.256.2-.556.352-.9.456a3.592 3.592 0 0 1-1.068.156c-.648 0-1.22-.148-1.716-.444-.488-.296-.828-.764-1.02-1.404l1.212-.372zm5.112-2.172c0-.312.016-.636.048-.972.032-.336.088-.664.168-.984.088-.328.2-.64.336-.936a2.82 2.82 0 0 1 .54-.768c.224-.224.484-.4.78-.528a2.564 2.564 0 0 1 1.056-.204c.4 0 .748.068 1.044.204.304.128.564.304.78.528.224.216.404.472.54.768.144.296.256.608.336.936.088.32.148.648.18.984.032.336.048.66.048.972 0 .448-.04.928-.12 1.44-.08.512-.228.988-.444 1.428-.216.44-.516.804-.9 1.092-.376.288-.864.432-1.464.432s-1.092-.144-1.476-.432a3.042 3.042 0 0 1-.888-1.092 4.956 4.956 0 0 1-.444-1.428 9.355 9.355 0 0 1-.12-1.44zm1.152 0c0 .28.016.612.048.996.04.384.12.756.24 1.116.12.352.296.652.528.9.24.248.56.372.96.372.4 0 .716-.124.948-.372.24-.248.42-.548.54-.9.12-.36.196-.732.228-1.116.04-.384.06-.716.06-.996 0-.192-.008-.408-.024-.648a4.709 4.709 0 0 0-.084-.744c-.04-.256-.1-.5-.18-.732a2.267 2.267 0 0 0-.324-.636 1.45 1.45 0 0 0-.48-.456 1.334 1.334 0 0 0-.684-.168c-.264 0-.492.056-.684.168a1.568 1.568 0 0 0-.492.456 2.48 2.48 0 0 0-.312.636 5.16 5.16 0 0 0-.192.732 7.84 7.84 0 0 0-.084.744c-.008.24-.012.456-.012.648zm6-4.248h1.152v3.672h.096l3.756-3.672h1.608l-4.104 3.924 4.38 4.572h-1.68l-3.96-4.248h-.096V200H14.31v-8.496zM4.315 150.128H.69v-1.176l3.384-5.448h1.392v5.616h1.2v1.008h-1.2V152H4.315v-1.872zm0-5.256H4.29l-2.592 4.248h2.616v-4.248zm2.844 2.88c0-.312.016-.636.048-.972.032-.336.088-.664.168-.984.088-.328.2-.64.336-.936a2.82 2.82 0 0 1 .54-.768c.224-.224.484-.4.78-.528a2.564 2.564 0 0 1 1.056-.204c.4 0 .748.068 1.044.204.304.128.564.304.78.528.224.216.404.472.54.768.144.296.256.608.336.936.088.32.148.648.18.984.032.336.048.66.048.972 0 .448-.04.928-.12 1.44-.08.512-.228.988-.444 1.428-.216.44-.516.804-.9 1.092-.376.288-.864.432-1.464.432s-1.092-.144-1.476-.432a3.042 3.042 0 0 1-.888-1.092 4.956 4.956 0 0 1-.444-1.428 9.355 9.355 0 0 1-.12-1.44zm1.152 0c0 .28.016.612.048.996.04.384.12.756.24 1.116.12.352.296.652.528.9.24.248.56.372.96.372.4 0 .716-.124.948-.372.24-.248.42-.548.54-.9.12-.36.196-.732.228-1.116.04-.384.06-.716.06-.996 0-.192-.008-.408-.024-.648a4.709 4.709 0 0 0-.084-.744c-.04-.256-.1-.5-.18-.732a2.267 2.267 0 0 0-.324-.636 1.45 1.45 0 0 0-.48-.456 1.334 1.334 0 0 0-.684-.168c-.264 0-.492.056-.684.168a1.568 1.568 0 0 0-.492.456 2.48 2.48 0 0 0-.312.636 5.16 5.16 0 0 0-.192.732 7.84 7.84 0 0 0-.084.744c-.008.24-.012.456-.012.648zm6-4.248h1.152v3.672h.096l3.756-3.672h1.608l-4.104 3.924 4.38 4.572h-1.68l-3.96-4.248h-.096V152H14.31v-8.496zM5.935 98.584H2.49l-.036 2.124c.056-.024.136-.048.24-.072a4.284 4.284 0 0 1 .9-.108c.4 0 .76.068 1.08.204a2.385 2.385 0 0 1 1.368 1.464c.128.344.192.724.192 1.14 0 .424-.08.808-.24 1.152a2.62 2.62 0 0 1-.636.888c-.272.248-.588.44-.948.576a3.45 3.45 0 0 1-1.164.192 2.84 2.84 0 0 1-1.56-.444c-.464-.296-.796-.72-.996-1.272l1.164-.396c.152.392.356.676.612.852.256.168.576.252.96.252.224 0 .436-.04.636-.12.208-.08.384-.192.528-.336a1.65 1.65 0 0 0 .36-.552c.088-.216.132-.46.132-.732 0-.624-.192-1.088-.576-1.392-.376-.312-.868-.468-1.476-.468-.216 0-.492.04-.828.12-.328.072-.636.18-.924.324l.096-4.476h4.56v1.08zm1.224 3.168c0-.312.016-.636.048-.972.032-.336.088-.664.168-.984.088-.328.2-.64.336-.936a2.82 2.82 0 0 1 .54-.768c.224-.224.484-.4.78-.528a2.564 2.564 0 0 1 1.056-.204c.4 0 .748.068 1.044.204.304.128.564.304.78.528.224.216.404.472.54.768.144.296.256.608.336.936.088.32.148.648.18.984.032.336.048.66.048.972 0 .448-.04.928-.12 1.44-.08.512-.228.988-.444 1.428-.216.44-.516.804-.9 1.092-.376.288-.864.432-1.464.432s-1.092-.144-1.476-.432a3.042 3.042 0 0 1-.888-1.092 4.956 4.956 0 0 1-.444-1.428 9.355 9.355 0 0 1-.12-1.44zm1.152 0c0 .28.016.612.048.996.04.384.12.756.24 1.116.12.352.296.652.528.9.24.248.56.372.96.372.4 0 .716-.124.948-.372.24-.248.42-.548.54-.9.12-.36.196-.732.228-1.116.04-.384.06-.716.06-.996 0-.192-.008-.408-.024-.648a4.709 4.709 0 0 0-.084-.744c-.04-.256-.1-.5-.18-.732a2.267 2.267 0 0 0-.324-.636 1.45 1.45 0 0 0-.48-.456 1.334 1.334 0 0 0-.684-.168c-.264 0-.492.056-.684.168a1.568 1.568 0 0 0-.492.456 2.48 2.48 0 0 0-.312.636 5.16 5.16 0 0 0-.192.732 7.84 7.84 0 0 0-.084.744c-.008.24-.012.456-.012.648zm6-4.248h1.152v3.672h.096l3.756-3.672h1.608l-4.104 3.924 4.38 4.572h-1.68l-3.96-4.248h-.096V106H14.31v-8.496zM2.923 52.792h.048c.264-.128.576-.192.936-.192.304 0 .612.052.924.156.312.104.592.268.84.492.256.216.464.496.624.84.16.336.24.736.24 1.2 0 .472-.08.888-.24 1.248-.152.352-.36.648-.624.888s-.572.42-.924.54c-.352.12-.728.18-1.128.18-.4 0-.776-.064-1.128-.192a2.76 2.76 0 0 1-.924-.552 2.754 2.754 0 0 1-.636-.864 2.706 2.706 0 0 1-.228-1.128 3.614 3.614 0 0 1 .228-1.332c.08-.2.172-.392.276-.576.104-.192.22-.392.348-.6l2.148-3.396h1.356l-2.136 3.288zm-1.068 2.58c0 .256.04.492.12.708.088.216.208.404.36.564.16.152.348.272.564.36.216.088.456.132.72.132.264 0 .504-.044.72-.132.216-.088.4-.208.552-.36.16-.16.28-.348.36-.564.088-.216.132-.452.132-.708 0-.256-.044-.492-.132-.708-.08-.216-.2-.4-.36-.552a1.565 1.565 0 0 0-.552-.372 1.892 1.892 0 0 0-.72-.132c-.264 0-.504.044-.72.132a1.65 1.65 0 0 0-.924.924c-.08.216-.12.452-.12.708zm5.304-1.62c0-.312.016-.636.048-.972.032-.336.088-.664.168-.984.088-.328.2-.64.336-.936a2.82 2.82 0 0 1 .54-.768c.224-.224.484-.4.78-.528a2.564 2.564 0 0 1 1.056-.204c.4 0 .748.068 1.044.204.304.128.564.304.78.528.224.216.404.472.54.768.144.296.256.608.336.936.088.32.148.648.18.984.032.336.048.66.048.972 0 .448-.04.928-.12 1.44-.08.512-.228.988-.444 1.428-.216.44-.516.804-.9 1.092-.376.288-.864.432-1.464.432S8.995 58 8.61 57.712a3.042 3.042 0 0 1-.888-1.092 4.956 4.956 0 0 1-.444-1.428 9.355 9.355 0 0 1-.12-1.44zm1.152 0c0 .28.016.612.048.996.04.384.12.756.24 1.116.12.352.296.652.528.9.24.248.56.372.96.372.4 0 .716-.124.948-.372.24-.248.42-.548.54-.9.12-.36.196-.732.228-1.116.04-.384.06-.716.06-.996 0-.192-.008-.408-.024-.648a4.709 4.709 0 0 0-.084-.744c-.04-.256-.1-.5-.18-.732a2.267 2.267 0 0 0-.324-.636 1.45 1.45 0 0 0-.48-.456 1.334 1.334 0 0 0-.684-.168c-.264 0-.492.056-.684.168a1.568 1.568 0 0 0-.492.456 2.48 2.48 0 0 0-.312.636 5.16 5.16 0 0 0-.192.732 7.84 7.84 0 0 0-.084.744c-.008.24-.012.456-.012.648zm6-4.248h1.152v3.672h.096l3.756-3.672h1.608l-4.104 3.924L21.199 58h-1.68l-3.96-4.248h-.096V58H14.31v-8.496zM4.89 2.512H.788V1.504h5.34v.984L2.743 10H1.447L4.89 2.512zm2.269 3.24c0-.312.016-.636.048-.972.032-.336.088-.664.168-.984.088-.328.2-.64.336-.936a2.82 2.82 0 0 1 .54-.768c.224-.224.484-.4.78-.528a2.564 2.564 0 0 1 1.056-.204c.4 0 .748.068 1.044.204.304.128.564.304.78.528.224.216.404.472.54.768.144.296.256.608.336.936.088.32.148.648.18.984.032.336.048.66.048.972 0 .448-.04.928-.12 1.44-.08.512-.228.988-.444 1.428-.216.44-.516.804-.9 1.092-.376.288-.864.432-1.464.432S8.995 10 8.61 9.712a3.042 3.042 0 0 1-.888-1.092 4.956 4.956 0 0 1-.444-1.428 9.355 9.355 0 0 1-.12-1.44zm1.152 0c0 .28.016.612.048.996.04.384.12.756.24 1.116.12.352.296.652.528.9.24.248.56.372.96.372.4 0 .716-.124.948-.372.24-.248.42-.548.54-.9.12-.36.196-.732.228-1.116.04-.384.06-.716.06-.996 0-.192-.008-.408-.024-.648a4.709 4.709 0 0 0-.084-.744c-.04-.256-.1-.5-.18-.732a2.267 2.267 0 0 0-.324-.636 1.45 1.45 0 0 0-.48-.456 1.334 1.334 0 0 0-.684-.168c-.264 0-.492.056-.684.168a1.568 1.568 0 0 0-.492.456 2.48 2.48 0 0 0-.312.636 5.16 5.16 0 0 0-.192.732 7.84 7.84 0 0 0-.084.744c-.008.24-.012.456-.012.648zm6-4.248h1.152v3.672h.096l3.756-3.672h1.608l-4.104 3.924L21.199 10h-1.68l-3.96-4.248h-.096V10H14.31V1.504z" fill="#AAB8C6" fill-opacity=".8"/><path opacity=".25" fill-rule="evenodd" clip-rule="evenodd" d="M29 64.5c2.677 3.7 3.154 28.756 5.5 32 1.019 1.408 2.526-3.847 3.5-2.5 1.107 1.53.935 8.027 2 9.5.853 1.18 2.664-7.156 3.5-6 .915 1.266 2.095 10.249 3 11.5 1.14 1.577 1.857-3.581 3-2 1.311 1.813 1.654 7.639 3 9.5 1.066 1.474 4.394-5.53 5.5-4 1.06 1.466 5.388 2.963 6.5 4.5 2.374 3.282.288 4.464 3 8.214l3-2.714 3.5 3 7.5 11.5 3-9.5 3.5 5 4-1.5 3 6.5 4-2.5h5l3.5 4h3l3 25 2-3 2 6 1.5-1.5 1.5 6.5 2 3.5 2.5-3.5 2 6 4.5-2.5 2 5 3-2.5 8 24.5 4 22.5 2-7.5 2 2 5.5-8.5 3 4 4-8 2.5 2.5 3.5-8 4 1.74 3-6.74 6.5 4.756 1.5-1.756 7 7 3.5-3 3 3 4.269-4 6.731-6 3.5 3 3.5-6.5h4.5l6-7h2.5l2.5-5.5 5 10 2.5-6.5 2 2 3-13.5 2.5 2.5 2.5-4.539 1-1.961 2 3.5 2.5-1 4.5 7 3.5-2.455 9 8.455 2-3.062 5.5 7.562 2.5-2.5 2.5 5 4-11 1.636-4.455L293.5 178l2-6 2.5 2 2.76-11 4.74 2.5V158l2.932 2.08 2.068-6.58 1.5-5 2 6.49 3 3.01 2-1.5 3.5 6 1.5 2.5 1.5-2 5.5 11 2.5-3 5.5 21 2-13.5 3 7.5 2.5-2 4 6.5 2-3 5 9 1.5-3.5 3 4.5 4 6 1.5-4 2 1.5 5.882-20.832 2.118 1.332 3.763-14.5 1.737 6 2.5-10 3 2 2-12 1-7.5 2 3 2-10 1-3.5 3.5 7 2.5-3.02L408 145l2-3 3.5 3.5 2-1L421 162v182.5H29v-280z" fill="url(#a)"/><path d="m29.5 64.5 5 32.5 3.5-3.5 2 10.5 3.5-7 3 12.5 3-3 3 10.5 5.5-4.5 6.5 4.5 3 8.5 3-3 3.5 3 7.5 12 3-10 3.5 5 4-1.5 3 6.5 4-2.5h5l3 4h3.5l3 26.5 2-5 2 6.5 1.5-1.5 1.5 6.5 2 3.5 2.5-3.5 2 6 4.5-2.5 2 5 3-2.5 9 28.5 3 19.5 2-8.5 2 2 2.5-4 3-4.5 3 4.5 4-9 2.5 3 3.5-8 4 2 3-7 6.5 5 1.5-2 7 7 3.5-3 3 3 11-10 3.5 3 3.5-6.5h4.5l6-7h2.5l2.5-5.5 5 10.5 2.5-7 2 2 3-14 2.5 3.5 3.5-7 2 3.5 2.5-1 4.5 7 3.5-2.5 9 8.5 2-3.5 5.5 8 2.5-2.5 2.5 5 5.5-15.5 2.5 2.5 2-6 2.5 2 3-11 4.5 2.5V158l3 2.5L312 149l2 6 3 3 2-1.5 5 9 1.5-2.5 5.5 11 2.5-3 5.5 22 2-15 3 8 2.5-2 4 7 2-3.5 5 9 1.5-3.5 7 10.5 1.5-4 2 2 6-21 2 1.5 4-15 1.5 7 2.5-11 3 2.5 3-20 2 3.5 3-14 3.5 7 2.5-3 5.5 6.5 2-3.5 3.5 3.5 2-1 5.5 17" stroke="#437FEC" stroke-width="2" stroke-linecap="round"/><path d="M29 149.5h392M29 246.5h392M29 295.5h392M29 344.5h392M29 102.5h392M29 54.5h392M29 6.5h392M29 197.5h392" stroke="#AAB8C6" stroke-opacity=".7" stroke-width=".5" stroke-linecap="square"/><path d="M169.408 363.752c0-.312.016-.636.048-.972.032-.336.088-.664.168-.984.088-.328.2-.64.336-.936a2.82 2.82 0 0 1 .54-.768c.224-.224.484-.4.78-.528a2.564 2.564 0 0 1 1.056-.204c.4 0 .748.068 1.044.204.304.128.564.304.78.528.224.216.404.472.54.768.144.296.256.608.336.936.088.32.148.648.18.984.032.336.048.66.048.972 0 .448-.04.928-.12 1.44-.08.512-.228.988-.444 1.428-.216.44-.516.804-.9 1.092-.376.288-.864.432-1.464.432s-1.092-.144-1.476-.432a3.042 3.042 0 0 1-.888-1.092 4.956 4.956 0 0 1-.444-1.428 9.355 9.355 0 0 1-.12-1.44zm1.152 0c0 .28.016.612.048.996.04.384.12.756.24 1.116.12.352.296.652.528.9.24.248.56.372.96.372.4 0 .716-.124.948-.372.24-.248.42-.548.54-.9.12-.36.196-.732.228-1.116.04-.384.06-.716.06-.996 0-.192-.008-.408-.024-.648a4.709 4.709 0 0 0-.084-.744c-.04-.256-.1-.5-.18-.732a2.267 2.267 0 0 0-.324-.636 1.45 1.45 0 0 0-.48-.456 1.334 1.334 0 0 0-.684-.168c-.264 0-.492.056-.684.168a1.568 1.568 0 0 0-.492.456 2.48 2.48 0 0 0-.312.636 5.16 5.16 0 0 0-.192.732 7.84 7.84 0 0 0-.084.744c-.008.24-.012.456-.012.648zm7.548-.96h.048c.264-.128.576-.192.936-.192.304 0 .612.052.924.156.312.104.592.268.84.492.256.216.464.496.624.84.16.336.24.736.24 1.2 0 .472-.08.888-.24 1.248-.152.352-.36.648-.624.888s-.572.42-.924.54c-.352.12-.728.18-1.128.18-.4 0-.776-.064-1.128-.192a2.76 2.76 0 0 1-.924-.552 2.754 2.754 0 0 1-.636-.864 2.706 2.706 0 0 1-.228-1.128 3.614 3.614 0 0 1 .228-1.332c.08-.2.172-.392.276-.576.104-.192.22-.392.348-.6l2.148-3.396h1.356l-2.136 3.288zm-1.068 2.58c0 .256.04.492.12.708.088.216.208.404.36.564.16.152.348.272.564.36.216.088.456.132.72.132.264 0 .504-.044.72-.132.216-.088.4-.208.552-.36.16-.16.28-.348.36-.564.088-.216.132-.452.132-.708 0-.256-.044-.492-.132-.708-.08-.216-.2-.4-.36-.552a1.565 1.565 0 0 0-.552-.372 1.892 1.892 0 0 0-.72-.132c-.264 0-.504.044-.72.132a1.65 1.65 0 0 0-.924.924c-.08.216-.12.452-.12.708zm8.268.228h-2.952v-1.008h2.952v1.008zm.777 1.176 3.408-3.384c.12-.112.236-.232.348-.36.112-.136.212-.276.3-.42a1.94 1.94 0 0 0 .204-.456c.056-.16.084-.328.084-.504 0-.208-.04-.396-.12-.564a1.092 1.092 0 0 0-.312-.42 1.297 1.297 0 0 0-.468-.276 1.638 1.638 0 0 0-.564-.096c-.416 0-.76.116-1.032.348-.272.232-.444.552-.516.96l-1.248-.108c.056-.376.164-.7.324-.972.168-.28.372-.512.612-.696.248-.184.528-.32.84-.408.32-.088.664-.132 1.032-.132s.712.052 1.032.156c.328.096.612.244.852.444.248.192.44.436.576.732.144.288.216.628.216 1.02 0 .28-.044.544-.132.792-.08.24-.188.468-.324.684-.136.216-.292.42-.468.612-.176.192-.36.38-.552.564l-2.796 2.7h4.272V368h-5.568v-1.224zm6.324-3.024c0-.312.016-.636.048-.972.032-.336.088-.664.168-.984.088-.328.2-.64.336-.936a2.82 2.82 0 0 1 .54-.768c.224-.224.484-.4.78-.528a2.564 2.564 0 0 1 1.056-.204c.4 0 .748.068 1.044.204.304.128.564.304.78.528.224.216.404.472.54.768.144.296.256.608.336.936.088.32.148.648.18.984.032.336.048.66.048.972 0 .448-.04.928-.12 1.44-.08.512-.228.988-.444 1.428-.216.44-.516.804-.9 1.092-.376.288-.864.432-1.464.432s-1.092-.144-1.476-.432a3.042 3.042 0 0 1-.888-1.092 4.956 4.956 0 0 1-.444-1.428 9.355 9.355 0 0 1-.12-1.44zm1.152 0c0 .28.016.612.048.996.04.384.12.756.24 1.116.12.352.296.652.528.9.24.248.56.372.96.372.4 0 .716-.124.948-.372.24-.248.42-.548.54-.9.12-.36.196-.732.228-1.116.04-.384.06-.716.06-.996 0-.192-.008-.408-.024-.648a4.709 4.709 0 0 0-.084-.744c-.04-.256-.1-.5-.18-.732a2.267 2.267 0 0 0-.324-.636 1.45 1.45 0 0 0-.48-.456 1.334 1.334 0 0 0-.684-.168c-.264 0-.492.056-.684.168a1.568 1.568 0 0 0-.492.456 2.48 2.48 0 0 0-.312.636 5.16 5.16 0 0 0-.192.732 7.84 7.84 0 0 0-.084.744c-.008.24-.012.456-.012.648zm5.46 3.024 3.408-3.384c.12-.112.236-.232.348-.36.112-.136.212-.276.3-.42a1.94 1.94 0 0 0 .204-.456c.056-.16.084-.328.084-.504 0-.208-.04-.396-.12-.564a1.092 1.092 0 0 0-.312-.42 1.297 1.297 0 0 0-.468-.276 1.638 1.638 0 0 0-.564-.096c-.416 0-.76.116-1.032.348-.272.232-.444.552-.516.96l-1.248-.108c.056-.376.164-.7.324-.972.168-.28.372-.512.612-.696.248-.184.528-.32.84-.408.32-.088.664-.132 1.032-.132s.712.052 1.032.156c.328.096.612.244.852.444.248.192.44.436.576.732.144.288.216.628.216 1.02 0 .28-.044.544-.132.792-.08.24-.188.468-.324.684-.136.216-.292.42-.468.612-.176.192-.36.38-.552.564l-2.796 2.7h4.272V368h-5.568v-1.224zm9.156-5.952-1.56 1.44-.672-.804 2.364-1.956h1.02V368h-1.152v-7.176z" fill="#AAB8C6"/><path d="M190.5 345v4" stroke="#AAB8C6" stroke-width=".5" stroke-linecap="square"/><path d="M99.408 363.752c0-.312.016-.636.048-.972.032-.336.088-.664.168-.984.088-.328.2-.64.336-.936a2.82 2.82 0 0 1 .54-.768c.224-.224.484-.4.78-.528a2.564 2.564 0 0 1 1.056-.204c.4 0 .748.068 1.044.204.304.128.564.304.78.528.224.216.404.472.54.768.144.296.256.608.336.936.088.32.148.648.18.984.032.336.048.66.048.972 0 .448-.04.928-.12 1.44-.08.512-.228.988-.444 1.428-.216.44-.516.804-.9 1.092-.376.288-.864.432-1.464.432s-1.092-.144-1.476-.432a3.042 3.042 0 0 1-.888-1.092 4.956 4.956 0 0 1-.444-1.428 9.355 9.355 0 0 1-.12-1.44zm1.152 0c0 .28.016.612.048.996.04.384.12.756.24 1.116.12.352.296.652.528.9.24.248.56.372.96.372.4 0 .716-.124.948-.372.24-.248.42-.548.54-.9.12-.36.196-.732.228-1.116.04-.384.06-.716.06-.996 0-.192-.008-.408-.024-.648a4.709 4.709 0 0 0-.084-.744c-.04-.256-.1-.5-.18-.732a2.267 2.267 0 0 0-.324-.636 1.45 1.45 0 0 0-.48-.456 1.334 1.334 0 0 0-.684-.168c-.264 0-.492.056-.684.168a1.568 1.568 0 0 0-.492.456 2.48 2.48 0 0 0-.312.636 5.16 5.16 0 0 0-.192.732 7.84 7.84 0 0 0-.084.744c-.008.24-.012.456-.012.648zm10.56-3.168h-3.444l-.036 2.124c.056-.024.136-.048.24-.072a4.284 4.284 0 0 1 .9-.108c.4 0 .76.068 1.08.204a2.385 2.385 0 0 1 1.368 1.464c.128.344.192.724.192 1.14 0 .424-.08.808-.24 1.152a2.62 2.62 0 0 1-.636.888c-.272.248-.588.44-.948.576a3.45 3.45 0 0 1-1.164.192 2.84 2.84 0 0 1-1.56-.444c-.464-.296-.796-.72-.996-1.272l1.164-.396c.152.392.356.676.612.852.256.168.576.252.96.252.224 0 .436-.04.636-.12.208-.08.384-.192.528-.336a1.65 1.65 0 0 0 .36-.552c.088-.216.132-.46.132-.732 0-.624-.192-1.088-.576-1.392-.376-.312-.868-.468-1.476-.468-.216 0-.492.04-.828.12-.328.072-.636.18-.924.324l.096-4.476h4.56v1.08zm4.188 5.016h-2.952v-1.008h2.952v1.008zm.777 1.176 3.408-3.384c.12-.112.236-.232.348-.36.112-.136.212-.276.3-.42a1.94 1.94 0 0 0 .204-.456c.056-.16.084-.328.084-.504 0-.208-.04-.396-.12-.564a1.092 1.092 0 0 0-.312-.42 1.297 1.297 0 0 0-.468-.276 1.638 1.638 0 0 0-.564-.096c-.416 0-.76.116-1.032.348-.272.232-.444.552-.516.96l-1.248-.108c.056-.376.164-.7.324-.972.168-.28.372-.512.612-.696.248-.184.528-.32.84-.408.32-.088.664-.132 1.032-.132s.712.052 1.032.156c.328.096.612.244.852.444.248.192.44.436.576.732.144.288.216.628.216 1.02 0 .28-.044.544-.132.792-.08.24-.188.468-.324.684-.136.216-.292.42-.468.612-.176.192-.36.38-.552.564l-2.796 2.7h4.272V368h-5.568v-1.224zm6.324-3.024c0-.312.016-.636.048-.972.032-.336.088-.664.168-.984.088-.328.2-.64.336-.936a2.82 2.82 0 0 1 .54-.768c.224-.224.484-.4.78-.528a2.564 2.564 0 0 1 1.056-.204c.4 0 .748.068 1.044.204.304.128.564.304.78.528.224.216.404.472.54.768.144.296.256.608.336.936.088.32.148.648.18.984.032.336.048.66.048.972 0 .448-.04.928-.12 1.44-.08.512-.228.988-.444 1.428-.216.44-.516.804-.9 1.092-.376.288-.864.432-1.464.432s-1.092-.144-1.476-.432a3.042 3.042 0 0 1-.888-1.092 4.956 4.956 0 0 1-.444-1.428 9.355 9.355 0 0 1-.12-1.44zm1.152 0c0 .28.016.612.048.996.04.384.12.756.24 1.116.12.352.296.652.528.9.24.248.56.372.96.372.4 0 .716-.124.948-.372.24-.248.42-.548.54-.9.12-.36.196-.732.228-1.116.04-.384.06-.716.06-.996 0-.192-.008-.408-.024-.648a4.709 4.709 0 0 0-.084-.744c-.04-.256-.1-.5-.18-.732a2.267 2.267 0 0 0-.324-.636 1.45 1.45 0 0 0-.48-.456 1.334 1.334 0 0 0-.684-.168c-.264 0-.492.056-.684.168a1.568 1.568 0 0 0-.492.456 2.48 2.48 0 0 0-.312.636 5.16 5.16 0 0 0-.192.732 7.84 7.84 0 0 0-.084.744c-.008.24-.012.456-.012.648zm5.46 3.024 3.408-3.384c.12-.112.236-.232.348-.36.112-.136.212-.276.3-.42a1.94 1.94 0 0 0 .204-.456c.056-.16.084-.328.084-.504 0-.208-.04-.396-.12-.564a1.092 1.092 0 0 0-.312-.42 1.297 1.297 0 0 0-.468-.276 1.638 1.638 0 0 0-.564-.096c-.416 0-.76.116-1.032.348-.272.232-.444.552-.516.96l-1.248-.108c.056-.376.164-.7.324-.972.168-.28.372-.512.612-.696.248-.184.528-.32.84-.408.32-.088.664-.132 1.032-.132s.712.052 1.032.156c.328.096.612.244.852.444.248.192.44.436.576.732.144.288.216.628.216 1.02 0 .28-.044.544-.132.792-.08.24-.188.468-.324.684-.136.216-.292.42-.468.612-.176.192-.36.38-.552.564l-2.796 2.7h4.272V368h-5.568v-1.224zm9.156-5.952-1.56 1.44-.672-.804 2.364-1.956h1.02V368h-1.152v-7.176z" fill="#AAB8C6"/><path d="M120.5 345v4" stroke="#AAB8C6" stroke-width=".5" stroke-linecap="square"/><path d="M29.408 363.752c0-.312.016-.636.048-.972.032-.336.088-.664.168-.984.088-.328.2-.64.336-.936a2.82 2.82 0 0 1 .54-.768c.224-.224.484-.4.78-.528a2.564 2.564 0 0 1 1.056-.204c.4 0 .748.068 1.044.204.304.128.564.304.78.528.224.216.404.472.54.768.144.296.256.608.336.936.088.32.148.648.18.984.032.336.048.66.048.972 0 .448-.04.928-.12 1.44-.08.512-.228.988-.444 1.428-.216.44-.516.804-.9 1.092-.376.288-.864.432-1.464.432s-1.092-.144-1.476-.432a3.042 3.042 0 0 1-.888-1.092 4.956 4.956 0 0 1-.444-1.428 9.355 9.355 0 0 1-.12-1.44zm1.152 0c0 .28.016.612.048.996.04.384.12.756.24 1.116.12.352.296.652.528.9.24.248.56.372.96.372.4 0 .716-.124.948-.372.24-.248.42-.548.54-.9.12-.36.196-.732.228-1.116.04-.384.06-.716.06-.996 0-.192-.008-.408-.024-.648a4.709 4.709 0 0 0-.084-.744c-.04-.256-.1-.5-.18-.732a2.267 2.267 0 0 0-.324-.636 1.45 1.45 0 0 0-.48-.456 1.334 1.334 0 0 0-.684-.168c-.264 0-.492.056-.684.168a1.568 1.568 0 0 0-.492.456 2.48 2.48 0 0 0-.312.636 5.16 5.16 0 0 0-.192.732 7.84 7.84 0 0 0-.084.744c-.008.24-.012.456-.012.648zm8.94 2.376h-3.624v-1.176l3.384-5.448h1.392v5.616h1.2v1.008h-1.2V368H39.5v-1.872zm0-5.256h-.024l-2.592 4.248H39.5v-4.248zm5.808 4.728h-2.952v-1.008h2.952v1.008zm.777 1.176 3.408-3.384c.12-.112.236-.232.348-.36.112-.136.212-.276.3-.42a1.94 1.94 0 0 0 .204-.456c.056-.16.084-.328.084-.504 0-.208-.04-.396-.12-.564a1.092 1.092 0 0 0-.312-.42 1.297 1.297 0 0 0-.468-.276 1.638 1.638 0 0 0-.564-.096c-.416 0-.76.116-1.032.348-.272.232-.444.552-.516.96l-1.248-.108c.056-.376.164-.7.324-.972.168-.28.372-.512.612-.696.248-.184.528-.32.84-.408.32-.088.664-.132 1.032-.132s.712.052 1.032.156c.328.096.612.244.852.444.248.192.44.436.576.732.144.288.216.628.216 1.02 0 .28-.044.544-.132.792-.08.24-.188.468-.324.684-.136.216-.292.42-.468.612-.176.192-.36.38-.552.564l-2.796 2.7h4.272V368h-5.568v-1.224zm6.324-3.024c0-.312.016-.636.048-.972.032-.336.088-.664.168-.984.088-.328.2-.64.336-.936a2.82 2.82 0 0 1 .54-.768c.224-.224.484-.4.78-.528a2.564 2.564 0 0 1 1.056-.204c.4 0 .748.068 1.044.204.304.128.564.304.78.528.224.216.404.472.54.768.144.296.256.608.336.936.088.32.148.648.18.984.032.336.048.66.048.972 0 .448-.04.928-.12 1.44-.08.512-.228.988-.444 1.428-.216.44-.516.804-.9 1.092-.376.288-.864.432-1.464.432s-1.092-.144-1.476-.432a3.042 3.042 0 0 1-.888-1.092 4.956 4.956 0 0 1-.444-1.428 9.355 9.355 0 0 1-.12-1.44zm1.152 0c0 .28.016.612.048.996.04.384.12.756.24 1.116.12.352.296.652.528.9.24.248.56.372.96.372.4 0 .716-.124.948-.372.24-.248.42-.548.54-.9.12-.36.196-.732.228-1.116.04-.384.06-.716.06-.996 0-.192-.008-.408-.024-.648a4.709 4.709 0 0 0-.084-.744c-.04-.256-.1-.5-.18-.732a2.267 2.267 0 0 0-.324-.636 1.45 1.45 0 0 0-.48-.456 1.334 1.334 0 0 0-.684-.168c-.264 0-.492.056-.684.168a1.568 1.568 0 0 0-.492.456 2.48 2.48 0 0 0-.312.636 5.16 5.16 0 0 0-.192.732 7.84 7.84 0 0 0-.084.744c-.008.24-.012.456-.012.648zm5.46 3.024 3.408-3.384c.12-.112.236-.232.348-.36.112-.136.212-.276.3-.42a1.94 1.94 0 0 0 .204-.456c.056-.16.084-.328.084-.504 0-.208-.04-.396-.12-.564a1.092 1.092 0 0 0-.312-.42 1.297 1.297 0 0 0-.468-.276 1.638 1.638 0 0 0-.564-.096c-.416 0-.76.116-1.032.348-.272.232-.444.552-.516.96l-1.248-.108c.056-.376.164-.7.324-.972.168-.28.372-.512.612-.696.248-.184.528-.32.84-.408.32-.088.664-.132 1.032-.132s.712.052 1.032.156c.328.096.612.244.852.444.248.192.44.436.576.732.144.288.216.628.216 1.02 0 .28-.044.544-.132.792-.08.24-.188.468-.324.684-.136.216-.292.42-.468.612-.176.192-.36.38-.552.564l-2.796 2.7h4.272V368H59.02v-1.224zm9.156-5.952-1.56 1.44-.672-.804 2.364-1.956h1.02V368h-1.152v-7.176z" fill="#AAB8C6"/><path d="M50.5 345v4" stroke="#AAB8C6" stroke-width=".5" stroke-linecap="square"/><path d="M239.408 363.752c0-.312.016-.636.048-.972.032-.336.088-.664.168-.984.088-.328.2-.64.336-.936a2.82 2.82 0 0 1 .54-.768c.224-.224.484-.4.78-.528a2.564 2.564 0 0 1 1.056-.204c.4 0 .748.068 1.044.204.304.128.564.304.78.528.224.216.404.472.54.768.144.296.256.608.336.936.088.32.148.648.18.984.032.336.048.66.048.972 0 .448-.04.928-.12 1.44-.08.512-.228.988-.444 1.428-.216.44-.516.804-.9 1.092-.376.288-.864.432-1.464.432s-1.092-.144-1.476-.432a3.042 3.042 0 0 1-.888-1.092 4.956 4.956 0 0 1-.444-1.428 9.355 9.355 0 0 1-.12-1.44zm1.152 0c0 .28.016.612.048.996.04.384.12.756.24 1.116.12.352.296.652.528.9.24.248.56.372.96.372.4 0 .716-.124.948-.372.24-.248.42-.548.54-.9.12-.36.196-.732.228-1.116.04-.384.06-.716.06-.996 0-.192-.008-.408-.024-.648a4.709 4.709 0 0 0-.084-.744c-.04-.256-.1-.5-.18-.732a2.267 2.267 0 0 0-.324-.636 1.45 1.45 0 0 0-.48-.456 1.334 1.334 0 0 0-.684-.168c-.264 0-.492.056-.684.168a1.568 1.568 0 0 0-.492.456 2.48 2.48 0 0 0-.312.636 5.16 5.16 0 0 0-.192.732 7.84 7.84 0 0 0-.084.744c-.008.24-.012.456-.012.648zm9.516-3.24h-4.104v-1.008h5.34v.984L247.928 368h-1.296l3.444-7.488zm5.232 5.088h-2.952v-1.008h2.952v1.008zm.777 1.176 3.408-3.384c.12-.112.236-.232.348-.36.112-.136.212-.276.3-.42a1.94 1.94 0 0 0 .204-.456c.056-.16.084-.328.084-.504 0-.208-.04-.396-.12-.564a1.092 1.092 0 0 0-.312-.42 1.297 1.297 0 0 0-.468-.276 1.638 1.638 0 0 0-.564-.096c-.416 0-.76.116-1.032.348-.272.232-.444.552-.516.96l-1.248-.108c.056-.376.164-.7.324-.972.168-.28.372-.512.612-.696.248-.184.528-.32.84-.408.32-.088.664-.132 1.032-.132s.712.052 1.032.156c.328.096.612.244.852.444.248.192.44.436.576.732.144.288.216.628.216 1.02 0 .28-.044.544-.132.792-.08.24-.188.468-.324.684-.136.216-.292.42-.468.612-.176.192-.36.38-.552.564l-2.796 2.7h4.272V368h-5.568v-1.224zm6.324-3.024c0-.312.016-.636.048-.972.032-.336.088-.664.168-.984.088-.328.2-.64.336-.936a2.82 2.82 0 0 1 .54-.768c.224-.224.484-.4.78-.528a2.564 2.564 0 0 1 1.056-.204c.4 0 .748.068 1.044.204.304.128.564.304.78.528.224.216.404.472.54.768.144.296.256.608.336.936.088.32.148.648.18.984.032.336.048.66.048.972 0 .448-.04.928-.12 1.44-.08.512-.228.988-.444 1.428-.216.44-.516.804-.9 1.092-.376.288-.864.432-1.464.432s-1.092-.144-1.476-.432a3.042 3.042 0 0 1-.888-1.092 4.956 4.956 0 0 1-.444-1.428 9.355 9.355 0 0 1-.12-1.44zm1.152 0c0 .28.016.612.048.996.04.384.12.756.24 1.116.12.352.296.652.528.9.24.248.56.372.96.372.4 0 .716-.124.948-.372.24-.248.42-.548.54-.9.12-.36.196-.732.228-1.116.04-.384.06-.716.06-.996 0-.192-.008-.408-.024-.648a4.709 4.709 0 0 0-.084-.744c-.04-.256-.1-.5-.18-.732a2.267 2.267 0 0 0-.324-.636 1.45 1.45 0 0 0-.48-.456 1.334 1.334 0 0 0-.684-.168c-.264 0-.492.056-.684.168a1.568 1.568 0 0 0-.492.456 2.48 2.48 0 0 0-.312.636 5.16 5.16 0 0 0-.192.732 7.84 7.84 0 0 0-.084.744c-.008.24-.012.456-.012.648zm5.46 3.024 3.408-3.384c.12-.112.236-.232.348-.36.112-.136.212-.276.3-.42a1.94 1.94 0 0 0 .204-.456c.056-.16.084-.328.084-.504 0-.208-.04-.396-.12-.564a1.092 1.092 0 0 0-.312-.42 1.297 1.297 0 0 0-.468-.276 1.638 1.638 0 0 0-.564-.096c-.416 0-.76.116-1.032.348-.272.232-.444.552-.516.96l-1.248-.108c.056-.376.164-.7.324-.972.168-.28.372-.512.612-.696.248-.184.528-.32.84-.408.32-.088.664-.132 1.032-.132s.712.052 1.032.156c.328.096.612.244.852.444.248.192.44.436.576.732.144.288.216.628.216 1.02 0 .28-.044.544-.132.792-.08.24-.188.468-.324.684-.136.216-.292.42-.468.612-.176.192-.36.38-.552.564l-2.796 2.7h4.272V368h-5.568v-1.224zm9.156-5.952-1.56 1.44-.672-.804 2.364-1.956h1.02V368h-1.152v-7.176z" fill="#AAB8C6"/><path d="M260.5 345v4" stroke="#AAB8C6" stroke-width=".5" stroke-linecap="square"/><path d="M309.408 363.752c0-.312.016-.636.048-.972.032-.336.088-.664.168-.984.088-.328.2-.64.336-.936a2.82 2.82 0 0 1 .54-.768c.224-.224.484-.4.78-.528a2.564 2.564 0 0 1 1.056-.204c.4 0 .748.068 1.044.204.304.128.564.304.78.528.224.216.404.472.54.768.144.296.256.608.336.936.088.32.148.648.18.984.032.336.048.66.048.972 0 .448-.04.928-.12 1.44-.08.512-.228.988-.444 1.428-.216.44-.516.804-.9 1.092-.376.288-.864.432-1.464.432s-1.092-.144-1.476-.432a3.042 3.042 0 0 1-.888-1.092 4.956 4.956 0 0 1-.444-1.428 9.355 9.355 0 0 1-.12-1.44zm1.152 0c0 .28.016.612.048.996.04.384.12.756.24 1.116.12.352.296.652.528.9.24.248.56.372.96.372.4 0 .716-.124.948-.372.24-.248.42-.548.54-.9.12-.36.196-.732.228-1.116.04-.384.06-.716.06-.996 0-.192-.008-.408-.024-.648a4.709 4.709 0 0 0-.084-.744c-.04-.256-.1-.5-.18-.732a2.267 2.267 0 0 0-.324-.636 1.45 1.45 0 0 0-.48-.456 1.334 1.334 0 0 0-.684-.168c-.264 0-.492.056-.684.168a1.568 1.568 0 0 0-.492.456 2.48 2.48 0 0 0-.312.636 5.16 5.16 0 0 0-.192.732 7.84 7.84 0 0 0-.084.744c-.008.24-.012.456-.012.648zm8.244 4.392c-.384 0-.748-.056-1.092-.168a2.59 2.59 0 0 1-.876-.516 2.426 2.426 0 0 1-.588-.816 2.604 2.604 0 0 1-.216-1.08c0-.264.04-.508.12-.732.088-.224.204-.424.348-.6.144-.184.312-.336.504-.456.2-.128.416-.224.648-.288v-.036c-.16-.04-.32-.112-.48-.216a1.831 1.831 0 0 1-.432-.396 2.17 2.17 0 0 1-.3-.576 2.423 2.423 0 0 1-.12-.792c0-.32.064-.608.192-.864.136-.264.316-.488.54-.672.232-.184.496-.324.792-.42.304-.104.624-.156.96-.156.336 0 .652.052.948.156.304.096.568.236.792.42.232.184.412.408.54.672.136.256.204.544.204.864 0 .296-.04.56-.12.792-.08.224-.184.416-.312.576-.12.16-.26.292-.42.396-.16.104-.32.176-.48.216v.036c.232.064.444.16.636.288.2.12.372.272.516.456.144.176.256.376.336.6.088.224.132.468.132.732 0 .4-.072.76-.216 1.08a2.426 2.426 0 0 1-1.476 1.332 3.394 3.394 0 0 1-1.08.168zm-1.332-6.504c0 .168.028.332.084.492.064.16.152.304.264.432.112.12.248.22.408.3.168.08.36.12.576.12.224 0 .416-.036.576-.108.168-.08.308-.18.42-.3.112-.128.196-.272.252-.432.056-.16.084-.328.084-.504 0-.392-.124-.712-.372-.96-.24-.256-.56-.384-.96-.384-.368 0-.684.124-.948.372-.256.248-.384.572-.384.972zm1.332 5.496c.48 0 .868-.144 1.164-.432.304-.296.456-.676.456-1.14 0-.256-.044-.48-.132-.672-.08-.2-.196-.364-.348-.492a1.33 1.33 0 0 0-.516-.3 1.763 1.763 0 0 0-.624-.108c-.472.008-.86.16-1.164.456-.304.288-.456.66-.456 1.116 0 .248.044.472.132.672.088.192.204.356.348.492a1.746 1.746 0 0 0 1.14.408zm6.504-1.536h-2.952v-1.008h2.952v1.008zm.777 1.176 3.408-3.384c.12-.112.236-.232.348-.36.112-.136.212-.276.3-.42a1.94 1.94 0 0 0 .204-.456c.056-.16.084-.328.084-.504 0-.208-.04-.396-.12-.564a1.092 1.092 0 0 0-.312-.42 1.297 1.297 0 0 0-.468-.276 1.638 1.638 0 0 0-.564-.096c-.416 0-.76.116-1.032.348-.272.232-.444.552-.516.96l-1.248-.108c.056-.376.164-.7.324-.972.168-.28.372-.512.612-.696.248-.184.528-.32.84-.408.32-.088.664-.132 1.032-.132s.712.052 1.032.156c.328.096.612.244.852.444.248.192.44.436.576.732.144.288.216.628.216 1.02 0 .28-.044.544-.132.792-.08.24-.188.468-.324.684-.136.216-.292.42-.468.612-.176.192-.36.38-.552.564l-2.796 2.7h4.272V368h-5.568v-1.224zm6.324-3.024c0-.312.016-.636.048-.972.032-.336.088-.664.168-.984.088-.328.2-.64.336-.936a2.82 2.82 0 0 1 .54-.768c.224-.224.484-.4.78-.528a2.564 2.564 0 0 1 1.056-.204c.4 0 .748.068 1.044.204.304.128.564.304.78.528.224.216.404.472.54.768.144.296.256.608.336.936.088.32.148.648.18.984.032.336.048.66.048.972 0 .448-.04.928-.12 1.44-.08.512-.228.988-.444 1.428-.216.44-.516.804-.9 1.092-.376.288-.864.432-1.464.432s-1.092-.144-1.476-.432a3.042 3.042 0 0 1-.888-1.092 4.956 4.956 0 0 1-.444-1.428 9.355 9.355 0 0 1-.12-1.44zm1.152 0c0 .28.016.612.048.996.04.384.12.756.24 1.116.12.352.296.652.528.9.24.248.56.372.96.372.4 0 .716-.124.948-.372.24-.248.42-.548.54-.9.12-.36.196-.732.228-1.116.04-.384.06-.716.06-.996 0-.192-.008-.408-.024-.648a4.709 4.709 0 0 0-.084-.744c-.04-.256-.1-.5-.18-.732a2.267 2.267 0 0 0-.324-.636 1.45 1.45 0 0 0-.48-.456 1.334 1.334 0 0 0-.684-.168c-.264 0-.492.056-.684.168a1.568 1.568 0 0 0-.492.456 2.48 2.48 0 0 0-.312.636 5.16 5.16 0 0 0-.192.732 7.84 7.84 0 0 0-.084.744c-.008.24-.012.456-.012.648zm5.46 3.024 3.408-3.384c.12-.112.236-.232.348-.36.112-.136.212-.276.3-.42a1.94 1.94 0 0 0 .204-.456c.056-.16.084-.328.084-.504 0-.208-.04-.396-.12-.564a1.092 1.092 0 0 0-.312-.42 1.297 1.297 0 0 0-.468-.276 1.638 1.638 0 0 0-.564-.096c-.416 0-.76.116-1.032.348-.272.232-.444.552-.516.96l-1.248-.108c.056-.376.164-.7.324-.972.168-.28.372-.512.612-.696.248-.184.528-.32.84-.408.32-.088.664-.132 1.032-.132s.712.052 1.032.156c.328.096.612.244.852.444.248.192.44.436.576.732.144.288.216.628.216 1.02 0 .28-.044.544-.132.792-.08.24-.188.468-.324.684-.136.216-.292.42-.468.612-.176.192-.36.38-.552.564l-2.796 2.7h4.272V368h-5.568v-1.224zm9.156-5.952-1.56 1.44-.672-.804 2.364-1.956h1.02V368h-1.152v-7.176z" fill="#AAB8C6"/><path d="M330.5 345v4" stroke="#AAB8C6" stroke-width=".5" stroke-linecap="square"/><path d="M379.408 363.752c0-.312.016-.636.048-.972.032-.336.088-.664.168-.984.088-.328.2-.64.336-.936a2.82 2.82 0 0 1 .54-.768c.224-.224.484-.4.78-.528a2.564 2.564 0 0 1 1.056-.204c.4 0 .748.068 1.044.204.304.128.564.304.78.528.224.216.404.472.54.768.144.296.256.608.336.936.088.32.148.648.18.984.032.336.048.66.048.972 0 .448-.04.928-.12 1.44-.08.512-.228.988-.444 1.428-.216.44-.516.804-.9 1.092-.376.288-.864.432-1.464.432s-1.092-.144-1.476-.432a3.042 3.042 0 0 1-.888-1.092 4.956 4.956 0 0 1-.444-1.428 9.355 9.355 0 0 1-.12-1.44zm1.152 0c0 .28.016.612.048.996.04.384.12.756.24 1.116.12.352.296.652.528.9.24.248.56.372.96.372.4 0 .716-.124.948-.372.24-.248.42-.548.54-.9.12-.36.196-.732.228-1.116.04-.384.06-.716.06-.996 0-.192-.008-.408-.024-.648a4.709 4.709 0 0 0-.084-.744c-.04-.256-.1-.5-.18-.732a2.267 2.267 0 0 0-.324-.636 1.45 1.45 0 0 0-.48-.456 1.334 1.334 0 0 0-.684-.168c-.264 0-.492.056-.684.168a1.568 1.568 0 0 0-.492.456 2.48 2.48 0 0 0-.312.636 5.16 5.16 0 0 0-.192.732 7.84 7.84 0 0 0-.084.744c-.008.24-.012.456-.012.648zm8.94.96h-.048a2.125 2.125 0 0 1-.936.192 2.91 2.91 0 0 1-.924-.156 2.572 2.572 0 0 1-.852-.48 2.65 2.65 0 0 1-.612-.84c-.16-.344-.24-.748-.24-1.212 0-.464.076-.872.228-1.224.16-.36.372-.66.636-.9s.572-.42.924-.54a3.275 3.275 0 0 1 1.128-.192c.4 0 .776.064 1.128.192.352.128.66.312.924.552.264.24.472.528.624.864.16.336.24.712.24 1.128 0 .264-.02.504-.06.72-.04.216-.1.424-.18.624-.072.192-.16.384-.264.576-.104.192-.22.388-.348.588L388.72 368h-1.356l2.136-3.288zm1.068-2.58c0-.256-.044-.492-.132-.708-.08-.216-.2-.4-.36-.552a1.565 1.565 0 0 0-.552-.372 1.892 1.892 0 0 0-.72-.132c-.264 0-.504.044-.72.132a1.65 1.65 0 0 0-.924.924c-.08.216-.12.452-.12.708 0 .256.04.492.12.708.088.216.208.404.36.564.16.152.348.272.564.36.216.088.456.132.72.132.264 0 .504-.044.72-.132.216-.088.4-.208.552-.36.16-.16.28-.348.36-.564.088-.216.132-.452.132-.708zm4.74 3.468h-2.952v-1.008h2.952v1.008zm.777 1.176 3.408-3.384c.12-.112.236-.232.348-.36.112-.136.212-.276.3-.42a1.94 1.94 0 0 0 .204-.456c.056-.16.084-.328.084-.504 0-.208-.04-.396-.12-.564a1.092 1.092 0 0 0-.312-.42 1.297 1.297 0 0 0-.468-.276 1.638 1.638 0 0 0-.564-.096c-.416 0-.76.116-1.032.348-.272.232-.444.552-.516.96l-1.248-.108c.056-.376.164-.7.324-.972.168-.28.372-.512.612-.696.248-.184.528-.32.84-.408.32-.088.664-.132 1.032-.132s.712.052 1.032.156c.328.096.612.244.852.444.248.192.44.436.576.732.144.288.216.628.216 1.02 0 .28-.044.544-.132.792-.08.24-.188.468-.324.684-.136.216-.292.42-.468.612-.176.192-.36.38-.552.564l-2.796 2.7h4.272V368h-5.568v-1.224zm6.324-3.024c0-.312.016-.636.048-.972.032-.336.088-.664.168-.984.088-.328.2-.64.336-.936a2.82 2.82 0 0 1 .54-.768c.224-.224.484-.4.78-.528a2.564 2.564 0 0 1 1.056-.204c.4 0 .748.068 1.044.204.304.128.564.304.78.528.224.216.404.472.54.768.144.296.256.608.336.936.088.32.148.648.18.984.032.336.048.66.048.972 0 .448-.04.928-.12 1.44-.08.512-.228.988-.444 1.428-.216.44-.516.804-.9 1.092-.376.288-.864.432-1.464.432s-1.092-.144-1.476-.432a3.042 3.042 0 0 1-.888-1.092 4.956 4.956 0 0 1-.444-1.428 9.355 9.355 0 0 1-.12-1.44zm1.152 0c0 .28.016.612.048.996.04.384.12.756.24 1.116.12.352.296.652.528.9.24.248.56.372.96.372.4 0 .716-.124.948-.372.24-.248.42-.548.54-.9.12-.36.196-.732.228-1.116.04-.384.06-.716.06-.996 0-.192-.008-.408-.024-.648a4.709 4.709 0 0 0-.084-.744c-.04-.256-.1-.5-.18-.732a2.267 2.267 0 0 0-.324-.636 1.45 1.45 0 0 0-.48-.456 1.334 1.334 0 0 0-.684-.168c-.264 0-.492.056-.684.168a1.568 1.568 0 0 0-.492.456 2.48 2.48 0 0 0-.312.636 5.16 5.16 0 0 0-.192.732 7.84 7.84 0 0 0-.084.744c-.008.24-.012.456-.012.648zm5.46 3.024 3.408-3.384c.12-.112.236-.232.348-.36.112-.136.212-.276.3-.42a1.94 1.94 0 0 0 .204-.456c.056-.16.084-.328.084-.504 0-.208-.04-.396-.12-.564a1.092 1.092 0 0 0-.312-.42 1.297 1.297 0 0 0-.468-.276 1.638 1.638 0 0 0-.564-.096c-.416 0-.76.116-1.032.348-.272.232-.444.552-.516.96l-1.248-.108c.056-.376.164-.7.324-.972.168-.28.372-.512.612-.696.248-.184.528-.32.84-.408.32-.088.664-.132 1.032-.132s.712.052 1.032.156c.328.096.612.244.852.444.248.192.44.436.576.732.144.288.216.628.216 1.02 0 .28-.044.544-.132.792-.08.24-.188.468-.324.684-.136.216-.292.42-.468.612-.176.192-.36.38-.552.564l-2.796 2.7h4.272V368h-5.568v-1.224zm9.156-5.952-1.56 1.44-.672-.804 2.364-1.956h1.02V368h-1.152v-7.176z" fill="#AAB8C6"/><path d="M400.5 345v4" stroke="#AAB8C6" stroke-width=".5" stroke-linecap="square"/><defs><linearGradient id="a" x1="421" y1="325" x2="421" y2="108" gradientUnits="userSpaceOnUse"><stop stop-color="#fff"/><stop offset="1" stop-color="#60B2FF"/></linearGradient></defs></svg>