<svg width="422" height="370" viewBox="0 0 422 370" fill="none" xmlns="http://www.w3.org/2000/svg">
<path d="M14.74 338.752C14.74 338.44 14.756 338.116 14.788 337.78C14.82 337.444 14.876 337.116 14.956 336.796C15.044 336.468 15.156 336.156 15.292 335.86C15.436 335.564 15.616 335.308 15.832 335.092C16.056 334.868 16.316 334.692 16.612 334.564C16.916 334.428 17.268 334.36 17.668 334.36C18.068 334.36 18.416 334.428 18.712 334.564C19.016 334.692 19.276 334.868 19.492 335.092C19.716 335.308 19.896 335.564 20.032 335.86C20.176 336.156 20.288 336.468 20.368 336.796C20.456 337.116 20.516 337.444 20.548 337.78C20.58 338.116 20.596 338.44 20.596 338.752C20.596 339.2 20.556 339.68 20.476 340.192C20.396 340.704 20.248 341.18 20.032 341.62C19.816 342.06 19.516 342.424 19.132 342.712C18.756 343 18.268 343.144 17.668 343.144C17.068 343.144 16.576 343 16.192 342.712C15.816 342.424 15.52 342.06 15.304 341.62C15.088 341.18 14.94 340.704 14.86 340.192C14.78 339.68 14.74 339.2 14.74 338.752ZM15.892 338.752C15.892 339.032 15.908 339.364 15.94 339.748C15.98 340.132 16.06 340.504 16.18 340.864C16.3 341.216 16.476 341.516 16.708 341.764C16.948 342.012 17.268 342.136 17.668 342.136C18.068 342.136 18.384 342.012 18.616 341.764C18.856 341.516 19.036 341.216 19.156 340.864C19.276 340.504 19.352 340.132 19.384 339.748C19.424 339.364 19.444 339.032 19.444 338.752C19.444 338.56 19.436 338.344 19.42 338.104C19.412 337.856 19.384 337.608 19.336 337.36C19.296 337.104 19.236 336.86 19.156 336.628C19.076 336.388 18.968 336.176 18.832 335.992C18.704 335.8 18.544 335.648 18.352 335.536C18.16 335.424 17.932 335.368 17.668 335.368C17.404 335.368 17.176 335.424 16.984 335.536C16.792 335.648 16.628 335.8 16.492 335.992C16.364 336.176 16.26 336.388 16.18 336.628C16.1 336.86 16.036 337.104 15.988 337.36C15.948 337.608 15.92 337.856 15.904 338.104C15.896 338.344 15.892 338.56 15.892 338.752Z" fill="#AAB8C6" fill-opacity="0.8"/>
<path d="M3.52281 288.824L1.96281 290.264L1.29081 289.46L3.65481 287.504H4.67481V296H3.52281V288.824ZM7.15878 291.752C7.15878 291.44 7.17478 291.116 7.20678 290.78C7.23878 290.444 7.29478 290.116 7.37478 289.796C7.46278 289.468 7.57478 289.156 7.71078 288.86C7.85478 288.564 8.03478 288.308 8.25078 288.092C8.47478 287.868 8.73478 287.692 9.03078 287.564C9.33478 287.428 9.68678 287.36 10.0868 287.36C10.4868 287.36 10.8348 287.428 11.1308 287.564C11.4348 287.692 11.6948 287.868 11.9108 288.092C12.1348 288.308 12.3148 288.564 12.4508 288.86C12.5948 289.156 12.7068 289.468 12.7868 289.796C12.8748 290.116 12.9348 290.444 12.9668 290.78C12.9988 291.116 13.0148 291.44 13.0148 291.752C13.0148 292.2 12.9748 292.68 12.8948 293.192C12.8148 293.704 12.6668 294.18 12.4508 294.62C12.2348 295.06 11.9348 295.424 11.5508 295.712C11.1748 296 10.6868 296.144 10.0868 296.144C9.48678 296.144 8.99478 296 8.61078 295.712C8.23478 295.424 7.93878 295.06 7.72278 294.62C7.50678 294.18 7.35878 293.704 7.27878 293.192C7.19878 292.68 7.15878 292.2 7.15878 291.752ZM8.31078 291.752C8.31078 292.032 8.32678 292.364 8.35878 292.748C8.39878 293.132 8.47878 293.504 8.59878 293.864C8.71878 294.216 8.89478 294.516 9.12678 294.764C9.36678 295.012 9.68678 295.136 10.0868 295.136C10.4868 295.136 10.8028 295.012 11.0348 294.764C11.2748 294.516 11.4548 294.216 11.5748 293.864C11.6948 293.504 11.7708 293.132 11.8028 292.748C11.8428 292.364 11.8628 292.032 11.8628 291.752C11.8628 291.56 11.8548 291.344 11.8388 291.104C11.8308 290.856 11.8028 290.608 11.7548 290.36C11.7148 290.104 11.6548 289.86 11.5748 289.628C11.4948 289.388 11.3868 289.176 11.2508 288.992C11.1228 288.8 10.9628 288.648 10.7708 288.536C10.5788 288.424 10.3508 288.368 10.0868 288.368C9.82278 288.368 9.59478 288.424 9.40278 288.536C9.21078 288.648 9.04678 288.8 8.91078 288.992C8.78278 289.176 8.67878 289.388 8.59878 289.628C8.51878 289.86 8.45478 290.104 8.40678 290.36C8.36678 290.608 8.33878 290.856 8.32278 291.104C8.31478 291.344 8.31078 291.56 8.31078 291.752ZM14.3108 287.504H15.4628V291.176H15.5588L19.3148 287.504H20.9228L16.8188 291.428L21.1988 296H19.5188L15.5588 291.752H15.4628V296H14.3108V287.504Z" fill="#AAB8C6" fill-opacity="0.8"/>
<path d="M0.834812 246.776L4.24281 243.392C4.36281 243.28 4.47881 243.16 4.59081 243.032C4.70281 242.896 4.80281 242.756 4.89081 242.612C4.97881 242.468 5.04681 242.316 5.09481 242.156C5.15081 241.996 5.17881 241.828 5.17881 241.652C5.17881 241.444 5.13881 241.256 5.05881 241.088C4.98681 240.92 4.88281 240.78 4.74681 240.668C4.61881 240.548 4.46281 240.456 4.27881 240.392C4.10281 240.328 3.91481 240.296 3.71481 240.296C3.29881 240.296 2.95481 240.412 2.68281 240.644C2.41081 240.876 2.23881 241.196 2.16681 241.604L0.918812 241.496C0.974812 241.12 1.08281 240.796 1.24281 240.524C1.41081 240.244 1.61481 240.012 1.85481 239.828C2.10281 239.644 2.38281 239.508 2.69481 239.42C3.01481 239.332 3.35881 239.288 3.72681 239.288C4.09481 239.288 4.43881 239.34 4.75881 239.444C5.08681 239.54 5.37081 239.688 5.61081 239.888C5.85881 240.08 6.05081 240.324 6.18681 240.62C6.33081 240.908 6.40281 241.248 6.40281 241.64C6.40281 241.92 6.35881 242.184 6.27081 242.432C6.19081 242.672 6.08281 242.9 5.94681 243.116C5.81081 243.332 5.65481 243.536 5.47881 243.728C5.30281 243.92 5.11881 244.108 4.92681 244.292L2.13081 246.992H6.40281V248H0.834812V246.776ZM7.15878 243.752C7.15878 243.44 7.17478 243.116 7.20678 242.78C7.23878 242.444 7.29478 242.116 7.37478 241.796C7.46278 241.468 7.57478 241.156 7.71078 240.86C7.85478 240.564 8.03478 240.308 8.25078 240.092C8.47478 239.868 8.73478 239.692 9.03078 239.564C9.33478 239.428 9.68678 239.36 10.0868 239.36C10.4868 239.36 10.8348 239.428 11.1308 239.564C11.4348 239.692 11.6948 239.868 11.9108 240.092C12.1348 240.308 12.3148 240.564 12.4508 240.86C12.5948 241.156 12.7068 241.468 12.7868 241.796C12.8748 242.116 12.9348 242.444 12.9668 242.78C12.9988 243.116 13.0148 243.44 13.0148 243.752C13.0148 244.2 12.9748 244.68 12.8948 245.192C12.8148 245.704 12.6668 246.18 12.4508 246.62C12.2348 247.06 11.9348 247.424 11.5508 247.712C11.1748 248 10.6868 248.144 10.0868 248.144C9.48678 248.144 8.99478 248 8.61078 247.712C8.23478 247.424 7.93878 247.06 7.72278 246.62C7.50678 246.18 7.35878 245.704 7.27878 245.192C7.19878 244.68 7.15878 244.2 7.15878 243.752ZM8.31078 243.752C8.31078 244.032 8.32678 244.364 8.35878 244.748C8.39878 245.132 8.47878 245.504 8.59878 245.864C8.71878 246.216 8.89478 246.516 9.12678 246.764C9.36678 247.012 9.68678 247.136 10.0868 247.136C10.4868 247.136 10.8028 247.012 11.0348 246.764C11.2748 246.516 11.4548 246.216 11.5748 245.864C11.6948 245.504 11.7708 245.132 11.8028 244.748C11.8428 244.364 11.8628 244.032 11.8628 243.752C11.8628 243.56 11.8548 243.344 11.8388 243.104C11.8308 242.856 11.8028 242.608 11.7548 242.36C11.7148 242.104 11.6548 241.86 11.5748 241.628C11.4948 241.388 11.3868 241.176 11.2508 240.992C11.1228 240.8 10.9628 240.648 10.7708 240.536C10.5788 240.424 10.3508 240.368 10.0868 240.368C9.82278 240.368 9.59478 240.424 9.40278 240.536C9.21078 240.648 9.04678 240.8 8.91078 240.992C8.78278 241.176 8.67878 241.388 8.59878 241.628C8.51878 241.86 8.45478 242.104 8.40678 242.36C8.36678 242.608 8.33878 242.856 8.32278 243.104C8.31478 243.344 8.31078 243.56 8.31078 243.752ZM14.3108 239.504H15.4628V243.176H15.5588L19.3148 239.504H20.9228L16.8188 243.428L21.1988 248H19.5188L15.5588 243.752H15.4628V248H14.3108V239.504Z" fill="#AAB8C6" fill-opacity="0.8"/>
<path d="M2.04681 197.924C2.18281 198.332 2.36281 198.636 2.58681 198.836C2.81881 199.036 3.15881 199.136 3.60681 199.136C3.83081 199.136 4.03881 199.1 4.23081 199.028C4.43081 198.948 4.60681 198.844 4.75881 198.716C4.91081 198.58 5.03081 198.42 5.11881 198.236C5.20681 198.044 5.25081 197.832 5.25081 197.6C5.25081 197.248 5.17481 196.968 5.02281 196.76C4.87881 196.544 4.69081 196.384 4.45881 196.28C4.22681 196.168 3.97081 196.096 3.69081 196.064C3.41081 196.032 3.13481 196.016 2.86281 196.016V195.008C3.30281 195.008 3.66281 194.98 3.94281 194.924C4.22281 194.86 4.44281 194.772 4.60281 194.66C4.76281 194.548 4.87481 194.408 4.93881 194.24C5.00281 194.072 5.03481 193.884 5.03481 193.676C5.03481 193.22 4.89881 192.876 4.62681 192.644C4.35481 192.412 4.01481 192.296 3.60681 192.296C3.29481 192.296 3.01081 192.388 2.75481 192.572C2.50681 192.748 2.31881 192.984 2.19081 193.28L1.01481 192.884C1.23881 192.34 1.57881 191.94 2.03481 191.684C2.49881 191.42 3.01481 191.288 3.58281 191.288C3.92681 191.288 4.25481 191.336 4.56681 191.432C4.88681 191.52 5.16681 191.66 5.40681 191.852C5.64681 192.044 5.83481 192.288 5.97081 192.584C6.11481 192.872 6.18681 193.212 6.18681 193.604C6.18681 194.052 6.05081 194.452 5.77881 194.804C5.51481 195.156 5.16681 195.396 4.73481 195.524V195.548C4.99881 195.596 5.23481 195.684 5.44281 195.812C5.65081 195.94 5.82681 196.1 5.97081 196.292C6.11481 196.484 6.22281 196.7 6.29481 196.94C6.36681 197.172 6.40281 197.42 6.40281 197.684C6.40281 198.092 6.32281 198.452 6.16281 198.764C6.01081 199.068 5.80281 199.324 5.53881 199.532C5.28281 199.732 4.98281 199.884 4.63881 199.988C4.30281 200.092 3.94681 200.144 3.57081 200.144C2.92281 200.144 2.35081 199.996 1.85481 199.7C1.36681 199.404 1.02681 198.936 0.834812 198.296L2.04681 197.924ZM7.15878 195.752C7.15878 195.44 7.17478 195.116 7.20678 194.78C7.23878 194.444 7.29478 194.116 7.37478 193.796C7.46278 193.468 7.57478 193.156 7.71078 192.86C7.85478 192.564 8.03478 192.308 8.25078 192.092C8.47478 191.868 8.73478 191.692 9.03078 191.564C9.33478 191.428 9.68678 191.36 10.0868 191.36C10.4868 191.36 10.8348 191.428 11.1308 191.564C11.4348 191.692 11.6948 191.868 11.9108 192.092C12.1348 192.308 12.3148 192.564 12.4508 192.86C12.5948 193.156 12.7068 193.468 12.7868 193.796C12.8748 194.116 12.9348 194.444 12.9668 194.78C12.9988 195.116 13.0148 195.44 13.0148 195.752C13.0148 196.2 12.9748 196.68 12.8948 197.192C12.8148 197.704 12.6668 198.18 12.4508 198.62C12.2348 199.06 11.9348 199.424 11.5508 199.712C11.1748 200 10.6868 200.144 10.0868 200.144C9.48678 200.144 8.99478 200 8.61078 199.712C8.23478 199.424 7.93878 199.06 7.72278 198.62C7.50678 198.18 7.35878 197.704 7.27878 197.192C7.19878 196.68 7.15878 196.2 7.15878 195.752ZM8.31078 195.752C8.31078 196.032 8.32678 196.364 8.35878 196.748C8.39878 197.132 8.47878 197.504 8.59878 197.864C8.71878 198.216 8.89478 198.516 9.12678 198.764C9.36678 199.012 9.68678 199.136 10.0868 199.136C10.4868 199.136 10.8028 199.012 11.0348 198.764C11.2748 198.516 11.4548 198.216 11.5748 197.864C11.6948 197.504 11.7708 197.132 11.8028 196.748C11.8428 196.364 11.8628 196.032 11.8628 195.752C11.8628 195.56 11.8548 195.344 11.8388 195.104C11.8308 194.856 11.8028 194.608 11.7548 194.36C11.7148 194.104 11.6548 193.86 11.5748 193.628C11.4948 193.388 11.3868 193.176 11.2508 192.992C11.1228 192.8 10.9628 192.648 10.7708 192.536C10.5788 192.424 10.3508 192.368 10.0868 192.368C9.82278 192.368 9.59478 192.424 9.40278 192.536C9.21078 192.648 9.04678 192.8 8.91078 192.992C8.78278 193.176 8.67878 193.388 8.59878 193.628C8.51878 193.86 8.45478 194.104 8.40678 194.36C8.36678 194.608 8.33878 194.856 8.32278 195.104C8.31478 195.344 8.31078 195.56 8.31078 195.752ZM14.3108 191.504H15.4628V195.176H15.5588L19.3148 191.504H20.9228L16.8188 195.428L21.1988 200H19.5188L15.5588 195.752H15.4628V200H14.3108V191.504Z" fill="#AAB8C6" fill-opacity="0.8"/>
<path d="M4.31481 150.128H0.690812V148.952L4.07481 143.504H5.46681V149.12H6.66681V150.128H5.46681V152H4.31481V150.128ZM4.31481 144.872H4.29081L1.69881 149.12H4.31481V144.872ZM7.15878 147.752C7.15878 147.44 7.17478 147.116 7.20678 146.78C7.23878 146.444 7.29478 146.116 7.37478 145.796C7.46278 145.468 7.57478 145.156 7.71078 144.86C7.85478 144.564 8.03478 144.308 8.25078 144.092C8.47478 143.868 8.73478 143.692 9.03078 143.564C9.33478 143.428 9.68678 143.36 10.0868 143.36C10.4868 143.36 10.8348 143.428 11.1308 143.564C11.4348 143.692 11.6948 143.868 11.9108 144.092C12.1348 144.308 12.3148 144.564 12.4508 144.86C12.5948 145.156 12.7068 145.468 12.7868 145.796C12.8748 146.116 12.9348 146.444 12.9668 146.78C12.9988 147.116 13.0148 147.44 13.0148 147.752C13.0148 148.2 12.9748 148.68 12.8948 149.192C12.8148 149.704 12.6668 150.18 12.4508 150.62C12.2348 151.06 11.9348 151.424 11.5508 151.712C11.1748 152 10.6868 152.144 10.0868 152.144C9.48678 152.144 8.99478 152 8.61078 151.712C8.23478 151.424 7.93878 151.06 7.72278 150.62C7.50678 150.18 7.35878 149.704 7.27878 149.192C7.19878 148.68 7.15878 148.2 7.15878 147.752ZM8.31078 147.752C8.31078 148.032 8.32678 148.364 8.35878 148.748C8.39878 149.132 8.47878 149.504 8.59878 149.864C8.71878 150.216 8.89478 150.516 9.12678 150.764C9.36678 151.012 9.68678 151.136 10.0868 151.136C10.4868 151.136 10.8028 151.012 11.0348 150.764C11.2748 150.516 11.4548 150.216 11.5748 149.864C11.6948 149.504 11.7708 149.132 11.8028 148.748C11.8428 148.364 11.8628 148.032 11.8628 147.752C11.8628 147.56 11.8548 147.344 11.8388 147.104C11.8308 146.856 11.8028 146.608 11.7548 146.36C11.7148 146.104 11.6548 145.86 11.5748 145.628C11.4948 145.388 11.3868 145.176 11.2508 144.992C11.1228 144.8 10.9628 144.648 10.7708 144.536C10.5788 144.424 10.3508 144.368 10.0868 144.368C9.82278 144.368 9.59478 144.424 9.40278 144.536C9.21078 144.648 9.04678 144.8 8.91078 144.992C8.78278 145.176 8.67878 145.388 8.59878 145.628C8.51878 145.86 8.45478 146.104 8.40678 146.36C8.36678 146.608 8.33878 146.856 8.32278 147.104C8.31478 147.344 8.31078 147.56 8.31078 147.752ZM14.3108 143.504H15.4628V147.176H15.5588L19.3148 143.504H20.9228L16.8188 147.428L21.1988 152H19.5188L15.5588 147.752H15.4628V152H14.3108V143.504Z" fill="#AAB8C6" fill-opacity="0.8"/>
<path d="M5.93481 98.584H2.49081L2.45481 100.708C2.51081 100.684 2.59081 100.66 2.69481 100.636C2.79881 100.612 2.90281 100.592 3.00681 100.576C3.11881 100.56 3.22681 100.548 3.33081 100.54C3.43481 100.532 3.52281 100.528 3.59481 100.528C3.99481 100.528 4.35481 100.596 4.67481 100.732C5.00281 100.868 5.28281 101.06 5.51481 101.308C5.74681 101.556 5.92281 101.852 6.04281 102.196C6.17081 102.54 6.23481 102.92 6.23481 103.336C6.23481 103.76 6.15481 104.144 5.99481 104.488C5.84281 104.832 5.63081 105.128 5.35881 105.376C5.08681 105.624 4.77081 105.816 4.41081 105.952C4.05081 106.08 3.66281 106.144 3.24681 106.144C2.67081 106.144 2.15081 105.996 1.68681 105.7C1.22281 105.404 0.890812 104.98 0.690812 104.428L1.85481 104.032C2.00681 104.424 2.21081 104.708 2.46681 104.884C2.72281 105.052 3.04281 105.136 3.42681 105.136C3.65081 105.136 3.86281 105.096 4.06281 105.016C4.27081 104.936 4.44681 104.824 4.59081 104.68C4.74281 104.528 4.86281 104.344 4.95081 104.128C5.03881 103.912 5.08281 103.668 5.08281 103.396C5.08281 102.772 4.89081 102.308 4.50681 102.004C4.13081 101.692 3.63881 101.536 3.03081 101.536C2.81481 101.536 2.53881 101.576 2.20281 101.656C1.87481 101.728 1.56681 101.836 1.27881 101.98L1.37481 97.504H5.93481V98.584ZM7.15878 101.752C7.15878 101.44 7.17478 101.116 7.20678 100.78C7.23878 100.444 7.29478 100.116 7.37478 99.796C7.46278 99.468 7.57478 99.156 7.71078 98.86C7.85478 98.564 8.03478 98.308 8.25078 98.092C8.47478 97.868 8.73478 97.692 9.03078 97.564C9.33478 97.428 9.68678 97.36 10.0868 97.36C10.4868 97.36 10.8348 97.428 11.1308 97.564C11.4348 97.692 11.6948 97.868 11.9108 98.092C12.1348 98.308 12.3148 98.564 12.4508 98.86C12.5948 99.156 12.7068 99.468 12.7868 99.796C12.8748 100.116 12.9348 100.444 12.9668 100.78C12.9988 101.116 13.0148 101.44 13.0148 101.752C13.0148 102.2 12.9748 102.68 12.8948 103.192C12.8148 103.704 12.6668 104.18 12.4508 104.62C12.2348 105.06 11.9348 105.424 11.5508 105.712C11.1748 106 10.6868 106.144 10.0868 106.144C9.48678 106.144 8.99478 106 8.61078 105.712C8.23478 105.424 7.93878 105.06 7.72278 104.62C7.50678 104.18 7.35878 103.704 7.27878 103.192C7.19878 102.68 7.15878 102.2 7.15878 101.752ZM8.31078 101.752C8.31078 102.032 8.32678 102.364 8.35878 102.748C8.39878 103.132 8.47878 103.504 8.59878 103.864C8.71878 104.216 8.89478 104.516 9.12678 104.764C9.36678 105.012 9.68678 105.136 10.0868 105.136C10.4868 105.136 10.8028 105.012 11.0348 104.764C11.2748 104.516 11.4548 104.216 11.5748 103.864C11.6948 103.504 11.7708 103.132 11.8028 102.748C11.8428 102.364 11.8628 102.032 11.8628 101.752C11.8628 101.56 11.8548 101.344 11.8388 101.104C11.8308 100.856 11.8028 100.608 11.7548 100.36C11.7148 100.104 11.6548 99.86 11.5748 99.628C11.4948 99.388 11.3868 99.176 11.2508 98.992C11.1228 98.8 10.9628 98.648 10.7708 98.536C10.5788 98.424 10.3508 98.368 10.0868 98.368C9.82278 98.368 9.59478 98.424 9.40278 98.536C9.21078 98.648 9.04678 98.8 8.91078 98.992C8.78278 99.176 8.67878 99.388 8.59878 99.628C8.51878 99.86 8.45478 100.104 8.40678 100.36C8.36678 100.608 8.33878 100.856 8.32278 101.104C8.31478 101.344 8.31078 101.56 8.31078 101.752ZM14.3108 97.504H15.4628V101.176H15.5588L19.3148 97.504H20.9228L16.8188 101.428L21.1988 106H19.5188L15.5588 101.752H15.4628V106H14.3108V97.504Z" fill="#AAB8C6" fill-opacity="0.8"/>
<path d="M2.92281 52.792H2.97081C3.23481 52.664 3.54681 52.6 3.90681 52.6C4.21081 52.6 4.51881 52.652 4.83081 52.756C5.14281 52.86 5.42281 53.024 5.67081 53.248C5.92681 53.464 6.13481 53.744 6.29481 54.088C6.45481 54.424 6.53481 54.824 6.53481 55.288C6.53481 55.76 6.45481 56.176 6.29481 56.536C6.14281 56.888 5.93481 57.184 5.67081 57.424C5.40681 57.664 5.09881 57.844 4.74681 57.964C4.39481 58.084 4.01881 58.144 3.61881 58.144C3.21881 58.144 2.84281 58.08 2.49081 57.952C2.13881 57.824 1.83081 57.64 1.56681 57.4C1.30281 57.16 1.09081 56.872 0.930812 56.536C0.778812 56.2 0.702812 55.824 0.702812 55.408C0.702812 55.144 0.722812 54.904 0.762812 54.688C0.802812 54.472 0.858812 54.268 0.930812 54.076C1.01081 53.876 1.10281 53.684 1.20681 53.5C1.31081 53.308 1.42681 53.108 1.55481 52.9L3.70281 49.504H5.05881L2.92281 52.792ZM1.85481 55.372C1.85481 55.628 1.89481 55.864 1.97481 56.08C2.06281 56.296 2.18281 56.484 2.33481 56.644C2.49481 56.796 2.68281 56.916 2.89881 57.004C3.11481 57.092 3.35481 57.136 3.61881 57.136C3.88281 57.136 4.12281 57.092 4.33881 57.004C4.55481 56.916 4.73881 56.796 4.89081 56.644C5.05081 56.484 5.17081 56.296 5.25081 56.08C5.33881 55.864 5.38281 55.628 5.38281 55.372C5.38281 55.116 5.33881 54.88 5.25081 54.664C5.17081 54.448 5.05081 54.264 4.89081 54.112C4.73881 53.952 4.55481 53.828 4.33881 53.74C4.12281 53.652 3.88281 53.608 3.61881 53.608C3.35481 53.608 3.11481 53.652 2.89881 53.74C2.68281 53.828 2.49481 53.952 2.33481 54.112C2.18281 54.264 2.06281 54.448 1.97481 54.664C1.89481 54.88 1.85481 55.116 1.85481 55.372ZM7.15878 53.752C7.15878 53.44 7.17478 53.116 7.20678 52.78C7.23878 52.444 7.29478 52.116 7.37478 51.796C7.46278 51.468 7.57478 51.156 7.71078 50.86C7.85478 50.564 8.03478 50.308 8.25078 50.092C8.47478 49.868 8.73478 49.692 9.03078 49.564C9.33478 49.428 9.68678 49.36 10.0868 49.36C10.4868 49.36 10.8348 49.428 11.1308 49.564C11.4348 49.692 11.6948 49.868 11.9108 50.092C12.1348 50.308 12.3148 50.564 12.4508 50.86C12.5948 51.156 12.7068 51.468 12.7868 51.796C12.8748 52.116 12.9348 52.444 12.9668 52.78C12.9988 53.116 13.0148 53.44 13.0148 53.752C13.0148 54.2 12.9748 54.68 12.8948 55.192C12.8148 55.704 12.6668 56.18 12.4508 56.62C12.2348 57.06 11.9348 57.424 11.5508 57.712C11.1748 58 10.6868 58.144 10.0868 58.144C9.48678 58.144 8.99478 58 8.61078 57.712C8.23478 57.424 7.93878 57.06 7.72278 56.62C7.50678 56.18 7.35878 55.704 7.27878 55.192C7.19878 54.68 7.15878 54.2 7.15878 53.752ZM8.31078 53.752C8.31078 54.032 8.32678 54.364 8.35878 54.748C8.39878 55.132 8.47878 55.504 8.59878 55.864C8.71878 56.216 8.89478 56.516 9.12678 56.764C9.36678 57.012 9.68678 57.136 10.0868 57.136C10.4868 57.136 10.8028 57.012 11.0348 56.764C11.2748 56.516 11.4548 56.216 11.5748 55.864C11.6948 55.504 11.7708 55.132 11.8028 54.748C11.8428 54.364 11.8628 54.032 11.8628 53.752C11.8628 53.56 11.8548 53.344 11.8388 53.104C11.8308 52.856 11.8028 52.608 11.7548 52.36C11.7148 52.104 11.6548 51.86 11.5748 51.628C11.4948 51.388 11.3868 51.176 11.2508 50.992C11.1228 50.8 10.9628 50.648 10.7708 50.536C10.5788 50.424 10.3508 50.368 10.0868 50.368C9.82278 50.368 9.59478 50.424 9.40278 50.536C9.21078 50.648 9.04678 50.8 8.91078 50.992C8.78278 51.176 8.67878 51.388 8.59878 51.628C8.51878 51.86 8.45478 52.104 8.40678 52.36C8.36678 52.608 8.33878 52.856 8.32278 53.104C8.31478 53.344 8.31078 53.56 8.31078 53.752ZM14.3108 49.504H15.4628V53.176H15.5588L19.3148 49.504H20.9228L16.8188 53.428L21.1988 58H19.5188L15.5588 53.752H15.4628V58H14.3108V49.504Z" fill="#AAB8C6" fill-opacity="0.8"/>
<path d="M4.89081 2.512H0.786812V1.504H6.12681V2.488L2.74281 10H1.44681L4.89081 2.512ZM7.15878 5.752C7.15878 5.44 7.17478 5.116 7.20678 4.78C7.23878 4.444 7.29478 4.116 7.37478 3.796C7.46278 3.468 7.57478 3.156 7.71078 2.86C7.85478 2.564 8.03478 2.308 8.25078 2.092C8.47478 1.868 8.73478 1.692 9.03078 1.564C9.33478 1.428 9.68678 1.36 10.0868 1.36C10.4868 1.36 10.8348 1.428 11.1308 1.564C11.4348 1.692 11.6948 1.868 11.9108 2.092C12.1348 2.308 12.3148 2.564 12.4508 2.86C12.5948 3.156 12.7068 3.468 12.7868 3.796C12.8748 4.116 12.9348 4.444 12.9668 4.78C12.9988 5.116 13.0148 5.44 13.0148 5.752C13.0148 6.2 12.9748 6.68 12.8948 7.192C12.8148 7.704 12.6668 8.18 12.4508 8.62C12.2348 9.06 11.9348 9.424 11.5508 9.712C11.1748 10 10.6868 10.144 10.0868 10.144C9.48678 10.144 8.99478 10 8.61078 9.712C8.23478 9.424 7.93878 9.06 7.72278 8.62C7.50678 8.18 7.35878 7.704 7.27878 7.192C7.19878 6.68 7.15878 6.2 7.15878 5.752ZM8.31078 5.752C8.31078 6.032 8.32678 6.364 8.35878 6.748C8.39878 7.132 8.47878 7.504 8.59878 7.864C8.71878 8.216 8.89478 8.516 9.12678 8.764C9.36678 9.012 9.68678 9.136 10.0868 9.136C10.4868 9.136 10.8028 9.012 11.0348 8.764C11.2748 8.516 11.4548 8.216 11.5748 7.864C11.6948 7.504 11.7708 7.132 11.8028 6.748C11.8428 6.364 11.8628 6.032 11.8628 5.752C11.8628 5.56 11.8548 5.344 11.8388 5.104C11.8308 4.856 11.8028 4.608 11.7548 4.36C11.7148 4.104 11.6548 3.86 11.5748 3.628C11.4948 3.388 11.3868 3.176 11.2508 2.992C11.1228 2.8 10.9628 2.648 10.7708 2.536C10.5788 2.424 10.3508 2.368 10.0868 2.368C9.82278 2.368 9.59478 2.424 9.40278 2.536C9.21078 2.648 9.04678 2.8 8.91078 2.992C8.78278 3.176 8.67878 3.388 8.59878 3.628C8.51878 3.86 8.45478 4.104 8.40678 4.36C8.36678 4.608 8.33878 4.856 8.32278 5.104C8.31478 5.344 8.31078 5.56 8.31078 5.752ZM14.3108 1.504H15.4628V5.176H15.5588L19.3148 1.504H20.9228L16.8188 5.428L21.1988 10H19.5188L15.5588 5.752H15.4628V10H14.3108V1.504Z" fill="#AAB8C6" fill-opacity="0.8"/>
<path opacity="0.25" fill-rule="evenodd" clip-rule="evenodd" d="M29 64.5C31.6765 68.2009 32.1541 93.2563 34.5 96.5C35.5185 97.9083 37.0256 92.6527 38 94C39.107 95.5307 38.9347 102.027 40 103.5C40.8532 104.68 42.6643 96.3444 43.5 97.5C44.4154 98.7657 45.5951 107.749 46.5 109C47.6402 110.577 48.3568 105.419 49.5 107C50.8113 108.813 51.154 114.639 52.5 116.5C53.566 117.974 56.8937 110.97 58 112.5C59.0602 113.966 63.3881 115.463 64.5 117C66.8736 120.282 64.7878 121.464 67.5 125.214L70.5 122.5L74 125.5L81.5 137L84.5 127.5L88 132.5L92 131L95 137.5L99 135H104L107.5 139H110.5L113.5 164L115.5 161L117.5 167L119 165.5L120.5 172L122.5 175.5L125 172L127 178L131.5 175.5L133.5 180.5L136.5 178L144.5 202.5L148.5 225L150.5 217.5L152.5 219.5L158 211L161 215L165 207L167.5 209.5L171 201.5L175 203.24L178 196.5L184.5 201.256L186 199.5L193 206.5L196.5 203.5L199.5 206.5L203.769 202.5L210.5 196.5L214 199.5L217.5 193H222L228 186H230.5L233 180.5L238 190.5L240.5 184L242.5 186L245.5 172.5L248 175L250.5 170.461L251.5 168.5L253.5 172L256 171L260.5 178L264 175.545L273 184L275 180.938L280.5 188.5L283 186L285.5 191L289.5 180L291.136 175.545L293.5 178L295.5 172L298 174L300.76 163L305.5 165.5V158L308.432 160.08L310.5 153.5L312 148.5L314 154.99L317 158L319 156.5L322.5 162.5L324 165L325.5 163L331 174L333.5 171L339 192L341 178.5L344 186L346.5 184L350.5 190.5L352.5 187.5L357.5 196.5L359 193L362 197.5L366 203.5L367.5 199.5L369.5 201L375.382 180.168L377.5 181.5L381.263 167L383 173L385.5 163L388.5 165L390.5 153L391.5 145.5L393.5 148.5L395.5 138.5L396.5 135L400 142L402.5 138.98L408 145L410 142L413.5 145.5L415.5 144.5L421 162V344.5H29C29 235.153 29 173.847 29 64.5Z" fill="url(#paint0_linear)"/>
<path d="M29.5 64.5L34.5 97L38 93.5L40 104L43.5 97L46.5 109.5L49.5 106.5L52.5 117L58 112.5L64.5 117L67.5 125.5L70.5 122.5L74 125.5L81.5 137.5L84.5 127.5L88 132.5L92 131L95 137.5L99 135H104L107 139H110.5L113.5 165.5L115.5 160.5L117.5 167L119 165.5L120.5 172L122.5 175.5L125 172L127 178L131.5 175.5L133.5 180.5L136.5 178L145.5 206.5L148.5 226L150.5 217.5L152.5 219.5L155 215.5L158 211L161 215.5L165 206.5L167.5 209.5L171 201.5L175 203.5L178 196.5L184.5 201.5L186 199.5L193 206.5L196.5 203.5L199.5 206.5L210.5 196.5L214 199.5L217.5 193H222L228 186H230.5L233 180.5L238 191L240.5 184L242.5 186L245.5 172L248 175.5L251.5 168.5L253.5 172L256 171L260.5 178L264 175.5L273 184L275 180.5L280.5 188.5L283 186L285.5 191L291 175.5L293.5 178L295.5 172L298 174L301 163L305.5 165.5V158L308.5 160.5L312 149L314 155L317 158L319 156.5L324 165.5L325.5 163L331 174L333.5 171L339 193L341 178L344 186L346.5 184L350.5 191L352.5 187.5L357.5 196.5L359 193L366 203.5L367.5 199.5L369.5 201.5L375.5 180.5L377.5 182L381.5 167L383 174L385.5 163L388.5 165.5L391.5 145.5L393.5 149L396.5 135L400 142L402.5 139L408 145.5L410 142L413.5 145.5L415.5 144.5L421 161.5" stroke="#437FEC" stroke-width="2" stroke-linecap="round"/>
<path d="M29 149.5H421" stroke="#AAB8C6" stroke-opacity="0.7" stroke-width="0.5" stroke-linecap="square"/>
<path d="M29 246.5H421" stroke="#AAB8C6" stroke-opacity="0.7" stroke-width="0.5" stroke-linecap="square"/>
<path d="M29 295.5H421" stroke="#AAB8C6" stroke-opacity="0.7" stroke-width="0.5" stroke-linecap="square"/>
<path d="M29 344.5H421" stroke="#AAB8C6" stroke-opacity="0.7" stroke-width="0.5" stroke-linecap="square"/>
<path d="M29 102.5H421" stroke="#AAB8C6" stroke-opacity="0.7" stroke-width="0.5" stroke-linecap="square"/>
<path d="M29 54.5H421" stroke="#AAB8C6" stroke-opacity="0.7" stroke-width="0.5" stroke-linecap="square"/>
<path d="M29 6.5H421" stroke="#AAB8C6" stroke-opacity="0.7" stroke-width="0.5" stroke-linecap="square"/>
<path d="M29 197.5H421" stroke="#AAB8C6" stroke-opacity="0.7" stroke-width="0.5" stroke-linecap="square"/>
<path d="M169.408 363.752C169.408 363.44 169.424 363.116 169.456 362.78C169.488 362.444 169.544 362.116 169.624 361.796C169.712 361.468 169.824 361.156 169.96 360.86C170.104 360.564 170.284 360.308 170.5 360.092C170.724 359.868 170.984 359.692 171.28 359.564C171.584 359.428 171.936 359.36 172.336 359.36C172.736 359.36 173.084 359.428 173.38 359.564C173.684 359.692 173.944 359.868 174.16 360.092C174.384 360.308 174.564 360.564 174.7 360.86C174.844 361.156 174.956 361.468 175.036 361.796C175.124 362.116 175.184 362.444 175.216 362.78C175.248 363.116 175.264 363.44 175.264 363.752C175.264 364.2 175.224 364.68 175.144 365.192C175.064 365.704 174.916 366.18 174.7 366.62C174.484 367.06 174.184 367.424 173.8 367.712C173.424 368 172.936 368.144 172.336 368.144C171.736 368.144 171.244 368 170.86 367.712C170.484 367.424 170.188 367.06 169.972 366.62C169.756 366.18 169.608 365.704 169.528 365.192C169.448 364.68 169.408 364.2 169.408 363.752ZM170.56 363.752C170.56 364.032 170.576 364.364 170.608 364.748C170.648 365.132 170.728 365.504 170.848 365.864C170.968 366.216 171.144 366.516 171.376 366.764C171.616 367.012 171.936 367.136 172.336 367.136C172.736 367.136 173.052 367.012 173.284 366.764C173.524 366.516 173.704 366.216 173.824 365.864C173.944 365.504 174.02 365.132 174.052 364.748C174.092 364.364 174.112 364.032 174.112 363.752C174.112 363.56 174.104 363.344 174.088 363.104C174.08 362.856 174.052 362.608 174.004 362.36C173.964 362.104 173.904 361.86 173.824 361.628C173.744 361.388 173.636 361.176 173.5 360.992C173.372 360.8 173.212 360.648 173.02 360.536C172.828 360.424 172.6 360.368 172.336 360.368C172.072 360.368 171.844 360.424 171.652 360.536C171.46 360.648 171.296 360.8 171.16 360.992C171.032 361.176 170.928 361.388 170.848 361.628C170.768 361.86 170.704 362.104 170.656 362.36C170.616 362.608 170.588 362.856 170.572 363.104C170.564 363.344 170.56 363.56 170.56 363.752ZM178.108 362.792H178.156C178.42 362.664 178.732 362.6 179.092 362.6C179.396 362.6 179.704 362.652 180.016 362.756C180.328 362.86 180.608 363.024 180.856 363.248C181.112 363.464 181.32 363.744 181.48 364.088C181.64 364.424 181.72 364.824 181.72 365.288C181.72 365.76 181.64 366.176 181.48 366.536C181.328 366.888 181.12 367.184 180.856 367.424C180.592 367.664 180.284 367.844 179.932 367.964C179.58 368.084 179.204 368.144 178.804 368.144C178.404 368.144 178.028 368.08 177.676 367.952C177.324 367.824 177.016 367.64 176.752 367.4C176.488 367.16 176.276 366.872 176.116 366.536C175.964 366.2 175.888 365.824 175.888 365.408C175.888 365.144 175.908 364.904 175.948 364.688C175.988 364.472 176.044 364.268 176.116 364.076C176.196 363.876 176.288 363.684 176.392 363.5C176.496 363.308 176.612 363.108 176.74 362.9L178.888 359.504H180.244L178.108 362.792ZM177.04 365.372C177.04 365.628 177.08 365.864 177.16 366.08C177.248 366.296 177.368 366.484 177.52 366.644C177.68 366.796 177.868 366.916 178.084 367.004C178.3 367.092 178.54 367.136 178.804 367.136C179.068 367.136 179.308 367.092 179.524 367.004C179.74 366.916 179.924 366.796 180.076 366.644C180.236 366.484 180.356 366.296 180.436 366.08C180.524 365.864 180.568 365.628 180.568 365.372C180.568 365.116 180.524 364.88 180.436 364.664C180.356 364.448 180.236 364.264 180.076 364.112C179.924 363.952 179.74 363.828 179.524 363.74C179.308 363.652 179.068 363.608 178.804 363.608C178.54 363.608 178.3 363.652 178.084 363.74C177.868 363.828 177.68 363.952 177.52 364.112C177.368 364.264 177.248 364.448 177.16 364.664C177.08 364.88 177.04 365.116 177.04 365.372ZM185.308 365.6H182.356V364.592H185.308V365.6ZM186.085 366.776L189.493 363.392C189.613 363.28 189.729 363.16 189.841 363.032C189.953 362.896 190.053 362.756 190.141 362.612C190.229 362.468 190.297 362.316 190.345 362.156C190.401 361.996 190.429 361.828 190.429 361.652C190.429 361.444 190.389 361.256 190.309 361.088C190.237 360.92 190.133 360.78 189.997 360.668C189.869 360.548 189.713 360.456 189.529 360.392C189.353 360.328 189.165 360.296 188.965 360.296C188.549 360.296 188.205 360.412 187.933 360.644C187.661 360.876 187.489 361.196 187.417 361.604L186.169 361.496C186.225 361.12 186.333 360.796 186.493 360.524C186.661 360.244 186.865 360.012 187.105 359.828C187.353 359.644 187.633 359.508 187.945 359.42C188.265 359.332 188.609 359.288 188.977 359.288C189.345 359.288 189.689 359.34 190.009 359.444C190.337 359.54 190.621 359.688 190.861 359.888C191.109 360.08 191.301 360.324 191.437 360.62C191.581 360.908 191.653 361.248 191.653 361.64C191.653 361.92 191.609 362.184 191.521 362.432C191.441 362.672 191.333 362.9 191.197 363.116C191.061 363.332 190.905 363.536 190.729 363.728C190.553 363.92 190.369 364.108 190.177 364.292L187.381 366.992H191.653V368H186.085V366.776ZM192.409 363.752C192.409 363.44 192.425 363.116 192.457 362.78C192.489 362.444 192.545 362.116 192.625 361.796C192.713 361.468 192.825 361.156 192.961 360.86C193.105 360.564 193.285 360.308 193.501 360.092C193.725 359.868 193.985 359.692 194.281 359.564C194.585 359.428 194.937 359.36 195.337 359.36C195.737 359.36 196.085 359.428 196.381 359.564C196.685 359.692 196.945 359.868 197.161 360.092C197.385 360.308 197.565 360.564 197.701 360.86C197.845 361.156 197.957 361.468 198.037 361.796C198.125 362.116 198.185 362.444 198.217 362.78C198.249 363.116 198.265 363.44 198.265 363.752C198.265 364.2 198.225 364.68 198.145 365.192C198.065 365.704 197.917 366.18 197.701 366.62C197.485 367.06 197.185 367.424 196.801 367.712C196.425 368 195.937 368.144 195.337 368.144C194.737 368.144 194.245 368 193.861 367.712C193.485 367.424 193.189 367.06 192.973 366.62C192.757 366.18 192.609 365.704 192.529 365.192C192.449 364.68 192.409 364.2 192.409 363.752ZM193.561 363.752C193.561 364.032 193.577 364.364 193.609 364.748C193.649 365.132 193.729 365.504 193.849 365.864C193.969 366.216 194.145 366.516 194.377 366.764C194.617 367.012 194.937 367.136 195.337 367.136C195.737 367.136 196.053 367.012 196.285 366.764C196.525 366.516 196.705 366.216 196.825 365.864C196.945 365.504 197.021 365.132 197.053 364.748C197.093 364.364 197.113 364.032 197.113 363.752C197.113 363.56 197.105 363.344 197.089 363.104C197.081 362.856 197.053 362.608 197.005 362.36C196.965 362.104 196.905 361.86 196.825 361.628C196.745 361.388 196.637 361.176 196.501 360.992C196.373 360.8 196.213 360.648 196.021 360.536C195.829 360.424 195.601 360.368 195.337 360.368C195.073 360.368 194.845 360.424 194.653 360.536C194.461 360.648 194.297 360.8 194.161 360.992C194.033 361.176 193.929 361.388 193.849 361.628C193.769 361.86 193.705 362.104 193.657 362.36C193.617 362.608 193.589 362.856 193.573 363.104C193.565 363.344 193.561 363.56 193.561 363.752ZM199.021 366.776L202.429 363.392C202.549 363.28 202.665 363.16 202.777 363.032C202.889 362.896 202.989 362.756 203.077 362.612C203.165 362.468 203.233 362.316 203.281 362.156C203.337 361.996 203.365 361.828 203.365 361.652C203.365 361.444 203.325 361.256 203.245 361.088C203.173 360.92 203.069 360.78 202.933 360.668C202.805 360.548 202.649 360.456 202.465 360.392C202.289 360.328 202.101 360.296 201.901 360.296C201.485 360.296 201.141 360.412 200.869 360.644C200.597 360.876 200.425 361.196 200.353 361.604L199.105 361.496C199.161 361.12 199.269 360.796 199.429 360.524C199.597 360.244 199.801 360.012 200.041 359.828C200.289 359.644 200.569 359.508 200.881 359.42C201.201 359.332 201.545 359.288 201.913 359.288C202.281 359.288 202.625 359.34 202.945 359.444C203.273 359.54 203.557 359.688 203.797 359.888C204.045 360.08 204.237 360.324 204.373 360.62C204.517 360.908 204.589 361.248 204.589 361.64C204.589 361.92 204.545 362.184 204.457 362.432C204.377 362.672 204.269 362.9 204.133 363.116C203.997 363.332 203.841 363.536 203.665 363.728C203.489 363.92 203.305 364.108 203.113 364.292L200.317 366.992H204.589V368H199.021V366.776ZM208.177 360.824L206.617 362.264L205.945 361.46L208.309 359.504H209.329V368H208.177V360.824Z" fill="#AAB8C6"/>
<path d="M190.5 345V349" stroke="#AAB8C6" stroke-width="0.5" stroke-linecap="square"/>
<path d="M99.408 363.752C99.408 363.44 99.424 363.116 99.456 362.78C99.488 362.444 99.544 362.116 99.624 361.796C99.712 361.468 99.824 361.156 99.96 360.86C100.104 360.564 100.284 360.308 100.5 360.092C100.724 359.868 100.984 359.692 101.28 359.564C101.584 359.428 101.936 359.36 102.336 359.36C102.736 359.36 103.084 359.428 103.38 359.564C103.684 359.692 103.944 359.868 104.16 360.092C104.384 360.308 104.564 360.564 104.7 360.86C104.844 361.156 104.956 361.468 105.036 361.796C105.124 362.116 105.184 362.444 105.216 362.78C105.248 363.116 105.264 363.44 105.264 363.752C105.264 364.2 105.224 364.68 105.144 365.192C105.064 365.704 104.916 366.18 104.7 366.62C104.484 367.06 104.184 367.424 103.8 367.712C103.424 368 102.936 368.144 102.336 368.144C101.736 368.144 101.244 368 100.86 367.712C100.484 367.424 100.188 367.06 99.972 366.62C99.756 366.18 99.608 365.704 99.528 365.192C99.448 364.68 99.408 364.2 99.408 363.752ZM100.56 363.752C100.56 364.032 100.576 364.364 100.608 364.748C100.648 365.132 100.728 365.504 100.848 365.864C100.968 366.216 101.144 366.516 101.376 366.764C101.616 367.012 101.936 367.136 102.336 367.136C102.736 367.136 103.052 367.012 103.284 366.764C103.524 366.516 103.704 366.216 103.824 365.864C103.944 365.504 104.02 365.132 104.052 364.748C104.092 364.364 104.112 364.032 104.112 363.752C104.112 363.56 104.104 363.344 104.088 363.104C104.08 362.856 104.052 362.608 104.004 362.36C103.964 362.104 103.904 361.86 103.824 361.628C103.744 361.388 103.636 361.176 103.5 360.992C103.372 360.8 103.212 360.648 103.02 360.536C102.828 360.424 102.6 360.368 102.336 360.368C102.072 360.368 101.844 360.424 101.652 360.536C101.46 360.648 101.296 360.8 101.16 360.992C101.032 361.176 100.928 361.388 100.848 361.628C100.768 361.86 100.704 362.104 100.656 362.36C100.616 362.608 100.588 362.856 100.572 363.104C100.564 363.344 100.56 363.56 100.56 363.752ZM111.12 360.584H107.676L107.64 362.708C107.696 362.684 107.776 362.66 107.88 362.636C107.984 362.612 108.088 362.592 108.192 362.576C108.304 362.56 108.412 362.548 108.516 362.54C108.62 362.532 108.708 362.528 108.78 362.528C109.18 362.528 109.54 362.596 109.86 362.732C110.188 362.868 110.468 363.06 110.7 363.308C110.932 363.556 111.108 363.852 111.228 364.196C111.356 364.54 111.42 364.92 111.42 365.336C111.42 365.76 111.34 366.144 111.18 366.488C111.028 366.832 110.816 367.128 110.544 367.376C110.272 367.624 109.956 367.816 109.596 367.952C109.236 368.08 108.848 368.144 108.432 368.144C107.856 368.144 107.336 367.996 106.872 367.7C106.408 367.404 106.076 366.98 105.876 366.428L107.04 366.032C107.192 366.424 107.396 366.708 107.652 366.884C107.908 367.052 108.228 367.136 108.612 367.136C108.836 367.136 109.048 367.096 109.248 367.016C109.456 366.936 109.632 366.824 109.776 366.68C109.928 366.528 110.048 366.344 110.136 366.128C110.224 365.912 110.268 365.668 110.268 365.396C110.268 364.772 110.076 364.308 109.692 364.004C109.316 363.692 108.824 363.536 108.216 363.536C108 363.536 107.724 363.576 107.388 363.656C107.06 363.728 106.752 363.836 106.464 363.98L106.56 359.504H111.12V360.584ZM115.308 365.6H112.356V364.592H115.308V365.6ZM116.085 366.776L119.493 363.392C119.613 363.28 119.729 363.16 119.841 363.032C119.953 362.896 120.053 362.756 120.141 362.612C120.229 362.468 120.297 362.316 120.345 362.156C120.401 361.996 120.429 361.828 120.429 361.652C120.429 361.444 120.389 361.256 120.309 361.088C120.237 360.92 120.133 360.78 119.997 360.668C119.869 360.548 119.713 360.456 119.529 360.392C119.353 360.328 119.165 360.296 118.965 360.296C118.549 360.296 118.205 360.412 117.933 360.644C117.661 360.876 117.489 361.196 117.417 361.604L116.169 361.496C116.225 361.12 116.333 360.796 116.493 360.524C116.661 360.244 116.865 360.012 117.105 359.828C117.353 359.644 117.633 359.508 117.945 359.42C118.265 359.332 118.609 359.288 118.977 359.288C119.345 359.288 119.689 359.34 120.009 359.444C120.337 359.54 120.621 359.688 120.861 359.888C121.109 360.08 121.301 360.324 121.437 360.62C121.581 360.908 121.653 361.248 121.653 361.64C121.653 361.92 121.609 362.184 121.521 362.432C121.441 362.672 121.333 362.9 121.197 363.116C121.061 363.332 120.905 363.536 120.729 363.728C120.553 363.92 120.369 364.108 120.177 364.292L117.381 366.992H121.653V368H116.085V366.776ZM122.409 363.752C122.409 363.44 122.425 363.116 122.457 362.78C122.489 362.444 122.545 362.116 122.625 361.796C122.713 361.468 122.825 361.156 122.961 360.86C123.105 360.564 123.285 360.308 123.501 360.092C123.725 359.868 123.985 359.692 124.281 359.564C124.585 359.428 124.937 359.36 125.337 359.36C125.737 359.36 126.085 359.428 126.381 359.564C126.685 359.692 126.945 359.868 127.161 360.092C127.385 360.308 127.565 360.564 127.701 360.86C127.845 361.156 127.957 361.468 128.037 361.796C128.125 362.116 128.185 362.444 128.217 362.78C128.249 363.116 128.265 363.44 128.265 363.752C128.265 364.2 128.225 364.68 128.145 365.192C128.065 365.704 127.917 366.18 127.701 366.62C127.485 367.06 127.185 367.424 126.801 367.712C126.425 368 125.937 368.144 125.337 368.144C124.737 368.144 124.245 368 123.861 367.712C123.485 367.424 123.189 367.06 122.973 366.62C122.757 366.18 122.609 365.704 122.529 365.192C122.449 364.68 122.409 364.2 122.409 363.752ZM123.561 363.752C123.561 364.032 123.577 364.364 123.609 364.748C123.649 365.132 123.729 365.504 123.849 365.864C123.969 366.216 124.145 366.516 124.377 366.764C124.617 367.012 124.937 367.136 125.337 367.136C125.737 367.136 126.053 367.012 126.285 366.764C126.525 366.516 126.705 366.216 126.825 365.864C126.945 365.504 127.021 365.132 127.053 364.748C127.093 364.364 127.113 364.032 127.113 363.752C127.113 363.56 127.105 363.344 127.089 363.104C127.081 362.856 127.053 362.608 127.005 362.36C126.965 362.104 126.905 361.86 126.825 361.628C126.745 361.388 126.637 361.176 126.501 360.992C126.373 360.8 126.213 360.648 126.021 360.536C125.829 360.424 125.601 360.368 125.337 360.368C125.073 360.368 124.845 360.424 124.653 360.536C124.461 360.648 124.297 360.8 124.161 360.992C124.033 361.176 123.929 361.388 123.849 361.628C123.769 361.86 123.705 362.104 123.657 362.36C123.617 362.608 123.589 362.856 123.573 363.104C123.565 363.344 123.561 363.56 123.561 363.752ZM129.021 366.776L132.429 363.392C132.549 363.28 132.665 363.16 132.777 363.032C132.889 362.896 132.989 362.756 133.077 362.612C133.165 362.468 133.233 362.316 133.281 362.156C133.337 361.996 133.365 361.828 133.365 361.652C133.365 361.444 133.325 361.256 133.245 361.088C133.173 360.92 133.069 360.78 132.933 360.668C132.805 360.548 132.649 360.456 132.465 360.392C132.289 360.328 132.101 360.296 131.901 360.296C131.485 360.296 131.141 360.412 130.869 360.644C130.597 360.876 130.425 361.196 130.353 361.604L129.105 361.496C129.161 361.12 129.269 360.796 129.429 360.524C129.597 360.244 129.801 360.012 130.041 359.828C130.289 359.644 130.569 359.508 130.881 359.42C131.201 359.332 131.545 359.288 131.913 359.288C132.281 359.288 132.625 359.34 132.945 359.444C133.273 359.54 133.557 359.688 133.797 359.888C134.045 360.08 134.237 360.324 134.373 360.62C134.517 360.908 134.589 361.248 134.589 361.64C134.589 361.92 134.545 362.184 134.457 362.432C134.377 362.672 134.269 362.9 134.133 363.116C133.997 363.332 133.841 363.536 133.665 363.728C133.489 363.92 133.305 364.108 133.113 364.292L130.317 366.992H134.589V368H129.021V366.776ZM138.177 360.824L136.617 362.264L135.945 361.46L138.309 359.504H139.329V368H138.177V360.824Z" fill="#AAB8C6"/>
<path d="M120.5 345V349" stroke="#AAB8C6" stroke-width="0.5" stroke-linecap="square"/>
<path d="M29.408 363.752C29.408 363.44 29.424 363.116 29.456 362.78C29.488 362.444 29.544 362.116 29.624 361.796C29.712 361.468 29.824 361.156 29.96 360.86C30.104 360.564 30.284 360.308 30.5 360.092C30.724 359.868 30.984 359.692 31.28 359.564C31.584 359.428 31.936 359.36 32.336 359.36C32.736 359.36 33.084 359.428 33.38 359.564C33.684 359.692 33.944 359.868 34.16 360.092C34.384 360.308 34.564 360.564 34.7 360.86C34.844 361.156 34.956 361.468 35.036 361.796C35.124 362.116 35.184 362.444 35.216 362.78C35.248 363.116 35.264 363.44 35.264 363.752C35.264 364.2 35.224 364.68 35.144 365.192C35.064 365.704 34.916 366.18 34.7 366.62C34.484 367.06 34.184 367.424 33.8 367.712C33.424 368 32.936 368.144 32.336 368.144C31.736 368.144 31.244 368 30.86 367.712C30.484 367.424 30.188 367.06 29.972 366.62C29.756 366.18 29.608 365.704 29.528 365.192C29.448 364.68 29.408 364.2 29.408 363.752ZM30.56 363.752C30.56 364.032 30.576 364.364 30.608 364.748C30.648 365.132 30.728 365.504 30.848 365.864C30.968 366.216 31.144 366.516 31.376 366.764C31.616 367.012 31.936 367.136 32.336 367.136C32.736 367.136 33.052 367.012 33.284 366.764C33.524 366.516 33.704 366.216 33.824 365.864C33.944 365.504 34.02 365.132 34.052 364.748C34.092 364.364 34.112 364.032 34.112 363.752C34.112 363.56 34.104 363.344 34.088 363.104C34.08 362.856 34.052 362.608 34.004 362.36C33.964 362.104 33.904 361.86 33.824 361.628C33.744 361.388 33.636 361.176 33.5 360.992C33.372 360.8 33.212 360.648 33.02 360.536C32.828 360.424 32.6 360.368 32.336 360.368C32.072 360.368 31.844 360.424 31.652 360.536C31.46 360.648 31.296 360.8 31.16 360.992C31.032 361.176 30.928 361.388 30.848 361.628C30.768 361.86 30.704 362.104 30.656 362.36C30.616 362.608 30.588 362.856 30.572 363.104C30.564 363.344 30.56 363.56 30.56 363.752ZM39.5 366.128H35.876V364.952L39.26 359.504H40.652V365.12H41.852V366.128H40.652V368H39.5V366.128ZM39.5 360.872H39.476L36.884 365.12H39.5V360.872ZM45.3079 365.6H42.3559V364.592H45.3079V365.6ZM46.0848 366.776L49.4928 363.392C49.6128 363.28 49.7288 363.16 49.8408 363.032C49.9528 362.896 50.0528 362.756 50.1408 362.612C50.2288 362.468 50.2968 362.316 50.3448 362.156C50.4008 361.996 50.4288 361.828 50.4288 361.652C50.4288 361.444 50.3888 361.256 50.3088 361.088C50.2368 360.92 50.1328 360.78 49.9968 360.668C49.8688 360.548 49.7128 360.456 49.5288 360.392C49.3528 360.328 49.1648 360.296 48.9648 360.296C48.5488 360.296 48.2048 360.412 47.9328 360.644C47.6608 360.876 47.4888 361.196 47.4168 361.604L46.1688 361.496C46.2248 361.12 46.3328 360.796 46.4928 360.524C46.6608 360.244 46.8648 360.012 47.1048 359.828C47.3528 359.644 47.6328 359.508 47.9448 359.42C48.2648 359.332 48.6088 359.288 48.9768 359.288C49.3448 359.288 49.6888 359.34 50.0088 359.444C50.3368 359.54 50.6208 359.688 50.8608 359.888C51.1088 360.08 51.3008 360.324 51.4368 360.62C51.5808 360.908 51.6528 361.248 51.6528 361.64C51.6528 361.92 51.6088 362.184 51.5208 362.432C51.4408 362.672 51.3328 362.9 51.1968 363.116C51.0608 363.332 50.9048 363.536 50.7288 363.728C50.5528 363.92 50.3688 364.108 50.1768 364.292L47.3808 366.992H51.6528V368H46.0848V366.776ZM52.4088 363.752C52.4088 363.44 52.4248 363.116 52.4568 362.78C52.4888 362.444 52.5448 362.116 52.6248 361.796C52.7128 361.468 52.8248 361.156 52.9608 360.86C53.1048 360.564 53.2848 360.308 53.5008 360.092C53.7248 359.868 53.9848 359.692 54.2808 359.564C54.5848 359.428 54.9368 359.36 55.3368 359.36C55.7368 359.36 56.0848 359.428 56.3808 359.564C56.6848 359.692 56.9448 359.868 57.1608 360.092C57.3848 360.308 57.5648 360.564 57.7008 360.86C57.8448 361.156 57.9568 361.468 58.0368 361.796C58.1248 362.116 58.1848 362.444 58.2168 362.78C58.2488 363.116 58.2648 363.44 58.2648 363.752C58.2648 364.2 58.2248 364.68 58.1448 365.192C58.0648 365.704 57.9168 366.18 57.7008 366.62C57.4848 367.06 57.1848 367.424 56.8008 367.712C56.4248 368 55.9368 368.144 55.3368 368.144C54.7368 368.144 54.2448 368 53.8608 367.712C53.4848 367.424 53.1888 367.06 52.9728 366.62C52.7568 366.18 52.6088 365.704 52.5288 365.192C52.4488 364.68 52.4088 364.2 52.4088 363.752ZM53.5608 363.752C53.5608 364.032 53.5768 364.364 53.6088 364.748C53.6488 365.132 53.7288 365.504 53.8488 365.864C53.9688 366.216 54.1448 366.516 54.3768 366.764C54.6168 367.012 54.9368 367.136 55.3368 367.136C55.7368 367.136 56.0528 367.012 56.2848 366.764C56.5248 366.516 56.7048 366.216 56.8248 365.864C56.9448 365.504 57.0208 365.132 57.0528 364.748C57.0928 364.364 57.1128 364.032 57.1128 363.752C57.1128 363.56 57.1048 363.344 57.0888 363.104C57.0808 362.856 57.0528 362.608 57.0048 362.36C56.9648 362.104 56.9048 361.86 56.8248 361.628C56.7448 361.388 56.6368 361.176 56.5008 360.992C56.3728 360.8 56.2128 360.648 56.0208 360.536C55.8288 360.424 55.6008 360.368 55.3368 360.368C55.0728 360.368 54.8448 360.424 54.6528 360.536C54.4608 360.648 54.2968 360.8 54.1608 360.992C54.0328 361.176 53.9288 361.388 53.8488 361.628C53.7688 361.86 53.7048 362.104 53.6568 362.36C53.6168 362.608 53.5888 362.856 53.5728 363.104C53.5648 363.344 53.5608 363.56 53.5608 363.752ZM59.0208 366.776L62.4288 363.392C62.5488 363.28 62.6648 363.16 62.7768 363.032C62.8888 362.896 62.9888 362.756 63.0768 362.612C63.1648 362.468 63.2328 362.316 63.2808 362.156C63.3368 361.996 63.3648 361.828 63.3648 361.652C63.3648 361.444 63.3248 361.256 63.2448 361.088C63.1728 360.92 63.0688 360.78 62.9328 360.668C62.8048 360.548 62.6488 360.456 62.4648 360.392C62.2888 360.328 62.1008 360.296 61.9008 360.296C61.4848 360.296 61.1408 360.412 60.8688 360.644C60.5968 360.876 60.4248 361.196 60.3528 361.604L59.1048 361.496C59.1608 361.12 59.2688 360.796 59.4288 360.524C59.5968 360.244 59.8008 360.012 60.0408 359.828C60.2888 359.644 60.5688 359.508 60.8808 359.42C61.2008 359.332 61.5448 359.288 61.9128 359.288C62.2808 359.288 62.6248 359.34 62.9448 359.444C63.2728 359.54 63.5568 359.688 63.7968 359.888C64.0448 360.08 64.2368 360.324 64.3728 360.62C64.5168 360.908 64.5888 361.248 64.5888 361.64C64.5888 361.92 64.5448 362.184 64.4568 362.432C64.3768 362.672 64.2688 362.9 64.1328 363.116C63.9968 363.332 63.8408 363.536 63.6648 363.728C63.4888 363.92 63.3048 364.108 63.1128 364.292L60.3168 366.992H64.5888V368H59.0208V366.776ZM68.1767 360.824L66.6167 362.264L65.9447 361.46L68.3087 359.504H69.3287V368H68.1767V360.824Z" fill="#AAB8C6"/>
<path d="M50.5 345V349" stroke="#AAB8C6" stroke-width="0.5" stroke-linecap="square"/>
<path d="M239.408 363.752C239.408 363.44 239.424 363.116 239.456 362.78C239.488 362.444 239.544 362.116 239.624 361.796C239.712 361.468 239.824 361.156 239.96 360.86C240.104 360.564 240.284 360.308 240.5 360.092C240.724 359.868 240.984 359.692 241.28 359.564C241.584 359.428 241.936 359.36 242.336 359.36C242.736 359.36 243.084 359.428 243.38 359.564C243.684 359.692 243.944 359.868 244.16 360.092C244.384 360.308 244.564 360.564 244.7 360.86C244.844 361.156 244.956 361.468 245.036 361.796C245.124 362.116 245.184 362.444 245.216 362.78C245.248 363.116 245.264 363.44 245.264 363.752C245.264 364.2 245.224 364.68 245.144 365.192C245.064 365.704 244.916 366.18 244.7 366.62C244.484 367.06 244.184 367.424 243.8 367.712C243.424 368 242.936 368.144 242.336 368.144C241.736 368.144 241.244 368 240.86 367.712C240.484 367.424 240.188 367.06 239.972 366.62C239.756 366.18 239.608 365.704 239.528 365.192C239.448 364.68 239.408 364.2 239.408 363.752ZM240.56 363.752C240.56 364.032 240.576 364.364 240.608 364.748C240.648 365.132 240.728 365.504 240.848 365.864C240.968 366.216 241.144 366.516 241.376 366.764C241.616 367.012 241.936 367.136 242.336 367.136C242.736 367.136 243.052 367.012 243.284 366.764C243.524 366.516 243.704 366.216 243.824 365.864C243.944 365.504 244.02 365.132 244.052 364.748C244.092 364.364 244.112 364.032 244.112 363.752C244.112 363.56 244.104 363.344 244.088 363.104C244.08 362.856 244.052 362.608 244.004 362.36C243.964 362.104 243.904 361.86 243.824 361.628C243.744 361.388 243.636 361.176 243.5 360.992C243.372 360.8 243.212 360.648 243.02 360.536C242.828 360.424 242.6 360.368 242.336 360.368C242.072 360.368 241.844 360.424 241.652 360.536C241.46 360.648 241.296 360.8 241.16 360.992C241.032 361.176 240.928 361.388 240.848 361.628C240.768 361.86 240.704 362.104 240.656 362.36C240.616 362.608 240.588 362.856 240.572 363.104C240.564 363.344 240.56 363.56 240.56 363.752ZM250.076 360.512H245.972V359.504H251.312V360.488L247.928 368H246.632L250.076 360.512ZM255.308 365.6H252.356V364.592H255.308V365.6ZM256.085 366.776L259.493 363.392C259.613 363.28 259.729 363.16 259.841 363.032C259.953 362.896 260.053 362.756 260.141 362.612C260.229 362.468 260.297 362.316 260.345 362.156C260.401 361.996 260.429 361.828 260.429 361.652C260.429 361.444 260.389 361.256 260.309 361.088C260.237 360.92 260.133 360.78 259.997 360.668C259.869 360.548 259.713 360.456 259.529 360.392C259.353 360.328 259.165 360.296 258.965 360.296C258.549 360.296 258.205 360.412 257.933 360.644C257.661 360.876 257.489 361.196 257.417 361.604L256.169 361.496C256.225 361.12 256.333 360.796 256.493 360.524C256.661 360.244 256.865 360.012 257.105 359.828C257.353 359.644 257.633 359.508 257.945 359.42C258.265 359.332 258.609 359.288 258.977 359.288C259.345 359.288 259.689 359.34 260.009 359.444C260.337 359.54 260.621 359.688 260.861 359.888C261.109 360.08 261.301 360.324 261.437 360.62C261.581 360.908 261.653 361.248 261.653 361.64C261.653 361.92 261.609 362.184 261.521 362.432C261.441 362.672 261.333 362.9 261.197 363.116C261.061 363.332 260.905 363.536 260.729 363.728C260.553 363.92 260.369 364.108 260.177 364.292L257.381 366.992H261.653V368H256.085V366.776ZM262.409 363.752C262.409 363.44 262.425 363.116 262.457 362.78C262.489 362.444 262.545 362.116 262.625 361.796C262.713 361.468 262.825 361.156 262.961 360.86C263.105 360.564 263.285 360.308 263.501 360.092C263.725 359.868 263.985 359.692 264.281 359.564C264.585 359.428 264.937 359.36 265.337 359.36C265.737 359.36 266.085 359.428 266.381 359.564C266.685 359.692 266.945 359.868 267.161 360.092C267.385 360.308 267.565 360.564 267.701 360.86C267.845 361.156 267.957 361.468 268.037 361.796C268.125 362.116 268.185 362.444 268.217 362.78C268.249 363.116 268.265 363.44 268.265 363.752C268.265 364.2 268.225 364.68 268.145 365.192C268.065 365.704 267.917 366.18 267.701 366.62C267.485 367.06 267.185 367.424 266.801 367.712C266.425 368 265.937 368.144 265.337 368.144C264.737 368.144 264.245 368 263.861 367.712C263.485 367.424 263.189 367.06 262.973 366.62C262.757 366.18 262.609 365.704 262.529 365.192C262.449 364.68 262.409 364.2 262.409 363.752ZM263.561 363.752C263.561 364.032 263.577 364.364 263.609 364.748C263.649 365.132 263.729 365.504 263.849 365.864C263.969 366.216 264.145 366.516 264.377 366.764C264.617 367.012 264.937 367.136 265.337 367.136C265.737 367.136 266.053 367.012 266.285 366.764C266.525 366.516 266.705 366.216 266.825 365.864C266.945 365.504 267.021 365.132 267.053 364.748C267.093 364.364 267.113 364.032 267.113 363.752C267.113 363.56 267.105 363.344 267.089 363.104C267.081 362.856 267.053 362.608 267.005 362.36C266.965 362.104 266.905 361.86 266.825 361.628C266.745 361.388 266.637 361.176 266.501 360.992C266.373 360.8 266.213 360.648 266.021 360.536C265.829 360.424 265.601 360.368 265.337 360.368C265.073 360.368 264.845 360.424 264.653 360.536C264.461 360.648 264.297 360.8 264.161 360.992C264.033 361.176 263.929 361.388 263.849 361.628C263.769 361.86 263.705 362.104 263.657 362.36C263.617 362.608 263.589 362.856 263.573 363.104C263.565 363.344 263.561 363.56 263.561 363.752ZM269.021 366.776L272.429 363.392C272.549 363.28 272.665 363.16 272.777 363.032C272.889 362.896 272.989 362.756 273.077 362.612C273.165 362.468 273.233 362.316 273.281 362.156C273.337 361.996 273.365 361.828 273.365 361.652C273.365 361.444 273.325 361.256 273.245 361.088C273.173 360.92 273.069 360.78 272.933 360.668C272.805 360.548 272.649 360.456 272.465 360.392C272.289 360.328 272.101 360.296 271.901 360.296C271.485 360.296 271.141 360.412 270.869 360.644C270.597 360.876 270.425 361.196 270.353 361.604L269.105 361.496C269.161 361.12 269.269 360.796 269.429 360.524C269.597 360.244 269.801 360.012 270.041 359.828C270.289 359.644 270.569 359.508 270.881 359.42C271.201 359.332 271.545 359.288 271.913 359.288C272.281 359.288 272.625 359.34 272.945 359.444C273.273 359.54 273.557 359.688 273.797 359.888C274.045 360.08 274.237 360.324 274.373 360.62C274.517 360.908 274.589 361.248 274.589 361.64C274.589 361.92 274.545 362.184 274.457 362.432C274.377 362.672 274.269 362.9 274.133 363.116C273.997 363.332 273.841 363.536 273.665 363.728C273.489 363.92 273.305 364.108 273.113 364.292L270.317 366.992H274.589V368H269.021V366.776ZM278.177 360.824L276.617 362.264L275.945 361.46L278.309 359.504H279.329V368H278.177V360.824Z" fill="#AAB8C6"/>
<path d="M260.5 345V349" stroke="#AAB8C6" stroke-width="0.5" stroke-linecap="square"/>
<path d="M309.408 363.752C309.408 363.44 309.424 363.116 309.456 362.78C309.488 362.444 309.544 362.116 309.624 361.796C309.712 361.468 309.824 361.156 309.96 360.86C310.104 360.564 310.284 360.308 310.5 360.092C310.724 359.868 310.984 359.692 311.28 359.564C311.584 359.428 311.936 359.36 312.336 359.36C312.736 359.36 313.084 359.428 313.38 359.564C313.684 359.692 313.944 359.868 314.16 360.092C314.384 360.308 314.564 360.564 314.7 360.86C314.844 361.156 314.956 361.468 315.036 361.796C315.124 362.116 315.184 362.444 315.216 362.78C315.248 363.116 315.264 363.44 315.264 363.752C315.264 364.2 315.224 364.68 315.144 365.192C315.064 365.704 314.916 366.18 314.7 366.62C314.484 367.06 314.184 367.424 313.8 367.712C313.424 368 312.936 368.144 312.336 368.144C311.736 368.144 311.244 368 310.86 367.712C310.484 367.424 310.188 367.06 309.972 366.62C309.756 366.18 309.608 365.704 309.528 365.192C309.448 364.68 309.408 364.2 309.408 363.752ZM310.56 363.752C310.56 364.032 310.576 364.364 310.608 364.748C310.648 365.132 310.728 365.504 310.848 365.864C310.968 366.216 311.144 366.516 311.376 366.764C311.616 367.012 311.936 367.136 312.336 367.136C312.736 367.136 313.052 367.012 313.284 366.764C313.524 366.516 313.704 366.216 313.824 365.864C313.944 365.504 314.02 365.132 314.052 364.748C314.092 364.364 314.112 364.032 314.112 363.752C314.112 363.56 314.104 363.344 314.088 363.104C314.08 362.856 314.052 362.608 314.004 362.36C313.964 362.104 313.904 361.86 313.824 361.628C313.744 361.388 313.636 361.176 313.5 360.992C313.372 360.8 313.212 360.648 313.02 360.536C312.828 360.424 312.6 360.368 312.336 360.368C312.072 360.368 311.844 360.424 311.652 360.536C311.46 360.648 311.296 360.8 311.16 360.992C311.032 361.176 310.928 361.388 310.848 361.628C310.768 361.86 310.704 362.104 310.656 362.36C310.616 362.608 310.588 362.856 310.572 363.104C310.564 363.344 310.56 363.56 310.56 363.752ZM318.804 368.144C318.42 368.144 318.056 368.088 317.712 367.976C317.376 367.856 317.084 367.684 316.836 367.46C316.588 367.236 316.392 366.964 316.248 366.644C316.104 366.324 316.032 365.964 316.032 365.564C316.032 365.3 316.072 365.056 316.152 364.832C316.24 364.608 316.356 364.408 316.5 364.232C316.644 364.048 316.812 363.896 317.004 363.776C317.204 363.648 317.42 363.552 317.652 363.488V363.452C317.492 363.412 317.332 363.34 317.172 363.236C317.012 363.132 316.868 363 316.74 362.84C316.62 362.68 316.52 362.488 316.44 362.264C316.36 362.032 316.32 361.768 316.32 361.472C316.32 361.152 316.384 360.864 316.512 360.608C316.648 360.344 316.828 360.12 317.052 359.936C317.284 359.752 317.548 359.612 317.844 359.516C318.148 359.412 318.468 359.36 318.804 359.36C319.14 359.36 319.456 359.412 319.752 359.516C320.056 359.612 320.32 359.752 320.544 359.936C320.776 360.12 320.956 360.344 321.084 360.608C321.22 360.864 321.288 361.152 321.288 361.472C321.288 361.768 321.248 362.032 321.168 362.264C321.088 362.488 320.984 362.68 320.856 362.84C320.736 363 320.596 363.132 320.436 363.236C320.276 363.34 320.116 363.412 319.956 363.452V363.488C320.188 363.552 320.4 363.648 320.592 363.776C320.792 363.896 320.964 364.048 321.108 364.232C321.252 364.408 321.364 364.608 321.444 364.832C321.532 365.056 321.576 365.3 321.576 365.564C321.576 365.964 321.504 366.324 321.36 366.644C321.216 366.964 321.02 367.236 320.772 367.46C320.524 367.684 320.228 367.856 319.884 367.976C319.548 368.088 319.188 368.144 318.804 368.144ZM317.472 361.64C317.472 361.808 317.5 361.972 317.556 362.132C317.62 362.292 317.708 362.436 317.82 362.564C317.932 362.684 318.068 362.784 318.228 362.864C318.396 362.944 318.588 362.984 318.804 362.984C319.028 362.984 319.22 362.948 319.38 362.876C319.548 362.796 319.688 362.696 319.8 362.576C319.912 362.448 319.996 362.304 320.052 362.144C320.108 361.984 320.136 361.816 320.136 361.64C320.136 361.248 320.012 360.928 319.764 360.68C319.524 360.424 319.204 360.296 318.804 360.296C318.436 360.296 318.12 360.42 317.856 360.668C317.6 360.916 317.472 361.24 317.472 361.64ZM318.804 367.136C319.284 367.136 319.672 366.992 319.968 366.704C320.272 366.408 320.424 366.028 320.424 365.564C320.424 365.308 320.38 365.084 320.292 364.892C320.212 364.692 320.096 364.528 319.944 364.4C319.8 364.264 319.628 364.164 319.428 364.1C319.236 364.028 319.028 363.992 318.804 363.992C318.332 364 317.944 364.152 317.64 364.448C317.336 364.736 317.184 365.108 317.184 365.564C317.184 365.812 317.228 366.036 317.316 366.236C317.404 366.428 317.52 366.592 317.664 366.728C317.816 366.856 317.988 366.956 318.18 367.028C318.38 367.1 318.588 367.136 318.804 367.136ZM325.308 365.6H322.356V364.592H325.308V365.6ZM326.085 366.776L329.493 363.392C329.613 363.28 329.729 363.16 329.841 363.032C329.953 362.896 330.053 362.756 330.141 362.612C330.229 362.468 330.297 362.316 330.345 362.156C330.401 361.996 330.429 361.828 330.429 361.652C330.429 361.444 330.389 361.256 330.309 361.088C330.237 360.92 330.133 360.78 329.997 360.668C329.869 360.548 329.713 360.456 329.529 360.392C329.353 360.328 329.165 360.296 328.965 360.296C328.549 360.296 328.205 360.412 327.933 360.644C327.661 360.876 327.489 361.196 327.417 361.604L326.169 361.496C326.225 361.12 326.333 360.796 326.493 360.524C326.661 360.244 326.865 360.012 327.105 359.828C327.353 359.644 327.633 359.508 327.945 359.42C328.265 359.332 328.609 359.288 328.977 359.288C329.345 359.288 329.689 359.34 330.009 359.444C330.337 359.54 330.621 359.688 330.861 359.888C331.109 360.08 331.301 360.324 331.437 360.62C331.581 360.908 331.653 361.248 331.653 361.64C331.653 361.92 331.609 362.184 331.521 362.432C331.441 362.672 331.333 362.9 331.197 363.116C331.061 363.332 330.905 363.536 330.729 363.728C330.553 363.92 330.369 364.108 330.177 364.292L327.381 366.992H331.653V368H326.085V366.776ZM332.409 363.752C332.409 363.44 332.425 363.116 332.457 362.78C332.489 362.444 332.545 362.116 332.625 361.796C332.713 361.468 332.825 361.156 332.961 360.86C333.105 360.564 333.285 360.308 333.501 360.092C333.725 359.868 333.985 359.692 334.281 359.564C334.585 359.428 334.937 359.36 335.337 359.36C335.737 359.36 336.085 359.428 336.381 359.564C336.685 359.692 336.945 359.868 337.161 360.092C337.385 360.308 337.565 360.564 337.701 360.86C337.845 361.156 337.957 361.468 338.037 361.796C338.125 362.116 338.185 362.444 338.217 362.78C338.249 363.116 338.265 363.44 338.265 363.752C338.265 364.2 338.225 364.68 338.145 365.192C338.065 365.704 337.917 366.18 337.701 366.62C337.485 367.06 337.185 367.424 336.801 367.712C336.425 368 335.937 368.144 335.337 368.144C334.737 368.144 334.245 368 333.861 367.712C333.485 367.424 333.189 367.06 332.973 366.62C332.757 366.18 332.609 365.704 332.529 365.192C332.449 364.68 332.409 364.2 332.409 363.752ZM333.561 363.752C333.561 364.032 333.577 364.364 333.609 364.748C333.649 365.132 333.729 365.504 333.849 365.864C333.969 366.216 334.145 366.516 334.377 366.764C334.617 367.012 334.937 367.136 335.337 367.136C335.737 367.136 336.053 367.012 336.285 366.764C336.525 366.516 336.705 366.216 336.825 365.864C336.945 365.504 337.021 365.132 337.053 364.748C337.093 364.364 337.113 364.032 337.113 363.752C337.113 363.56 337.105 363.344 337.089 363.104C337.081 362.856 337.053 362.608 337.005 362.36C336.965 362.104 336.905 361.86 336.825 361.628C336.745 361.388 336.637 361.176 336.501 360.992C336.373 360.8 336.213 360.648 336.021 360.536C335.829 360.424 335.601 360.368 335.337 360.368C335.073 360.368 334.845 360.424 334.653 360.536C334.461 360.648 334.297 360.8 334.161 360.992C334.033 361.176 333.929 361.388 333.849 361.628C333.769 361.86 333.705 362.104 333.657 362.36C333.617 362.608 333.589 362.856 333.573 363.104C333.565 363.344 333.561 363.56 333.561 363.752ZM339.021 366.776L342.429 363.392C342.549 363.28 342.665 363.16 342.777 363.032C342.889 362.896 342.989 362.756 343.077 362.612C343.165 362.468 343.233 362.316 343.281 362.156C343.337 361.996 343.365 361.828 343.365 361.652C343.365 361.444 343.325 361.256 343.245 361.088C343.173 360.92 343.069 360.78 342.933 360.668C342.805 360.548 342.649 360.456 342.465 360.392C342.289 360.328 342.101 360.296 341.901 360.296C341.485 360.296 341.141 360.412 340.869 360.644C340.597 360.876 340.425 361.196 340.353 361.604L339.105 361.496C339.161 361.12 339.269 360.796 339.429 360.524C339.597 360.244 339.801 360.012 340.041 359.828C340.289 359.644 340.569 359.508 340.881 359.42C341.201 359.332 341.545 359.288 341.913 359.288C342.281 359.288 342.625 359.34 342.945 359.444C343.273 359.54 343.557 359.688 343.797 359.888C344.045 360.08 344.237 360.324 344.373 360.62C344.517 360.908 344.589 361.248 344.589 361.64C344.589 361.92 344.545 362.184 344.457 362.432C344.377 362.672 344.269 362.9 344.133 363.116C343.997 363.332 343.841 363.536 343.665 363.728C343.489 363.92 343.305 364.108 343.113 364.292L340.317 366.992H344.589V368H339.021V366.776ZM348.177 360.824L346.617 362.264L345.945 361.46L348.309 359.504H349.329V368H348.177V360.824Z" fill="#AAB8C6"/>
<path d="M330.5 345V349" stroke="#AAB8C6" stroke-width="0.5" stroke-linecap="square"/>
<path d="M379.408 363.752C379.408 363.44 379.424 363.116 379.456 362.78C379.488 362.444 379.544 362.116 379.624 361.796C379.712 361.468 379.824 361.156 379.96 360.86C380.104 360.564 380.284 360.308 380.5 360.092C380.724 359.868 380.984 359.692 381.28 359.564C381.584 359.428 381.936 359.36 382.336 359.36C382.736 359.36 383.084 359.428 383.38 359.564C383.684 359.692 383.944 359.868 384.16 360.092C384.384 360.308 384.564 360.564 384.7 360.86C384.844 361.156 384.956 361.468 385.036 361.796C385.124 362.116 385.184 362.444 385.216 362.78C385.248 363.116 385.264 363.44 385.264 363.752C385.264 364.2 385.224 364.68 385.144 365.192C385.064 365.704 384.916 366.18 384.7 366.62C384.484 367.06 384.184 367.424 383.8 367.712C383.424 368 382.936 368.144 382.336 368.144C381.736 368.144 381.244 368 380.86 367.712C380.484 367.424 380.188 367.06 379.972 366.62C379.756 366.18 379.608 365.704 379.528 365.192C379.448 364.68 379.408 364.2 379.408 363.752ZM380.56 363.752C380.56 364.032 380.576 364.364 380.608 364.748C380.648 365.132 380.728 365.504 380.848 365.864C380.968 366.216 381.144 366.516 381.376 366.764C381.616 367.012 381.936 367.136 382.336 367.136C382.736 367.136 383.052 367.012 383.284 366.764C383.524 366.516 383.704 366.216 383.824 365.864C383.944 365.504 384.02 365.132 384.052 364.748C384.092 364.364 384.112 364.032 384.112 363.752C384.112 363.56 384.104 363.344 384.088 363.104C384.08 362.856 384.052 362.608 384.004 362.36C383.964 362.104 383.904 361.86 383.824 361.628C383.744 361.388 383.636 361.176 383.5 360.992C383.372 360.8 383.212 360.648 383.02 360.536C382.828 360.424 382.6 360.368 382.336 360.368C382.072 360.368 381.844 360.424 381.652 360.536C381.46 360.648 381.296 360.8 381.16 360.992C381.032 361.176 380.928 361.388 380.848 361.628C380.768 361.86 380.704 362.104 380.656 362.36C380.616 362.608 380.588 362.856 380.572 363.104C380.564 363.344 380.56 363.56 380.56 363.752ZM389.5 364.712H389.452C389.188 364.84 388.876 364.904 388.516 364.904C388.212 364.904 387.904 364.852 387.592 364.748C387.28 364.644 386.996 364.484 386.74 364.268C386.492 364.044 386.288 363.764 386.128 363.428C385.968 363.084 385.888 362.68 385.888 362.216C385.888 361.752 385.964 361.344 386.116 360.992C386.276 360.632 386.488 360.332 386.752 360.092C387.016 359.852 387.324 359.672 387.676 359.552C388.028 359.424 388.404 359.36 388.804 359.36C389.204 359.36 389.58 359.424 389.932 359.552C390.284 359.68 390.592 359.864 390.856 360.104C391.12 360.344 391.328 360.632 391.48 360.968C391.64 361.304 391.72 361.68 391.72 362.096C391.72 362.36 391.7 362.6 391.66 362.816C391.62 363.032 391.56 363.24 391.48 363.44C391.408 363.632 391.32 363.824 391.216 364.016C391.112 364.208 390.996 364.404 390.868 364.604L388.72 368H387.364L389.5 364.712ZM390.568 362.132C390.568 361.876 390.524 361.64 390.436 361.424C390.356 361.208 390.236 361.024 390.076 360.872C389.924 360.712 389.74 360.588 389.524 360.5C389.308 360.412 389.068 360.368 388.804 360.368C388.54 360.368 388.3 360.412 388.084 360.5C387.868 360.588 387.68 360.712 387.52 360.872C387.368 361.024 387.248 361.208 387.16 361.424C387.08 361.64 387.04 361.876 387.04 362.132C387.04 362.388 387.08 362.624 387.16 362.84C387.248 363.056 387.368 363.244 387.52 363.404C387.68 363.556 387.868 363.676 388.084 363.764C388.3 363.852 388.54 363.896 388.804 363.896C389.068 363.896 389.308 363.852 389.524 363.764C389.74 363.676 389.924 363.556 390.076 363.404C390.236 363.244 390.356 363.056 390.436 362.84C390.524 362.624 390.568 362.388 390.568 362.132ZM395.308 365.6H392.356V364.592H395.308V365.6ZM396.085 366.776L399.493 363.392C399.613 363.28 399.729 363.16 399.841 363.032C399.953 362.896 400.053 362.756 400.141 362.612C400.229 362.468 400.297 362.316 400.345 362.156C400.401 361.996 400.429 361.828 400.429 361.652C400.429 361.444 400.389 361.256 400.309 361.088C400.237 360.92 400.133 360.78 399.997 360.668C399.869 360.548 399.713 360.456 399.529 360.392C399.353 360.328 399.165 360.296 398.965 360.296C398.549 360.296 398.205 360.412 397.933 360.644C397.661 360.876 397.489 361.196 397.417 361.604L396.169 361.496C396.225 361.12 396.333 360.796 396.493 360.524C396.661 360.244 396.865 360.012 397.105 359.828C397.353 359.644 397.633 359.508 397.945 359.42C398.265 359.332 398.609 359.288 398.977 359.288C399.345 359.288 399.689 359.34 400.009 359.444C400.337 359.54 400.621 359.688 400.861 359.888C401.109 360.08 401.301 360.324 401.437 360.62C401.581 360.908 401.653 361.248 401.653 361.64C401.653 361.92 401.609 362.184 401.521 362.432C401.441 362.672 401.333 362.9 401.197 363.116C401.061 363.332 400.905 363.536 400.729 363.728C400.553 363.92 400.369 364.108 400.177 364.292L397.381 366.992H401.653V368H396.085V366.776ZM402.409 363.752C402.409 363.44 402.425 363.116 402.457 362.78C402.489 362.444 402.545 362.116 402.625 361.796C402.713 361.468 402.825 361.156 402.961 360.86C403.105 360.564 403.285 360.308 403.501 360.092C403.725 359.868 403.985 359.692 404.281 359.564C404.585 359.428 404.937 359.36 405.337 359.36C405.737 359.36 406.085 359.428 406.381 359.564C406.685 359.692 406.945 359.868 407.161 360.092C407.385 360.308 407.565 360.564 407.701 360.86C407.845 361.156 407.957 361.468 408.037 361.796C408.125 362.116 408.185 362.444 408.217 362.78C408.249 363.116 408.265 363.44 408.265 363.752C408.265 364.2 408.225 364.68 408.145 365.192C408.065 365.704 407.917 366.18 407.701 366.62C407.485 367.06 407.185 367.424 406.801 367.712C406.425 368 405.937 368.144 405.337 368.144C404.737 368.144 404.245 368 403.861 367.712C403.485 367.424 403.189 367.06 402.973 366.62C402.757 366.18 402.609 365.704 402.529 365.192C402.449 364.68 402.409 364.2 402.409 363.752ZM403.561 363.752C403.561 364.032 403.577 364.364 403.609 364.748C403.649 365.132 403.729 365.504 403.849 365.864C403.969 366.216 404.145 366.516 404.377 366.764C404.617 367.012 404.937 367.136 405.337 367.136C405.737 367.136 406.053 367.012 406.285 366.764C406.525 366.516 406.705 366.216 406.825 365.864C406.945 365.504 407.021 365.132 407.053 364.748C407.093 364.364 407.113 364.032 407.113 363.752C407.113 363.56 407.105 363.344 407.089 363.104C407.081 362.856 407.053 362.608 407.005 362.36C406.965 362.104 406.905 361.86 406.825 361.628C406.745 361.388 406.637 361.176 406.501 360.992C406.373 360.8 406.213 360.648 406.021 360.536C405.829 360.424 405.601 360.368 405.337 360.368C405.073 360.368 404.845 360.424 404.653 360.536C404.461 360.648 404.297 360.8 404.161 360.992C404.033 361.176 403.929 361.388 403.849 361.628C403.769 361.86 403.705 362.104 403.657 362.36C403.617 362.608 403.589 362.856 403.573 363.104C403.565 363.344 403.561 363.56 403.561 363.752ZM409.021 366.776L412.429 363.392C412.549 363.28 412.665 363.16 412.777 363.032C412.889 362.896 412.989 362.756 413.077 362.612C413.165 362.468 413.233 362.316 413.281 362.156C413.337 361.996 413.365 361.828 413.365 361.652C413.365 361.444 413.325 361.256 413.245 361.088C413.173 360.92 413.069 360.78 412.933 360.668C412.805 360.548 412.649 360.456 412.465 360.392C412.289 360.328 412.101 360.296 411.901 360.296C411.485 360.296 411.141 360.412 410.869 360.644C410.597 360.876 410.425 361.196 410.353 361.604L409.105 361.496C409.161 361.12 409.269 360.796 409.429 360.524C409.597 360.244 409.801 360.012 410.041 359.828C410.289 359.644 410.569 359.508 410.881 359.42C411.201 359.332 411.545 359.288 411.913 359.288C412.281 359.288 412.625 359.34 412.945 359.444C413.273 359.54 413.557 359.688 413.797 359.888C414.045 360.08 414.237 360.324 414.373 360.62C414.517 360.908 414.589 361.248 414.589 361.64C414.589 361.92 414.545 362.184 414.457 362.432C414.377 362.672 414.269 362.9 414.133 363.116C413.997 363.332 413.841 363.536 413.665 363.728C413.489 363.92 413.305 364.108 413.113 364.292L410.317 366.992H414.589V368H409.021V366.776ZM418.177 360.824L416.617 362.264L415.945 361.46L418.309 359.504H419.329V368H418.177V360.824Z" fill="#AAB8C6"/>
<path d="M400.5 345V349" stroke="#AAB8C6" stroke-width="0.5" stroke-linecap="square"/>
<defs>
<linearGradient id="paint0_linear" x1="421" y1="325" x2="421" y2="108" gradientUnits="userSpaceOnUse">
<stop stop-color="white"/>
<stop offset="1" stop-color="#60B2FF"/>
</linearGradient>
</defs>
</svg>
