<svg width="34" height="24" fill="none" xmlns="http://www.w3.org/2000/svg"><path d="M26.578 24C30.727 24 34 20.909 34 17.048c0-2.861-1.61-5.412-4.257-6.533C29.757 4.4 25.42 0 19.847 0c-3.539 0-6.2 1.863-7.862 4.306-3.379-.918-6.93 1.633-7.063 5.44C1.876 10.299 0 13.08 0 16.454 0 20.571 3.538 24 8.194 24h18.383zM9.538 13.593c0-2.295 1.809-4.144 4.057-4.144 1.689 0 3.179 1.012 3.79 2.591h6.066a.66.66 0 0 1 .48.203l1.037 1.08a.425.425 0 0 1-.013.58l-1.956 1.984c-.173.19-.425.176-.598 0l-1.144-1.16-1.583 1.633c-.16.175-.413.162-.599-.027l-1.57-1.566c-.784 1.89-2.208 2.956-3.91 2.956-2.235 0-4.057-1.849-4.057-4.13zm4.456-.014c0-.688-.546-1.242-1.237-1.242-.679 0-1.237.54-1.237 1.242 0 .689.558 1.256 1.237 1.256.691 0 1.237-.567 1.237-1.256z" fill="#000"/></svg>