<svg width="40" height="40" fill="none" xmlns="http://www.w3.org/2000/svg"><path d="M40 20c0 10.686-8.38 19.415-18.927 19.971a20.286 20.286 0 0 1-4.164-.209 19.816 19.816 0 0 1-6.371-2.138 20.077 20.077 0 0 1-7.089-6.393A19.904 19.904 0 0 1 0 20C0 8.954 8.954 0 20 0s20 8.954 20 20z" fill="url(#a)"/><path d="M34.536 13.783c-.476-1.27-1.34-2.372-2.593-3.31-.727-.544-1.677-1.031-2.806-1.475l1.25-4.803-3.95-1.028-1.208 4.64-2.54-.66 1.207-4.64-3.95-1.03-1.208 4.641-8.386-2.182L9.336 7.84l1.11.29c.74.191 1.226.39 1.455.594.226.202.365.433.413.69.051.258-.037.804-.254 1.64l-4.097 15.74c-.214.822-.406 1.339-.575 1.546-.169.21-.4.343-.697.403-.298.058-1.18-.102-1.92-.293l-1.322 2.78c.303.446.623.878.96 1.296l6.983 1.817-.854 3.28c1.201.647 2.475 1.173 3.808 1.565l.994-3.817 2.454.64.086.019-.97 3.732a20.093 20.093 0 0 0 4.163.208l.818-3.142c1.32.167 2.456.192 3.401.071 1.822-.231 3.35-.86 4.58-1.888 1.231-1.025 2.042-2.287 2.432-3.786.323-1.252.32-2.465-.006-3.64a6.514 6.514 0 0 0-1.788-3.002c-.593-.585-1.51-1.221-2.742-1.9 1.342-.098 2.467-.37 3.389-.814a6.953 6.953 0 0 0 2.302-1.769 6.292 6.292 0 0 0 1.288-2.494c.334-1.28.262-2.556-.211-3.824zM25.17 28.577c-.254.982-.75 1.752-1.483 2.311-.735.556-1.526.845-2.371.863-.844.018-1.866-.127-3.064-.44l-2.06-.536c-.687-.178-1.096-.325-1.232-.44a.686.686 0 0 1-.23-.481c-.018-.164.08-.674.292-1.545l1.59-6.11 3.652.95c1.603.418 2.755.877 3.46 1.377.702.498 1.174 1.09 1.413 1.772.24.683.25 1.442.033 2.28zm2.462-11.694c-.185.715-.545 1.294-1.08 1.738-.532.446-1.223.702-2.068.77-.846.067-2.077-.108-3.697-.53l-3.094-.806 1.791-6.881 3.094.805c1.81.47 3.034.91 3.677 1.314.642.405 1.08.92 1.316 1.541.232.623.255 1.306.06 2.05z" fill="#fff"/><defs><linearGradient id="a" x1="-5.5" y1="5" x2="43" y2="37" gradientUnits="userSpaceOnUse"><stop stop-color="#0AAAFE"/><stop offset="1" stop-color="#3789F0"/></linearGradient></defs></svg>