<svg width="1440" height="776" viewBox="0 0 1440 776" fill="none" xmlns="http://www.w3.org/2000/svg">
<mask id="mask0" style="mask-type:alpha" maskUnits="userSpaceOnUse" x="0" y="0" width="1440" height="776">
<rect width="1440" height="776" fill="url(#paint0_linear)"/>
</mask>
<g mask="url(#mask0)">
<path d="M1696.32 427.827H1468.32L1362.91 322.422H805.622V320.365H1363.76L1469.17 425.776H1696.32V427.827Z" fill="#AAB8C6"/>
<path d="M1212.55 267.669H766.665V265.618H1211.7L1297.46 179.855H1631.98V181.906H1298.31L1212.55 267.669Z" fill="#AAB8C6"/>
<path d="M1368.16 481.041H1260.79L1163.44 383.695H757.833V381.639H1164.29L1261.64 478.985H1368.16V481.041Z" fill="#AAB8C6"/>
<path d="M1582.11 598.78H1256.44L1103.92 446.264H721.782V444.207H1104.77L1257.29 596.723H1582.11V598.78Z" fill="#AAB8C6"/>
<path d="M1146.02 218.351H734.299V216.294H1145.17L1281.71 79.741H1507.53V81.7975H1282.56L1146.02 218.351Z" fill="#AAB8C6"/>
<path d="M1377.79 480.013C1377.79 481.917 1377.22 483.779 1376.17 485.363C1375.11 486.947 1373.6 488.182 1371.85 488.911C1370.09 489.641 1368.15 489.832 1366.28 489.46C1364.41 489.089 1362.7 488.172 1361.35 486.826C1360.01 485.479 1359.09 483.763 1358.72 481.895C1358.35 480.027 1358.54 478.091 1359.27 476.332C1360 474.572 1361.23 473.069 1362.81 472.012C1364.4 470.954 1366.26 470.391 1368.16 470.392C1370.72 470.392 1373.16 471.405 1374.97 473.21C1376.77 475.014 1377.79 477.461 1377.79 480.013Z" fill="#AAB8C6"/>
<path d="M1271.65 327.741C1275.15 327.741 1277.99 324.899 1277.99 321.394C1277.99 317.888 1275.15 315.046 1271.65 315.046C1268.14 315.046 1265.3 317.888 1265.3 321.394C1265.3 324.899 1268.14 327.741 1271.65 327.741Z" fill="#AAB8C6"/>
<path d="M1190.32 524.301C1190.32 525.556 1189.95 526.783 1189.25 527.827C1188.55 528.871 1187.56 529.684 1186.4 530.165C1185.24 530.645 1183.97 530.771 1182.73 530.526C1181.5 530.281 1180.37 529.677 1179.48 528.789C1178.6 527.901 1177.99 526.77 1177.75 525.539C1177.5 524.308 1177.63 523.031 1178.11 521.872C1178.59 520.712 1179.4 519.72 1180.45 519.023C1181.49 518.325 1182.72 517.953 1183.97 517.953C1185.66 517.953 1187.27 518.622 1188.46 519.812C1189.65 521.003 1190.32 522.617 1190.32 524.301Z" fill="#AAB8C6"/>
<path d="M1216.15 152.909C1216.15 154.166 1215.78 155.395 1215.08 156.44C1214.38 157.485 1213.39 158.301 1212.23 158.782C1211.07 159.264 1209.79 159.391 1208.56 159.146C1207.33 158.902 1206.19 158.297 1205.31 157.409C1204.42 156.52 1203.81 155.388 1203.56 154.156C1203.32 152.923 1203.44 151.646 1203.93 150.485C1204.41 149.323 1205.22 148.331 1206.27 147.633C1207.31 146.934 1208.54 146.562 1209.8 146.562C1210.63 146.561 1211.46 146.724 1212.23 147.043C1213 147.362 1213.7 147.829 1214.29 148.419C1214.88 149.008 1215.35 149.708 1215.66 150.479C1215.98 151.249 1216.15 152.075 1216.15 152.909Z" fill="#AAB8C6"/>
<path d="M1408.34 592.804L1405.89 592.202L1403.28 602.81L1405.74 603.411L1408.34 592.804Z" fill="#AAB8C6"/>
<path d="M1412.33 592.779L1409.88 592.177L1407.28 602.784L1409.73 603.386L1412.33 592.779Z" fill="#AAB8C6"/>
<path d="M1416.32 592.771L1413.87 592.17L1411.26 602.777L1413.72 603.378L1416.32 592.771Z" fill="#AAB8C6"/>
<path d="M1420.3 592.768L1417.84 592.167L1415.24 602.774L1417.69 603.375L1420.3 592.768Z" fill="#AAB8C6"/>
<path d="M1160.86 261.574L1158.41 260.973L1155.81 271.58L1158.26 272.181L1160.86 261.574Z" fill="#AAB8C6"/>
<path d="M1164.83 261.587L1162.38 260.986L1159.78 271.593L1162.23 272.194L1164.83 261.587Z" fill="#AAB8C6"/>
<path d="M1168.81 261.588L1166.36 260.987L1163.75 271.595L1166.21 272.196L1168.81 261.588Z" fill="#AAB8C6"/>
<path d="M1172.79 261.575L1170.34 260.974L1167.74 271.581L1170.19 272.182L1172.79 261.575Z" fill="#AAB8C6"/>
<path d="M1415.74 91.3242H1403.4V101.646H1415.74V91.3242Z" fill="#AAB8C6"/>
<path d="M1425.93 91.3242H1419.76V101.646H1425.93V91.3242Z" fill="#AAB8C6"/>
<path d="M1441.21 91.3242H1428.88V101.646H1441.21V91.3242Z" fill="#AAB8C6"/>
<path d="M1296.22 580.182H1283.89V592.516H1296.22V580.182Z" fill="#AAB8C6"/>
<path d="M1306.41 580.182H1300.24V592.516H1306.41V580.182Z" fill="#AAB8C6"/>
<path d="M1321.69 580.182H1309.36V592.516H1321.69V580.182Z" fill="#AAB8C6"/>
<path d="M1331.88 580.182H1325.71V592.516H1331.88V580.182Z" fill="#AAB8C6"/>
<path d="M1347.97 580.182H1335.63V592.516H1347.97V580.182Z" fill="#AAB8C6"/>
<path d="M1358.15 580.182H1351.98V592.516H1358.15V580.182Z" fill="#AAB8C6"/>
<path d="M1173.17 299.812H1160.83V312.145H1173.17V299.812Z" fill="#AAB8C6"/>
<path d="M1189.52 299.812H1177.19V312.145H1189.52V299.812Z" fill="#AAB8C6"/>
<path d="M1205.87 299.812H1193.54V312.145H1205.87V299.812Z" fill="#AAB8C6"/>
<path d="M1222.23 299.812H1209.9V312.145H1222.23V299.812Z" fill="#AAB8C6"/>
<path d="M1238.58 299.812H1226.25V312.145H1238.58V299.812Z" fill="#AAB8C6"/>
<path d="M1284.16 106.387C1279.06 106.387 1274.07 104.874 1269.82 102.038C1265.58 99.2031 1262.27 95.1732 1260.32 90.4583C1258.37 85.7435 1257.86 80.5554 1258.85 75.5504C1259.85 70.5453 1262.31 65.948 1265.92 62.3399C1269.53 58.7318 1274.12 56.2749 1279.13 55.28C1284.13 54.2851 1289.32 54.7968 1294.04 56.7505C1298.75 58.7042 1302.78 62.012 1305.61 66.2557C1308.45 70.4994 1309.96 75.4883 1309.96 80.5915C1309.95 87.4316 1307.23 93.9894 1302.39 98.8255C1297.56 103.662 1291 106.381 1284.16 106.387ZM1284.16 56.847C1279.46 56.847 1274.87 58.2396 1270.97 60.8487C1267.06 63.4578 1264.02 67.1661 1262.22 71.5049C1260.42 75.8436 1259.95 80.6179 1260.87 85.2239C1261.79 89.8298 1264.05 94.0607 1267.37 97.3814C1270.69 100.702 1274.92 102.964 1279.53 103.88C1284.13 104.796 1288.91 104.326 1293.25 102.529C1297.58 100.731 1301.29 97.688 1303.9 93.7833C1306.51 89.8785 1307.9 85.2878 1307.9 80.5915C1307.9 74.2969 1305.39 68.2622 1300.94 63.8117C1296.49 59.3612 1290.45 56.8585 1284.16 56.8526V56.847Z" fill="#AAB8C6"/>
<path d="M1162.27 408.507C1157.17 408.508 1152.18 406.996 1147.94 404.161C1143.69 401.327 1140.39 397.298 1138.43 392.583C1136.48 387.869 1135.97 382.681 1136.96 377.676C1137.96 372.67 1140.41 368.073 1144.02 364.464C1147.63 360.855 1152.23 358.397 1157.23 357.401C1162.24 356.405 1167.43 356.916 1172.14 358.868C1176.85 360.821 1180.88 364.128 1183.72 368.371C1186.56 372.614 1188.07 377.603 1188.07 382.706C1188.06 389.546 1185.34 396.103 1180.51 400.94C1175.67 405.777 1169.11 408.498 1162.27 408.507ZM1162.27 358.967C1157.58 358.966 1152.98 360.358 1149.08 362.966C1145.17 365.575 1142.13 369.283 1140.33 373.622C1138.53 377.961 1138.06 382.736 1138.98 387.342C1139.9 391.949 1142.16 396.18 1145.48 399.501C1148.8 402.822 1153.03 405.084 1157.64 406C1162.24 406.916 1167.02 406.445 1171.36 404.647C1175.7 402.85 1179.4 399.805 1182.01 395.9C1184.62 391.994 1186.01 387.403 1186.01 382.706C1186 376.412 1183.5 370.378 1179.05 365.928C1174.6 361.478 1168.57 358.974 1162.27 358.967Z" fill="#AAB8C6"/>
<path d="M-269.379 427.827H-41.3716L64.0337 322.422H621.324V320.365H63.1832L-42.2219 425.776H-269.379V427.827Z" fill="#AAB8C6"/>
<path d="M214.399 267.669H660.281V265.618H215.25L129.487 179.855H-205.032V181.906H128.636L214.399 267.669Z" fill="#AAB8C6"/>
<path d="M58.7869 481.041H166.16L263.505 383.695H669.113V381.639H262.655L165.309 478.985H58.7869V481.041Z" fill="#AAB8C6"/>
<path d="M-155.164 598.78H170.506L323.028 446.264H705.169V444.207H322.172L169.656 596.723H-155.164V598.78Z" fill="#AAB8C6"/>
<path d="M280.93 218.351H692.646V216.294H281.786L145.233 79.741H-80.5845V81.7975H144.383L280.93 218.351Z" fill="#AAB8C6"/>
<path d="M49.1655 480.013C49.1644 481.917 49.7281 483.779 50.7852 485.363C51.8423 486.947 53.3455 488.181 55.1044 488.911C56.8634 489.64 58.7992 489.832 60.6669 489.461C62.5347 489.09 64.2506 488.174 65.5975 486.827C66.9443 485.481 67.8617 483.766 68.2336 481.899C68.6055 480.031 68.4152 478.095 67.6868 476.336C66.9583 474.576 65.7244 473.072 64.1412 472.014C62.558 470.956 60.6965 470.392 58.7923 470.392C57.5283 470.391 56.2766 470.639 55.1087 471.122C53.9408 471.606 52.8795 472.314 51.9855 473.208C51.0915 474.101 50.3823 475.162 49.8984 476.33C49.4146 477.497 49.1655 478.749 49.1655 480.013Z" fill="#AAB8C6"/>
<path d="M155.305 327.741C158.81 327.741 161.652 324.899 161.652 321.394C161.652 317.888 158.81 315.046 155.305 315.046C151.799 315.046 148.957 317.888 148.957 321.394C148.957 324.899 151.799 327.741 155.305 327.741Z" fill="#AAB8C6"/>
<path d="M236.626 524.301C236.626 525.556 236.998 526.783 237.696 527.827C238.393 528.871 239.385 529.684 240.545 530.165C241.704 530.645 242.981 530.771 244.212 530.526C245.443 530.281 246.574 529.677 247.462 528.789C248.35 527.901 248.954 526.77 249.199 525.539C249.444 524.308 249.318 523.031 248.838 521.872C248.358 520.712 247.544 519.72 246.5 519.023C245.456 518.325 244.229 517.953 242.974 517.953C241.29 517.953 239.676 518.622 238.485 519.812C237.295 521.003 236.626 522.617 236.626 524.301Z" fill="#AAB8C6"/>
<path d="M210.803 152.909C210.803 154.164 211.175 155.392 211.872 156.435C212.57 157.479 213.561 158.293 214.721 158.773C215.881 159.254 217.157 159.379 218.388 159.134C219.62 158.89 220.751 158.285 221.638 157.397C222.526 156.51 223.131 155.379 223.376 154.147C223.62 152.916 223.495 151.64 223.014 150.48C222.534 149.32 221.72 148.329 220.677 147.631C219.633 146.934 218.406 146.562 217.15 146.562C215.467 146.562 213.852 147.23 212.662 148.421C211.471 149.611 210.803 151.226 210.803 152.909Z" fill="#AAB8C6"/>
<path d="M21.1445 603.374L23.5952 602.773L20.9918 592.166L18.5411 592.767L21.1445 603.374Z" fill="#AAB8C6"/>
<path d="M17.1782 603.366L19.6289 602.765L17.0255 592.158L14.5749 592.759L17.1782 603.366Z" fill="#AAB8C6"/>
<path d="M13.2114 603.363L15.6621 602.761L13.0587 592.154L10.608 592.756L13.2114 603.363Z" fill="#AAB8C6"/>
<path d="M9.23438 603.366L11.6851 602.764L9.08168 592.157L6.63101 592.759L9.23438 603.366Z" fill="#AAB8C6"/>
<path d="M268.741 272.214L271.192 271.613L268.59 261.005L266.14 261.606L268.741 272.214Z" fill="#AAB8C6"/>
<path d="M264.758 272.223L267.209 271.622L264.607 261.015L262.157 261.616L264.758 272.223Z" fill="#AAB8C6"/>
<path d="M260.792 272.22L263.243 271.619L260.641 261.012L258.19 261.613L260.792 272.22Z" fill="#AAB8C6"/>
<path d="M256.815 272.213L259.265 271.612L256.664 261.004L254.213 261.605L256.815 272.213Z" fill="#AAB8C6"/>
<path d="M11.2089 101.646H23.5425V91.3242H11.2089L11.2089 101.646Z" fill="#AAB8C6"/>
<path d="M1.02642 101.646H7.19043L7.19043 91.3242H1.02642L1.02642 101.646Z" fill="#AAB8C6"/>
<path d="M130.726 592.521H143.06V580.188H130.726V592.521Z" fill="#AAB8C6"/>
<path d="M120.544 592.521H126.708V580.188H120.544V592.521Z" fill="#AAB8C6"/>
<path d="M105.253 592.521H117.587V580.188H105.253V592.521Z" fill="#AAB8C6"/>
<path d="M95.0709 592.521H101.235V580.188H95.0709V592.521Z" fill="#AAB8C6"/>
<path d="M78.9797 592.521H91.3132V580.188H78.9797V592.521Z" fill="#AAB8C6"/>
<path d="M68.7972 592.521H74.9612V580.188H68.7972V592.521Z" fill="#AAB8C6"/>
<path d="M253.784 312.139H266.118V299.806H253.784V312.139Z" fill="#AAB8C6"/>
<path d="M237.432 312.139H249.766V299.806H237.432V312.139Z" fill="#AAB8C6"/>
<path d="M221.075 312.139H233.408V299.806H221.075V312.139Z" fill="#AAB8C6"/>
<path d="M204.716 312.139H217.05V299.806H204.716V312.139Z" fill="#AAB8C6"/>
<path d="M188.365 312.139H200.698V299.806H188.365V312.139Z" fill="#AAB8C6"/>
<path d="M116.975 80.5971C116.973 75.4941 118.484 70.5051 121.317 66.2609C124.151 62.0167 128.179 58.708 132.892 56.7532C137.606 54.7983 142.794 54.2851 147.799 55.2785C152.804 56.2719 157.403 58.7272 161.013 62.334C164.623 65.9408 167.082 70.537 168.08 75.5415C169.077 80.546 168.569 85.734 166.618 90.4493C164.667 95.1647 161.362 99.1957 157.12 102.033C152.878 104.869 147.89 106.385 142.788 106.387C135.947 106.383 129.387 103.665 124.548 98.8298C119.709 93.9949 116.986 87.4377 116.975 80.5971ZM119.032 80.5971C119.032 85.2935 120.425 89.8845 123.034 93.7894C125.643 97.6943 129.352 100.738 133.691 102.535C138.03 104.332 142.805 104.802 147.411 103.885C152.017 102.968 156.248 100.706 159.568 97.385C162.889 94.0638 165.15 89.8323 166.065 85.226C166.981 80.6196 166.51 75.8452 164.712 71.5066C162.914 67.1679 159.87 63.46 155.964 60.8515C152.059 58.2431 147.467 56.8515 142.771 56.8526C136.479 56.8643 130.449 59.3705 126.002 63.8215C121.555 68.2726 119.054 74.3053 119.049 80.5971H119.032Z" fill="#AAB8C6"/>
<path d="M238.877 382.706C238.877 377.603 240.39 372.615 243.225 368.372C246.061 364.129 250.09 360.822 254.805 358.869C259.519 356.916 264.707 356.405 269.712 357.401C274.717 358.396 279.314 360.853 282.922 364.462C286.531 368.07 288.988 372.667 289.984 377.672C290.979 382.677 290.468 387.865 288.515 392.58C286.562 397.294 283.255 401.324 279.013 404.159C274.77 406.994 269.781 408.507 264.678 408.507C257.838 408.5 251.279 405.779 246.442 400.942C241.605 396.105 238.885 389.546 238.877 382.706ZM240.934 382.706C240.933 387.402 242.324 391.994 244.933 395.899C247.541 399.805 251.249 402.849 255.588 404.647C259.926 406.445 264.701 406.916 269.307 406C273.914 405.085 278.145 402.824 281.466 399.503C284.788 396.183 287.049 391.952 287.966 387.346C288.883 382.74 288.413 377.965 286.616 373.626C284.819 369.287 281.775 365.578 277.871 362.969C273.966 360.36 269.375 358.967 264.678 358.967C258.382 358.97 252.344 361.471 247.89 365.922C243.436 370.373 240.93 376.409 240.923 382.706H240.934Z" fill="#AAB8C6"/>
<g style="mix-blend-mode:multiply">
<g style="mix-blend-mode:multiply" opacity="0.01">
<path d="M691.863 748.262C891.448 748.262 1053.24 586.466 1053.24 386.88C1053.24 187.295 891.448 25.499 691.863 25.499C492.277 25.499 330.481 187.295 330.481 386.88C330.481 586.466 492.277 748.262 691.863 748.262Z" fill="#FDFDFD"/>
</g>
<g style="mix-blend-mode:multiply" opacity="0.02">
<path d="M692.146 744.371C889.96 744.371 1050.32 584.011 1050.32 386.196C1050.32 188.382 889.96 28.0222 692.146 28.0222C494.332 28.0222 333.972 188.382 333.972 386.196C333.972 584.011 494.332 744.371 692.146 744.371Z" fill="#FCFCFC"/>
</g>
<g style="mix-blend-mode:multiply" opacity="0.04">
<path d="M692.424 740.48C888.47 740.48 1047.4 581.553 1047.4 385.507C1047.4 189.461 888.47 30.5347 692.424 30.5347C496.378 30.5347 337.452 189.461 337.452 385.507C337.452 581.553 496.378 740.48 692.424 740.48Z" fill="#FAFAFA"/>
</g>
<g style="mix-blend-mode:multiply" opacity="0.05">
<path d="M692.708 736.584C886.983 736.584 1044.47 579.093 1044.47 384.818C1044.47 190.543 886.983 33.0525 692.708 33.0525C498.433 33.0525 340.942 190.543 340.942 384.818C340.942 579.093 498.433 736.584 692.708 736.584Z" fill="#F9F9F9"/>
</g>
<g style="mix-blend-mode:multiply" opacity="0.06">
<path d="M692.991 732.699C885.497 732.699 1041.55 576.641 1041.55 384.134C1041.55 191.628 885.497 35.5703 692.991 35.5703C500.484 35.5703 344.427 191.628 344.427 384.134C344.427 576.641 500.484 732.699 692.991 732.699Z" fill="#F7F7F7"/>
</g>
<g style="mix-blend-mode:multiply" opacity="0.07">
<path d="M693.269 728.802C884.004 728.802 1038.63 574.181 1038.63 383.445C1038.63 192.71 884.004 38.0881 693.269 38.0881C502.533 38.0881 347.912 192.71 347.912 383.445C347.912 574.181 502.533 728.802 693.269 728.802Z" fill="#F6F6F6"/>
</g>
<g style="mix-blend-mode:multiply" opacity="0.09">
<path d="M693.553 724.911C882.52 724.911 1035.71 571.723 1035.71 382.756C1035.71 193.789 882.52 40.6003 693.553 40.6003C504.585 40.6003 351.397 193.789 351.397 382.756C351.397 571.723 504.585 724.911 693.553 724.911Z" fill="#F4F4F4"/>
</g>
<g style="mix-blend-mode:multiply" opacity="0.1">
<path d="M693.836 721.021C881.035 721.021 1032.79 569.266 1032.79 382.067C1032.79 194.868 881.035 43.1128 693.836 43.1128C506.637 43.1128 354.882 194.868 354.882 382.067C354.882 569.266 506.637 721.021 693.836 721.021Z" fill="#F2F2F2"/>
</g>
<g style="mix-blend-mode:multiply" opacity="0.11">
<path d="M694.114 717.13C879.542 717.13 1029.86 566.811 1029.86 381.383C1029.86 195.955 879.542 45.6362 694.114 45.6362C508.686 45.6362 358.367 195.955 358.367 381.383C358.367 566.811 508.686 717.13 694.114 717.13Z" fill="#F1F1F1"/>
</g>
<g style="mix-blend-mode:multiply" opacity="0.12">
<path d="M694.397 713.239C878.057 713.239 1026.94 564.354 1026.94 380.694C1026.94 197.034 878.057 48.1484 694.397 48.1484C510.738 48.1484 361.852 197.034 361.852 380.694C361.852 564.354 510.738 713.239 694.397 713.239Z" fill="#EFEFEF"/>
</g>
<g style="mix-blend-mode:multiply" opacity="0.14">
<path d="M694.675 709.343C876.564 709.343 1024.01 561.893 1024.01 380.005C1024.01 198.116 876.564 50.6663 694.675 50.6663C512.787 50.6663 365.337 198.116 365.337 380.005C365.337 561.893 512.787 709.343 694.675 709.343Z" fill="#EEEEEE"/>
</g>
<g style="mix-blend-mode:multiply" opacity="0.15">
<path d="M694.959 705.453C875.079 705.453 1021.1 559.436 1021.1 379.316C1021.1 199.195 875.079 53.1787 694.959 53.1787C514.838 53.1787 368.822 199.195 368.822 379.316C368.822 559.436 514.838 705.453 694.959 705.453Z" fill="#ECECEC"/>
</g>
<g style="mix-blend-mode:multiply" opacity="0.16">
<path d="M695.242 701.562C873.591 701.562 1018.17 556.981 1018.17 378.632C1018.17 200.283 873.591 55.7021 695.242 55.7021C516.893 55.7021 372.312 200.283 372.312 378.632C372.312 556.981 516.893 701.562 695.242 701.562Z" fill="#EBEBEB"/>
</g>
<g style="mix-blend-mode:multiply" opacity="0.17">
<path d="M695.52 697.671C872.101 697.671 1015.25 554.524 1015.25 377.943C1015.25 201.362 872.101 58.2144 695.52 58.2144C518.939 58.2144 375.792 201.362 375.792 377.943C375.792 554.524 518.939 697.671 695.52 697.671Z" fill="#E9E9E9"/>
</g>
<g style="mix-blend-mode:multiply" opacity="0.19">
<path d="M695.803 693.78C870.616 693.78 1012.33 552.066 1012.33 377.253C1012.33 202.44 870.616 60.7266 695.803 60.7266C520.99 60.7266 379.277 202.44 379.277 377.253C379.277 552.066 520.99 693.78 695.803 693.78Z" fill="#E7E7E7"/>
</g>
<g style="mix-blend-mode:multiply" opacity="0.2">
<path d="M696.081 689.89C869.123 689.89 1009.4 549.611 1009.4 376.57C1009.4 203.528 869.123 63.25 696.081 63.25C523.04 63.25 382.761 203.528 382.761 376.57C382.761 549.611 523.04 689.89 696.081 689.89Z" fill="#AAB8C6"/>
</g>
<g style="mix-blend-mode:multiply" opacity="0.21">
<path d="M696.365 685.999C867.639 685.999 1006.48 547.154 1006.48 375.881C1006.48 204.607 867.639 65.7622 696.365 65.7622C525.092 65.7622 386.247 204.607 386.247 375.881C386.247 547.154 525.092 685.999 696.365 685.999Z" fill="#E4E4E4"/>
</g>
<g style="mix-blend-mode:multiply" opacity="0.22">
<path d="M696.649 682.102C866.151 682.102 1003.56 544.694 1003.56 375.191C1003.56 205.689 866.151 68.28 696.649 68.28C527.146 68.28 389.737 205.689 389.737 375.191C389.737 544.694 527.146 682.102 696.649 682.102Z" fill="#E3E3E3"/>
</g>
<g style="mix-blend-mode:multiply" opacity="0.23">
<path d="M696.927 678.212C864.661 678.212 1000.64 542.236 1000.64 374.502C1000.64 206.768 864.661 70.7925 696.927 70.7925C529.192 70.7925 393.217 206.768 393.217 374.502C393.217 542.236 529.192 678.212 696.927 678.212Z" fill="#E1E1E1"/>
</g>
<g style="mix-blend-mode:multiply" opacity="0.25">
<path d="M697.21 674.327C863.176 674.327 997.718 539.785 997.718 373.818C997.718 207.852 863.176 73.3103 697.21 73.3103C531.244 73.3103 396.702 207.852 396.702 373.818C396.702 539.785 531.244 674.327 697.21 674.327Z" fill="#E0E0E0"/>
</g>
<g style="mix-blend-mode:multiply" opacity="0.26">
<path d="M697.493 670.43C861.688 670.43 994.794 537.324 994.794 373.129C994.794 208.934 861.688 75.8281 697.493 75.8281C533.298 75.8281 400.192 208.934 400.192 373.129C400.192 537.324 533.298 670.43 697.493 670.43Z" fill="#DEDEDE"/>
</g>
<g style="mix-blend-mode:multiply" opacity="0.27">
<path d="M697.771 666.54C860.198 666.54 991.871 534.867 991.871 372.44C991.871 210.013 860.198 78.3403 697.771 78.3403C535.344 78.3403 403.672 210.013 403.672 372.44C403.672 534.867 535.344 666.54 697.771 666.54Z" fill="#DDDDDD"/>
</g>
<g style="mix-blend-mode:multiply" opacity="0.28">
<path d="M698.055 662.649C858.71 662.649 988.947 532.412 988.947 371.756C988.947 211.101 858.71 80.8638 698.055 80.8638C537.399 80.8638 407.162 211.101 407.162 371.756C407.162 532.412 537.399 662.649 698.055 662.649Z" fill="#DBDBDB"/>
</g>
<g style="mix-blend-mode:multiply" opacity="0.3">
<path d="M698.332 658.758C857.22 658.758 986.024 529.955 986.024 371.067C986.024 212.18 857.22 83.3762 698.332 83.3762C539.445 83.3762 410.641 212.18 410.641 371.067C410.641 529.955 539.445 658.758 698.332 658.758Z" fill="#D9D9D9"/>
</g>
<g style="mix-blend-mode:multiply" opacity="0.31">
<path d="M698.616 654.862C855.732 654.862 983.1 527.494 983.1 370.378C983.1 213.262 855.732 85.894 698.616 85.894C541.5 85.894 414.132 213.262 414.132 370.378C414.132 527.494 541.5 654.862 698.616 654.862Z" fill="#D8D8D8"/>
</g>
<g style="mix-blend-mode:multiply" opacity="0.32">
<path d="M698.9 650.971C854.248 650.971 980.182 525.037 980.182 369.689C980.182 214.341 854.248 88.4062 698.9 88.4062C543.552 88.4062 417.617 214.341 417.617 369.689C417.617 525.037 543.552 650.971 698.9 650.971Z" fill="#D6D6D6"/>
</g>
<g style="mix-blend-mode:multiply" opacity="0.33">
<path d="M699.177 647.086C852.757 647.086 977.258 522.585 977.258 369.005C977.258 215.425 852.757 90.9241 699.177 90.9241C545.597 90.9241 421.096 215.425 421.096 369.005C421.096 522.585 545.597 647.086 699.177 647.086Z" fill="#D5D5D5"/>
</g>
<g style="mix-blend-mode:multiply" opacity="0.35">
<path d="M699.461 643.19C851.269 643.19 974.335 520.125 974.335 368.316C974.335 216.507 851.269 93.4421 699.461 93.4421C547.652 93.4421 424.587 216.507 424.587 368.316C424.587 520.125 547.652 643.19 699.461 643.19Z" fill="#D3D3D3"/>
</g>
<g style="mix-blend-mode:multiply" opacity="0.36">
<path d="M699.739 639.299C849.779 639.299 971.411 517.667 971.411 367.627C971.411 217.586 849.779 95.9543 699.739 95.9543C549.698 95.9543 428.066 217.586 428.066 367.627C428.066 517.667 549.698 639.299 699.739 639.299Z" fill="#D2D2D2"/>
</g>
<g style="mix-blend-mode:multiply" opacity="0.37">
<path d="M700.022 635.408C848.292 635.408 968.488 515.212 968.488 366.943C968.488 218.674 848.292 98.4778 700.022 98.4778C551.753 98.4778 431.557 218.674 431.557 366.943C431.557 515.212 551.753 635.408 700.022 635.408Z" fill="#D0D0D0"/>
</g>
<g style="mix-blend-mode:multiply" opacity="0.38">
<path d="M700.306 631.518C846.807 631.518 965.569 512.755 965.569 366.254C965.569 219.753 846.807 100.99 700.306 100.99C553.804 100.99 435.042 219.753 435.042 366.254C435.042 512.755 553.804 631.518 700.306 631.518Z" fill="#CECECE"/>
</g>
<g style="mix-blend-mode:multiply" opacity="0.4">
<path d="M700.583 627.621C845.313 627.621 962.64 510.294 962.64 365.565C962.64 220.835 845.313 103.508 700.583 103.508C555.853 103.508 438.527 220.835 438.527 365.565C438.527 510.294 555.853 627.621 700.583 627.621Z" fill="#CDCDCD"/>
</g>
<g style="mix-blend-mode:multiply" opacity="0.41">
<path d="M700.867 623.731C843.829 623.731 959.722 507.837 959.722 364.875C959.722 221.914 843.829 106.02 700.867 106.02C557.905 106.02 442.012 221.914 442.012 364.875C442.012 507.837 557.905 623.731 700.867 623.731Z" fill="#CBCBCB"/>
</g>
<g style="mix-blend-mode:multiply" opacity="0.42">
<path d="M701.145 619.846C842.339 619.846 956.799 505.385 956.799 364.192C956.799 222.998 842.339 108.538 701.145 108.538C559.951 108.538 445.491 222.998 445.491 364.192C445.491 505.385 559.951 619.846 701.145 619.846Z" fill="#CACACA"/>
</g>
<g style="mix-blend-mode:multiply" opacity="0.43">
<path d="M701.429 615.949C840.851 615.949 953.875 502.925 953.875 363.503C953.875 224.08 840.851 111.056 701.429 111.056C562.006 111.056 448.982 224.08 448.982 363.503C448.982 502.925 562.006 615.949 701.429 615.949Z" fill="#C8C8C8"/>
</g>
<g style="mix-blend-mode:multiply" opacity="0.44">
<path d="M701.712 612.058C839.366 612.058 950.957 500.468 950.957 362.813C950.957 225.159 839.366 113.568 701.712 113.568C564.057 113.568 452.467 225.159 452.467 362.813C452.467 500.468 564.057 612.058 701.712 612.058Z" fill="#C7C7C7"/>
</g>
<g style="mix-blend-mode:multiply" opacity="0.46">
<path d="M701.99 608.162C837.873 608.162 948.028 498.007 948.028 362.124C948.028 226.241 837.873 116.086 701.99 116.086C566.107 116.086 455.952 226.241 455.952 362.124C455.952 498.007 566.107 608.162 701.99 608.162Z" fill="#C5C5C5"/>
</g>
<g style="mix-blend-mode:multiply" opacity="0.47">
<path d="M702.273 604.277C836.388 604.277 945.11 495.556 945.11 361.441C945.11 227.326 836.388 118.604 702.273 118.604C568.158 118.604 459.437 227.326 459.437 361.441C459.437 495.556 568.158 604.277 702.273 604.277Z" fill="#C3C3C3"/>
</g>
<g style="mix-blend-mode:multiply" opacity="0.48">
<path d="M702.557 600.386C834.904 600.386 942.192 493.098 942.192 360.751C942.192 228.405 834.904 121.116 702.557 121.116C570.21 121.116 462.922 228.405 462.922 360.751C462.922 493.098 570.21 600.386 702.557 600.386Z" fill="#C2C2C2"/>
</g>
<g style="mix-blend-mode:multiply" opacity="0.49">
<path d="M702.835 596.49C833.41 596.49 939.263 490.638 939.263 360.062C939.263 229.486 833.41 123.634 702.835 123.634C572.259 123.634 466.407 229.486 466.407 360.062C466.407 490.638 572.259 596.49 702.835 596.49Z" fill="#C0C0C0"/>
</g>
<g style="mix-blend-mode:multiply" opacity="0.51">
<path d="M703.118 592.605C831.926 592.605 936.345 488.186 936.345 359.378C936.345 230.571 831.926 126.152 703.118 126.152C574.311 126.152 469.892 230.571 469.892 359.378C469.892 488.186 574.311 592.605 703.118 592.605Z" fill="#BFBFBF"/>
</g>
<g style="mix-blend-mode:multiply" opacity="0.52">
<path d="M703.396 588.709C830.432 588.709 933.415 485.725 933.415 358.689C933.415 231.653 830.432 128.67 703.396 128.67C576.36 128.67 473.376 231.653 473.376 358.689C473.376 485.725 576.36 588.709 703.396 588.709Z" fill="#BDBDBD"/>
</g>
<g style="mix-blend-mode:multiply" opacity="0.53">
<path d="M703.679 584.818C828.948 584.818 930.497 483.268 930.497 358C930.497 232.732 828.948 131.182 703.679 131.182C578.411 131.182 476.862 232.732 476.862 358C476.862 483.268 578.411 584.818 703.679 584.818Z" fill="#BCBCBC"/>
</g>
<g style="mix-blend-mode:multiply" opacity="0.54">
<path d="M703.963 580.921C827.46 580.921 927.574 480.807 927.574 357.311C927.574 233.814 827.46 133.7 703.963 133.7C580.466 133.7 480.352 233.814 480.352 357.311C480.352 480.807 580.466 580.921 703.963 580.921Z" fill="#BABABA"/>
</g>
<g style="mix-blend-mode:multiply" opacity="0.56">
<path d="M704.241 577.036C825.97 577.036 924.65 478.356 924.65 356.627C924.65 234.898 825.97 136.218 704.241 136.218C582.512 136.218 483.832 234.898 483.832 356.627C483.832 478.356 582.512 577.036 704.241 577.036Z" fill="#B8B8B8"/>
</g>
<g style="mix-blend-mode:multiply" opacity="0.57">
<path d="M704.524 573.146C824.485 573.146 921.732 475.898 921.732 355.938C921.732 235.977 824.485 138.73 704.524 138.73C584.564 138.73 487.316 235.977 487.316 355.938C487.316 475.898 584.564 573.146 704.524 573.146Z" fill="#B7B7B7"/>
</g>
<g style="mix-blend-mode:multiply" opacity="0.58">
<path d="M704.802 569.249C822.991 569.249 918.803 473.438 918.803 355.249C918.803 237.059 822.991 141.248 704.802 141.248C586.613 141.248 490.801 237.059 490.801 355.249C490.801 473.438 586.613 569.249 704.802 569.249Z" fill="#B5B5B5"/>
</g>
<g style="mix-blend-mode:multiply" opacity="0.59">
<path d="M705.086 565.364C821.507 565.364 915.885 470.986 915.885 354.565C915.885 238.144 821.507 143.766 705.086 143.766C588.665 143.766 494.287 238.144 494.287 354.565C494.287 470.986 588.665 565.364 705.086 565.364Z" fill="#B4B4B4"/>
</g>
<g style="mix-blend-mode:multiply" opacity="0.6">
<path d="M705.369 561.468C820.019 561.468 912.961 468.526 912.961 353.876C912.961 239.226 820.019 146.284 705.369 146.284C590.719 146.284 497.777 239.226 497.777 353.876C497.777 468.526 590.719 561.468 705.369 561.468Z" fill="#B2B2B2"/>
</g>
<g style="mix-blend-mode:multiply" opacity="0.62">
<path d="M705.647 557.577C818.529 557.577 910.038 466.068 910.038 353.187C910.038 240.305 818.529 148.796 705.647 148.796C592.765 148.796 501.256 240.305 501.256 353.187C501.256 466.068 592.765 557.577 705.647 557.577Z" fill="#B1B1B1"/>
</g>
<g style="mix-blend-mode:multiply" opacity="0.63">
<path d="M705.931 553.681C817.041 553.681 907.114 463.608 907.114 352.497C907.114 241.387 817.041 151.314 705.931 151.314C594.82 151.314 504.747 241.387 504.747 352.497C504.747 463.608 594.82 553.681 705.931 553.681Z" fill="#AFAFAF"/>
</g>
<g style="mix-blend-mode:multiply" opacity="0.64">
<path d="M706.214 549.796C815.557 549.796 904.196 461.156 904.196 351.814C904.196 242.471 815.557 153.832 706.214 153.832C596.872 153.832 508.232 242.471 508.232 351.814C508.232 461.156 596.872 549.796 706.214 549.796Z" fill="#ADADAD"/>
</g>
<g style="mix-blend-mode:multiply" opacity="0.65">
<path d="M706.492 545.905C814.066 545.905 901.273 458.699 901.273 351.124C901.273 243.55 814.066 156.344 706.492 156.344C598.918 156.344 511.711 243.55 511.711 351.124C511.711 458.699 598.918 545.905 706.492 545.905Z" fill="#ACACAC"/>
</g>
<g style="mix-blend-mode:multiply" opacity="0.67">
<path d="M706.775 542.009C812.579 542.009 898.349 456.238 898.349 350.435C898.349 244.632 812.579 158.862 706.775 158.862C600.972 158.862 515.202 244.632 515.202 350.435C515.202 456.238 600.972 542.009 706.775 542.009Z" fill="#AAAAAA"/>
</g>
<g style="mix-blend-mode:multiply" opacity="0.68">
<path d="M707.053 538.124C811.088 538.124 895.425 453.787 895.425 349.752C895.425 245.717 811.088 161.38 707.053 161.38C603.018 161.38 518.681 245.717 518.681 349.752C518.681 453.787 603.018 538.124 707.053 538.124Z" fill="#A9A9A9"/>
</g>
<g style="mix-blend-mode:multiply" opacity="0.69">
<path d="M707.337 534.227C809.6 534.227 892.502 451.326 892.502 349.062C892.502 246.799 809.6 163.897 707.337 163.897C605.073 163.897 522.172 246.799 522.172 349.062C522.172 451.326 605.073 534.227 707.337 534.227Z" fill="#A7A7A7"/>
</g>
<g style="mix-blend-mode:multiply" opacity="0.7">
<path d="M707.62 530.337C808.116 530.337 889.584 448.869 889.584 348.373C889.584 247.877 808.116 166.41 707.62 166.41C607.125 166.41 525.657 247.877 525.657 348.373C525.657 448.869 607.125 530.337 707.62 530.337Z" fill="#A6A6A6"/>
</g>
<g style="mix-blend-mode:multiply" opacity="0.72">
<path d="M707.898 526.44C806.623 526.44 886.655 446.408 886.655 347.684C886.655 248.959 806.623 168.927 707.898 168.927C609.174 168.927 529.142 248.959 529.142 347.684C529.142 446.408 609.174 526.44 707.898 526.44Z" fill="#A4A4A4"/>
</g>
<g style="mix-blend-mode:multiply" opacity="0.73">
<path d="M708.182 522.555C805.138 522.555 883.737 443.956 883.737 347C883.737 250.044 805.138 171.445 708.182 171.445C611.225 171.445 532.627 250.044 532.627 347C532.627 443.956 611.225 522.555 708.182 522.555Z" fill="#A2A2A2"/>
</g>
<g style="mix-blend-mode:multiply" opacity="0.74">
<path d="M708.46 518.665C803.648 518.665 880.813 441.499 880.813 346.311C880.813 251.123 803.648 173.958 708.46 173.958C613.271 173.958 536.106 251.123 536.106 346.311C536.106 441.499 613.271 518.665 708.46 518.665Z" fill="#A1A1A1"/>
</g>
<g style="mix-blend-mode:multiply" opacity="0.75">
<path d="M708.743 514.768C802.16 514.768 877.889 439.039 877.889 345.622C877.889 252.205 802.16 176.476 708.743 176.476C615.326 176.476 539.597 252.205 539.597 345.622C539.597 439.039 615.326 514.768 708.743 514.768Z" fill="#9F9F9F"/>
</g>
<g style="mix-blend-mode:multiply" opacity="0.77">
<path d="M709.026 510.877C800.675 510.877 874.971 436.581 874.971 344.933C874.971 253.284 800.675 178.988 709.026 178.988C617.378 178.988 543.082 253.284 543.082 344.933C543.082 436.581 617.378 510.877 709.026 510.877Z" fill="#9E9E9E"/>
</g>
<g style="mix-blend-mode:multiply" opacity="0.78">
<path d="M709.304 506.987C799.182 506.987 872.042 434.127 872.042 344.249C872.042 254.371 799.182 181.511 709.304 181.511C619.427 181.511 546.567 254.371 546.567 344.249C546.567 434.127 619.427 506.987 709.304 506.987Z" fill="#9C9C9C"/>
</g>
<g style="mix-blend-mode:multiply" opacity="0.79">
<path d="M709.588 503.096C797.697 503.096 869.124 431.669 869.124 343.56C869.124 255.45 797.697 184.023 709.588 184.023C621.479 184.023 550.052 255.45 550.052 343.56C550.052 431.669 621.479 503.096 709.588 503.096Z" fill="#9B9B9B"/>
</g>
<g style="mix-blend-mode:multiply" opacity="0.8">
<path d="M709.866 499.205C796.207 499.205 866.2 429.212 866.2 342.871C866.2 256.529 796.207 186.536 709.866 186.536C623.524 186.536 553.531 256.529 553.531 342.871C553.531 429.212 623.524 499.205 709.866 499.205Z" fill="#999999"/>
</g>
<g style="mix-blend-mode:multiply" opacity="0.81">
<path d="M710.149 495.315C794.719 495.315 863.277 426.757 863.277 342.187C863.277 257.617 794.719 189.059 710.149 189.059C625.579 189.059 557.021 257.617 557.021 342.187C557.021 426.757 625.579 495.315 710.149 495.315Z" fill="#989898"/>
</g>
<g style="mix-blend-mode:multiply" opacity="0.83">
<path d="M710.433 491.424C793.235 491.424 860.359 424.3 860.359 341.498C860.359 258.696 793.235 191.572 710.433 191.572C627.631 191.572 560.507 258.696 560.507 341.498C560.507 424.3 627.631 491.424 710.433 491.424Z" fill="#969696"/>
</g>
<g style="mix-blend-mode:multiply" opacity="0.84">
<path d="M710.711 487.528C791.742 487.528 857.43 421.839 857.43 340.808C857.43 259.778 791.742 194.089 710.711 194.089C629.68 194.089 563.992 259.778 563.992 340.808C563.992 421.839 629.68 487.528 710.711 487.528Z" fill="#949494"/>
</g>
<g style="mix-blend-mode:multiply" opacity="0.85">
<path d="M710.994 483.637C790.257 483.637 854.512 419.382 854.512 340.119C854.512 260.857 790.257 196.602 710.994 196.602C631.732 196.602 567.477 260.857 567.477 340.119C567.477 419.382 631.732 483.637 710.994 483.637Z" fill="#939393"/>
</g>
<g style="mix-blend-mode:multiply" opacity="0.86">
<path d="M711.277 479.746C788.769 479.746 851.588 416.927 851.588 339.436C851.588 261.944 788.769 199.125 711.277 199.125C633.786 199.125 570.967 261.944 570.967 339.436C570.967 416.927 633.786 479.746 711.277 479.746Z" fill="#919191"/>
</g>
<g style="mix-blend-mode:multiply" opacity="0.88">
<path d="M808.507 435.695C862.051 382.151 862.051 295.338 808.507 241.794C754.963 188.25 668.15 188.25 614.605 241.794C561.061 295.338 561.061 382.151 614.606 435.695C668.15 489.24 754.963 489.24 808.507 435.695Z" fill="#909090"/>
</g>
<g style="mix-blend-mode:multiply" opacity="0.89">
<path d="M711.839 471.965C785.794 471.965 845.746 412.012 845.746 338.057C845.746 264.102 785.794 204.15 711.839 204.15C637.884 204.15 577.931 264.102 577.931 338.057C577.931 412.012 637.884 471.965 711.839 471.965Z" fill="#8E8E8E"/>
</g>
<g style="mix-blend-mode:multiply" opacity="0.9">
<path d="M804.541 429.796C855.583 378.754 855.582 295.999 804.541 244.958C753.499 193.916 670.744 193.916 619.702 244.958C568.661 295.999 568.661 378.754 619.702 429.796C670.744 480.838 753.499 480.838 804.541 429.796Z" fill="#8D8D8D"/>
</g>
<g style="mix-blend-mode:multiply" opacity="0.91">
<path d="M802.557 426.839C852.348 377.047 852.348 296.32 802.557 246.528C752.766 196.737 672.038 196.737 622.246 246.528C572.455 296.32 572.455 377.048 622.246 426.839C672.038 476.63 752.766 476.63 802.557 426.839Z" fill="#8B8B8B"/>
</g>
<g style="mix-blend-mode:multiply" opacity="0.93">
<path d="M800.57 423.883C849.109 375.344 849.109 296.647 800.57 248.108C752.031 199.569 673.333 199.569 624.794 248.108C576.255 296.647 576.255 375.344 624.794 423.883C673.333 472.422 752.031 472.422 800.57 423.883Z" fill="#898989"/>
</g>
<g style="mix-blend-mode:multiply" opacity="0.94">
<path d="M798.582 420.93C845.87 373.641 845.87 296.971 798.582 249.682C751.293 202.394 674.623 202.394 627.334 249.682C580.045 296.971 580.045 373.641 627.334 420.93C674.623 468.219 751.293 468.219 798.582 420.93Z" fill="#888888"/>
</g>
<g style="mix-blend-mode:multiply" opacity="0.95">
<path d="M796.604 417.979C842.64 371.942 842.64 297.303 796.604 251.266C750.567 205.23 675.928 205.23 629.891 251.266C583.855 297.303 583.855 371.942 629.891 417.979C675.928 464.015 750.567 464.015 796.604 417.979Z" fill="#868686"/>
</g>
<g style="mix-blend-mode:multiply" opacity="0.96">
<path d="M794.616 415.025C839.402 370.239 839.402 297.627 794.616 252.841C749.83 208.055 677.217 208.055 632.431 252.841C587.645 297.627 587.645 370.239 632.431 415.025C677.217 459.811 749.83 459.811 794.616 415.025Z" fill="#858585"/>
</g>
<g style="mix-blend-mode:multiply" opacity="0.98">
<path d="M713.806 444.724C775.375 444.724 825.287 394.813 825.287 333.244C825.287 271.675 775.375 221.764 713.806 221.764C652.238 221.764 602.326 271.675 602.326 333.244C602.326 394.813 652.238 444.724 713.806 444.724Z" fill="#838383"/>
</g>
<g style="mix-blend-mode:multiply" opacity="0.99">
<path d="M714.09 440.833C773.888 440.833 822.363 392.358 822.363 332.56C822.363 272.762 773.888 224.287 714.09 224.287C654.292 224.287 605.817 272.762 605.817 332.56C605.817 392.358 654.292 440.833 714.09 440.833Z" fill="#828282"/>
</g>
<g style="mix-blend-mode:multiply">
<path d="M714.368 436.943C772.397 436.943 819.439 389.901 819.439 331.871C819.439 273.842 772.397 226.799 714.368 226.799C656.338 226.799 609.296 273.842 609.296 331.871C609.296 389.901 656.338 436.943 714.368 436.943Z" fill="#808080"/>
</g>
</g>
<path d="M984.05 277.456L982.539 271.142L981.788 267.985C981.655 267.463 981.544 266.929 981.405 266.412L980.943 264.85L977.286 252.383L1019.97 238.671L1024.2 253.05L1024.75 254.851C1024.91 255.451 1025.05 256.063 1025.2 256.669L1026.08 260.315L1027.82 267.613L984.05 277.456Z" fill="#AAB8C6"/>
<path d="M989.697 312.49L989.431 309.26L988.997 306.048L988.125 299.617C987.652 295.315 986.757 291.08 985.979 286.833L1030.02 278.446C1030.93 283.365 1031.93 288.267 1032.51 293.242L1033.51 300.684L1034 304.402L1034.32 308.143L989.697 312.49Z" fill="#1191C8"/>
<path d="M990.937 347.94L991.037 341.453L991.092 338.213C991.126 337.134 991.031 336.051 991.015 334.972L990.787 328.492L990.681 325.251C990.681 324.173 990.615 323.089 990.503 322.016L1035.25 319.154C1035.37 320.399 1035.42 321.649 1035.46 322.9L1035.59 326.652L1035.84 334.155C1035.87 335.406 1035.96 336.656 1035.92 337.907L1035.87 341.659L1035.76 349.162L990.937 347.94Z" fill="#AAB8C6"/>
<path d="M987.758 383.267C988.564 379.015 988.869 374.691 989.425 370.406L989.798 367.182L989.981 365.57L990.087 363.953L990.504 357.483L1035.26 360.212L1034.77 367.704L1034.64 369.578L1034.43 371.44L1034.01 375.169C1033.4 380.138 1033 385.129 1032.08 390.054L987.758 383.267Z" fill="#1191C8"/>
<path d="M891.19 557.655C918.87 533.799 941.752 504.886 958.611 472.465L998.379 493.169C978.89 530.652 952.433 564.075 920.426 591.649L891.19 557.655Z" fill="#1191C8"/>
<path d="M771.9 618.667C774.001 618.156 776.113 617.683 778.209 617.144L784.44 615.304L790.676 613.481C791.721 613.198 792.744 612.837 793.761 612.475L796.829 611.397L811.28 653.839L807.739 655.073C806.561 655.49 805.383 655.901 804.177 656.235L796.99 658.347L789.764 660.453C787.347 661.081 784.912 661.637 782.483 662.226L771.9 618.667Z" fill="#1191C8"/>
<path d="M736.973 624.965L749.829 623.208L762.613 620.829L771.784 664.739L757.033 667.518C752.086 668.246 747.122 668.88 742.165 669.552L736.973 624.965Z" fill="#AAB8C6"/>
<path d="M701.551 626.821L704.797 626.876C705.875 626.876 706.959 626.932 708.037 626.876L714.518 626.654L720.999 626.437L727.457 625.882L731.126 670.569L723.644 671.192L716.141 671.453L708.637 671.709C707.387 671.77 706.136 671.709 704.886 671.709L701.134 671.653L701.551 626.821Z" fill="#1191C8"/>
<path d="M666.167 624.336L679.057 625.804L692.002 626.638L690.073 671.436L675.094 670.464L660.176 668.774L666.167 624.336Z" fill="#1191C8"/>
<path d="M490.151 530.798C514.476 558.059 543.778 580.431 576.486 596.712L556.477 636.842C518.663 618.019 484.788 592.153 456.669 560.634L490.151 530.798Z" fill="#AAB8C6"/>
<path d="M426.894 412.692C428.005 416.872 429.317 421.03 430.507 425.171C430.823 426.204 431.09 427.255 431.446 428.278L432.519 431.346L434.664 437.46L392.483 452.661L390.015 445.586L388.781 442.045C388.376 440.867 388.059 439.655 387.67 438.46C386.28 433.663 384.802 428.889 383.507 424.064L426.894 412.692Z" fill="#1191C8"/>
<path d="M420.074 377.854L420.935 384.285C421.241 386.424 421.713 388.542 422.086 390.671C422.919 394.912 423.553 399.197 424.67 403.388L380.95 413.337C379.688 408.496 378.915 403.549 377.965 398.636C377.526 396.174 377.003 393.728 376.648 391.255L375.636 383.818L420.074 377.854Z" fill="#AAB8C6"/>
<path d="M417.467 342.476L417.9 355.437C417.9 356.549 418.006 357.6 418.106 358.672L418.384 361.907L418.94 368.366L374.324 372.812L373.696 365.337L373.385 361.596C373.274 360.345 373.168 359.1 373.146 357.85L372.646 342.843L417.467 342.476Z" fill="#AAB8C6"/>
<path d="M419.457 307.065L418.718 313.507C418.462 315.652 418.412 317.82 418.245 319.971C417.995 324.289 417.578 328.597 417.617 332.921L372.796 331.81C372.796 326.807 373.218 321.805 373.518 316.803C373.707 314.307 373.785 311.8 374.074 309.316L374.919 301.857L419.457 307.065Z" fill="#1191C8"/>
<path d="M509.777 129.392C482.966 154.213 461.128 183.914 445.43 216.906L404.95 197.63C423.097 159.491 448.344 125.16 479.34 96.4712L509.777 129.392Z" fill="#1191C8"/>
<path d="M626.749 64.1004L620.546 65.929C618.467 66.5404 616.377 67.1129 614.349 67.8744C610.263 69.3251 606.156 70.7035 602.121 72.1875L586.174 30.2789C590.865 28.5614 595.623 26.944 600.309 25.2765C602.654 24.4095 605.061 23.7425 607.457 23.0533L614.649 20.9412L626.749 64.1004Z" fill="#1191C8"/>
<path d="M661.443 56.5635C652.906 57.953 644.39 59.5149 636.003 61.6715L625.276 18.1343C634.964 15.6609 644.813 13.8323 654.684 12.2371L661.443 56.5635Z" fill="#AAB8C6"/>
<path d="M696.776 53.4454C688.133 53.6066 679.507 54.3403 670.914 55.2852L665.645 10.7864C675.589 9.6748 685.571 8.84664 695.581 8.6521L696.776 53.4454Z" fill="#AAB8C6"/>
<path d="M732.221 54.6959C723.617 53.9067 714.99 53.3675 706.331 53.3619L706.642 8.52417C716.647 8.52417 726.651 9.15225 736.617 10.0749L732.221 54.6959Z" fill="#1191C8"/>
<path d="M977.286 252.372L977.292 252.383L1019.98 238.671L1019.97 238.655L977.286 252.372Z" fill="#1191C8"/>
<path d="M911.505 141.826C886.212 115.449 856.125 94.1329 822.853 79.0185L841.406 38.1992C879.867 55.6813 914.644 80.3324 943.876 110.833L911.505 141.826Z" fill="#AAB8C6"/>
<path d="M1049.49 591.06C1068.47 564.908 1084.45 536.707 1097.13 506.987L929.13 435.609C921.837 452.648 912.663 468.819 901.778 483.82L1049.49 591.06ZM1094.98 507.365C1082.6 536.199 1067.09 563.586 1048.73 589.031L903.663 484.326C914.318 469.561 923.323 453.671 930.514 436.943L1094.98 507.365Z" fill="#1191C8"/>
<path d="M748.595 764.619C799.025 759.461 848.309 744.943 893.663 722.527C939.179 700.01 980.325 669.574 1015.18 632.64L882.247 507.542C862.282 528.648 838.73 546.042 812.686 558.917C786.663 571.784 758.333 580.193 729.503 583.084L748.595 764.619ZM1013.04 632.257C944.121 705.197 849.237 752.23 749.585 762.685L730.387 584.823C759.312 581.741 787.457 573.526 813.498 560.562C826.498 554.123 838.914 546.565 850.604 537.973C862.285 529.426 873.158 519.826 883.086 509.293L1013.04 632.257Z" fill="#1191C8"/>
<path d="M609.33 756.182C613.276 757.06 617.2 758.022 621.169 758.8L633.113 760.929C641.056 762.468 649.109 763.302 657.135 764.33C661.143 764.886 665.178 765.17 669.213 765.481L681.313 766.376C685.354 766.604 689.401 766.648 693.441 766.776L699.505 766.926C701.529 766.965 703.546 767.043 705.569 766.97L704.952 584.434C703.796 584.507 702.646 584.434 701.495 584.401L698.038 584.295C695.737 584.212 693.425 584.234 691.124 584.101L684.232 583.545C681.936 583.378 679.629 583.267 677.351 582.9C672.793 582.256 668.185 581.905 663.666 580.949L656.852 579.766C654.59 579.332 652.355 578.732 650.099 578.237L609.33 756.182ZM704.374 765.186C672.924 765.167 641.573 761.644 610.903 754.681L650.366 580.155C668.054 584.188 686.137 586.239 704.28 586.269L704.374 765.186Z" fill="#1191C8"/>
<path d="M331.521 547.828C368.576 614.755 423.105 670.367 489.29 708.732C511.148 721.423 534.058 732.209 557.766 740.969L620.574 569.566C593.286 559.473 567.958 544.719 545.716 525.962C523.669 507.072 505.157 484.41 491.046 459.036L331.521 547.828ZM557.283 738.863C510.283 721.426 466.682 695.928 428.439 663.516C390.291 630.892 358.21 591.781 333.678 547.989L489.773 460.543C503.959 485.857 522.491 508.476 544.521 527.363C566.738 546.117 592.03 560.889 619.279 571.028L557.283 738.863Z" fill="#1191C8"/>
<path d="M392.75 48.1819C370.667 71.8662 351.332 97.97 335.111 125.996L493.102 217.423C502.356 201.441 513.37 186.547 525.94 173.018L392.75 48.1819ZM337.279 125.841C353.101 98.6762 371.878 73.3439 393.266 50.3051L524.161 172.279C511.842 185.591 501.018 200.213 491.885 215.883L337.279 125.841Z" fill="#1191C8"/>
<path d="M712.878 -86.6539C610.55 -88.7349 510.884 -53.9539 432.068 11.3422L548.395 152.009C593.523 114.565 650.623 94.6217 709.249 95.8265L712.878 -86.6539ZM434.136 11.987C512.171 -52.2888 610.567 -86.6328 711.65 -84.8753L708.599 94.0201C650.015 92.9821 592.985 112.889 547.773 150.158L434.136 11.987Z" fill="#1191C8"/>
<path d="M929.964 435.97L929.958 435.976L1096.3 506.653V506.642L929.964 435.97Z" fill="#1191C8"/>
<path d="M1099.95 179.988C1061.71 84.9537 990.372 6.96867 899.11 -39.5596L815.899 122.884C828.821 129.454 841.128 137.17 852.672 145.939C887.338 172.571 914.284 207.958 930.736 248.459L1099.95 179.988ZM899.344 -37.4308C989.251 8.93209 1059.63 85.8918 1097.8 179.571L932.137 247.148C910.253 192.829 869.486 148.242 817.339 121.594L899.344 -37.4308Z" fill="#1191C8"/>
<path d="M704.03 630.206C864.602 630.206 994.772 500.036 994.772 339.463C994.772 178.891 864.602 48.7209 704.03 48.7209C543.457 48.7209 413.287 178.891 413.287 339.463C413.287 500.036 543.457 630.206 704.03 630.206Z" fill="url(#paint1_linear)"/>
</g>
<defs>
<linearGradient id="paint0_linear" x1="26" y1="-90.5" x2="1517" y2="845.5" gradientUnits="userSpaceOnUse">
<stop stop-color="#01B1FF"/>
<stop offset="1" stop-color="#1A50B1"/>
</linearGradient>
<linearGradient id="paint1_linear" x1="855.563" y1="2.73294" x2="501.313" y2="790.108" gradientUnits="userSpaceOnUse">
<stop stop-color="#F2F2F2"/>
<stop offset="1" stop-color="white"/>
</linearGradient>
</defs>
</svg>
