<svg width="1440" height="776" fill="none" xmlns="http://www.w3.org/2000/svg"><mask id="b" style="mask-type:alpha" maskUnits="userSpaceOnUse" x="0" y="0" width="1440" height="776"><path fill="url(#a)" d="M0 0h1440v776H0z"/></mask><g mask="url(#b)"><path d="M1696.32 427.827h-228l-105.41-105.405H805.622v-2.057h558.138l105.41 105.411h227.15v2.051zM1212.55 267.669H766.665v-2.051H1211.7l85.76-85.763h334.52v2.051h-333.67l-85.76 85.763zM1368.16 481.041h-107.37l-97.35-97.346H757.833v-2.056h406.457l97.35 97.346h106.52v2.056z" fill="#AAB8C6"/><path d="M1582.11 598.78h-325.67l-152.52-152.516H721.782v-2.057h382.988l152.52 152.516h324.82v2.057zM1146.02 218.351H734.299v-2.057h410.871l136.54-136.553h225.82v2.056h-224.97l-136.54 136.554zM1377.79 480.013c0 1.904-.57 3.766-1.62 5.35a9.688 9.688 0 0 1-4.32 3.548 9.636 9.636 0 0 1-10.5-2.085 9.63 9.63 0 0 1-2.08-10.494 9.634 9.634 0 0 1 3.54-4.32 9.647 9.647 0 0 1 5.35-1.62c2.56 0 5 1.013 6.81 2.818a9.64 9.64 0 0 1 2.82 6.803zM1271.65 327.741c3.5 0 6.34-2.842 6.34-6.347a6.345 6.345 0 1 0-12.69 0 6.347 6.347 0 0 0 6.35 6.347z" fill="#AAB8C6"/><path d="M1190.32 524.301c0 1.255-.37 2.482-1.07 3.526a6.352 6.352 0 0 1-9.77.962 6.359 6.359 0 0 1-1.73-3.25 6.307 6.307 0 0 1 .36-3.667 6.308 6.308 0 0 1 2.34-2.849 6.34 6.34 0 0 1 8.01.789 6.352 6.352 0 0 1 1.86 4.489zM1216.15 152.909c0 1.257-.37 2.486-1.07 3.531a6.369 6.369 0 0 1-2.85 2.342 6.345 6.345 0 0 1-6.92-1.373 6.4 6.4 0 0 1-1.75-3.253 6.324 6.324 0 0 1 .37-3.671 6.31 6.31 0 0 1 2.34-2.852 6.328 6.328 0 0 1 3.53-1.071 6.344 6.344 0 0 1 4.49 1.857 6.172 6.172 0 0 1 1.37 2.06c.32.77.49 1.596.49 2.43zM1408.34 592.804l-2.45-.602-2.61 10.608 2.46.601 2.6-10.607zM1412.33 592.779l-2.45-.602-2.6 10.607 2.45.602 2.6-10.607zM1416.32 592.771l-2.45-.601-2.61 10.607 2.46.601 2.6-10.607zM1420.3 592.768l-2.46-.601-2.6 10.607 2.45.601 2.61-10.607zM1160.86 261.574l-2.45-.601-2.6 10.607 2.45.601 2.6-10.607zM1164.83 261.587l-2.45-.601-2.6 10.607 2.45.601 2.6-10.607zM1168.81 261.588l-2.45-.601-2.61 10.608 2.46.601 2.6-10.608zM1172.79 261.575l-2.45-.601-2.6 10.607 2.45.601 2.6-10.607zM1415.74 91.324h-12.34v10.322h12.34V91.324zM1425.93 91.324h-6.17v10.322h6.17V91.324zM1441.21 91.324h-12.33v10.322h12.33V91.324zM1296.22 580.182h-12.33v12.334h12.33v-12.334zM1306.41 580.182h-6.17v12.334h6.17v-12.334zM1321.69 580.182h-12.33v12.334h12.33v-12.334zM1331.88 580.182h-6.17v12.334h6.17v-12.334zM1347.97 580.182h-12.34v12.334h12.34v-12.334zM1358.15 580.182h-6.17v12.334h6.17v-12.334zM1173.17 299.812h-12.34v12.333h12.34v-12.333zM1189.52 299.812h-12.33v12.333h12.33v-12.333zM1205.87 299.812h-12.33v12.333h12.33v-12.333zM1222.23 299.812h-12.33v12.333h12.33v-12.333zM1238.58 299.812h-12.33v12.333h12.33v-12.333zM1284.16 106.387a25.795 25.795 0 0 1-23.84-15.929 25.874 25.874 0 0 1-1.47-14.908c1-5.005 3.46-9.602 7.07-13.21a25.78 25.78 0 0 1 13.21-7.06 25.78 25.78 0 0 1 26.48 10.976 25.77 25.77 0 0 1 4.35 14.335 25.827 25.827 0 0 1-7.57 18.235 25.797 25.797 0 0 1-18.23 7.561zm0-49.54c-4.7 0-9.29 1.393-13.19 4.002a23.739 23.739 0 0 0-10.1 24.375 23.78 23.78 0 0 0 6.5 12.157 23.757 23.757 0 0 0 25.88 5.148 23.786 23.786 0 0 0 10.65-8.746c2.61-3.904 4-8.495 4-13.192a23.74 23.74 0 0 0-6.96-16.78 23.769 23.769 0 0 0-16.78-6.958v-.006zM1162.27 408.507a25.777 25.777 0 0 1-14.33-4.346 25.806 25.806 0 0 1-9.51-11.578 25.87 25.87 0 0 1-1.47-14.907c1-5.006 3.45-9.603 7.06-13.212a25.805 25.805 0 0 1 28.12-5.596 25.855 25.855 0 0 1 11.58 9.503 25.766 25.766 0 0 1 4.35 14.335 25.861 25.861 0 0 1-7.56 18.234 25.853 25.853 0 0 1-18.24 7.567zm0-49.54a23.74 23.74 0 0 0-13.19 3.999 23.737 23.737 0 0 0-3.6 36.535 23.75 23.75 0 0 0 25.88 5.146 23.728 23.728 0 0 0 10.65-8.747c2.61-3.906 4-8.497 4-13.194a23.777 23.777 0 0 0-6.96-16.778 23.76 23.76 0 0 0-16.78-6.961zM-269.379 427.827h228.007L64.034 322.422h557.29v-2.057H63.184L-42.223 425.776h-227.157v2.051zM214.399 267.669h445.882v-2.051H215.25l-85.763-85.763h-334.519v2.051h333.668l85.763 85.763zM58.787 481.041H166.16l97.345-97.346h405.608v-2.056H262.655l-97.346 97.346H58.787v2.056z" fill="#AAB8C6"/><path d="M-155.164 598.78h325.67l152.522-152.516h382.141v-2.057H322.172L169.656 596.723h-324.82v2.057zM280.93 218.351h411.716v-2.057h-410.86L145.233 79.741H-80.584v2.056h224.967L280.93 218.351zM49.166 480.013a9.628 9.628 0 0 0 11.5 9.448 9.623 9.623 0 0 0 7.568-7.562 9.627 9.627 0 1 0-19.068-1.886zM155.305 327.741a6.347 6.347 0 1 0 0-12.695 6.347 6.347 0 0 0 0 12.695z" fill="#AAB8C6"/><path d="M236.626 524.301a6.343 6.343 0 0 0 3.919 5.864 6.348 6.348 0 1 0-3.919-5.864zM210.803 152.909a6.348 6.348 0 1 0 12.696.001 6.348 6.348 0 0 0-12.696-.001zM21.145 603.374l2.45-.601-2.603-10.607-2.45.601 2.602 10.607zM17.178 603.366l2.45-.601-2.602-10.607-2.451.601 2.603 10.607zM13.211 603.363l2.451-.602-2.603-10.607-2.451.602 2.603 10.607zM9.234 603.366l2.451-.602-2.603-10.607-2.451.602 2.603 10.607zM268.741 272.214l2.451-.601-2.602-10.608-2.45.601 2.601 10.608zM264.758 272.223l2.451-.601-2.602-10.607-2.45.601 2.601 10.607zM260.792 272.22l2.451-.601-2.602-10.607-2.451.601 2.602 10.607zM256.815 272.213l2.45-.601-2.601-10.608-2.451.601 2.602 10.608zM11.209 101.646h12.334V91.324H11.209v10.322zM1.026 101.646H7.19V91.324H1.026v10.322zM130.726 592.521h12.334v-12.333h-12.334v12.333zM120.544 592.521h6.164v-12.333h-6.164v12.333zM105.253 592.521h12.334v-12.333h-12.334v12.333zM95.07 592.521h6.165v-12.333h-6.164v12.333zM78.98 592.521h12.333v-12.333H78.98v12.333zM68.797 592.521h6.164v-12.333h-6.164v12.333zM253.784 312.139h12.334v-12.333h-12.334v12.333zM237.432 312.139h12.334v-12.333h-12.334v12.333zM221.075 312.139h12.333v-12.333h-12.333v12.333zM204.716 312.139h12.334v-12.333h-12.334v12.333zM188.365 312.139h12.333v-12.333h-12.333v12.333zM116.975 80.597a25.804 25.804 0 0 1 15.917-23.844 25.803 25.803 0 0 1 24.228 45.28 25.808 25.808 0 0 1-14.332 4.354 25.827 25.827 0 0 1-25.813-25.79zm2.057 0a23.747 23.747 0 0 0 28.379 23.288 23.746 23.746 0 0 0 8.553-43.034 23.744 23.744 0 0 0-13.193-3.998 23.766 23.766 0 0 0-23.722 23.744h-.017zM238.877 382.706a25.8 25.8 0 1 1 25.801 25.801 25.828 25.828 0 0 1-25.801-25.801zm2.057 0a23.74 23.74 0 0 0 14.654 21.941 23.74 23.74 0 0 0 25.878-5.144 23.74 23.74 0 0 0 5.15-25.877 23.748 23.748 0 0 0-21.938-14.659 23.766 23.766 0 0 0-23.755 23.739h.011z" fill="#AAB8C6"/><g style="mix-blend-mode:multiply"><path d="M691.863 748.262c199.585 0 361.377-161.796 361.377-361.382 0-199.585-161.792-361.381-361.377-361.381-199.586 0-361.382 161.796-361.382 361.381 0 199.586 161.796 361.382 361.382 361.382z" fill="#FDFDFD" style="mix-blend-mode:multiply" opacity=".01"/><path d="M692.146 744.371c197.814 0 358.174-160.36 358.174-358.175 0-197.814-160.36-358.174-358.174-358.174-197.814 0-358.174 160.36-358.174 358.174 0 197.815 160.36 358.175 358.174 358.175z" fill="#FCFCFC" style="mix-blend-mode:multiply" opacity=".02"/><path d="M692.424 740.48c196.046 0 354.976-158.927 354.976-354.973 0-196.046-158.93-354.972-354.976-354.972S337.452 189.46 337.452 385.507 496.378 740.48 692.424 740.48z" fill="#FAFAFA" style="mix-blend-mode:multiply" opacity=".04"/><path d="M692.708 736.584c194.275 0 351.762-157.491 351.762-351.766S886.983 33.053 692.708 33.053s-351.766 157.49-351.766 351.765c0 194.275 157.491 351.766 351.766 351.766z" fill="#F9F9F9" style="mix-blend-mode:multiply" opacity=".05"/><path d="M692.991 732.699c192.506 0 348.559-156.058 348.559-348.565 0-192.506-156.053-348.564-348.559-348.564-192.507 0-348.564 156.058-348.564 348.564 0 192.507 156.057 348.565 348.564 348.565z" fill="#F7F7F7" style="mix-blend-mode:multiply" opacity=".06"/><path d="M693.269 728.802c190.735 0 345.361-154.621 345.361-345.357 0-190.735-154.626-345.357-345.361-345.357-190.736 0-345.357 154.622-345.357 345.357 0 190.736 154.621 345.357 345.357 345.357z" fill="#F6F6F6" style="mix-blend-mode:multiply" opacity=".07"/><path d="M693.553 724.911c188.967 0 342.157-153.188 342.157-342.155 0-188.967-153.19-342.156-342.157-342.156-188.968 0-342.156 153.189-342.156 342.156s153.188 342.155 342.156 342.155z" fill="#F4F4F4" style="mix-blend-mode:multiply" opacity=".09"/><path d="M693.836 721.021c187.199 0 338.954-151.755 338.954-338.954S881.035 43.113 693.836 43.113 354.882 194.868 354.882 382.067s151.755 338.954 338.954 338.954z" fill="#F2F2F2" style="mix-blend-mode:multiply" opacity=".1"/><path d="M694.114 717.13c185.428 0 335.746-150.319 335.746-335.747 0-185.428-150.318-335.747-335.746-335.747-185.428 0-335.747 150.319-335.747 335.747 0 185.428 150.319 335.747 335.747 335.747z" fill="#F1F1F1" style="mix-blend-mode:multiply" opacity=".11"/><path d="M694.397 713.239c183.66 0 332.543-148.885 332.543-332.545 0-183.66-148.883-332.546-332.543-332.546-183.659 0-332.545 148.886-332.545 332.546s148.886 332.545 332.545 332.545z" fill="#EFEFEF" style="mix-blend-mode:multiply" opacity=".12"/><path d="M694.675 709.343c181.889 0 329.335-147.45 329.335-329.338 0-181.889-147.446-329.339-329.335-329.339-181.888 0-329.338 147.45-329.338 329.339 0 181.888 147.45 329.338 329.338 329.338z" fill="#EEE" style="mix-blend-mode:multiply" opacity=".14"/><path d="M694.959 705.453c180.12 0 326.141-146.017 326.141-326.137 0-180.121-146.021-326.137-326.141-326.137-180.121 0-326.137 146.016-326.137 326.137 0 180.12 146.016 326.137 326.137 326.137z" fill="#ECECEC" style="mix-blend-mode:multiply" opacity=".15"/><path d="M695.242 701.562c178.349 0 322.928-144.581 322.928-322.93 0-178.349-144.579-322.93-322.928-322.93s-322.93 144.581-322.93 322.93c0 178.349 144.581 322.93 322.93 322.93z" fill="#EBEBEB" style="mix-blend-mode:multiply" opacity=".16"/><path d="M695.52 697.671c176.581 0 319.73-143.147 319.73-319.728 0-176.581-143.149-319.729-319.73-319.729-176.581 0-319.728 143.148-319.728 319.729S518.939 697.671 695.52 697.671z" fill="#E9E9E9" style="mix-blend-mode:multiply" opacity=".17"/><path d="M695.803 693.78c174.813 0 316.527-141.714 316.527-316.527S870.616 60.727 695.803 60.727 379.277 202.44 379.277 377.253c0 174.813 141.713 316.527 316.526 316.527z" fill="#E7E7E7" style="mix-blend-mode:multiply" opacity=".19"/><path d="M696.081 689.89c173.042 0 313.319-140.279 313.319-313.32 0-173.042-140.277-313.32-313.319-313.32-173.041 0-313.32 140.278-313.32 313.32 0 173.041 140.279 313.32 313.32 313.32z" fill="#AAB8C6" style="mix-blend-mode:multiply" opacity=".2"/><path d="M696.365 685.999c171.274 0 310.115-138.845 310.115-310.118 0-171.274-138.841-310.119-310.115-310.119-171.273 0-310.118 138.845-310.118 310.119 0 171.273 138.845 310.118 310.118 310.118z" fill="#E4E4E4" style="mix-blend-mode:multiply" opacity=".21"/><path d="M696.649 682.102c169.502 0 306.911-137.408 306.911-306.911 0-169.502-137.409-306.911-306.911-306.911-169.503 0-306.912 137.409-306.912 306.911 0 169.503 137.409 306.911 306.912 306.911z" fill="#E3E3E3" style="mix-blend-mode:multiply" opacity=".22"/><path d="M696.927 678.212c167.734 0 303.713-135.976 303.713-303.71 0-167.734-135.979-303.71-303.713-303.71-167.735 0-303.71 135.976-303.71 303.71 0 167.734 135.975 303.71 303.71 303.71z" fill="#E1E1E1" style="mix-blend-mode:multiply" opacity=".23"/><path d="M697.21 674.327c165.966 0 300.508-134.542 300.508-300.509 0-165.966-134.542-300.508-300.508-300.508-165.966 0-300.508 134.542-300.508 300.508 0 165.967 134.542 300.509 300.508 300.509z" fill="#E0E0E0" style="mix-blend-mode:multiply" opacity=".25"/><path d="M697.493 670.43c164.195 0 297.301-133.106 297.301-297.301s-133.106-297.3-297.301-297.3-297.301 133.105-297.301 297.3c0 164.195 133.106 297.301 297.301 297.301z" fill="#DEDEDE" style="mix-blend-mode:multiply" opacity=".26"/><path d="M697.771 666.54c162.427 0 294.1-131.673 294.1-294.1 0-162.427-131.673-294.1-294.1-294.1-162.427 0-294.099 131.673-294.099 294.1 0 162.427 131.672 294.1 294.099 294.1z" fill="#DDD" style="mix-blend-mode:multiply" opacity=".27"/><path d="M698.055 662.649c160.655 0 290.892-130.237 290.892-290.893 0-160.655-130.237-290.892-290.892-290.892-160.656 0-290.893 130.237-290.893 290.892 0 160.656 130.237 290.893 290.893 290.893z" fill="#DBDBDB" style="mix-blend-mode:multiply" opacity=".28"/><path d="M698.332 658.758c158.888 0 287.692-128.803 287.692-287.691 0-158.887-128.804-287.69-287.692-287.69-158.887 0-287.691 128.803-287.691 287.69 0 158.888 128.804 287.691 287.691 287.691z" fill="#D9D9D9" style="mix-blend-mode:multiply" opacity=".3"/><path d="M698.616 654.862c157.116 0 284.484-127.368 284.484-284.484 0-157.116-127.368-284.484-284.484-284.484-157.116 0-284.484 127.368-284.484 284.484 0 157.116 127.368 284.484 284.484 284.484z" fill="#D8D8D8" style="mix-blend-mode:multiply" opacity=".31"/><path d="M698.9 650.971c155.348 0 281.282-125.934 281.282-281.282 0-155.348-125.934-281.283-281.282-281.283-155.348 0-281.283 125.935-281.283 281.283S543.552 650.971 698.9 650.971z" fill="#D6D6D6" style="mix-blend-mode:multiply" opacity=".32"/><path d="M699.177 647.086c153.58 0 278.081-124.501 278.081-278.081S852.757 90.925 699.177 90.925s-278.081 124.5-278.081 278.08c0 153.58 124.501 278.081 278.081 278.081z" fill="#D5D5D5" style="mix-blend-mode:multiply" opacity=".33"/><path d="M699.461 643.19c151.808 0 274.874-123.065 274.874-274.874 0-151.809-123.066-274.874-274.874-274.874-151.809 0-274.874 123.065-274.874 274.874 0 151.809 123.065 274.874 274.874 274.874z" fill="#D3D3D3" style="mix-blend-mode:multiply" opacity=".35"/><path d="M699.739 639.299c150.04 0 271.672-121.632 271.672-271.672 0-150.041-121.632-271.673-271.672-271.673-150.041 0-271.673 121.632-271.673 271.673 0 150.04 121.632 271.672 271.673 271.672z" fill="#D2D2D2" style="mix-blend-mode:multiply" opacity=".36"/><path d="M700.022 635.408c148.27 0 268.466-120.196 268.466-268.465 0-148.269-120.196-268.465-268.466-268.465-148.269 0-268.465 120.196-268.465 268.465 0 148.269 120.196 268.465 268.465 268.465z" fill="#D0D0D0" style="mix-blend-mode:multiply" opacity=".37"/><path d="M700.306 631.518c146.501 0 265.263-118.763 265.263-265.264S846.807 100.99 700.306 100.99c-146.502 0-265.264 118.763-265.264 265.264s118.762 265.264 265.264 265.264z" fill="#CECECE" style="mix-blend-mode:multiply" opacity=".38"/><path d="M700.583 627.621c144.73 0 262.057-117.327 262.057-262.056 0-144.73-117.327-262.057-262.057-262.057-144.73 0-262.056 117.327-262.056 262.057 0 144.729 117.326 262.056 262.056 262.056z" fill="#CDCDCD" style="mix-blend-mode:multiply" opacity=".4"/><path d="M700.867 623.731c142.962 0 258.855-115.894 258.855-258.856 0-142.961-115.893-258.855-258.855-258.855-142.962 0-258.855 115.894-258.855 258.855 0 142.962 115.893 258.856 258.855 258.856z" fill="#CBCBCB" style="mix-blend-mode:multiply" opacity=".41"/><path d="M701.145 619.846c141.194 0 255.654-114.461 255.654-255.654 0-141.194-114.46-255.654-255.654-255.654-141.194 0-255.654 114.46-255.654 255.654 0 141.193 114.46 255.654 255.654 255.654z" fill="#CACACA" style="mix-blend-mode:multiply" opacity=".42"/><path d="M701.429 615.949c139.422 0 252.446-113.024 252.446-252.446 0-139.423-113.024-252.447-252.446-252.447-139.423 0-252.447 113.024-252.447 252.447 0 139.422 113.024 252.446 252.447 252.446z" fill="#C8C8C8" style="mix-blend-mode:multiply" opacity=".43"/><path d="M701.712 612.058c137.654 0 249.245-111.59 249.245-249.245 0-137.654-111.591-249.245-249.245-249.245-137.655 0-249.245 111.591-249.245 249.245 0 137.655 111.59 249.245 249.245 249.245z" fill="#C7C7C7" style="mix-blend-mode:multiply" opacity=".44"/><path d="M701.99 608.162c135.883 0 246.038-110.155 246.038-246.038S837.873 116.086 701.99 116.086 455.952 226.241 455.952 362.124 566.107 608.162 701.99 608.162z" fill="#C5C5C5" style="mix-blend-mode:multiply" opacity=".46"/><path d="M702.273 604.277c134.115 0 242.837-108.721 242.837-242.836S836.388 118.604 702.273 118.604 459.437 227.326 459.437 361.441s108.721 242.836 242.836 242.836z" fill="#C3C3C3" style="mix-blend-mode:multiply" opacity=".47"/><path d="M702.557 600.386c132.347 0 239.635-107.288 239.635-239.635 0-132.346-107.288-239.635-239.635-239.635-132.347 0-239.635 107.289-239.635 239.635 0 132.347 107.288 239.635 239.635 239.635z" fill="#C2C2C2" style="mix-blend-mode:multiply" opacity=".48"/><path d="M702.835 596.49c130.575 0 236.428-105.852 236.428-236.428S833.41 123.634 702.835 123.634c-130.576 0-236.428 105.852-236.428 236.428S572.259 596.49 702.835 596.49z" fill="silver" style="mix-blend-mode:multiply" opacity=".49"/><path d="M703.118 592.605c128.808 0 233.227-104.419 233.227-233.227 0-128.807-104.419-233.226-233.227-233.226-128.807 0-233.226 104.419-233.226 233.226 0 128.808 104.419 233.227 233.226 233.227z" fill="#BFBFBF" style="mix-blend-mode:multiply" opacity=".51"/><path d="M703.396 588.709c127.036 0 230.019-102.984 230.019-230.02 0-127.036-102.983-230.019-230.019-230.019s-230.02 102.983-230.02 230.019 102.984 230.02 230.02 230.02z" fill="#BDBDBD" style="mix-blend-mode:multiply" opacity=".52"/><path d="M703.679 584.818c125.269 0 226.818-101.55 226.818-226.818 0-125.268-101.549-226.818-226.818-226.818-125.268 0-226.817 101.55-226.817 226.818 0 125.268 101.549 226.818 226.817 226.818z" fill="#BCBCBC" style="mix-blend-mode:multiply" opacity=".53"/><path d="M703.963 580.921c123.497 0 223.611-100.114 223.611-223.61 0-123.497-100.114-223.611-223.611-223.611-123.497 0-223.611 100.114-223.611 223.611 0 123.496 100.114 223.61 223.611 223.61z" fill="#BABABA" style="mix-blend-mode:multiply" opacity=".54"/><path d="M704.241 577.036c121.729 0 220.409-98.68 220.409-220.409 0-121.729-98.68-220.409-220.409-220.409-121.729 0-220.409 98.68-220.409 220.409 0 121.729 98.68 220.409 220.409 220.409z" fill="#B8B8B8" style="mix-blend-mode:multiply" opacity=".56"/><path d="M704.524 573.146c119.961 0 217.208-97.248 217.208-217.208 0-119.961-97.247-217.208-217.208-217.208-119.96 0-217.208 97.247-217.208 217.208 0 119.96 97.248 217.208 217.208 217.208z" fill="#B7B7B7" style="mix-blend-mode:multiply" opacity=".57"/><path d="M704.802 569.249c118.189 0 214.001-95.811 214.001-214 0-118.19-95.812-214.001-214.001-214.001-118.189 0-214.001 95.811-214.001 214.001 0 118.189 95.812 214 214.001 214z" fill="#B5B5B5" style="mix-blend-mode:multiply" opacity=".58"/><path d="M705.086 565.364c116.421 0 210.799-94.378 210.799-210.799s-94.378-210.799-210.799-210.799-210.799 94.378-210.799 210.799 94.378 210.799 210.799 210.799z" fill="#B4B4B4" style="mix-blend-mode:multiply" opacity=".59"/><path d="M705.369 561.468c114.65 0 207.592-92.942 207.592-207.592 0-114.65-92.942-207.592-207.592-207.592-114.65 0-207.592 92.942-207.592 207.592 0 114.65 92.942 207.592 207.592 207.592z" fill="#B2B2B2" style="mix-blend-mode:multiply" opacity=".6"/><path d="M705.647 557.577c112.882 0 204.391-91.509 204.391-204.39 0-112.882-91.509-204.391-204.391-204.391-112.882 0-204.391 91.509-204.391 204.391 0 112.881 91.509 204.39 204.391 204.39z" fill="#B1B1B1" style="mix-blend-mode:multiply" opacity=".62"/><path d="M705.931 553.681c111.11 0 201.183-90.073 201.183-201.184 0-111.11-90.073-201.183-201.183-201.183-111.111 0-201.184 90.073-201.184 201.183 0 111.111 90.073 201.184 201.184 201.184z" fill="#AFAFAF" style="mix-blend-mode:multiply" opacity=".63"/><path d="M706.214 549.796c109.343 0 197.982-88.64 197.982-197.982 0-109.343-88.639-197.982-197.982-197.982-109.342 0-197.982 88.639-197.982 197.982 0 109.342 88.64 197.982 197.982 197.982z" fill="#ADADAD" style="mix-blend-mode:multiply" opacity=".64"/><path d="M706.492 545.905c107.574 0 194.781-87.206 194.781-194.781 0-107.574-87.207-194.78-194.781-194.78-107.574 0-194.781 87.206-194.781 194.78 0 107.575 87.207 194.781 194.781 194.781z" fill="#ACACAC" style="mix-blend-mode:multiply" opacity=".65"/><path d="M706.775 542.009c105.804 0 191.574-85.771 191.574-191.574 0-105.803-85.77-191.573-191.574-191.573-105.803 0-191.573 85.77-191.573 191.573 0 105.803 85.77 191.574 191.573 191.574z" fill="#AAA" style="mix-blend-mode:multiply" opacity=".67"/><path d="M707.053 538.124c104.035 0 188.372-84.337 188.372-188.372 0-104.035-84.337-188.372-188.372-188.372-104.035 0-188.372 84.337-188.372 188.372 0 104.035 84.337 188.372 188.372 188.372z" fill="#A9A9A9" style="mix-blend-mode:multiply" opacity=".68"/><path d="M707.337 534.227c102.263 0 185.165-82.901 185.165-185.165 0-102.263-82.902-185.165-185.165-185.165-102.264 0-185.165 82.902-185.165 185.165 0 102.264 82.901 185.165 185.165 185.165z" fill="#A7A7A7" style="mix-blend-mode:multiply" opacity=".69"/><path d="M707.62 530.337c100.496 0 181.964-81.468 181.964-181.964S808.116 166.41 707.62 166.41c-100.495 0-181.963 81.467-181.963 181.963s81.468 181.964 181.963 181.964z" fill="#A6A6A6" style="mix-blend-mode:multiply" opacity=".7"/><path d="M707.898 526.44c98.725 0 178.757-80.032 178.757-178.756 0-98.725-80.032-178.757-178.757-178.757-98.724 0-178.756 80.032-178.756 178.757 0 98.724 80.032 178.756 178.756 178.756z" fill="#A4A4A4" style="mix-blend-mode:multiply" opacity=".72"/><path d="M708.182 522.555c96.956 0 175.555-78.599 175.555-175.555s-78.599-175.555-175.555-175.555c-96.957 0-175.555 78.599-175.555 175.555s78.598 175.555 175.555 175.555z" fill="#A2A2A2" style="mix-blend-mode:multiply" opacity=".73"/><path d="M708.46 518.665c95.188 0 172.353-77.166 172.353-172.354 0-95.188-77.165-172.353-172.353-172.353-95.189 0-172.354 77.165-172.354 172.353s77.165 172.354 172.354 172.354z" fill="#A1A1A1" style="mix-blend-mode:multiply" opacity=".74"/><path d="M708.743 514.768c93.417 0 169.146-75.729 169.146-169.146 0-93.417-75.729-169.146-169.146-169.146-93.417 0-169.146 75.729-169.146 169.146 0 93.417 75.729 169.146 169.146 169.146z" fill="#9F9F9F" style="mix-blend-mode:multiply" opacity=".75"/><path d="M709.026 510.877c91.649 0 165.945-74.296 165.945-165.944 0-91.649-74.296-165.945-165.945-165.945-91.648 0-165.944 74.296-165.944 165.945 0 91.648 74.296 165.944 165.944 165.944z" fill="#9E9E9E" style="mix-blend-mode:multiply" opacity=".77"/><path d="M709.304 506.987c89.878 0 162.738-72.86 162.738-162.738s-72.86-162.738-162.738-162.738c-89.877 0-162.737 72.86-162.737 162.738s72.86 162.738 162.737 162.738z" fill="#9C9C9C" style="mix-blend-mode:multiply" opacity=".78"/><path d="M709.588 503.096c88.109 0 159.536-71.427 159.536-159.536 0-88.11-71.427-159.537-159.536-159.537S550.052 255.45 550.052 343.56c0 88.109 71.427 159.536 159.536 159.536z" fill="#9B9B9B" style="mix-blend-mode:multiply" opacity=".79"/><path d="M709.866 499.205c86.341 0 156.334-69.993 156.334-156.334 0-86.342-69.993-156.335-156.334-156.335-86.342 0-156.335 69.993-156.335 156.335 0 86.341 69.993 156.334 156.335 156.334z" fill="#999" style="mix-blend-mode:multiply" opacity=".8"/><path d="M710.149 495.315c84.57 0 153.128-68.558 153.128-153.128 0-84.57-68.558-153.128-153.128-153.128-84.57 0-153.128 68.558-153.128 153.128 0 84.57 68.558 153.128 153.128 153.128z" fill="#989898" style="mix-blend-mode:multiply" opacity=".81"/><path d="M710.433 491.424c82.802 0 149.926-67.124 149.926-149.926 0-82.802-67.124-149.926-149.926-149.926-82.802 0-149.926 67.124-149.926 149.926 0 82.802 67.124 149.926 149.926 149.926z" fill="#969696" style="mix-blend-mode:multiply" opacity=".83"/><path d="M710.711 487.528c81.031 0 146.719-65.689 146.719-146.72 0-81.03-65.688-146.719-146.719-146.719-81.031 0-146.719 65.689-146.719 146.719 0 81.031 65.688 146.72 146.719 146.72z" fill="#949494" style="mix-blend-mode:multiply" opacity=".84"/><path d="M710.994 483.637c79.263 0 143.518-64.255 143.518-143.518 0-79.262-64.255-143.517-143.518-143.517-79.262 0-143.517 64.255-143.517 143.517 0 79.263 64.255 143.518 143.517 143.518z" fill="#939393" style="mix-blend-mode:multiply" opacity=".85"/><path d="M711.277 479.746c77.492 0 140.311-62.819 140.311-140.31 0-77.492-62.819-140.311-140.311-140.311-77.491 0-140.31 62.819-140.31 140.311 0 77.491 62.819 140.31 140.31 140.31z" fill="#919191" style="mix-blend-mode:multiply" opacity=".86"/><path d="M808.507 435.695c53.544-53.544 53.544-140.357 0-193.901-53.544-53.544-140.357-53.544-193.902 0-53.544 53.544-53.544 140.357.001 193.901 53.544 53.545 140.357 53.545 193.901 0z" fill="#909090" style="mix-blend-mode:multiply" opacity=".88"/><path d="M711.839 471.965c73.955 0 133.907-59.953 133.907-133.908 0-73.955-59.952-133.907-133.907-133.907-73.955 0-133.908 59.952-133.908 133.907 0 73.955 59.953 133.908 133.908 133.908z" fill="#8E8E8E" style="mix-blend-mode:multiply" opacity=".89"/><path d="M804.541 429.796c51.042-51.042 51.041-133.797 0-184.838-51.042-51.042-133.797-51.042-184.839 0-51.041 51.041-51.041 133.796 0 184.838 51.042 51.042 133.797 51.042 184.839 0z" fill="#8D8D8D" style="mix-blend-mode:multiply" opacity=".9"/><path d="M802.557 426.839c49.791-49.792 49.791-130.519 0-180.311-49.791-49.791-130.519-49.791-180.311 0-49.791 49.792-49.791 130.52 0 180.311 49.792 49.791 130.52 49.791 180.311 0z" fill="#8B8B8B" style="mix-blend-mode:multiply" opacity=".91"/><path d="M800.57 423.883c48.539-48.539 48.539-127.236 0-175.775s-127.237-48.539-175.776 0c-48.539 48.539-48.539 127.236 0 175.775s127.237 48.539 175.776 0z" fill="#898989" style="mix-blend-mode:multiply" opacity=".93"/><path d="M798.582 420.93c47.288-47.289 47.288-123.959 0-171.248-47.289-47.288-123.959-47.288-171.248 0-47.289 47.289-47.289 123.959 0 171.248 47.289 47.289 123.959 47.289 171.248 0z" fill="#888" style="mix-blend-mode:multiply" opacity=".94"/><path d="M796.604 417.979c46.036-46.037 46.036-120.676 0-166.713-46.037-46.036-120.676-46.036-166.713 0-46.036 46.037-46.036 120.676 0 166.713 46.037 46.036 120.676 46.036 166.713 0z" fill="#868686" style="mix-blend-mode:multiply" opacity=".95"/><path d="M794.616 415.025c44.786-44.786 44.786-117.398 0-162.184s-117.399-44.786-162.185 0-44.786 117.398 0 162.184 117.399 44.786 162.185 0z" fill="#858585" style="mix-blend-mode:multiply" opacity=".96"/><path d="M713.806 444.724c61.569 0 111.481-49.911 111.481-111.48s-49.912-111.48-111.481-111.48c-61.568 0-111.48 49.911-111.48 111.48s49.912 111.48 111.48 111.48z" fill="#838383" style="mix-blend-mode:multiply" opacity=".98"/><path d="M714.09 440.833c59.798 0 108.273-48.475 108.273-108.273 0-59.798-48.475-108.273-108.273-108.273-59.798 0-108.273 48.475-108.273 108.273 0 59.798 48.475 108.273 108.273 108.273z" fill="#828282" style="mix-blend-mode:multiply" opacity=".99"/><path d="M714.368 436.943c58.029 0 105.071-47.042 105.071-105.072 0-58.029-47.042-105.072-105.071-105.072-58.03 0-105.072 47.043-105.072 105.072 0 58.03 47.042 105.072 105.072 105.072z" fill="gray" style="mix-blend-mode:multiply"/></g><path d="m984.05 277.456-1.511-6.314-.751-3.157c-.133-.522-.244-1.056-.383-1.573l-.462-1.562-3.657-12.467 42.684-13.712 4.23 14.379.55 1.801c.16.6.3 1.212.45 1.818l.88 3.646 1.74 7.298-43.77 9.843z" fill="#AAB8C6"/><path d="m989.697 312.49-.266-3.23-.434-3.212-.872-6.431c-.473-4.302-1.368-8.537-2.146-12.784l44.041-8.387c.91 4.919 1.91 9.821 2.49 14.796l1 7.442.49 3.718.32 3.741-44.623 4.347z" fill="#1191C8"/><path d="m990.937 347.94.1-6.487.055-3.24c.034-1.079-.061-2.162-.077-3.241l-.228-6.48-.106-3.241c0-1.078-.066-2.162-.178-3.235l44.747-2.862c.12 1.245.17 2.495.21 3.746l.13 3.752.25 7.503c.03 1.251.12 2.501.08 3.752l-.05 3.752-.11 7.503-44.823-1.222z" fill="#AAB8C6"/><path d="M987.758 383.267c.806-4.252 1.111-8.576 1.667-12.861l.373-3.224.183-1.612.106-1.617.417-6.47 44.756 2.729-.49 7.492-.13 1.874-.21 1.862-.42 3.729c-.61 4.969-1.01 9.96-1.93 14.885l-44.322-6.787zM891.19 557.655a287.673 287.673 0 0 0 67.421-85.19l39.768 20.704a332.355 332.355 0 0 1-77.953 98.48l-29.236-33.994zM771.9 618.667c2.101-.511 4.213-.984 6.309-1.523l6.231-1.84 6.236-1.823c1.045-.283 2.068-.644 3.085-1.006l3.068-1.078 14.451 42.442-3.541 1.234c-1.178.417-2.356.828-3.562 1.162l-7.187 2.112-7.226 2.106c-2.417.628-4.852 1.184-7.281 1.773L771.9 618.667z" fill="#1191C8"/><path d="m736.973 624.965 12.856-1.757 12.784-2.379 9.171 43.91-14.751 2.779c-4.947.728-9.911 1.362-14.868 2.034l-5.192-44.587z" fill="#AAB8C6"/><path d="m701.551 626.821 3.246.055c1.078 0 2.162.056 3.24 0l6.481-.222 6.481-.217 6.458-.555 3.669 44.687-7.482.623-7.503.261-7.504.256c-1.25.061-2.501 0-3.751 0l-3.752-.056.417-44.832zM666.167 624.336l12.89 1.468 12.945.834-1.929 44.798-14.979-.972-14.918-1.69 5.991-44.438z" fill="#1191C8"/><path d="M490.151 530.798a287.28 287.28 0 0 0 86.335 65.914l-20.009 40.13a332.049 332.049 0 0 1-99.808-76.208l33.482-29.836z" fill="#AAB8C6"/><path d="M426.894 412.692c1.111 4.18 2.423 8.338 3.613 12.479.316 1.033.583 2.084.939 3.107l1.073 3.068 2.145 6.114-42.181 15.201-2.468-7.075-1.234-3.541c-.405-1.178-.722-2.39-1.111-3.585-1.39-4.797-2.868-9.571-4.163-14.396l43.387-11.372z" fill="#1191C8"/><path d="m420.074 377.854.861 6.431c.306 2.139.778 4.257 1.151 6.386.833 4.241 1.467 8.526 2.584 12.717l-43.72 9.949c-1.262-4.841-2.035-9.788-2.985-14.701-.439-2.462-.962-4.908-1.317-7.381l-1.012-7.437 44.438-5.964zM417.467 342.476l.433 12.961c0 1.112.106 2.163.206 3.235l.278 3.235.556 6.459-44.616 4.446-.628-7.475-.311-3.741c-.111-1.251-.217-2.496-.239-3.746l-.5-15.007 44.821-.367z" fill="#AAB8C6"/><path d="m419.457 307.065-.739 6.442c-.256 2.145-.306 4.313-.473 6.464-.25 4.318-.667 8.626-.628 12.95l-44.821-1.111c0-5.003.422-10.005.722-15.007.189-2.496.267-5.003.556-7.487l.845-7.459 44.538 5.208zM509.777 129.392a287.724 287.724 0 0 0-64.347 87.514l-40.48-19.276a332.499 332.499 0 0 1 74.39-101.159l30.437 32.921zM626.749 64.1l-6.203 1.829c-2.079.611-4.169 1.184-6.197 1.945-4.086 1.451-8.193 2.83-12.228 4.314l-15.947-41.91c4.691-1.717 9.449-3.334 14.135-5.002 2.345-.866 4.752-1.534 7.148-2.223l7.192-2.112 12.1 43.16z" fill="#1191C8"/><path d="M661.443 56.563c-8.537 1.39-17.053 2.952-25.44 5.108l-10.727-43.537c9.688-2.473 19.537-4.302 29.408-5.897l6.759 44.326zM696.776 53.445c-8.643.162-17.269.895-25.862 1.84l-5.269-44.499c9.944-1.111 19.926-1.94 29.936-2.134l1.195 44.793z" fill="#AAB8C6"/><path d="M732.221 54.696c-8.604-.79-17.231-1.328-25.89-1.334l.311-44.838c10.005 0 20.009.628 29.975 1.55l-4.396 44.622zM977.286 252.372l.006.011 42.688-13.712-.01-.016-42.684 13.717z" fill="#1191C8"/><path d="M911.505 141.826a287.655 287.655 0 0 0-88.652-62.807l18.553-40.82a332.52 332.52 0 0 1 102.47 72.634l-32.371 30.993z" fill="#AAB8C6"/><path d="M1049.49 591.06a431.264 431.264 0 0 0 47.64-84.073l-168-71.378a248.758 248.758 0 0 1-27.352 48.211l147.712 107.24zm45.49-83.695a428.453 428.453 0 0 1-46.25 81.666L903.663 484.326a249.07 249.07 0 0 0 26.851-47.383l164.466 70.422zM748.595 764.619c50.43-5.158 99.714-19.676 145.068-42.092a428.074 428.074 0 0 0 121.517-89.887L882.247 507.542a245.526 245.526 0 0 1-69.561 51.375c-26.023 12.867-54.353 21.276-83.183 24.167l19.092 181.535zm264.445-132.362c-68.919 72.94-163.803 119.973-263.455 130.428l-19.198-177.862a244.656 244.656 0 0 0 83.111-24.261 250.07 250.07 0 0 0 37.106-22.589 236.765 236.765 0 0 0 32.482-28.68l129.954 122.964zM609.33 756.182c3.946.878 7.87 1.84 11.839 2.618l11.944 2.129c7.943 1.539 15.996 2.373 24.022 3.401 4.008.556 8.043.84 12.078 1.151l12.1.895c4.041.228 8.088.272 12.128.4l6.064.15c2.024.039 4.041.117 6.064.044l-.617-182.536c-1.156.073-2.306 0-3.457-.033l-3.457-.106c-2.301-.083-4.613-.061-6.914-.194l-6.892-.556c-2.296-.167-4.603-.278-6.881-.645-4.558-.644-9.166-.995-13.685-1.951l-6.814-1.183c-2.262-.434-4.497-1.034-6.753-1.529L609.33 756.182zm95.044 9.004a423.348 423.348 0 0 1-93.471-10.505l39.463-174.526a244.345 244.345 0 0 0 53.914 6.114l.094 178.917zM331.521 547.828A422.565 422.565 0 0 0 489.29 708.732a440.305 440.305 0 0 0 68.476 32.237l62.808-171.403a251.391 251.391 0 0 1-74.858-43.604 244.826 244.826 0 0 1-54.67-66.926l-159.525 88.792zm225.762 191.035a431.325 431.325 0 0 1-128.844-75.347 425.9 425.9 0 0 1-94.761-115.527l156.095-87.446a247.191 247.191 0 0 0 54.748 66.82 252.295 252.295 0 0 0 74.758 43.665l-61.996 167.835zM392.75 48.182a429.863 429.863 0 0 0-57.639 77.814l157.991 91.427a247.268 247.268 0 0 1 32.838-44.405L392.75 48.182zm-55.471 77.659a426.605 426.605 0 0 1 55.987-75.536L524.161 172.28a248.245 248.245 0 0 0-32.276 43.604l-154.606-90.042zM712.878-86.654a426.569 426.569 0 0 0-280.81 97.996L548.395 152.01a244.053 244.053 0 0 1 160.854-56.182l3.629-182.48zM434.136 11.987A424.878 424.878 0 0 1 711.65-84.875L708.599 94.02a245.992 245.992 0 0 0-160.826 56.138L434.136 11.987z" fill="#1191C8"/><path d="m929.964 435.97-.006.006 166.342 70.677v-.011L929.964 435.97zM1099.95 179.988A424.158 424.158 0 0 0 899.11-39.56l-83.211 162.444a242.455 242.455 0 0 1 36.773 23.055 246.058 246.058 0 0 1 78.064 102.52l169.214-68.471zM899.344-37.431A424.278 424.278 0 0 1 1097.8 179.571l-165.663 67.577a242.955 242.955 0 0 0-114.798-125.554l82.005-159.025z" fill="#1191C8"/><path d="M704.03 630.206c160.572 0 290.742-130.17 290.742-290.743 0-160.572-130.17-290.742-290.742-290.742-160.573 0-290.743 130.17-290.743 290.742 0 160.573 130.17 290.743 290.743 290.743z" fill="url(#c)"/></g><defs><linearGradient id="a" x1="26" y1="-90.5" x2="1517" y2="845.5" gradientUnits="userSpaceOnUse"><stop stop-color="#01B1FF"/><stop offset="1" stop-color="#1A50B1"/></linearGradient><linearGradient id="c" x1="855.563" y1="2.733" x2="501.313" y2="790.108" gradientUnits="userSpaceOnUse"><stop stop-color="#F2F2F2"/><stop offset="1" stop-color="#fff"/></linearGradient></defs></svg>