<svg width="18" height="19" fill="none" xmlns="http://www.w3.org/2000/svg"><path d="M9 18.62c4.904 0 8.965-4.07 8.965-8.966C17.965 4.75 13.895.69 8.99.69 4.096.69.035 4.75.035 9.654c0 4.896 4.07 8.965 8.965 8.965zM8.912 6.445c-.66 0-1.186-.527-1.186-1.195s.527-1.195 1.186-1.195c.66 0 1.178.527 1.178 1.195S9.57 6.446 8.912 6.446zm-1.503 8.21c-.378 0-.668-.273-.668-.651 0-.352.29-.642.668-.642h1.116v-4.13H7.56a.64.64 0 0 1-.66-.651.65.65 0 0 1 .66-.642h1.705c.465 0 .712.334.712.827v4.596h1.116c.378 0 .668.29.668.642 0 .378-.29.65-.668.65H7.409z" fill="#AAB8C6"/></svg>