<svg width="195" height="195" fill="none" xmlns="http://www.w3.org/2000/svg"><path d="M195 0H0v195h195V0z" fill="#fff"/><path d="M18.525 12.675h-5.85v5.85h5.85v-5.85zm5.85 0h-5.85v5.85h5.85v-5.85zm5.85 0h-5.85v5.85h5.85v-5.85zm5.85 0h-5.85v5.85h5.85v-5.85z" fill="#000"/><path d="M41.925 12.675h-5.85v5.85h5.85v-5.85zm5.85 0h-5.85v5.85h5.85v-5.85zm5.85 0h-5.85v5.85h5.85v-5.85zm11.7 0h-5.85v5.85h5.85v-5.85zm11.7 0h-5.85v5.85h5.85v-5.85zm11.7 0h-5.85v5.85h5.85v-5.85zm5.85 0h-5.85v5.85h5.85v-5.85zm5.85 0h-5.85v5.85h5.85v-5.85zm5.85 0h-5.85v5.85h5.85v-5.85zm17.55 0h-5.85v5.85h5.85v-5.85zm5.85 0h-5.85v5.85h5.85v-5.85zm5.85 0h-5.85v5.85h5.85v-5.85zm11.7 0h-5.85v5.85h5.85v-5.85zm5.85 0h-5.85v5.85h5.85v-5.85zm5.85 0h-5.85v5.85h5.85v-5.85zm5.85 0h-5.85v5.85h5.85v-5.85zm5.85 0h-5.85v5.85h5.85v-5.85zm5.85 0h-5.85v5.85h5.85v-5.85zm5.85 0h-5.85v5.85h5.85v-5.85zm-163.8 5.85h-5.85v5.85h5.85v-5.85zm35.1 0h-5.85v5.85h5.85v-5.85zm17.55 0h-5.85v5.85h5.85v-5.85zm5.85 0h-5.85v5.85h5.85v-5.85zm5.85 0h-5.85v5.85h5.85v-5.85zm5.85 0h-5.85v5.85h5.85v-5.85zm5.85 0h-5.85v5.85h5.85v-5.85zm17.55 0h-5.85v5.85h5.85v-5.85zm5.85 0h-5.85v5.85h5.85v-5.85zm17.55 0h-5.85v5.85h5.85v-5.85zm11.7 0h-5.85v5.85h5.85v-5.85zm35.1 0h-5.85v5.85h5.85v-5.85zm-163.8 5.85h-5.85v5.85h5.85v-5.85zm11.7 0h-5.85v5.85h5.85v-5.85zm5.85 0h-5.85v5.85h5.85v-5.85zM41.925 24.375h-5.85v5.85h5.85v-5.85zm11.7 0h-5.85v5.85h5.85v-5.85zm11.7 0h-5.85v5.85h5.85v-5.85zm5.85 0h-5.85v5.85h5.85v-5.85zm5.85 0h-5.85v5.85h5.85v-5.85zm35.1 0h-5.85v5.85h5.85v-5.85zm11.7 0h-5.85v5.85h5.85v-5.85zm23.4 0h-5.85v5.85h5.85v-5.85zm11.7 0h-5.85v5.85h5.85v-5.85zm5.85 0h-5.85v5.85h5.85v-5.85zm5.85 0h-5.85v5.85h5.85v-5.85zm11.7 0h-5.85v5.85h5.85v-5.85zm-163.8 5.85h-5.85v5.85h5.85v-5.85zm11.7 0h-5.85v5.85h5.85v-5.85zm5.85 0h-5.85v5.85h5.85v-5.85zM41.925 30.225h-5.85v5.85h5.85v-5.85zm11.7 0h-5.85v5.85h5.85v-5.85zm11.7 0h-5.85v5.85h5.85v-5.85zm5.85 0h-5.85v5.85h5.85v-5.85zm5.85 0h-5.85v5.85h5.85v-5.85zm11.7 0h-5.85v5.85h5.85v-5.85zm11.7 0h-5.85v5.85h5.85v-5.85zm5.85 0h-5.85v5.85h5.85v-5.85zm11.7 0h-5.85v5.85h5.85v-5.85zm5.85 0h-5.85v5.85h5.85v-5.85zm5.85 0h-5.85v5.85h5.85v-5.85zm17.55 0h-5.85v5.85h5.85v-5.85zm11.7 0h-5.85v5.85h5.85v-5.85zm5.85 0h-5.85v5.85h5.85v-5.85zm5.85 0h-5.85v5.85h5.85v-5.85zm11.7 0h-5.85v5.85h5.85v-5.85zm-163.8 5.85h-5.85v5.85h5.85v-5.85zm11.7 0h-5.85v5.85h5.85v-5.85zm5.85 0h-5.85v5.85h5.85v-5.85zM41.925 36.075h-5.85v5.85h5.85v-5.85zm11.7 0h-5.85v5.85h5.85v-5.85zm11.7 0h-5.85v5.85h5.85v-5.85zm17.55 0h-5.85v5.85h5.85v-5.85zm5.85 0h-5.85v5.85h5.85v-5.85zm11.7 0h-5.85v5.85h5.85v-5.85zm11.7 0h-5.85v5.85h5.85v-5.85zm5.85 0h-5.85v5.85h5.85v-5.85zm5.85 0h-5.85v5.85h5.85v-5.85zm23.4 0h-5.85v5.85h5.85v-5.85zm11.7 0h-5.85v5.85h5.85v-5.85zm5.85 0h-5.85v5.85h5.85v-5.85zm5.85 0h-5.85v5.85h5.85v-5.85zm11.7 0h-5.85v5.85h5.85v-5.85zm-163.8 5.85h-5.85v5.85h5.85v-5.85z" fill="#000"/><path d="M53.625 41.925h-5.85v5.85h5.85v-5.85zm23.4 0h-5.85v5.85h5.85v-5.85zm5.85 0h-5.85v5.85h5.85v-5.85zm11.7 0h-5.85v5.85h5.85v-5.85zm11.7 0h-5.85v5.85h5.85v-5.85zm5.85 0h-5.85v5.85h5.85v-5.85zm11.7 0h-5.85v5.85h5.85v-5.85zm5.85 0h-5.85v5.85h5.85v-5.85zm17.55 0h-5.85v5.85h5.85v-5.85zm35.1 0h-5.85v5.85h5.85v-5.85zm-163.8 5.85h-5.85v5.85h5.85v-5.85zm5.85 0h-5.85v5.85h5.85v-5.85zm5.85 0h-5.85v5.85h5.85v-5.85zm5.85 0h-5.85v5.85h5.85v-5.85z" fill="#000"/><path d="M41.925 47.775h-5.85v5.85h5.85v-5.85zm5.85 0h-5.85v5.85h5.85v-5.85zm5.85 0h-5.85v5.85h5.85v-5.85zm11.7 0h-5.85v5.85h5.85v-5.85zm11.7 0h-5.85v5.85h5.85v-5.85zm11.7 0h-5.85v5.85h5.85v-5.85zm11.7 0h-5.85v5.85h5.85v-5.85zm11.7 0h-5.85v5.85h5.85v-5.85zm11.7 0h-5.85v5.85h5.85v-5.85zm11.7 0h-5.85v5.85h5.85v-5.85zm11.7 0h-5.85v5.85h5.85v-5.85zm5.85 0h-5.85v5.85h5.85v-5.85zm5.85 0h-5.85v5.85h5.85v-5.85zm5.85 0h-5.85v5.85h5.85v-5.85zm5.85 0h-5.85v5.85h5.85v-5.85zm5.85 0h-5.85v5.85h5.85v-5.85zm5.85 0h-5.85v5.85h5.85v-5.85zm-105.3 5.85h-5.85v5.85h5.85v-5.85zm11.7 0h-5.85v5.85h5.85v-5.85zm17.55 0h-5.85v5.85h5.85v-5.85zm5.85 0h-5.85v5.85h5.85v-5.85zm5.85 0h-5.85v5.85h5.85v-5.85zm5.85 0h-5.85v5.85h5.85v-5.85zm5.85 0h-5.85v5.85h5.85v-5.85zm5.85 0h-5.85v5.85h5.85v-5.85zm-117 5.85h-5.85v5.85h5.85v-5.85zm5.85 0h-5.85v5.85h5.85v-5.85zm5.85 0h-5.85v5.85h5.85v-5.85zm5.85 0h-5.85v5.85h5.85v-5.85zm17.55 0h-5.85v5.85h5.85v-5.85zm11.7 0h-5.85v5.85h5.85v-5.85zm11.7 0h-5.85v5.85h5.85v-5.85zm5.85 0h-5.85v5.85h5.85v-5.85zm5.85 0h-5.85v5.85h5.85v-5.85zm5.85 0h-5.85v5.85h5.85v-5.85zm11.7 0h-5.85v5.85h5.85v-5.85zm5.85 0h-5.85v5.85h5.85v-5.85zm5.85 0h-5.85v5.85h5.85v-5.85zm5.85 0h-5.85v5.85h5.85v-5.85zm5.85 0h-5.85v5.85h5.85v-5.85zm11.7 0h-5.85v5.85h5.85v-5.85zm17.55 0h-5.85v5.85h5.85v-5.85zm5.85 0h-5.85v5.85h5.85v-5.85zm5.85 0h-5.85v5.85h5.85v-5.85zm11.7 0h-5.85v5.85h5.85v-5.85zm-163.8 5.85h-5.85v5.85h5.85v-5.85zm11.7 0h-5.85v5.85h5.85v-5.85zm29.25 0h-5.85v5.85h5.85v-5.85zm5.85 0h-5.85v5.85h5.85v-5.85zm11.7 0h-5.85v5.85h5.85v-5.85zm11.7 0h-5.85v5.85h5.85v-5.85zm5.85 0h-5.85v5.85h5.85v-5.85zm5.85 0h-5.85v5.85h5.85v-5.85zm5.85 0h-5.85v5.85h5.85v-5.85zm29.25 0h-5.85v5.85h5.85v-5.85zm11.7 0h-5.85v5.85h5.85v-5.85zm11.7 0h-5.85v5.85h5.85v-5.85zm23.4 0h-5.85v5.85h5.85v-5.85zm-163.8 5.85h-5.85v5.85h5.85v-5.85zm23.4 0h-5.85v5.85h5.85v-5.85zm5.85 0h-5.85v5.85h5.85v-5.85zm5.85 0h-5.85v5.85h5.85v-5.85zm11.7 0h-5.85v5.85h5.85v-5.85zm5.85 0h-5.85v5.85h5.85v-5.85zm5.85 0h-5.85v5.85h5.85v-5.85zm5.85 0h-5.85v5.85h5.85v-5.85zm5.85 0h-5.85v5.85h5.85v-5.85zm5.85 0h-5.85v5.85h5.85v-5.85zm23.4 0h-5.85v5.85h5.85v-5.85zm5.85 0h-5.85v5.85h5.85v-5.85zm11.7 0h-5.85v5.85h5.85v-5.85zm5.85 0h-5.85v5.85h5.85v-5.85zm17.55 0h-5.85v5.85h5.85v-5.85zm11.7 0h-5.85v5.85h5.85v-5.85zm5.85 0h-5.85v5.85h5.85v-5.85zm-152.1 5.85h-5.85v5.85h5.85v-5.85zm23.4 0h-5.85v5.85h5.85v-5.85zm11.7 0h-5.85v5.85h5.85v-5.85zm11.7 0h-5.85v5.85h5.85v-5.85zm5.85 0h-5.85v5.85h5.85v-5.85zm29.25 0h-5.85v5.85h5.85v-5.85zm5.85 0h-5.85v5.85h5.85v-5.85zm35.1 0h-5.85v5.85h5.85v-5.85zm35.1 0h-5.85v5.85h5.85v-5.85zm-163.8 5.85h-5.85v5.85h5.85v-5.85zm5.85 0h-5.85v5.85h5.85v-5.85zm17.55 0h-5.85v5.85h5.85v-5.85zm11.7 0h-5.85v5.85h5.85v-5.85zm5.85 0h-5.85v5.85h5.85v-5.85zm5.85 0h-5.85v5.85h5.85v-5.85zm5.85 0h-5.85v5.85h5.85v-5.85zm5.85 0h-5.85v5.85h5.85v-5.85zm11.7 0h-5.85v5.85h5.85v-5.85zm11.7 0h-5.85v5.85h5.85v-5.85zm11.7 0h-5.85v5.85h5.85v-5.85zm5.85 0h-5.85v5.85h5.85v-5.85zm5.85 0h-5.85v5.85h5.85v-5.85zm29.25 0h-5.85v5.85h5.85v-5.85zm11.7 0h-5.85v5.85h5.85v-5.85zm11.7 0h-5.85v5.85h5.85v-5.85zm-140.4 5.85h-5.85v5.85h5.85v-5.85zm23.4 0h-5.85v5.85h5.85v-5.85zm5.85 0h-5.85v5.85h5.85v-5.85zm17.55 0h-5.85v5.85h5.85v-5.85zm5.85 0h-5.85v5.85h5.85v-5.85zm11.7 0h-5.85v5.85h5.85v-5.85zm5.85 0h-5.85v5.85h5.85v-5.85zm5.85 0h-5.85v5.85h5.85v-5.85zm5.85 0h-5.85v5.85h5.85v-5.85zm5.85 0h-5.85v5.85h5.85v-5.85zm17.55 0h-5.85v5.85h5.85v-5.85zm11.7 0h-5.85v5.85h5.85v-5.85zm11.7 0h-5.85v5.85h5.85v-5.85zm5.85 0h-5.85v5.85h5.85v-5.85zm5.85 0h-5.85v5.85h5.85v-5.85zm5.85 0h-5.85v5.85h5.85v-5.85zm-163.8 5.85h-5.85v5.85h5.85v-5.85zm17.55 0h-5.85v5.85h5.85v-5.85zm17.55 0h-5.85v5.85h5.85v-5.85zm17.55 0h-5.85v5.85h5.85v-5.85zm5.85 0h-5.85v5.85h5.85v-5.85zm5.85 0h-5.85v5.85h5.85v-5.85zm11.7 0h-5.85v5.85h5.85v-5.85zm17.55 0h-5.85v5.85h5.85v-5.85zm11.7 0h-5.85v5.85h5.85v-5.85zm5.85 0h-5.85v5.85h5.85v-5.85zm17.55 0h-5.85v5.85h5.85v-5.85zm5.85 0h-5.85v5.85h5.85v-5.85zm5.85 0h-5.85v5.85h5.85v-5.85zm5.85 0h-5.85v5.85h5.85v-5.85zm5.85 0h-5.85v5.85h5.85v-5.85zm5.85 0h-5.85v5.85h5.85v-5.85zm5.85 0h-5.85v5.85h5.85v-5.85zm-163.8 5.85h-5.85v5.85h5.85v-5.85zm11.7 0h-5.85v5.85h5.85v-5.85zm5.85 0h-5.85v5.85h5.85v-5.85zm11.7 0h-5.85v5.85h5.85v-5.85zm17.55 0h-5.85v5.85h5.85v-5.85zm5.85 0h-5.85v5.85h5.85v-5.85zm5.85 0h-5.85v5.85h5.85v-5.85zm5.85 0h-5.85v5.85h5.85v-5.85zm17.55 0h-5.85v5.85h5.85v-5.85zm5.85 0h-5.85v5.85h5.85v-5.85zm5.85 0h-5.85v5.85h5.85v-5.85zm11.7 0h-5.85v5.85h5.85v-5.85zm5.85 0h-5.85v5.85h5.85v-5.85zm5.85 0h-5.85v5.85h5.85v-5.85zm5.85 0h-5.85v5.85h5.85v-5.85zm11.7 0h-5.85v5.85h5.85v-5.85zm5.85 0h-5.85v5.85h5.85v-5.85zm17.55 0h-5.85v5.85h5.85v-5.85zm5.85 0h-5.85v5.85h5.85v-5.85zm-152.1 5.85h-5.85v5.85h5.85v-5.85zm11.7 0h-5.85v5.85h5.85v-5.85zm5.85 0h-5.85v5.85h5.85v-5.85zm5.85 0h-5.85v5.85h5.85v-5.85zm11.7 0h-5.85v5.85h5.85v-5.85zm11.7 0h-5.85v5.85h5.85v-5.85zm11.7 0h-5.85v5.85h5.85v-5.85zm11.7 0h-5.85v5.85h5.85v-5.85zm11.7 0h-5.85v5.85h5.85v-5.85zm23.4 0h-5.85v5.85h5.85v-5.85zm5.85 0h-5.85v5.85h5.85v-5.85zm17.55 0h-5.85v5.85h5.85v-5.85zm5.85 0h-5.85v5.85h5.85v-5.85zm11.7 0h-5.85v5.85h5.85v-5.85zm-146.25 5.85h-5.85v5.85h5.85v-5.85zm5.85 0h-5.85v5.85h5.85v-5.85zm11.7 0h-5.85v5.85h5.85v-5.85zm11.7 0h-5.85v5.85h5.85v-5.85zm5.85 0h-5.85v5.85h5.85v-5.85zm5.85 0h-5.85v5.85h5.85v-5.85zm29.25 0h-5.85v5.85h5.85v-5.85zm5.85 0h-5.85v5.85h5.85v-5.85zm17.55 0h-5.85v5.85h5.85v-5.85zm5.85 0h-5.85v5.85h5.85v-5.85zm5.85 0h-5.85v5.85h5.85v-5.85zm5.85 0h-5.85v5.85h5.85v-5.85zm5.85 0h-5.85v5.85h5.85v-5.85zm17.55 0h-5.85v5.85h5.85v-5.85zm11.7 0h-5.85v5.85h5.85v-5.85zm-157.95 5.85h-5.85v5.85h5.85v-5.85zm17.55 0h-5.85v5.85h5.85v-5.85zM41.925 117.975h-5.85v5.85h5.85v-5.85zm5.85 0h-5.85v5.85h5.85v-5.85zm5.85 0h-5.85v5.85h5.85v-5.85zm5.85 0h-5.85v5.85h5.85v-5.85zm5.85 0h-5.85v5.85h5.85v-5.85zm11.7 0h-5.85v5.85h5.85v-5.85zm17.55 0h-5.85v5.85h5.85v-5.85zm5.85 0h-5.85v5.85h5.85v-5.85zm5.85 0h-5.85v5.85h5.85v-5.85zm11.7 0h-5.85v5.85h5.85v-5.85zm23.4 0h-5.85v5.85h5.85v-5.85zm11.7 0h-5.85v5.85h5.85v-5.85zm11.7 0h-5.85v5.85h5.85v-5.85zm11.7 0h-5.85v5.85h5.85v-5.85zm-146.25 5.85h-5.85v5.85h5.85v-5.85zm17.55 0h-5.85v5.85h5.85v-5.85zm11.7 0h-5.85v5.85h5.85v-5.85zm5.85 0h-5.85v5.85h5.85v-5.85zm5.85 0h-5.85v5.85h5.85v-5.85zm11.7 0h-5.85v5.85h5.85v-5.85zm11.7 0h-5.85v5.85h5.85v-5.85zm5.85 0h-5.85v5.85h5.85v-5.85zm5.85 0h-5.85v5.85h5.85v-5.85zm11.7 0h-5.85v5.85h5.85v-5.85zm11.7 0h-5.85v5.85h5.85v-5.85zm35.1 0h-5.85v5.85h5.85v-5.85zm5.85 0h-5.85v5.85h5.85v-5.85zm5.85 0h-5.85v5.85h5.85v-5.85zm5.85 0h-5.85v5.85h5.85v-5.85zm-157.95 5.85h-5.85v5.85h5.85v-5.85zm11.7 0h-5.85v5.85h5.85v-5.85zM41.925 129.675h-5.85v5.85h5.85v-5.85zm11.7 0h-5.85v5.85h5.85v-5.85zm23.4 0h-5.85v5.85h5.85v-5.85zm17.55 0h-5.85v5.85h5.85v-5.85zm5.85 0h-5.85v5.85h5.85v-5.85zm11.7 0h-5.85v5.85h5.85v-5.85zm11.7 0h-5.85v5.85h5.85v-5.85zm5.85 0h-5.85v5.85h5.85v-5.85zm5.85 0h-5.85v5.85h5.85v-5.85zm5.85 0h-5.85v5.85h5.85v-5.85zm5.85 0h-5.85v5.85h5.85v-5.85zm5.85 0h-5.85v5.85h5.85v-5.85zm5.85 0h-5.85v5.85h5.85v-5.85zm5.85 0h-5.85v5.85h5.85v-5.85zm17.55 0h-5.85v5.85h5.85v-5.85zm-117 5.85h-5.85v5.85h5.85v-5.85zm5.85 0h-5.85v5.85h5.85v-5.85zm5.85 0h-5.85v5.85h5.85v-5.85zm35.1 0h-5.85v5.85h5.85v-5.85zm17.55 0h-5.85v5.85h5.85v-5.85zm5.85 0h-5.85v5.85h5.85v-5.85zm23.4 0h-5.85v5.85h5.85v-5.85zm23.4 0h-5.85v5.85h5.85v-5.85zm-163.8 5.85h-5.85v5.85h5.85v-5.85zm5.85 0h-5.85v5.85h5.85v-5.85zm5.85 0h-5.85v5.85h5.85v-5.85zm5.85 0h-5.85v5.85h5.85v-5.85zM41.925 141.375h-5.85v5.85h5.85v-5.85zm5.85 0h-5.85v5.85h5.85v-5.85zm5.85 0h-5.85v5.85h5.85v-5.85zm17.55 0h-5.85v5.85h5.85v-5.85zm5.85 0h-5.85v5.85h5.85v-5.85zm23.4 0h-5.85v5.85h5.85v-5.85zm11.7 0h-5.85v5.85h5.85v-5.85zm5.85 0h-5.85v5.85h5.85v-5.85zm11.7 0h-5.85v5.85h5.85v-5.85zm5.85 0h-5.85v5.85h5.85v-5.85zm11.7 0h-5.85v5.85h5.85v-5.85zm11.7 0h-5.85v5.85h5.85v-5.85zm-140.4 5.85h-5.85v5.85h5.85v-5.85zm35.1 0h-5.85v5.85h5.85v-5.85zm23.4 0h-5.85v5.85h5.85v-5.85zm5.85 0h-5.85v5.85h5.85v-5.85zm5.85 0h-5.85v5.85h5.85v-5.85zm5.85 0h-5.85v5.85h5.85v-5.85zm5.85 0h-5.85v5.85h5.85v-5.85zm29.25 0h-5.85v5.85h5.85v-5.85zm5.85 0h-5.85v5.85h5.85v-5.85zm23.4 0h-5.85v5.85h5.85v-5.85zm-140.4 5.85h-5.85v5.85h5.85v-5.85zm11.7 0h-5.85v5.85h5.85v-5.85zm5.85 0h-5.85v5.85h5.85v-5.85zM41.925 153.075h-5.85v5.85h5.85v-5.85zm11.7 0h-5.85v5.85h5.85v-5.85zm17.55 0h-5.85v5.85h5.85v-5.85zm5.85 0h-5.85v5.85h5.85v-5.85zm5.85 0h-5.85v5.85h5.85v-5.85zm23.4 0h-5.85v5.85h5.85v-5.85zm5.85 0h-5.85v5.85h5.85v-5.85zm5.85 0h-5.85v5.85h5.85v-5.85zm17.55 0h-5.85v5.85h5.85v-5.85zm5.85 0h-5.85v5.85h5.85v-5.85zm5.85 0h-5.85v5.85h5.85v-5.85zm5.85 0h-5.85v5.85h5.85v-5.85zm5.85 0h-5.85v5.85h5.85v-5.85zm17.55 0h-5.85v5.85h5.85v-5.85zm-157.95 5.85h-5.85v5.85h5.85v-5.85zm11.7 0h-5.85v5.85h5.85v-5.85zm5.85 0h-5.85v5.85h5.85v-5.85zM41.925 158.925h-5.85v5.85h5.85v-5.85zm11.7 0h-5.85v5.85h5.85v-5.85zm11.7 0h-5.85v5.85h5.85v-5.85zm11.7 0h-5.85v5.85h5.85v-5.85zm5.85 0h-5.85v5.85h5.85v-5.85zm11.7 0h-5.85v5.85h5.85v-5.85zm17.55 0h-5.85v5.85h5.85v-5.85zm29.25 0h-5.85v5.85h5.85v-5.85zm17.55 0h-5.85v5.85h5.85v-5.85zm23.4 0h-5.85v5.85h5.85v-5.85zm-163.8 5.85h-5.85v5.85h5.85v-5.85zm11.7 0h-5.85v5.85h5.85v-5.85zm5.85 0h-5.85v5.85h5.85v-5.85z" fill="#000"/><path d="M41.925 164.775h-5.85v5.85h5.85v-5.85zm11.7 0h-5.85v5.85h5.85v-5.85zm11.7 0h-5.85v5.85h5.85v-5.85zm5.85 0h-5.85v5.85h5.85v-5.85zm17.55 0h-5.85v5.85h5.85v-5.85zm11.7 0h-5.85v5.85h5.85v-5.85zm17.55 0h-5.85v5.85h5.85v-5.85zm5.85 0h-5.85v5.85h5.85v-5.85zm5.85 0h-5.85v5.85h5.85v-5.85zm11.7 0h-5.85v5.85h5.85v-5.85zm5.85 0h-5.85v5.85h5.85v-5.85zm23.4 0h-5.85v5.85h5.85v-5.85zm11.7 0h-5.85v5.85h5.85v-5.85zm-163.8 5.85h-5.85v5.85h5.85v-5.85zm35.1 0h-5.85v5.85h5.85v-5.85zm11.7 0h-5.85v5.85h5.85v-5.85zm23.4 0h-5.85v5.85h5.85v-5.85zm5.85 0h-5.85v5.85h5.85v-5.85zm11.7 0h-5.85v5.85h5.85v-5.85zm5.85 0h-5.85v5.85h5.85v-5.85zm17.55 0h-5.85v5.85h5.85v-5.85zm5.85 0h-5.85v5.85h5.85v-5.85zm5.85 0h-5.85v5.85h5.85v-5.85zm5.85 0h-5.85v5.85h5.85v-5.85zm11.7 0h-5.85v5.85h5.85v-5.85zm5.85 0h-5.85v5.85h5.85v-5.85zm11.7 0h-5.85v5.85h5.85v-5.85zm-157.95 5.85h-5.85v5.85h5.85v-5.85zm5.85 0h-5.85v5.85h5.85v-5.85zm5.85 0h-5.85v5.85h5.85v-5.85zm5.85 0h-5.85v5.85h5.85v-5.85zM41.925 176.475h-5.85v5.85h5.85v-5.85zm5.85 0h-5.85v5.85h5.85v-5.85zm5.85 0h-5.85v5.85h5.85v-5.85zm11.7 0h-5.85v5.85h5.85v-5.85zm5.85 0h-5.85v5.85h5.85v-5.85zm11.7 0h-5.85v5.85h5.85v-5.85zm23.4 0h-5.85v5.85h5.85v-5.85zm11.7 0h-5.85v5.85h5.85v-5.85zm5.85 0h-5.85v5.85h5.85v-5.85zm11.7 0h-5.85v5.85h5.85v-5.85zm5.85 0h-5.85v5.85h5.85v-5.85zm11.7 0h-5.85v5.85h5.85v-5.85zm11.7 0h-5.85v5.85h5.85v-5.85zm11.7 0h-5.85v5.85h5.85v-5.85z" fill="#000"/></svg>