<svg width="195" height="195" viewBox="0 0 195 195" fill="none" xmlns="http://www.w3.org/2000/svg">
<path d="M195 0H0V195H195V0Z" fill="white"/>
<path d="M18.5251 12.675H12.675V18.525H18.5251V12.675Z" fill="black"/>
<path d="M24.3749 12.675H18.5249V18.525H24.3749V12.675Z" fill="black"/>
<path d="M30.225 12.675H24.375V18.525H30.225V12.675Z" fill="black"/>
<path d="M36.0751 12.675H30.2251V18.525H36.0751V12.675Z" fill="black"/>
<path d="M41.925 12.675H36.075V18.525H41.925V12.675Z" fill="black"/>
<path d="M47.7751 12.675H41.925V18.525H47.7751V12.675Z" fill="black"/>
<path d="M53.6249 12.675H47.7749V18.525H53.6249V12.675Z" fill="black"/>
<path d="M65.3251 12.675H59.4751V18.525H65.3251V12.675Z" fill="black"/>
<path d="M77.0251 12.675H71.175V18.525H77.0251V12.675Z" fill="black"/>
<path d="M88.725 12.675H82.875V18.525H88.725V12.675Z" fill="black"/>
<path d="M94.5751 12.675H88.7251V18.525H94.5751V12.675Z" fill="black"/>
<path d="M100.425 12.675H94.575V18.525H100.425V12.675Z" fill="black"/>
<path d="M106.275 12.675H100.425V18.525H106.275V12.675Z" fill="black"/>
<path d="M123.825 12.675H117.975V18.525H123.825V12.675Z" fill="black"/>
<path d="M129.675 12.675H123.825V18.525H129.675V12.675Z" fill="black"/>
<path d="M135.525 12.675H129.675V18.525H135.525V12.675Z" fill="black"/>
<path d="M147.225 12.675H141.375V18.525H147.225V12.675Z" fill="black"/>
<path d="M153.075 12.675H147.225V18.525H153.075V12.675Z" fill="black"/>
<path d="M158.925 12.675H153.075V18.525H158.925V12.675Z" fill="black"/>
<path d="M164.775 12.675H158.925V18.525H164.775V12.675Z" fill="black"/>
<path d="M170.625 12.675H164.775V18.525H170.625V12.675Z" fill="black"/>
<path d="M176.475 12.675H170.625V18.525H176.475V12.675Z" fill="black"/>
<path d="M182.325 12.675H176.475V18.525H182.325V12.675Z" fill="black"/>
<path d="M18.5251 18.5249H12.675V24.3749H18.5251V18.5249Z" fill="black"/>
<path d="M53.6249 18.5249H47.7749V24.3749H53.6249V18.5249Z" fill="black"/>
<path d="M71.175 18.5249H65.325V24.3749H71.175V18.5249Z" fill="black"/>
<path d="M77.0251 18.5249H71.175V24.3749H77.0251V18.5249Z" fill="black"/>
<path d="M82.8749 18.5249H77.0249V24.3749H82.8749V18.5249Z" fill="black"/>
<path d="M88.725 18.5249H82.875V24.3749H88.725V18.5249Z" fill="black"/>
<path d="M94.5751 18.5249H88.7251V24.3749H94.5751V18.5249Z" fill="black"/>
<path d="M112.125 18.5249H106.275V24.3749H112.125V18.5249Z" fill="black"/>
<path d="M117.975 18.5249H112.125V24.3749H117.975V18.5249Z" fill="black"/>
<path d="M135.525 18.5249H129.675V24.3749H135.525V18.5249Z" fill="black"/>
<path d="M147.225 18.5249H141.375V24.3749H147.225V18.5249Z" fill="black"/>
<path d="M182.325 18.5249H176.475V24.3749H182.325V18.5249Z" fill="black"/>
<path d="M18.5251 24.375H12.675V30.225H18.5251V24.375Z" fill="black"/>
<path d="M30.225 24.375H24.375V30.225H30.225V24.375Z" fill="black"/>
<path d="M36.0751 24.375H30.2251V30.225H36.0751V24.375Z" fill="black"/>
<path d="M41.925 24.375H36.075V30.225H41.925V24.375Z" fill="black"/>
<path d="M53.6249 24.375H47.7749V30.225H53.6249V24.375Z" fill="black"/>
<path d="M65.3251 24.375H59.4751V30.225H65.3251V24.375Z" fill="black"/>
<path d="M71.175 24.375H65.325V30.225H71.175V24.375Z" fill="black"/>
<path d="M77.0251 24.375H71.175V30.225H77.0251V24.375Z" fill="black"/>
<path d="M112.125 24.375H106.275V30.225H112.125V24.375Z" fill="black"/>
<path d="M123.825 24.375H117.975V30.225H123.825V24.375Z" fill="black"/>
<path d="M147.225 24.375H141.375V30.225H147.225V24.375Z" fill="black"/>
<path d="M158.925 24.375H153.075V30.225H158.925V24.375Z" fill="black"/>
<path d="M164.775 24.375H158.925V30.225H164.775V24.375Z" fill="black"/>
<path d="M170.625 24.375H164.775V30.225H170.625V24.375Z" fill="black"/>
<path d="M182.325 24.375H176.475V30.225H182.325V24.375Z" fill="black"/>
<path d="M18.5251 30.2251H12.675V36.0751H18.5251V30.2251Z" fill="black"/>
<path d="M30.225 30.2251H24.375V36.0751H30.225V30.2251Z" fill="black"/>
<path d="M36.0751 30.2251H30.2251V36.0751H36.0751V30.2251Z" fill="black"/>
<path d="M41.925 30.2251H36.075V36.0751H41.925V30.2251Z" fill="black"/>
<path d="M53.6249 30.2251H47.7749V36.0751H53.6249V30.2251Z" fill="black"/>
<path d="M65.3251 30.2251H59.4751V36.0751H65.3251V30.2251Z" fill="black"/>
<path d="M71.175 30.2251H65.325V36.0751H71.175V30.2251Z" fill="black"/>
<path d="M77.0251 30.2251H71.175V36.0751H77.0251V30.2251Z" fill="black"/>
<path d="M88.725 30.2251H82.875V36.0751H88.725V30.2251Z" fill="black"/>
<path d="M100.425 30.2251H94.575V36.0751H100.425V30.2251Z" fill="black"/>
<path d="M106.275 30.2251H100.425V36.0751H106.275V30.2251Z" fill="black"/>
<path d="M117.975 30.2251H112.125V36.0751H117.975V30.2251Z" fill="black"/>
<path d="M123.825 30.2251H117.975V36.0751H123.825V30.2251Z" fill="black"/>
<path d="M129.675 30.2251H123.825V36.0751H129.675V30.2251Z" fill="black"/>
<path d="M147.225 30.2251H141.375V36.0751H147.225V30.2251Z" fill="black"/>
<path d="M158.925 30.2251H153.075V36.0751H158.925V30.2251Z" fill="black"/>
<path d="M164.775 30.2251H158.925V36.0751H164.775V30.2251Z" fill="black"/>
<path d="M170.625 30.2251H164.775V36.0751H170.625V30.2251Z" fill="black"/>
<path d="M182.325 30.2251H176.475V36.0751H182.325V30.2251Z" fill="black"/>
<path d="M18.5251 36.075H12.675V41.9249H18.5251V36.075Z" fill="black"/>
<path d="M30.225 36.075H24.375V41.9249H30.225V36.075Z" fill="black"/>
<path d="M36.0751 36.075H30.2251V41.9249H36.0751V36.075Z" fill="black"/>
<path d="M41.925 36.075H36.075V41.9249H41.925V36.075Z" fill="black"/>
<path d="M53.6249 36.075H47.7749V41.9249H53.6249V36.075Z" fill="black"/>
<path d="M65.3251 36.075H59.4751V41.9249H65.3251V36.075Z" fill="black"/>
<path d="M82.8749 36.075H77.0249V41.9249H82.8749V36.075Z" fill="black"/>
<path d="M88.725 36.075H82.875V41.9249H88.725V36.075Z" fill="black"/>
<path d="M100.425 36.075H94.575V41.9249H100.425V36.075Z" fill="black"/>
<path d="M112.125 36.075H106.275V41.9249H112.125V36.075Z" fill="black"/>
<path d="M117.975 36.075H112.125V41.9249H117.975V36.075Z" fill="black"/>
<path d="M123.825 36.075H117.975V41.9249H123.825V36.075Z" fill="black"/>
<path d="M147.225 36.075H141.375V41.9249H147.225V36.075Z" fill="black"/>
<path d="M158.925 36.075H153.075V41.9249H158.925V36.075Z" fill="black"/>
<path d="M164.775 36.075H158.925V41.9249H164.775V36.075Z" fill="black"/>
<path d="M170.625 36.075H164.775V41.9249H170.625V36.075Z" fill="black"/>
<path d="M182.325 36.075H176.475V41.9249H182.325V36.075Z" fill="black"/>
<path d="M18.5251 41.925H12.675V47.7751H18.5251V41.925Z" fill="black"/>
<path d="M53.6249 41.925H47.7749V47.7751H53.6249V41.925Z" fill="black"/>
<path d="M77.0251 41.925H71.175V47.7751H77.0251V41.925Z" fill="black"/>
<path d="M82.8749 41.925H77.0249V47.7751H82.8749V41.925Z" fill="black"/>
<path d="M94.5751 41.925H88.7251V47.7751H94.5751V41.925Z" fill="black"/>
<path d="M106.275 41.925H100.425V47.7751H106.275V41.925Z" fill="black"/>
<path d="M112.125 41.925H106.275V47.7751H112.125V41.925Z" fill="black"/>
<path d="M123.825 41.925H117.975V47.7751H123.825V41.925Z" fill="black"/>
<path d="M129.675 41.925H123.825V47.7751H129.675V41.925Z" fill="black"/>
<path d="M147.225 41.925H141.375V47.7751H147.225V41.925Z" fill="black"/>
<path d="M182.325 41.925H176.475V47.7751H182.325V41.925Z" fill="black"/>
<path d="M18.5251 47.7749H12.675V53.6249H18.5251V47.7749Z" fill="black"/>
<path d="M24.3749 47.7749H18.5249V53.6249H24.3749V47.7749Z" fill="black"/>
<path d="M30.225 47.7749H24.375V53.6249H30.225V47.7749Z" fill="black"/>
<path d="M36.0751 47.7749H30.2251V53.6249H36.0751V47.7749Z" fill="black"/>
<path d="M41.925 47.7749H36.075V53.6249H41.925V47.7749Z" fill="black"/>
<path d="M47.7751 47.7749H41.925V53.6249H47.7751V47.7749Z" fill="black"/>
<path d="M53.6249 47.7749H47.7749V53.6249H53.6249V47.7749Z" fill="black"/>
<path d="M65.3251 47.7749H59.4751V53.6249H65.3251V47.7749Z" fill="black"/>
<path d="M77.0251 47.7749H71.175V53.6249H77.0251V47.7749Z" fill="black"/>
<path d="M88.725 47.7749H82.875V53.6249H88.725V47.7749Z" fill="black"/>
<path d="M100.425 47.7749H94.575V53.6249H100.425V47.7749Z" fill="black"/>
<path d="M112.125 47.7749H106.275V53.6249H112.125V47.7749Z" fill="black"/>
<path d="M123.825 47.7749H117.975V53.6249H123.825V47.7749Z" fill="black"/>
<path d="M135.525 47.7749H129.675V53.6249H135.525V47.7749Z" fill="black"/>
<path d="M147.225 47.7749H141.375V53.6249H147.225V47.7749Z" fill="black"/>
<path d="M153.075 47.7749H147.225V53.6249H153.075V47.7749Z" fill="black"/>
<path d="M158.925 47.7749H153.075V53.6249H158.925V47.7749Z" fill="black"/>
<path d="M164.775 47.7749H158.925V53.6249H164.775V47.7749Z" fill="black"/>
<path d="M170.625 47.7749H164.775V53.6249H170.625V47.7749Z" fill="black"/>
<path d="M176.475 47.7749H170.625V53.6249H176.475V47.7749Z" fill="black"/>
<path d="M182.325 47.7749H176.475V53.6249H182.325V47.7749Z" fill="black"/>
<path d="M77.0251 53.625H71.175V59.475H77.0251V53.625Z" fill="black"/>
<path d="M88.725 53.625H82.875V59.475H88.725V53.625Z" fill="black"/>
<path d="M106.275 53.625H100.425V59.475H106.275V53.625Z" fill="black"/>
<path d="M112.125 53.625H106.275V59.475H112.125V53.625Z" fill="black"/>
<path d="M117.975 53.625H112.125V59.475H117.975V53.625Z" fill="black"/>
<path d="M123.825 53.625H117.975V59.475H123.825V53.625Z" fill="black"/>
<path d="M129.675 53.625H123.825V59.475H129.675V53.625Z" fill="black"/>
<path d="M135.525 53.625H129.675V59.475H135.525V53.625Z" fill="black"/>
<path d="M18.5251 59.4751H12.675V65.3251H18.5251V59.4751Z" fill="black"/>
<path d="M24.3749 59.4751H18.5249V65.3251H24.3749V59.4751Z" fill="black"/>
<path d="M30.225 59.4751H24.375V65.3251H30.225V59.4751Z" fill="black"/>
<path d="M36.0751 59.4751H30.2251V65.3251H36.0751V59.4751Z" fill="black"/>
<path d="M53.6249 59.4751H47.7749V65.3251H53.6249V59.4751Z" fill="black"/>
<path d="M65.3251 59.4751H59.4751V65.3251H65.3251V59.4751Z" fill="black"/>
<path d="M77.0251 59.4751H71.175V65.3251H77.0251V59.4751Z" fill="black"/>
<path d="M82.8749 59.4751H77.0249V65.3251H82.8749V59.4751Z" fill="black"/>
<path d="M88.725 59.4751H82.875V65.3251H88.725V59.4751Z" fill="black"/>
<path d="M94.5751 59.4751H88.7251V65.3251H94.5751V59.4751Z" fill="black"/>
<path d="M106.275 59.4751H100.425V65.3251H106.275V59.4751Z" fill="black"/>
<path d="M112.125 59.4751H106.275V65.3251H112.125V59.4751Z" fill="black"/>
<path d="M117.975 59.4751H112.125V65.3251H117.975V59.4751Z" fill="black"/>
<path d="M123.825 59.4751H117.975V65.3251H123.825V59.4751Z" fill="black"/>
<path d="M129.675 59.4751H123.825V65.3251H129.675V59.4751Z" fill="black"/>
<path d="M141.375 59.4751H135.525V65.3251H141.375V59.4751Z" fill="black"/>
<path d="M158.925 59.4751H153.075V65.3251H158.925V59.4751Z" fill="black"/>
<path d="M164.775 59.4751H158.925V65.3251H164.775V59.4751Z" fill="black"/>
<path d="M170.625 59.4751H164.775V65.3251H170.625V59.4751Z" fill="black"/>
<path d="M182.325 59.4751H176.475V65.3251H182.325V59.4751Z" fill="black"/>
<path d="M18.5251 65.325H12.675V71.175H18.5251V65.325Z" fill="black"/>
<path d="M30.225 65.325H24.375V71.175H30.225V65.325Z" fill="black"/>
<path d="M59.475 65.325H53.625V71.175H59.475V65.325Z" fill="black"/>
<path d="M65.3251 65.325H59.4751V71.175H65.3251V65.325Z" fill="black"/>
<path d="M77.0251 65.325H71.175V71.175H77.0251V65.325Z" fill="black"/>
<path d="M88.725 65.325H82.875V71.175H88.725V65.325Z" fill="black"/>
<path d="M94.5751 65.325H88.7251V71.175H94.5751V65.325Z" fill="black"/>
<path d="M100.425 65.325H94.575V71.175H100.425V65.325Z" fill="black"/>
<path d="M106.275 65.325H100.425V71.175H106.275V65.325Z" fill="black"/>
<path d="M135.525 65.325H129.675V71.175H135.525V65.325Z" fill="black"/>
<path d="M147.225 65.325H141.375V71.175H147.225V65.325Z" fill="black"/>
<path d="M158.925 65.325H153.075V71.175H158.925V65.325Z" fill="black"/>
<path d="M182.325 65.325H176.475V71.175H182.325V65.325Z" fill="black"/>
<path d="M18.5251 71.175H12.675V77.025H18.5251V71.175Z" fill="black"/>
<path d="M41.925 71.175H36.075V77.025H41.925V71.175Z" fill="black"/>
<path d="M47.7751 71.175H41.925V77.025H47.7751V71.175Z" fill="black"/>
<path d="M53.6249 71.175H47.7749V77.025H53.6249V71.175Z" fill="black"/>
<path d="M65.3251 71.175H59.4751V77.025H65.3251V71.175Z" fill="black"/>
<path d="M71.175 71.175H65.325V77.025H71.175V71.175Z" fill="black"/>
<path d="M77.0251 71.175H71.175V77.025H77.0251V71.175Z" fill="black"/>
<path d="M82.8749 71.175H77.0249V77.025H82.8749V71.175Z" fill="black"/>
<path d="M88.725 71.175H82.875V77.025H88.725V71.175Z" fill="black"/>
<path d="M94.5751 71.175H88.7251V77.025H94.5751V71.175Z" fill="black"/>
<path d="M117.975 71.175H112.125V77.025H117.975V71.175Z" fill="black"/>
<path d="M123.825 71.175H117.975V77.025H123.825V71.175Z" fill="black"/>
<path d="M135.525 71.175H129.675V77.025H135.525V71.175Z" fill="black"/>
<path d="M141.375 71.175H135.525V77.025H141.375V71.175Z" fill="black"/>
<path d="M158.925 71.175H153.075V77.025H158.925V71.175Z" fill="black"/>
<path d="M170.625 71.175H164.775V77.025H170.625V71.175Z" fill="black"/>
<path d="M176.475 71.175H170.625V77.025H176.475V71.175Z" fill="black"/>
<path d="M24.3749 77.0249H18.5249V82.8749H24.3749V77.0249Z" fill="black"/>
<path d="M47.7751 77.0249H41.925V82.8749H47.7751V77.0249Z" fill="black"/>
<path d="M59.475 77.0249H53.625V82.8749H59.475V77.0249Z" fill="black"/>
<path d="M71.175 77.0249H65.325V82.8749H71.175V77.0249Z" fill="black"/>
<path d="M77.0251 77.0249H71.175V82.8749H77.0251V77.0249Z" fill="black"/>
<path d="M106.275 77.0249H100.425V82.8749H106.275V77.0249Z" fill="black"/>
<path d="M112.125 77.0249H106.275V82.8749H112.125V77.0249Z" fill="black"/>
<path d="M147.225 77.0249H141.375V82.8749H147.225V77.0249Z" fill="black"/>
<path d="M182.325 77.0249H176.475V82.8749H182.325V77.0249Z" fill="black"/>
<path d="M18.5251 82.875H12.675V88.725H18.5251V82.875Z" fill="black"/>
<path d="M24.3749 82.875H18.5249V88.725H24.3749V82.875Z" fill="black"/>
<path d="M41.925 82.875H36.075V88.725H41.925V82.875Z" fill="black"/>
<path d="M53.6249 82.875H47.7749V88.725H53.6249V82.875Z" fill="black"/>
<path d="M59.475 82.875H53.625V88.725H59.475V82.875Z" fill="black"/>
<path d="M65.3251 82.875H59.4751V88.725H65.3251V82.875Z" fill="black"/>
<path d="M71.175 82.875H65.325V88.725H71.175V82.875Z" fill="black"/>
<path d="M77.0251 82.875H71.175V88.725H77.0251V82.875Z" fill="black"/>
<path d="M88.725 82.875H82.875V88.725H88.725V82.875Z" fill="black"/>
<path d="M100.425 82.875H94.575V88.725H100.425V82.875Z" fill="black"/>
<path d="M112.125 82.875H106.275V88.725H112.125V82.875Z" fill="black"/>
<path d="M117.975 82.875H112.125V88.725H117.975V82.875Z" fill="black"/>
<path d="M123.825 82.875H117.975V88.725H123.825V82.875Z" fill="black"/>
<path d="M153.075 82.875H147.225V88.725H153.075V82.875Z" fill="black"/>
<path d="M164.775 82.875H158.925V88.725H164.775V82.875Z" fill="black"/>
<path d="M176.475 82.875H170.625V88.725H176.475V82.875Z" fill="black"/>
<path d="M36.0751 88.7251H30.2251V94.5751H36.0751V88.7251Z" fill="black"/>
<path d="M59.475 88.7251H53.625V94.5751H59.475V88.7251Z" fill="black"/>
<path d="M65.3251 88.7251H59.4751V94.5751H65.3251V88.7251Z" fill="black"/>
<path d="M82.8749 88.7251H77.0249V94.5751H82.8749V88.7251Z" fill="black"/>
<path d="M88.725 88.7251H82.875V94.5751H88.725V88.7251Z" fill="black"/>
<path d="M100.425 88.7251H94.575V94.5751H100.425V88.7251Z" fill="black"/>
<path d="M106.275 88.7251H100.425V94.5751H106.275V88.7251Z" fill="black"/>
<path d="M112.125 88.7251H106.275V94.5751H112.125V88.7251Z" fill="black"/>
<path d="M117.975 88.7251H112.125V94.5751H117.975V88.7251Z" fill="black"/>
<path d="M123.825 88.7251H117.975V94.5751H123.825V88.7251Z" fill="black"/>
<path d="M141.375 88.7251H135.525V94.5751H141.375V88.7251Z" fill="black"/>
<path d="M153.075 88.7251H147.225V94.5751H153.075V88.7251Z" fill="black"/>
<path d="M164.775 88.7251H158.925V94.5751H164.775V88.7251Z" fill="black"/>
<path d="M170.625 88.7251H164.775V94.5751H170.625V88.7251Z" fill="black"/>
<path d="M176.475 88.7251H170.625V94.5751H176.475V88.7251Z" fill="black"/>
<path d="M182.325 88.7251H176.475V94.5751H182.325V88.7251Z" fill="black"/>
<path d="M18.5251 94.575H12.675V100.425H18.5251V94.575Z" fill="black"/>
<path d="M36.0751 94.575H30.2251V100.425H36.0751V94.575Z" fill="black"/>
<path d="M53.6249 94.575H47.7749V100.425H53.6249V94.575Z" fill="black"/>
<path d="M71.175 94.575H65.325V100.425H71.175V94.575Z" fill="black"/>
<path d="M77.0251 94.575H71.175V100.425H77.0251V94.575Z" fill="black"/>
<path d="M82.8749 94.575H77.0249V100.425H82.8749V94.575Z" fill="black"/>
<path d="M94.5751 94.575H88.7251V100.425H94.5751V94.575Z" fill="black"/>
<path d="M112.125 94.575H106.275V100.425H112.125V94.575Z" fill="black"/>
<path d="M123.825 94.575H117.975V100.425H123.825V94.575Z" fill="black"/>
<path d="M129.675 94.575H123.825V100.425H129.675V94.575Z" fill="black"/>
<path d="M147.225 94.575H141.375V100.425H147.225V94.575Z" fill="black"/>
<path d="M153.075 94.575H147.225V100.425H153.075V94.575Z" fill="black"/>
<path d="M158.925 94.575H153.075V100.425H158.925V94.575Z" fill="black"/>
<path d="M164.775 94.575H158.925V100.425H164.775V94.575Z" fill="black"/>
<path d="M170.625 94.575H164.775V100.425H170.625V94.575Z" fill="black"/>
<path d="M176.475 94.575H170.625V100.425H176.475V94.575Z" fill="black"/>
<path d="M182.325 94.575H176.475V100.425H182.325V94.575Z" fill="black"/>
<path d="M18.5251 100.425H12.675V106.275H18.5251V100.425Z" fill="black"/>
<path d="M30.225 100.425H24.375V106.275H30.225V100.425Z" fill="black"/>
<path d="M36.0751 100.425H30.2251V106.275H36.0751V100.425Z" fill="black"/>
<path d="M47.7751 100.425H41.925V106.275H47.7751V100.425Z" fill="black"/>
<path d="M65.3251 100.425H59.4751V106.275H65.3251V100.425Z" fill="black"/>
<path d="M71.175 100.425H65.325V106.275H71.175V100.425Z" fill="black"/>
<path d="M77.0251 100.425H71.175V106.275H77.0251V100.425Z" fill="black"/>
<path d="M82.8749 100.425H77.0249V106.275H82.8749V100.425Z" fill="black"/>
<path d="M100.425 100.425H94.575V106.275H100.425V100.425Z" fill="black"/>
<path d="M106.275 100.425H100.425V106.275H106.275V100.425Z" fill="black"/>
<path d="M112.125 100.425H106.275V106.275H112.125V100.425Z" fill="black"/>
<path d="M123.825 100.425H117.975V106.275H123.825V100.425Z" fill="black"/>
<path d="M129.675 100.425H123.825V106.275H129.675V100.425Z" fill="black"/>
<path d="M135.525 100.425H129.675V106.275H135.525V100.425Z" fill="black"/>
<path d="M141.375 100.425H135.525V106.275H141.375V100.425Z" fill="black"/>
<path d="M153.075 100.425H147.225V106.275H153.075V100.425Z" fill="black"/>
<path d="M158.925 100.425H153.075V106.275H158.925V100.425Z" fill="black"/>
<path d="M176.475 100.425H170.625V106.275H176.475V100.425Z" fill="black"/>
<path d="M182.325 100.425H176.475V106.275H182.325V100.425Z" fill="black"/>
<path d="M30.225 106.275H24.375V112.125H30.225V106.275Z" fill="black"/>
<path d="M41.925 106.275H36.075V112.125H41.925V106.275Z" fill="black"/>
<path d="M47.7751 106.275H41.925V112.125H47.7751V106.275Z" fill="black"/>
<path d="M53.6249 106.275H47.7749V112.125H53.6249V106.275Z" fill="black"/>
<path d="M65.3251 106.275H59.4751V112.125H65.3251V106.275Z" fill="black"/>
<path d="M77.0251 106.275H71.175V112.125H77.0251V106.275Z" fill="black"/>
<path d="M88.725 106.275H82.875V112.125H88.725V106.275Z" fill="black"/>
<path d="M100.425 106.275H94.575V112.125H100.425V106.275Z" fill="black"/>
<path d="M112.125 106.275H106.275V112.125H112.125V106.275Z" fill="black"/>
<path d="M135.525 106.275H129.675V112.125H135.525V106.275Z" fill="black"/>
<path d="M141.375 106.275H135.525V112.125H141.375V106.275Z" fill="black"/>
<path d="M158.925 106.275H153.075V112.125H158.925V106.275Z" fill="black"/>
<path d="M164.775 106.275H158.925V112.125H164.775V106.275Z" fill="black"/>
<path d="M176.475 106.275H170.625V112.125H176.475V106.275Z" fill="black"/>
<path d="M30.225 112.125H24.375V117.975H30.225V112.125Z" fill="black"/>
<path d="M36.0751 112.125H30.2251V117.975H36.0751V112.125Z" fill="black"/>
<path d="M47.7751 112.125H41.925V117.975H47.7751V112.125Z" fill="black"/>
<path d="M59.475 112.125H53.625V117.975H59.475V112.125Z" fill="black"/>
<path d="M65.3251 112.125H59.4751V117.975H65.3251V112.125Z" fill="black"/>
<path d="M71.175 112.125H65.325V117.975H71.175V112.125Z" fill="black"/>
<path d="M100.425 112.125H94.575V117.975H100.425V112.125Z" fill="black"/>
<path d="M106.275 112.125H100.425V117.975H106.275V112.125Z" fill="black"/>
<path d="M123.825 112.125H117.975V117.975H123.825V112.125Z" fill="black"/>
<path d="M129.675 112.125H123.825V117.975H129.675V112.125Z" fill="black"/>
<path d="M135.525 112.125H129.675V117.975H135.525V112.125Z" fill="black"/>
<path d="M141.375 112.125H135.525V117.975H141.375V112.125Z" fill="black"/>
<path d="M147.225 112.125H141.375V117.975H147.225V112.125Z" fill="black"/>
<path d="M164.775 112.125H158.925V117.975H164.775V112.125Z" fill="black"/>
<path d="M176.475 112.125H170.625V117.975H176.475V112.125Z" fill="black"/>
<path d="M18.5251 117.975H12.675V123.825H18.5251V117.975Z" fill="black"/>
<path d="M36.0751 117.975H30.2251V123.825H36.0751V117.975Z" fill="black"/>
<path d="M41.925 117.975H36.075V123.825H41.925V117.975Z" fill="black"/>
<path d="M47.7751 117.975H41.925V123.825H47.7751V117.975Z" fill="black"/>
<path d="M53.6249 117.975H47.7749V123.825H53.6249V117.975Z" fill="black"/>
<path d="M59.475 117.975H53.625V123.825H59.475V117.975Z" fill="black"/>
<path d="M65.3251 117.975H59.4751V123.825H65.3251V117.975Z" fill="black"/>
<path d="M77.0251 117.975H71.175V123.825H77.0251V117.975Z" fill="black"/>
<path d="M94.5751 117.975H88.7251V123.825H94.5751V117.975Z" fill="black"/>
<path d="M100.425 117.975H94.575V123.825H100.425V117.975Z" fill="black"/>
<path d="M106.275 117.975H100.425V123.825H106.275V117.975Z" fill="black"/>
<path d="M117.975 117.975H112.125V123.825H117.975V117.975Z" fill="black"/>
<path d="M141.375 117.975H135.525V123.825H141.375V117.975Z" fill="black"/>
<path d="M153.075 117.975H147.225V123.825H153.075V117.975Z" fill="black"/>
<path d="M164.775 117.975H158.925V123.825H164.775V117.975Z" fill="black"/>
<path d="M176.475 117.975H170.625V123.825H176.475V117.975Z" fill="black"/>
<path d="M30.225 123.825H24.375V129.675H30.225V123.825Z" fill="black"/>
<path d="M47.7751 123.825H41.925V129.675H47.7751V123.825Z" fill="black"/>
<path d="M59.475 123.825H53.625V129.675H59.475V123.825Z" fill="black"/>
<path d="M65.3251 123.825H59.4751V129.675H65.3251V123.825Z" fill="black"/>
<path d="M71.175 123.825H65.325V129.675H71.175V123.825Z" fill="black"/>
<path d="M82.8749 123.825H77.0249V129.675H82.8749V123.825Z" fill="black"/>
<path d="M94.5751 123.825H88.7251V129.675H94.5751V123.825Z" fill="black"/>
<path d="M100.425 123.825H94.575V129.675H100.425V123.825Z" fill="black"/>
<path d="M106.275 123.825H100.425V129.675H106.275V123.825Z" fill="black"/>
<path d="M117.975 123.825H112.125V129.675H117.975V123.825Z" fill="black"/>
<path d="M129.675 123.825H123.825V129.675H129.675V123.825Z" fill="black"/>
<path d="M164.775 123.825H158.925V129.675H164.775V123.825Z" fill="black"/>
<path d="M170.625 123.825H164.775V129.675H170.625V123.825Z" fill="black"/>
<path d="M176.475 123.825H170.625V129.675H176.475V123.825Z" fill="black"/>
<path d="M182.325 123.825H176.475V129.675H182.325V123.825Z" fill="black"/>
<path d="M24.3749 129.675H18.5249V135.525H24.3749V129.675Z" fill="black"/>
<path d="M36.0751 129.675H30.2251V135.525H36.0751V129.675Z" fill="black"/>
<path d="M41.925 129.675H36.075V135.525H41.925V129.675Z" fill="black"/>
<path d="M53.6249 129.675H47.7749V135.525H53.6249V129.675Z" fill="black"/>
<path d="M77.0251 129.675H71.175V135.525H77.0251V129.675Z" fill="black"/>
<path d="M94.5751 129.675H88.7251V135.525H94.5751V129.675Z" fill="black"/>
<path d="M100.425 129.675H94.575V135.525H100.425V129.675Z" fill="black"/>
<path d="M112.125 129.675H106.275V135.525H112.125V129.675Z" fill="black"/>
<path d="M123.825 129.675H117.975V135.525H123.825V129.675Z" fill="black"/>
<path d="M129.675 129.675H123.825V135.525H129.675V129.675Z" fill="black"/>
<path d="M135.525 129.675H129.675V135.525H135.525V129.675Z" fill="black"/>
<path d="M141.375 129.675H135.525V135.525H141.375V129.675Z" fill="black"/>
<path d="M147.225 129.675H141.375V135.525H147.225V129.675Z" fill="black"/>
<path d="M153.075 129.675H147.225V135.525H153.075V129.675Z" fill="black"/>
<path d="M158.925 129.675H153.075V135.525H158.925V129.675Z" fill="black"/>
<path d="M164.775 129.675H158.925V135.525H164.775V129.675Z" fill="black"/>
<path d="M182.325 129.675H176.475V135.525H182.325V129.675Z" fill="black"/>
<path d="M65.3251 135.525H59.4751V141.375H65.3251V135.525Z" fill="black"/>
<path d="M71.175 135.525H65.325V141.375H71.175V135.525Z" fill="black"/>
<path d="M77.0251 135.525H71.175V141.375H77.0251V135.525Z" fill="black"/>
<path d="M112.125 135.525H106.275V141.375H112.125V135.525Z" fill="black"/>
<path d="M129.675 135.525H123.825V141.375H129.675V135.525Z" fill="black"/>
<path d="M135.525 135.525H129.675V141.375H135.525V135.525Z" fill="black"/>
<path d="M158.925 135.525H153.075V141.375H158.925V135.525Z" fill="black"/>
<path d="M182.325 135.525H176.475V141.375H182.325V135.525Z" fill="black"/>
<path d="M18.5251 141.375H12.675V147.225H18.5251V141.375Z" fill="black"/>
<path d="M24.3749 141.375H18.5249V147.225H24.3749V141.375Z" fill="black"/>
<path d="M30.225 141.375H24.375V147.225H30.225V141.375Z" fill="black"/>
<path d="M36.0751 141.375H30.2251V147.225H36.0751V141.375Z" fill="black"/>
<path d="M41.925 141.375H36.075V147.225H41.925V141.375Z" fill="black"/>
<path d="M47.7751 141.375H41.925V147.225H47.7751V141.375Z" fill="black"/>
<path d="M53.6249 141.375H47.7749V147.225H53.6249V141.375Z" fill="black"/>
<path d="M71.175 141.375H65.325V147.225H71.175V141.375Z" fill="black"/>
<path d="M77.0251 141.375H71.175V147.225H77.0251V141.375Z" fill="black"/>
<path d="M100.425 141.375H94.575V147.225H100.425V141.375Z" fill="black"/>
<path d="M112.125 141.375H106.275V147.225H112.125V141.375Z" fill="black"/>
<path d="M117.975 141.375H112.125V147.225H117.975V141.375Z" fill="black"/>
<path d="M129.675 141.375H123.825V147.225H129.675V141.375Z" fill="black"/>
<path d="M135.525 141.375H129.675V147.225H135.525V141.375Z" fill="black"/>
<path d="M147.225 141.375H141.375V147.225H147.225V141.375Z" fill="black"/>
<path d="M158.925 141.375H153.075V147.225H158.925V141.375Z" fill="black"/>
<path d="M18.5251 147.225H12.675V153.075H18.5251V147.225Z" fill="black"/>
<path d="M53.6249 147.225H47.7749V153.075H53.6249V147.225Z" fill="black"/>
<path d="M77.0251 147.225H71.175V153.075H77.0251V147.225Z" fill="black"/>
<path d="M82.8749 147.225H77.0249V153.075H82.8749V147.225Z" fill="black"/>
<path d="M88.725 147.225H82.875V153.075H88.725V147.225Z" fill="black"/>
<path d="M94.5751 147.225H88.7251V153.075H94.5751V147.225Z" fill="black"/>
<path d="M100.425 147.225H94.575V153.075H100.425V147.225Z" fill="black"/>
<path d="M129.675 147.225H123.825V153.075H129.675V147.225Z" fill="black"/>
<path d="M135.525 147.225H129.675V153.075H135.525V147.225Z" fill="black"/>
<path d="M158.925 147.225H153.075V153.075H158.925V147.225Z" fill="black"/>
<path d="M18.5251 153.075H12.675V158.925H18.5251V153.075Z" fill="black"/>
<path d="M30.225 153.075H24.375V158.925H30.225V153.075Z" fill="black"/>
<path d="M36.0751 153.075H30.2251V158.925H36.0751V153.075Z" fill="black"/>
<path d="M41.925 153.075H36.075V158.925H41.925V153.075Z" fill="black"/>
<path d="M53.6249 153.075H47.7749V158.925H53.6249V153.075Z" fill="black"/>
<path d="M71.175 153.075H65.325V158.925H71.175V153.075Z" fill="black"/>
<path d="M77.0251 153.075H71.175V158.925H77.0251V153.075Z" fill="black"/>
<path d="M82.8749 153.075H77.0249V158.925H82.8749V153.075Z" fill="black"/>
<path d="M106.275 153.075H100.425V158.925H106.275V153.075Z" fill="black"/>
<path d="M112.125 153.075H106.275V158.925H112.125V153.075Z" fill="black"/>
<path d="M117.975 153.075H112.125V158.925H117.975V153.075Z" fill="black"/>
<path d="M135.525 153.075H129.675V158.925H135.525V153.075Z" fill="black"/>
<path d="M141.375 153.075H135.525V158.925H141.375V153.075Z" fill="black"/>
<path d="M147.225 153.075H141.375V158.925H147.225V153.075Z" fill="black"/>
<path d="M153.075 153.075H147.225V158.925H153.075V153.075Z" fill="black"/>
<path d="M158.925 153.075H153.075V158.925H158.925V153.075Z" fill="black"/>
<path d="M176.475 153.075H170.625V158.925H176.475V153.075Z" fill="black"/>
<path d="M18.5251 158.925H12.675V164.775H18.5251V158.925Z" fill="black"/>
<path d="M30.225 158.925H24.375V164.775H30.225V158.925Z" fill="black"/>
<path d="M36.0751 158.925H30.2251V164.775H36.0751V158.925Z" fill="black"/>
<path d="M41.925 158.925H36.075V164.775H41.925V158.925Z" fill="black"/>
<path d="M53.6249 158.925H47.7749V164.775H53.6249V158.925Z" fill="black"/>
<path d="M65.3251 158.925H59.4751V164.775H65.3251V158.925Z" fill="black"/>
<path d="M77.0251 158.925H71.175V164.775H77.0251V158.925Z" fill="black"/>
<path d="M82.8749 158.925H77.0249V164.775H82.8749V158.925Z" fill="black"/>
<path d="M94.5751 158.925H88.7251V164.775H94.5751V158.925Z" fill="black"/>
<path d="M112.125 158.925H106.275V164.775H112.125V158.925Z" fill="black"/>
<path d="M141.375 158.925H135.525V164.775H141.375V158.925Z" fill="black"/>
<path d="M158.925 158.925H153.075V164.775H158.925V158.925Z" fill="black"/>
<path d="M182.325 158.925H176.475V164.775H182.325V158.925Z" fill="black"/>
<path d="M18.5251 164.775H12.675V170.625H18.5251V164.775Z" fill="black"/>
<path d="M30.225 164.775H24.375V170.625H30.225V164.775Z" fill="black"/>
<path d="M36.0751 164.775H30.2251V170.625H36.0751V164.775Z" fill="black"/>
<path d="M41.925 164.775H36.075V170.625H41.925V164.775Z" fill="black"/>
<path d="M53.6249 164.775H47.7749V170.625H53.6249V164.775Z" fill="black"/>
<path d="M65.3251 164.775H59.4751V170.625H65.3251V164.775Z" fill="black"/>
<path d="M71.175 164.775H65.325V170.625H71.175V164.775Z" fill="black"/>
<path d="M88.725 164.775H82.875V170.625H88.725V164.775Z" fill="black"/>
<path d="M100.425 164.775H94.575V170.625H100.425V164.775Z" fill="black"/>
<path d="M117.975 164.775H112.125V170.625H117.975V164.775Z" fill="black"/>
<path d="M123.825 164.775H117.975V170.625H123.825V164.775Z" fill="black"/>
<path d="M129.675 164.775H123.825V170.625H129.675V164.775Z" fill="black"/>
<path d="M141.375 164.775H135.525V170.625H141.375V164.775Z" fill="black"/>
<path d="M147.225 164.775H141.375V170.625H147.225V164.775Z" fill="black"/>
<path d="M170.625 164.775H164.775V170.625H170.625V164.775Z" fill="black"/>
<path d="M182.325 164.775H176.475V170.625H182.325V164.775Z" fill="black"/>
<path d="M18.5251 170.625H12.675V176.475H18.5251V170.625Z" fill="black"/>
<path d="M53.6249 170.625H47.7749V176.475H53.6249V170.625Z" fill="black"/>
<path d="M65.3251 170.625H59.4751V176.475H65.3251V170.625Z" fill="black"/>
<path d="M88.725 170.625H82.875V176.475H88.725V170.625Z" fill="black"/>
<path d="M94.5751 170.625H88.7251V176.475H94.5751V170.625Z" fill="black"/>
<path d="M106.275 170.625H100.425V176.475H106.275V170.625Z" fill="black"/>
<path d="M112.125 170.625H106.275V176.475H112.125V170.625Z" fill="black"/>
<path d="M129.675 170.625H123.825V176.475H129.675V170.625Z" fill="black"/>
<path d="M135.525 170.625H129.675V176.475H135.525V170.625Z" fill="black"/>
<path d="M141.375 170.625H135.525V176.475H141.375V170.625Z" fill="black"/>
<path d="M147.225 170.625H141.375V176.475H147.225V170.625Z" fill="black"/>
<path d="M158.925 170.625H153.075V176.475H158.925V170.625Z" fill="black"/>
<path d="M164.775 170.625H158.925V176.475H164.775V170.625Z" fill="black"/>
<path d="M176.475 170.625H170.625V176.475H176.475V170.625Z" fill="black"/>
<path d="M18.5251 176.475H12.675V182.325H18.5251V176.475Z" fill="black"/>
<path d="M24.3749 176.475H18.5249V182.325H24.3749V176.475Z" fill="black"/>
<path d="M30.225 176.475H24.375V182.325H30.225V176.475Z" fill="black"/>
<path d="M36.0751 176.475H30.2251V182.325H36.0751V176.475Z" fill="black"/>
<path d="M41.925 176.475H36.075V182.325H41.925V176.475Z" fill="black"/>
<path d="M47.7751 176.475H41.925V182.325H47.7751V176.475Z" fill="black"/>
<path d="M53.6249 176.475H47.7749V182.325H53.6249V176.475Z" fill="black"/>
<path d="M65.3251 176.475H59.4751V182.325H65.3251V176.475Z" fill="black"/>
<path d="M71.175 176.475H65.325V182.325H71.175V176.475Z" fill="black"/>
<path d="M82.8749 176.475H77.0249V182.325H82.8749V176.475Z" fill="black"/>
<path d="M106.275 176.475H100.425V182.325H106.275V176.475Z" fill="black"/>
<path d="M117.975 176.475H112.125V182.325H117.975V176.475Z" fill="black"/>
<path d="M123.825 176.475H117.975V182.325H123.825V176.475Z" fill="black"/>
<path d="M135.525 176.475H129.675V182.325H135.525V176.475Z" fill="black"/>
<path d="M141.375 176.475H135.525V182.325H141.375V176.475Z" fill="black"/>
<path d="M153.075 176.475H147.225V182.325H153.075V176.475Z" fill="black"/>
<path d="M164.775 176.475H158.925V182.325H164.775V176.475Z" fill="black"/>
<path d="M176.475 176.475H170.625V182.325H176.475V176.475Z" fill="black"/>
</svg>
