<svg width="195" height="195" fill="none" xmlns="http://www.w3.org/2000/svg"><path d="M195 0H0v195h195V0z" fill="#fff"/><path d="M18.525 12.675h-5.85v5.85h5.85v-5.85zM24.375 12.675h-5.85v5.85h5.85v-5.85zM30.225 12.675h-5.85v5.85h5.85v-5.85zM36.075 12.675h-5.85v5.85h5.85v-5.85z" fill="#000"/><path d="M41.925 12.675h-5.85v5.85h5.85v-5.85zM47.775 12.675h-5.85v5.85h5.85v-5.85zM53.625 12.675h-5.85v5.85h5.85v-5.85zM65.325 12.675h-5.85v5.85h5.85v-5.85zM77.025 12.675h-5.85v5.85h5.85v-5.85zM88.725 12.675h-5.85v5.85h5.85v-5.85zM94.575 12.675h-5.85v5.85h5.85v-5.85zM100.425 12.675h-5.85v5.85h5.85v-5.85zM106.275 12.675h-5.85v5.85h5.85v-5.85zM123.825 12.675h-5.85v5.85h5.85v-5.85zM129.675 12.675h-5.85v5.85h5.85v-5.85zM135.525 12.675h-5.85v5.85h5.85v-5.85zM147.225 12.675h-5.85v5.85h5.85v-5.85zM153.075 12.675h-5.85v5.85h5.85v-5.85zM158.925 12.675h-5.85v5.85h5.85v-5.85zM164.775 12.675h-5.85v5.85h5.85v-5.85zM170.625 12.675h-5.85v5.85h5.85v-5.85zM176.475 12.675h-5.85v5.85h5.85v-5.85zM182.325 12.675h-5.85v5.85h5.85v-5.85zM18.525 18.525h-5.85v5.85h5.85v-5.85zM53.625 18.525h-5.85v5.85h5.85v-5.85zM71.175 18.525h-5.85v5.85h5.85v-5.85zM77.025 18.525h-5.85v5.85h5.85v-5.85zM82.875 18.525h-5.85v5.85h5.85v-5.85zM88.725 18.525h-5.85v5.85h5.85v-5.85zM94.575 18.525h-5.85v5.85h5.85v-5.85zM112.125 18.525h-5.85v5.85h5.85v-5.85zM117.975 18.525h-5.85v5.85h5.85v-5.85zM135.525 18.525h-5.85v5.85h5.85v-5.85zM147.225 18.525h-5.85v5.85h5.85v-5.85zM182.325 18.525h-5.85v5.85h5.85v-5.85zM18.525 24.375h-5.85v5.85h5.85v-5.85zM30.225 24.375h-5.85v5.85h5.85v-5.85zM36.075 24.375h-5.85v5.85h5.85v-5.85z" fill="#000"/><path d="M41.925 24.375h-5.85v5.85h5.85v-5.85zM53.625 24.375h-5.85v5.85h5.85v-5.85zM65.325 24.375h-5.85v5.85h5.85v-5.85zM71.175 24.375h-5.85v5.85h5.85v-5.85zM77.025 24.375h-5.85v5.85h5.85v-5.85zM112.125 24.375h-5.85v5.85h5.85v-5.85zM123.825 24.375h-5.85v5.85h5.85v-5.85zM147.225 24.375h-5.85v5.85h5.85v-5.85zM158.925 24.375h-5.85v5.85h5.85v-5.85zM164.775 24.375h-5.85v5.85h5.85v-5.85zM170.625 24.375h-5.85v5.85h5.85v-5.85zM182.325 24.375h-5.85v5.85h5.85v-5.85zM18.525 30.225h-5.85v5.85h5.85v-5.85zM30.225 30.225h-5.85v5.85h5.85v-5.85zM36.075 30.225h-5.85v5.85h5.85v-5.85z" fill="#000"/><path d="M41.925 30.225h-5.85v5.85h5.85v-5.85zM53.625 30.225h-5.85v5.85h5.85v-5.85zM65.325 30.225h-5.85v5.85h5.85v-5.85zM71.175 30.225h-5.85v5.85h5.85v-5.85zM77.025 30.225h-5.85v5.85h5.85v-5.85zM88.725 30.225h-5.85v5.85h5.85v-5.85zM100.425 30.225h-5.85v5.85h5.85v-5.85zM106.275 30.225h-5.85v5.85h5.85v-5.85zM117.975 30.225h-5.85v5.85h5.85v-5.85zM123.825 30.225h-5.85v5.85h5.85v-5.85zM129.675 30.225h-5.85v5.85h5.85v-5.85zM147.225 30.225h-5.85v5.85h5.85v-5.85zM158.925 30.225h-5.85v5.85h5.85v-5.85zM164.775 30.225h-5.85v5.85h5.85v-5.85zM170.625 30.225h-5.85v5.85h5.85v-5.85zM182.325 30.225h-5.85v5.85h5.85v-5.85zM18.525 36.075h-5.85v5.85h5.85v-5.85zM30.225 36.075h-5.85v5.85h5.85v-5.85zM36.075 36.075h-5.85v5.85h5.85v-5.85z" fill="#000"/><path d="M41.925 36.075h-5.85v5.85h5.85v-5.85zM53.625 36.075h-5.85v5.85h5.85v-5.85zM65.325 36.075h-5.85v5.85h5.85v-5.85zM82.875 36.075h-5.85v5.85h5.85v-5.85zM88.725 36.075h-5.85v5.85h5.85v-5.85zM100.425 36.075h-5.85v5.85h5.85v-5.85zM112.125 36.075h-5.85v5.85h5.85v-5.85zM117.975 36.075h-5.85v5.85h5.85v-5.85zM123.825 36.075h-5.85v5.85h5.85v-5.85zM147.225 36.075h-5.85v5.85h5.85v-5.85zM158.925 36.075h-5.85v5.85h5.85v-5.85zM164.775 36.075h-5.85v5.85h5.85v-5.85zM170.625 36.075h-5.85v5.85h5.85v-5.85zM182.325 36.075h-5.85v5.85h5.85v-5.85zM18.525 41.925h-5.85v5.85h5.85v-5.85z" fill="#000"/><path d="M53.625 41.925h-5.85v5.85h5.85v-5.85zM77.025 41.925h-5.85v5.85h5.85v-5.85zM82.875 41.925h-5.85v5.85h5.85v-5.85zM94.575 41.925h-5.85v5.85h5.85v-5.85zM106.275 41.925h-5.85v5.85h5.85v-5.85zM112.125 41.925h-5.85v5.85h5.85v-5.85zM123.825 41.925h-5.85v5.85h5.85v-5.85zM129.675 41.925h-5.85v5.85h5.85v-5.85zM147.225 41.925h-5.85v5.85h5.85v-5.85zM182.325 41.925h-5.85v5.85h5.85v-5.85zM18.525 47.775h-5.85v5.85h5.85v-5.85zM24.375 47.775h-5.85v5.85h5.85v-5.85zM30.225 47.775h-5.85v5.85h5.85v-5.85zM36.075 47.775h-5.85v5.85h5.85v-5.85z" fill="#000"/><path d="M41.925 47.775h-5.85v5.85h5.85v-5.85zM47.775 47.775h-5.85v5.85h5.85v-5.85zM53.625 47.775h-5.85v5.85h5.85v-5.85zM65.325 47.775h-5.85v5.85h5.85v-5.85zM77.025 47.775h-5.85v5.85h5.85v-5.85zM88.725 47.775h-5.85v5.85h5.85v-5.85zM100.425 47.775h-5.85v5.85h5.85v-5.85zM112.125 47.775h-5.85v5.85h5.85v-5.85zM123.825 47.775h-5.85v5.85h5.85v-5.85zM135.525 47.775h-5.85v5.85h5.85v-5.85zM147.225 47.775h-5.85v5.85h5.85v-5.85zM153.075 47.775h-5.85v5.85h5.85v-5.85zM158.925 47.775h-5.85v5.85h5.85v-5.85zM164.775 47.775h-5.85v5.85h5.85v-5.85zM170.625 47.775h-5.85v5.85h5.85v-5.85zM176.475 47.775h-5.85v5.85h5.85v-5.85zM182.325 47.775h-5.85v5.85h5.85v-5.85zM77.025 53.625h-5.85v5.85h5.85v-5.85zM88.725 53.625h-5.85v5.85h5.85v-5.85zM106.275 53.625h-5.85v5.85h5.85v-5.85zM112.125 53.625h-5.85v5.85h5.85v-5.85zM117.975 53.625h-5.85v5.85h5.85v-5.85zM123.825 53.625h-5.85v5.85h5.85v-5.85zM129.675 53.625h-5.85v5.85h5.85v-5.85zM135.525 53.625h-5.85v5.85h5.85v-5.85zM18.525 59.475h-5.85v5.85h5.85v-5.85zM24.375 59.475h-5.85v5.85h5.85v-5.85zM30.225 59.475h-5.85v5.85h5.85v-5.85zM36.075 59.475h-5.85v5.85h5.85v-5.85zM53.625 59.475h-5.85v5.85h5.85v-5.85zM65.325 59.475h-5.85v5.85h5.85v-5.85zM77.025 59.475h-5.85v5.85h5.85v-5.85zM82.875 59.475h-5.85v5.85h5.85v-5.85zM88.725 59.475h-5.85v5.85h5.85v-5.85zM94.575 59.475h-5.85v5.85h5.85v-5.85zM106.275 59.475h-5.85v5.85h5.85v-5.85zM112.125 59.475h-5.85v5.85h5.85v-5.85zM117.975 59.475h-5.85v5.85h5.85v-5.85zM123.825 59.475h-5.85v5.85h5.85v-5.85zM129.675 59.475h-5.85v5.85h5.85v-5.85zM141.375 59.475h-5.85v5.85h5.85v-5.85zM158.925 59.475h-5.85v5.85h5.85v-5.85zM164.775 59.475h-5.85v5.85h5.85v-5.85zM170.625 59.475h-5.85v5.85h5.85v-5.85zM182.325 59.475h-5.85v5.85h5.85v-5.85zM18.525 65.325h-5.85v5.85h5.85v-5.85zM30.225 65.325h-5.85v5.85h5.85v-5.85zM59.475 65.325h-5.85v5.85h5.85v-5.85zM65.325 65.325h-5.85v5.85h5.85v-5.85zM77.025 65.325h-5.85v5.85h5.85v-5.85zM88.725 65.325h-5.85v5.85h5.85v-5.85zM94.575 65.325h-5.85v5.85h5.85v-5.85zM100.425 65.325h-5.85v5.85h5.85v-5.85zM106.275 65.325h-5.85v5.85h5.85v-5.85zM135.525 65.325h-5.85v5.85h5.85v-5.85zM147.225 65.325h-5.85v5.85h5.85v-5.85zM158.925 65.325h-5.85v5.85h5.85v-5.85zM182.325 65.325h-5.85v5.85h5.85v-5.85zM18.525 71.175h-5.85v5.85h5.85v-5.85zM41.925 71.175h-5.85v5.85h5.85v-5.85zM47.775 71.175h-5.85v5.85h5.85v-5.85zM53.625 71.175h-5.85v5.85h5.85v-5.85zM65.325 71.175h-5.85v5.85h5.85v-5.85zM71.175 71.175h-5.85v5.85h5.85v-5.85zM77.025 71.175h-5.85v5.85h5.85v-5.85zM82.875 71.175h-5.85v5.85h5.85v-5.85zM88.725 71.175h-5.85v5.85h5.85v-5.85zM94.575 71.175h-5.85v5.85h5.85v-5.85zM117.975 71.175h-5.85v5.85h5.85v-5.85zM123.825 71.175h-5.85v5.85h5.85v-5.85zM135.525 71.175h-5.85v5.85h5.85v-5.85zM141.375 71.175h-5.85v5.85h5.85v-5.85zM158.925 71.175h-5.85v5.85h5.85v-5.85zM170.625 71.175h-5.85v5.85h5.85v-5.85zM176.475 71.175h-5.85v5.85h5.85v-5.85zM24.375 77.025h-5.85v5.85h5.85v-5.85zM47.775 77.025h-5.85v5.85h5.85v-5.85zM59.475 77.025h-5.85v5.85h5.85v-5.85zM71.175 77.025h-5.85v5.85h5.85v-5.85zM77.025 77.025h-5.85v5.85h5.85v-5.85zM106.275 77.025h-5.85v5.85h5.85v-5.85zM112.125 77.025h-5.85v5.85h5.85v-5.85zM147.225 77.025h-5.85v5.85h5.85v-5.85zM182.325 77.025h-5.85v5.85h5.85v-5.85zM18.525 82.875h-5.85v5.85h5.85v-5.85zM24.375 82.875h-5.85v5.85h5.85v-5.85zM41.925 82.875h-5.85v5.85h5.85v-5.85zM53.625 82.875h-5.85v5.85h5.85v-5.85zM59.475 82.875h-5.85v5.85h5.85v-5.85zM65.325 82.875h-5.85v5.85h5.85v-5.85zM71.175 82.875h-5.85v5.85h5.85v-5.85zM77.025 82.875h-5.85v5.85h5.85v-5.85zM88.725 82.875h-5.85v5.85h5.85v-5.85zM100.425 82.875h-5.85v5.85h5.85v-5.85zM112.125 82.875h-5.85v5.85h5.85v-5.85zM117.975 82.875h-5.85v5.85h5.85v-5.85zM123.825 82.875h-5.85v5.85h5.85v-5.85zM153.075 82.875h-5.85v5.85h5.85v-5.85zM164.775 82.875h-5.85v5.85h5.85v-5.85zM176.475 82.875h-5.85v5.85h5.85v-5.85zM36.075 88.725h-5.85v5.85h5.85v-5.85zM59.475 88.725h-5.85v5.85h5.85v-5.85zM65.325 88.725h-5.85v5.85h5.85v-5.85zM82.875 88.725h-5.85v5.85h5.85v-5.85zM88.725 88.725h-5.85v5.85h5.85v-5.85zM100.425 88.725h-5.85v5.85h5.85v-5.85zM106.275 88.725h-5.85v5.85h5.85v-5.85zM112.125 88.725h-5.85v5.85h5.85v-5.85zM117.975 88.725h-5.85v5.85h5.85v-5.85zM123.825 88.725h-5.85v5.85h5.85v-5.85zM141.375 88.725h-5.85v5.85h5.85v-5.85zM153.075 88.725h-5.85v5.85h5.85v-5.85zM164.775 88.725h-5.85v5.85h5.85v-5.85zM170.625 88.725h-5.85v5.85h5.85v-5.85zM176.475 88.725h-5.85v5.85h5.85v-5.85zM182.325 88.725h-5.85v5.85h5.85v-5.85zM18.525 94.575h-5.85v5.85h5.85v-5.85zM36.075 94.575h-5.85v5.85h5.85v-5.85zM53.625 94.575h-5.85v5.85h5.85v-5.85zM71.175 94.575h-5.85v5.85h5.85v-5.85zM77.025 94.575h-5.85v5.85h5.85v-5.85zM82.875 94.575h-5.85v5.85h5.85v-5.85zM94.575 94.575h-5.85v5.85h5.85v-5.85zM112.125 94.575h-5.85v5.85h5.85v-5.85zM123.825 94.575h-5.85v5.85h5.85v-5.85zM129.675 94.575h-5.85v5.85h5.85v-5.85zM147.225 94.575h-5.85v5.85h5.85v-5.85zM153.075 94.575h-5.85v5.85h5.85v-5.85zM158.925 94.575h-5.85v5.85h5.85v-5.85zM164.775 94.575h-5.85v5.85h5.85v-5.85zM170.625 94.575h-5.85v5.85h5.85v-5.85zM176.475 94.575h-5.85v5.85h5.85v-5.85zM182.325 94.575h-5.85v5.85h5.85v-5.85zM18.525 100.425h-5.85v5.85h5.85v-5.85zM30.225 100.425h-5.85v5.85h5.85v-5.85zM36.075 100.425h-5.85v5.85h5.85v-5.85zM47.775 100.425h-5.85v5.85h5.85v-5.85zM65.325 100.425h-5.85v5.85h5.85v-5.85zM71.175 100.425h-5.85v5.85h5.85v-5.85zM77.025 100.425h-5.85v5.85h5.85v-5.85zM82.875 100.425h-5.85v5.85h5.85v-5.85zM100.425 100.425h-5.85v5.85h5.85v-5.85zM106.275 100.425h-5.85v5.85h5.85v-5.85zM112.125 100.425h-5.85v5.85h5.85v-5.85zM123.825 100.425h-5.85v5.85h5.85v-5.85zM129.675 100.425h-5.85v5.85h5.85v-5.85zM135.525 100.425h-5.85v5.85h5.85v-5.85zM141.375 100.425h-5.85v5.85h5.85v-5.85zM153.075 100.425h-5.85v5.85h5.85v-5.85zM158.925 100.425h-5.85v5.85h5.85v-5.85zM176.475 100.425h-5.85v5.85h5.85v-5.85zM182.325 100.425h-5.85v5.85h5.85v-5.85zM30.225 106.275h-5.85v5.85h5.85v-5.85zM41.925 106.275h-5.85v5.85h5.85v-5.85zM47.775 106.275h-5.85v5.85h5.85v-5.85zM53.625 106.275h-5.85v5.85h5.85v-5.85zM65.325 106.275h-5.85v5.85h5.85v-5.85zM77.025 106.275h-5.85v5.85h5.85v-5.85zM88.725 106.275h-5.85v5.85h5.85v-5.85zM100.425 106.275h-5.85v5.85h5.85v-5.85zM112.125 106.275h-5.85v5.85h5.85v-5.85zM135.525 106.275h-5.85v5.85h5.85v-5.85zM141.375 106.275h-5.85v5.85h5.85v-5.85zM158.925 106.275h-5.85v5.85h5.85v-5.85zM164.775 106.275h-5.85v5.85h5.85v-5.85zM176.475 106.275h-5.85v5.85h5.85v-5.85zM30.225 112.125h-5.85v5.85h5.85v-5.85zM36.075 112.125h-5.85v5.85h5.85v-5.85zM47.775 112.125h-5.85v5.85h5.85v-5.85zM59.475 112.125h-5.85v5.85h5.85v-5.85zM65.325 112.125h-5.85v5.85h5.85v-5.85zM71.175 112.125h-5.85v5.85h5.85v-5.85zM100.425 112.125h-5.85v5.85h5.85v-5.85zM106.275 112.125h-5.85v5.85h5.85v-5.85zM123.825 112.125h-5.85v5.85h5.85v-5.85zM129.675 112.125h-5.85v5.85h5.85v-5.85zM135.525 112.125h-5.85v5.85h5.85v-5.85zM141.375 112.125h-5.85v5.85h5.85v-5.85zM147.225 112.125h-5.85v5.85h5.85v-5.85zM164.775 112.125h-5.85v5.85h5.85v-5.85zM176.475 112.125h-5.85v5.85h5.85v-5.85zM18.525 117.975h-5.85v5.85h5.85v-5.85zM36.075 117.975h-5.85v5.85h5.85v-5.85z" fill="#000"/><path d="M41.925 117.975h-5.85v5.85h5.85v-5.85zM47.775 117.975h-5.85v5.85h5.85v-5.85zM53.625 117.975h-5.85v5.85h5.85v-5.85zM59.475 117.975h-5.85v5.85h5.85v-5.85zM65.325 117.975h-5.85v5.85h5.85v-5.85zM77.025 117.975h-5.85v5.85h5.85v-5.85zM94.575 117.975h-5.85v5.85h5.85v-5.85zM100.425 117.975h-5.85v5.85h5.85v-5.85zM106.275 117.975h-5.85v5.85h5.85v-5.85zM117.975 117.975h-5.85v5.85h5.85v-5.85zM141.375 117.975h-5.85v5.85h5.85v-5.85zM153.075 117.975h-5.85v5.85h5.85v-5.85zM164.775 117.975h-5.85v5.85h5.85v-5.85zM176.475 117.975h-5.85v5.85h5.85v-5.85zM30.225 123.825h-5.85v5.85h5.85v-5.85zM47.775 123.825h-5.85v5.85h5.85v-5.85zM59.475 123.825h-5.85v5.85h5.85v-5.85zM65.325 123.825h-5.85v5.85h5.85v-5.85zM71.175 123.825h-5.85v5.85h5.85v-5.85zM82.875 123.825h-5.85v5.85h5.85v-5.85zM94.575 123.825h-5.85v5.85h5.85v-5.85zM100.425 123.825h-5.85v5.85h5.85v-5.85zM106.275 123.825h-5.85v5.85h5.85v-5.85zM117.975 123.825h-5.85v5.85h5.85v-5.85zM129.675 123.825h-5.85v5.85h5.85v-5.85zM164.775 123.825h-5.85v5.85h5.85v-5.85zM170.625 123.825h-5.85v5.85h5.85v-5.85zM176.475 123.825h-5.85v5.85h5.85v-5.85zM182.325 123.825h-5.85v5.85h5.85v-5.85zM24.375 129.675h-5.85v5.85h5.85v-5.85zM36.075 129.675h-5.85v5.85h5.85v-5.85z" fill="#000"/><path d="M41.925 129.675h-5.85v5.85h5.85v-5.85zM53.625 129.675h-5.85v5.85h5.85v-5.85zM77.025 129.675h-5.85v5.85h5.85v-5.85zM94.575 129.675h-5.85v5.85h5.85v-5.85zM100.425 129.675h-5.85v5.85h5.85v-5.85zM112.125 129.675h-5.85v5.85h5.85v-5.85zM123.825 129.675h-5.85v5.85h5.85v-5.85zM129.675 129.675h-5.85v5.85h5.85v-5.85zM135.525 129.675h-5.85v5.85h5.85v-5.85zM141.375 129.675h-5.85v5.85h5.85v-5.85zM147.225 129.675h-5.85v5.85h5.85v-5.85zM153.075 129.675h-5.85v5.85h5.85v-5.85zM158.925 129.675h-5.85v5.85h5.85v-5.85zM164.775 129.675h-5.85v5.85h5.85v-5.85zM182.325 129.675h-5.85v5.85h5.85v-5.85zM65.325 135.525h-5.85v5.85h5.85v-5.85zM71.175 135.525h-5.85v5.85h5.85v-5.85zM77.025 135.525h-5.85v5.85h5.85v-5.85zM112.125 135.525h-5.85v5.85h5.85v-5.85zM129.675 135.525h-5.85v5.85h5.85v-5.85zM135.525 135.525h-5.85v5.85h5.85v-5.85zM158.925 135.525h-5.85v5.85h5.85v-5.85zM182.325 135.525h-5.85v5.85h5.85v-5.85zM18.525 141.375h-5.85v5.85h5.85v-5.85zM24.375 141.375h-5.85v5.85h5.85v-5.85zM30.225 141.375h-5.85v5.85h5.85v-5.85zM36.075 141.375h-5.85v5.85h5.85v-5.85z" fill="#000"/><path d="M41.925 141.375h-5.85v5.85h5.85v-5.85zM47.775 141.375h-5.85v5.85h5.85v-5.85zM53.625 141.375h-5.85v5.85h5.85v-5.85zM71.175 141.375h-5.85v5.85h5.85v-5.85zM77.025 141.375h-5.85v5.85h5.85v-5.85zM100.425 141.375h-5.85v5.85h5.85v-5.85zM112.125 141.375h-5.85v5.85h5.85v-5.85zM117.975 141.375h-5.85v5.85h5.85v-5.85zM129.675 141.375h-5.85v5.85h5.85v-5.85zM135.525 141.375h-5.85v5.85h5.85v-5.85zM147.225 141.375h-5.85v5.85h5.85v-5.85zM158.925 141.375h-5.85v5.85h5.85v-5.85zM18.525 147.225h-5.85v5.85h5.85v-5.85zM53.625 147.225h-5.85v5.85h5.85v-5.85zM77.025 147.225h-5.85v5.85h5.85v-5.85zM82.875 147.225h-5.85v5.85h5.85v-5.85zM88.725 147.225h-5.85v5.85h5.85v-5.85zM94.575 147.225h-5.85v5.85h5.85v-5.85zM100.425 147.225h-5.85v5.85h5.85v-5.85zM129.675 147.225h-5.85v5.85h5.85v-5.85zM135.525 147.225h-5.85v5.85h5.85v-5.85zM158.925 147.225h-5.85v5.85h5.85v-5.85zM18.525 153.075h-5.85v5.85h5.85v-5.85zM30.225 153.075h-5.85v5.85h5.85v-5.85zM36.075 153.075h-5.85v5.85h5.85v-5.85z" fill="#000"/><path d="M41.925 153.075h-5.85v5.85h5.85v-5.85zM53.625 153.075h-5.85v5.85h5.85v-5.85zM71.175 153.075h-5.85v5.85h5.85v-5.85zM77.025 153.075h-5.85v5.85h5.85v-5.85zM82.875 153.075h-5.85v5.85h5.85v-5.85zM106.275 153.075h-5.85v5.85h5.85v-5.85zM112.125 153.075h-5.85v5.85h5.85v-5.85zM117.975 153.075h-5.85v5.85h5.85v-5.85zM135.525 153.075h-5.85v5.85h5.85v-5.85zM141.375 153.075h-5.85v5.85h5.85v-5.85zM147.225 153.075h-5.85v5.85h5.85v-5.85zM153.075 153.075h-5.85v5.85h5.85v-5.85zM158.925 153.075h-5.85v5.85h5.85v-5.85zM176.475 153.075h-5.85v5.85h5.85v-5.85zM18.525 158.925h-5.85v5.85h5.85v-5.85zM30.225 158.925h-5.85v5.85h5.85v-5.85zM36.075 158.925h-5.85v5.85h5.85v-5.85z" fill="#000"/><path d="M41.925 158.925h-5.85v5.85h5.85v-5.85zM53.625 158.925h-5.85v5.85h5.85v-5.85zM65.325 158.925h-5.85v5.85h5.85v-5.85zM77.025 158.925h-5.85v5.85h5.85v-5.85zM82.875 158.925h-5.85v5.85h5.85v-5.85zM94.575 158.925h-5.85v5.85h5.85v-5.85zM112.125 158.925h-5.85v5.85h5.85v-5.85zM141.375 158.925h-5.85v5.85h5.85v-5.85zM158.925 158.925h-5.85v5.85h5.85v-5.85zM182.325 158.925h-5.85v5.85h5.85v-5.85zM18.525 164.775h-5.85v5.85h5.85v-5.85zM30.225 164.775h-5.85v5.85h5.85v-5.85zM36.075 164.775h-5.85v5.85h5.85v-5.85z" fill="#000"/><path d="M41.925 164.775h-5.85v5.85h5.85v-5.85zM53.625 164.775h-5.85v5.85h5.85v-5.85zM65.325 164.775h-5.85v5.85h5.85v-5.85zM71.175 164.775h-5.85v5.85h5.85v-5.85zM88.725 164.775h-5.85v5.85h5.85v-5.85zM100.425 164.775h-5.85v5.85h5.85v-5.85zM117.975 164.775h-5.85v5.85h5.85v-5.85zM123.825 164.775h-5.85v5.85h5.85v-5.85zM129.675 164.775h-5.85v5.85h5.85v-5.85zM141.375 164.775h-5.85v5.85h5.85v-5.85zM147.225 164.775h-5.85v5.85h5.85v-5.85zM170.625 164.775h-5.85v5.85h5.85v-5.85zM182.325 164.775h-5.85v5.85h5.85v-5.85zM18.525 170.625h-5.85v5.85h5.85v-5.85zM53.625 170.625h-5.85v5.85h5.85v-5.85zM65.325 170.625h-5.85v5.85h5.85v-5.85zM88.725 170.625h-5.85v5.85h5.85v-5.85zM94.575 170.625h-5.85v5.85h5.85v-5.85zM106.275 170.625h-5.85v5.85h5.85v-5.85zM112.125 170.625h-5.85v5.85h5.85v-5.85zM129.675 170.625h-5.85v5.85h5.85v-5.85zM135.525 170.625h-5.85v5.85h5.85v-5.85zM141.375 170.625h-5.85v5.85h5.85v-5.85zM147.225 170.625h-5.85v5.85h5.85v-5.85zM158.925 170.625h-5.85v5.85h5.85v-5.85zM164.775 170.625h-5.85v5.85h5.85v-5.85zM176.475 170.625h-5.85v5.85h5.85v-5.85zM18.525 176.475h-5.85v5.85h5.85v-5.85zM24.375 176.475h-5.85v5.85h5.85v-5.85zM30.225 176.475h-5.85v5.85h5.85v-5.85zM36.075 176.475h-5.85v5.85h5.85v-5.85z" fill="#000"/><path d="M41.925 176.475h-5.85v5.85h5.85v-5.85zM47.775 176.475h-5.85v5.85h5.85v-5.85zM53.625 176.475h-5.85v5.85h5.85v-5.85zM65.325 176.475h-5.85v5.85h5.85v-5.85zM71.175 176.475h-5.85v5.85h5.85v-5.85zM82.875 176.475h-5.85v5.85h5.85v-5.85zM106.275 176.475h-5.85v5.85h5.85v-5.85zM117.975 176.475h-5.85v5.85h5.85v-5.85zM123.825 176.475h-5.85v5.85h5.85v-5.85zM135.525 176.475h-5.85v5.85h5.85v-5.85zM141.375 176.475h-5.85v5.85h5.85v-5.85zM153.075 176.475h-5.85v5.85h5.85v-5.85zM164.775 176.475h-5.85v5.85h5.85v-5.85zM176.475 176.475h-5.85v5.85h5.85v-5.85z" fill="#000"/></svg>