<svg width="16" height="20" viewBox="0 0 16 20" fill="none" xmlns="http://www.w3.org/2000/svg">
<path d="M8 0C7.31959 0 6.84536 0.484465 6.84536 1.17957V14.1864L6.93814 16.4718L4.25773 13.4176L1.91753 11.0374C1.71134 10.8268 1.42268 10.6898 1.09278 10.6898C0.463918 10.6898 0 11.1743 0 11.8378C0 12.1432 0.113402 12.4276 0.360825 12.6804L7.14433 19.6314C7.37113 19.8736 7.68041 20 8 20C8.30928 20 8.61856 19.8736 8.84536 19.6314L15.6392 12.6804C15.8866 12.4276 16 12.1432 16 11.8378C16 11.1743 15.5258 10.6898 14.8969 10.6898C14.5773 10.6898 14.2887 10.8268 14.0825 11.0374L11.732 13.4176L9.06186 16.4613L9.14433 14.1864V1.17957C9.14433 0.484465 8.6701 0 8 0Z" fill="#FE4A4A"/>
</svg>
