<svg width="24" height="24" fill="none" xmlns="http://www.w3.org/2000/svg"><path d="M11.994 24C18.571 24 24 18.569 24 12S18.56 0 11.983 0C5.417 0 0 5.431 0 12s5.429 12 11.994 12zm0-5.896c-.626 0-1.09-.44-1.09-1.067v-5.64l.116-2.484-1.079 1.346-1.334 1.404a1.015 1.015 0 0 1-.742.314c-.58 0-1.01-.418-1.01-.987 0-.29.093-.522.29-.73l3.99-4.04c.268-.29.534-.417.86-.417.347 0 .614.139.88.418l3.968 4.038a.973.973 0 0 1 .302.731c0 .569-.43.987-1.01.987a.972.972 0 0 1-.742-.314l-1.322-1.392-1.09-1.37.115 2.495v5.64c0 .627-.464 1.068-1.102 1.068z" fill="url(#a)"/><defs><linearGradient id="a" x1="0" y1="0" x2="24" y2="24" gradientUnits="userSpaceOnUse"><stop stop-color="#09ABFE"/><stop offset="1" stop-color="#3789F0"/></linearGradient></defs></svg>