<svg width="24" height="24" fill="none" xmlns="http://www.w3.org/2000/svg"><path d="M11.994 24C18.571 24 24 18.569 24 12S18.56 0 11.983 0C5.417 0 0 5.431 0 12s5.429 12 11.994 12zM6.391 7.857l2.993-2.913a.87.87 0 0 1 .592-.267c.487 0 .823.337.823.812a.788.788 0 0 1-.243.592L9.315 7.288l-.406.36.591-.012h7.517c.464 0 .823.36.823.836s-.36.824-.823.824H9.489l-.58-.023.406.383 1.24 1.195a.825.825 0 0 1 .244.592c0 .476-.336.812-.823.812a.946.946 0 0 1-.592-.243L6.391 9.087c-.336-.337-.336-.905 0-1.23zm11.183 8.31-2.993 2.935c-.174.151-.394.256-.603.256-.464 0-.812-.348-.812-.824a.81.81 0 0 1 .255-.58l1.241-1.219.406-.348-.615.011H6.948c-.464 0-.812-.36-.812-.835 0-.488.348-.836.812-.836h7.517l.603.024-.406-.372-1.264-1.207a.836.836 0 0 1-.232-.58c0-.476.336-.813.812-.813.22 0 .44.105.603.244l2.993 2.936a.838.838 0 0 1 0 1.207z" fill="url(#a)"/><defs><linearGradient id="a" x1="0" y1="0" x2="24" y2="24" gradientUnits="userSpaceOnUse"><stop stop-color="#09ABFE"/><stop offset="1" stop-color="#3888F0"/></linearGradient></defs></svg>