<svg width="14" height="14" viewBox="0 0 14 14" fill="none" xmlns="http://www.w3.org/2000/svg">
<path d="M5.36456 14C5.7833 14 6.10722 13.8227 6.33634 13.4761L13.763 1.67645C13.9289 1.41048 14 1.1848 14 0.967185C14 0.394934 13.605 0 13.0361 0C12.649 0 12.412 0.145078 12.1749 0.523892L5.32506 11.6062L1.80926 7.00403C1.57223 6.68969 1.32731 6.56074 0.979684 6.56074C0.410835 6.56074 0 6.97179 0 7.53598C0 7.78584 0.0869075 8.02763 0.292325 8.27749L4.38488 13.4842C4.6614 13.8388 4.95372 14 5.36456 14Z" fill="white"/>
</svg>
